<?xml version="1.0" encoding="UTF-8"?>
<!DOCTYPE svg PUBLIC "-//W3C//DTD SVG 1.1//EN" "http://www.w3.org/Graphics/SVG/1.1/DTD/svg11.dtd">
<svg xmlns="http://www.w3.org/2000/svg" version="1.1" width="650px" height="650px" style="shape-rendering:geometricPrecision; text-rendering:geometricPrecision; image-rendering:optimizeQuality; fill-rule:evenodd; clip-rule:evenodd" xmlns:xlink="http://www.w3.org/1999/xlink">
<g><path style="opacity:0.176" fill="#229bbe" d="M 250.5,95.5 C 250.5,96.8333 250.5,98.1667 250.5,99.5C 249.167,99.5 247.833,99.5 246.5,99.5C 246.5,98.1667 246.5,96.8333 246.5,95.5C 247.833,95.5 249.167,95.5 250.5,95.5 Z"/></g>
<g><path style="opacity:0.698" fill="#158283" d="M 250.5,95.5 C 251.833,95.5 253.167,95.5 254.5,95.5C 254.5,96.8333 254.5,98.1667 254.5,99.5C 253.167,99.5 251.833,99.5 250.5,99.5C 250.5,98.1667 250.5,96.8333 250.5,95.5 Z"/></g>
<g><path style="opacity:0.856" fill="#0a6d52" d="M 254.5,95.5 C 257.167,95.5 259.833,95.5 262.5,95.5C 262.5,96.8333 262.5,98.1667 262.5,99.5C 259.833,99.5 257.167,99.5 254.5,99.5C 254.5,98.1667 254.5,96.8333 254.5,95.5 Z"/></g>
<g><path style="opacity:0.856" fill="#198c9c" d="M 262.5,95.5 C 263.833,95.5 265.167,95.5 266.5,95.5C 266.5,96.8333 266.5,98.1667 266.5,99.5C 265.167,99.5 263.833,99.5 262.5,99.5C 262.5,98.1667 262.5,96.8333 262.5,95.5 Z"/></g>
<g><path style="opacity:1" fill="#178893" d="M 266.5,99.5 C 267.833,99.5 269.167,99.5 270.5,99.5C 270.5,100.833 270.5,102.167 270.5,103.5C 270.5,102.167 270.5,100.833 270.5,99.5C 269.167,99.5 267.833,99.5 266.5,99.5 Z"/></g>
<g><path style="opacity:1" fill="#016128" d="M 246.5,99.5 C 247.833,99.5 249.167,99.5 250.5,99.5C 251.833,99.5 253.167,99.5 254.5,99.5C 257.167,99.5 259.833,99.5 262.5,99.5C 263.833,99.5 265.167,99.5 266.5,99.5C 266.5,100.833 266.5,102.167 266.5,103.5C 267.833,103.5 269.167,103.5 270.5,103.5C 270.5,104.833 270.5,106.167 270.5,107.5C 270.5,108.833 270.5,110.167 270.5,111.5C 271.833,111.5 273.167,111.5 274.5,111.5C 274.5,113.833 274.5,116.167 274.5,118.5C 274.5,119.833 274.5,121.167 274.5,122.5C 275.5,122.5 276.5,122.5 277.5,122.5C 277.5,123.833 277.5,125.167 277.5,126.5C 276.167,126.5 274.833,126.5 273.5,126.5C 273.5,124.167 273.5,121.833 273.5,119.5C 272.5,119.5 271.5,119.5 270.5,119.5C 270.5,118.167 270.5,116.833 270.5,115.5C 267.833,115.167 265.167,114.833 262.5,114.5C 262.5,113.5 262.5,112.5 262.5,111.5C 260.139,111.326 257.806,110.993 255.5,110.5C 255.5,109.5 255.5,108.5 255.5,107.5C 251.452,107.605 247.452,107.272 243.5,106.5C 243.5,104.167 243.5,101.833 243.5,99.5C 244.5,99.5 245.5,99.5 246.5,99.5 Z"/></g>
<g><path style="opacity:1" fill="#2aa1db" d="M 266.5,95.5 C 292.167,95.5 317.833,95.5 343.5,95.5C 343.5,96.8333 343.5,98.1667 343.5,99.5C 344.833,99.5 346.167,99.5 347.5,99.5C 347.5,101.833 347.5,104.167 347.5,106.5C 346.432,107.434 345.099,107.768 343.5,107.5C 343.5,108.833 343.5,110.167 343.5,111.5C 342.167,111.5 340.833,111.5 339.5,111.5C 339.5,112.833 339.5,114.167 339.5,115.5C 335.833,115.5 332.167,115.5 328.5,115.5C 328.5,116.5 328.5,117.5 328.5,118.5C 324.466,118.505 320.466,118.838 316.5,119.5C 316.5,120.5 316.5,121.5 316.5,122.5C 314.143,122.337 311.81,122.503 309.5,123C 308.663,124.011 308.33,125.178 308.5,126.5C 305.5,126.167 304.167,127.5 304.5,130.5C 299.5,130.5 294.5,130.5 289.5,130.5C 289.5,131.833 289.5,133.167 289.5,134.5C 288.5,134.5 287.5,134.5 286.5,134.5C 286.5,136.833 286.5,139.167 286.5,141.5C 286.167,141.5 285.833,141.5 285.5,141.5C 285.5,140.167 285.5,138.833 285.5,137.5C 285.5,136.5 285.5,135.5 285.5,134.5C 284.5,134.5 283.5,134.5 282.5,134.5C 282.768,132.901 282.434,131.568 281.5,130.5C 281.5,129.167 281.5,127.833 281.5,126.5C 280.5,126.5 279.5,126.5 278.5,126.5C 278.5,123.833 278.5,121.167 278.5,118.5C 277.167,118.5 275.833,118.5 274.5,118.5C 274.5,116.167 274.5,113.833 274.5,111.5C 273.167,111.5 271.833,111.5 270.5,111.5C 270.5,110.167 270.5,108.833 270.5,107.5C 270.5,106.167 270.5,104.833 270.5,103.5C 269.167,103.5 267.833,103.5 266.5,103.5C 266.5,102.167 266.5,100.833 266.5,99.5C 266.5,98.1667 266.5,96.8333 266.5,95.5 Z"/></g>
<g><path style="opacity:0.941" fill="#2c99d5" d="M 347.5,106.5 C 348.833,106.5 350.167,106.5 351.5,106.5C 351.5,109.167 351.5,111.833 351.5,114.5C 352.833,114.5 354.167,114.5 355.5,114.5C 355.5,117.167 355.5,119.833 355.5,122.5C 355.5,123.833 355.5,125.167 355.5,126.5C 351.5,126.5 347.5,126.5 343.5,126.5C 343.5,127.833 343.5,129.167 343.5,130.5C 340.833,130.5 338.167,130.5 335.5,130.5C 335.5,131.5 335.5,132.5 335.5,133.5C 331.881,134.244 328.215,134.577 324.5,134.5C 324.67,135.822 324.337,136.989 323.5,138C 321.19,138.497 318.857,138.663 316.5,138.5C 316.5,139.5 316.5,140.5 316.5,141.5C 312.481,141.646 308.481,141.979 304.5,142.5C 304.5,143.5 304.5,144.5 304.5,145.5C 300.802,145.552 297.135,145.886 293.5,146.5C 293.5,145.167 293.5,143.833 293.5,142.5C 292.5,142.5 291.5,142.5 290.5,142.5C 290.5,144.833 290.5,147.167 290.5,149.5C 291.5,149.5 292.5,149.5 293.5,149.5C 293.5,150.833 293.5,152.167 293.5,153.5C 292.167,153.5 290.833,153.5 289.5,153.5C 289.5,152.167 289.5,150.833 289.5,149.5C 289.5,148.167 289.5,146.833 289.5,145.5C 289.5,144.167 289.5,142.833 289.5,141.5C 288.5,141.5 287.5,141.5 286.5,141.5C 286.5,139.167 286.5,136.833 286.5,134.5C 287.5,134.5 288.5,134.5 289.5,134.5C 289.5,133.167 289.5,131.833 289.5,130.5C 294.5,130.5 299.5,130.5 304.5,130.5C 304.167,127.5 305.5,126.167 308.5,126.5C 308.33,125.178 308.663,124.011 309.5,123C 311.81,122.503 314.143,122.337 316.5,122.5C 316.5,121.5 316.5,120.5 316.5,119.5C 320.466,118.838 324.466,118.505 328.5,118.5C 328.5,117.5 328.5,116.5 328.5,115.5C 332.167,115.5 335.833,115.5 339.5,115.5C 339.5,114.167 339.5,112.833 339.5,111.5C 340.833,111.5 342.167,111.5 343.5,111.5C 343.5,110.167 343.5,108.833 343.5,107.5C 345.099,107.768 346.432,107.434 347.5,106.5 Z"/></g>
<g><path style="opacity:1" fill="#18878e" d="M 270.5,107.5 C 271.833,107.5 273.167,107.5 274.5,107.5C 274.5,108.833 274.5,110.167 274.5,111.5C 274.5,110.167 274.5,108.833 274.5,107.5C 273.167,107.5 271.833,107.5 270.5,107.5 Z"/></g>
<g><path style="opacity:0.971" fill="#1b7228" d="M 235.5,122.5 C 239.466,123.162 243.466,123.495 247.5,123.5C 247.5,124.5 247.5,125.5 247.5,126.5C 252.5,126.5 257.5,126.5 262.5,126.5C 262.5,127.833 262.5,129.167 262.5,130.5C 265.167,130.5 267.833,130.5 270.5,130.5C 270.5,131.5 270.5,132.5 270.5,133.5C 274.119,134.244 277.785,134.577 281.5,134.5C 281.674,136.861 282.007,139.194 282.5,141.5C 283.5,141.5 284.5,141.5 285.5,141.5C 285.5,142.833 285.5,144.167 285.5,145.5C 284.167,145.5 282.833,145.5 281.5,145.5C 281.5,146.833 281.5,148.167 281.5,149.5C 280.167,149.5 278.833,149.5 277.5,149.5C 277.5,148.5 277.5,147.5 277.5,146.5C 275.194,146.007 272.861,145.674 270.5,145.5C 270.5,144.5 270.5,143.5 270.5,142.5C 268.143,142.663 265.81,142.497 263.5,142C 262.663,140.989 262.33,139.822 262.5,138.5C 258.818,138.665 255.152,138.499 251.5,138C 250.663,136.989 250.33,135.822 250.5,134.5C 248.167,134.5 245.833,134.5 243.5,134.5C 243.5,133.167 243.5,131.833 243.5,130.5C 239.466,130.495 235.466,130.162 231.5,129.5C 231.5,128.5 231.5,127.5 231.5,126.5C 232.833,126.5 234.167,126.5 235.5,126.5C 235.5,125.167 235.5,123.833 235.5,122.5 Z"/></g>
<g><path style="opacity:0.951" fill="#2d92d0" d="M 355.5,122.5 C 356.833,122.5 358.167,122.5 359.5,122.5C 359.5,126.167 359.5,129.833 359.5,133.5C 360.833,133.5 362.167,133.5 363.5,133.5C 363.5,134.833 363.5,136.167 363.5,137.5C 359.519,138.021 355.519,138.354 351.5,138.5C 351.5,139.5 351.5,140.5 351.5,141.5C 347.534,142.162 343.534,142.495 339.5,142.5C 339.5,143.833 339.5,145.167 339.5,146.5C 338.167,146.5 336.833,146.5 335.5,146.5C 335.5,147.5 335.5,148.5 335.5,149.5C 331.833,149.5 328.167,149.5 324.5,149.5C 324.5,150.833 324.5,152.167 324.5,153.5C 321.833,153.5 319.167,153.5 316.5,153.5C 316.5,154.833 316.5,156.167 316.5,157.5C 313.833,157.5 311.167,157.5 308.5,157.5C 308.5,158.5 308.5,159.5 308.5,160.5C 306.139,160.674 303.806,161.007 301.5,161.5C 301.5,162.5 301.5,163.5 301.5,164.5C 300.596,163.791 300.263,162.791 300.5,161.5C 299.5,161.5 298.5,161.5 297.5,161.5C 296.167,161.5 294.833,161.5 293.5,161.5C 293.5,160.167 293.5,158.833 293.5,157.5C 293.5,156.167 293.5,154.833 293.5,153.5C 293.5,152.167 293.5,150.833 293.5,149.5C 292.5,149.5 291.5,149.5 290.5,149.5C 290.5,147.167 290.5,144.833 290.5,142.5C 291.5,142.5 292.5,142.5 293.5,142.5C 293.5,143.833 293.5,145.167 293.5,146.5C 297.135,145.886 300.802,145.552 304.5,145.5C 304.5,144.5 304.5,143.5 304.5,142.5C 308.481,141.979 312.481,141.646 316.5,141.5C 316.5,140.5 316.5,139.5 316.5,138.5C 318.857,138.663 321.19,138.497 323.5,138C 324.337,136.989 324.67,135.822 324.5,134.5C 328.215,134.577 331.881,134.244 335.5,133.5C 335.5,132.5 335.5,131.5 335.5,130.5C 338.167,130.5 340.833,130.5 343.5,130.5C 343.5,129.167 343.5,127.833 343.5,126.5C 347.5,126.5 351.5,126.5 355.5,126.5C 355.5,125.167 355.5,123.833 355.5,122.5 Z"/></g>
<g><path style="opacity:1" fill="#167e71" d="M 274.5,118.5 C 275.833,118.5 277.167,118.5 278.5,118.5C 278.5,121.167 278.5,123.833 278.5,126.5C 278.167,126.5 277.833,126.5 277.5,126.5C 277.5,125.167 277.5,123.833 277.5,122.5C 276.5,122.5 275.5,122.5 274.5,122.5C 274.5,121.167 274.5,119.833 274.5,118.5 Z"/></g>
<g><path style="opacity:1" fill="#0b6a28" d="M 243.5,106.5 C 247.452,107.272 251.452,107.605 255.5,107.5C 255.5,108.5 255.5,109.5 255.5,110.5C 257.806,110.993 260.139,111.326 262.5,111.5C 262.5,112.5 262.5,113.5 262.5,114.5C 265.167,114.833 267.833,115.167 270.5,115.5C 270.5,116.833 270.5,118.167 270.5,119.5C 271.5,119.5 272.5,119.5 273.5,119.5C 273.5,121.833 273.5,124.167 273.5,126.5C 274.833,126.5 276.167,126.5 277.5,126.5C 277.833,126.5 278.167,126.5 278.5,126.5C 278.5,127.833 278.5,129.167 278.5,130.5C 279.5,130.5 280.5,130.5 281.5,130.5C 281.5,131.833 281.5,133.167 281.5,134.5C 277.785,134.577 274.119,134.244 270.5,133.5C 270.5,132.5 270.5,131.5 270.5,130.5C 267.833,130.5 265.167,130.5 262.5,130.5C 262.5,129.167 262.5,127.833 262.5,126.5C 257.5,126.5 252.5,126.5 247.5,126.5C 247.5,125.5 247.5,124.5 247.5,123.5C 243.466,123.495 239.466,123.162 235.5,122.5C 235.5,121.167 235.5,119.833 235.5,118.5C 236.833,118.5 238.167,118.5 239.5,118.5C 239.5,114.5 239.5,110.5 239.5,106.5C 240.833,106.5 242.167,106.5 243.5,106.5 Z"/></g>
<g><path style="opacity:1" fill="#1c817a" d="M 278.5,126.5 C 279.5,126.5 280.5,126.5 281.5,126.5C 281.5,127.833 281.5,129.167 281.5,130.5C 280.5,130.5 279.5,130.5 278.5,130.5C 278.5,129.167 278.5,127.833 278.5,126.5 Z"/></g>
<g><path style="opacity:0.977" fill="#267a2a" d="M 231.5,129.5 C 235.466,130.162 239.466,130.495 243.5,130.5C 243.5,131.833 243.5,133.167 243.5,134.5C 245.833,134.5 248.167,134.5 250.5,134.5C 250.33,135.822 250.663,136.989 251.5,138C 255.152,138.499 258.818,138.665 262.5,138.5C 262.33,139.822 262.663,140.989 263.5,142C 265.81,142.497 268.143,142.663 270.5,142.5C 270.5,143.5 270.5,144.5 270.5,145.5C 272.861,145.674 275.194,146.007 277.5,146.5C 277.5,147.5 277.5,148.5 277.5,149.5C 278.833,149.5 280.167,149.5 281.5,149.5C 281.5,148.167 281.5,146.833 281.5,145.5C 282.833,145.5 284.167,145.5 285.5,145.5C 285.5,146.833 285.5,148.167 285.5,149.5C 286.833,149.5 288.167,149.5 289.5,149.5C 289.5,150.833 289.5,152.167 289.5,153.5C 289.5,154.833 289.5,156.167 289.5,157.5C 290.833,157.5 292.167,157.5 293.5,157.5C 293.5,158.833 293.5,160.167 293.5,161.5C 288.13,161.608 282.797,161.275 277.5,160.5C 277.5,159.5 277.5,158.5 277.5,157.5C 275.167,157.5 272.833,157.5 270.5,157.5C 270.5,156.167 270.5,154.833 270.5,153.5C 266.818,153.665 263.152,153.499 259.5,153C 258.663,151.989 258.33,150.822 258.5,149.5C 256.167,149.5 253.833,149.5 251.5,149.5C 251.5,148.167 251.5,146.833 251.5,145.5C 248.833,145.5 246.167,145.5 243.5,145.5C 243.5,144.5 243.5,143.5 243.5,142.5C 240.833,142.167 238.167,141.833 235.5,141.5C 235.5,140.5 235.5,139.5 235.5,138.5C 232.833,138.167 230.167,137.833 227.5,137.5C 227.167,134.5 228.5,133.167 231.5,133.5C 231.5,132.167 231.5,130.833 231.5,129.5 Z"/></g>
<g><path style="opacity:1" fill="#258a94" d="M 282.5,134.5 C 283.5,134.5 284.5,134.5 285.5,134.5C 285.5,135.5 285.5,136.5 285.5,137.5C 284.5,137.5 283.5,137.5 282.5,137.5C 282.5,136.5 282.5,135.5 282.5,134.5 Z"/></g>
<g><path style="opacity:0.961" fill="#2f8ccb" d="M 363.5,137.5 C 363.5,138.833 363.5,140.167 363.5,141.5C 364.5,141.5 365.5,141.5 366.5,141.5C 366.5,144.167 366.5,146.833 366.5,149.5C 365.167,149.5 363.833,149.5 362.5,149.5C 362.5,150.833 362.5,152.167 362.5,153.5C 361.167,153.5 359.833,153.5 358.5,153.5C 358.5,154.833 358.5,156.167 358.5,157.5C 354.833,157.5 351.167,157.5 347.5,157.5C 347.67,158.822 347.337,159.989 346.5,161C 342.848,161.499 339.182,161.665 335.5,161.5C 335.5,162.5 335.5,163.5 335.5,164.5C 332.5,164.167 331.167,165.5 331.5,168.5C 327.802,168.552 324.135,168.886 320.5,169.5C 320.5,170.5 320.5,171.5 320.5,172.5C 316.818,172.335 313.152,172.501 309.5,173C 308.663,174.011 308.33,175.178 308.5,176.5C 305.833,176.5 303.167,176.5 300.5,176.5C 301.272,172.548 301.605,168.548 301.5,164.5C 301.5,163.5 301.5,162.5 301.5,161.5C 303.806,161.007 306.139,160.674 308.5,160.5C 308.5,159.5 308.5,158.5 308.5,157.5C 311.167,157.5 313.833,157.5 316.5,157.5C 316.5,156.167 316.5,154.833 316.5,153.5C 319.167,153.5 321.833,153.5 324.5,153.5C 324.5,152.167 324.5,150.833 324.5,149.5C 328.167,149.5 331.833,149.5 335.5,149.5C 335.5,148.5 335.5,147.5 335.5,146.5C 336.833,146.5 338.167,146.5 339.5,146.5C 339.5,145.167 339.5,143.833 339.5,142.5C 343.534,142.495 347.534,142.162 351.5,141.5C 351.5,140.5 351.5,139.5 351.5,138.5C 355.519,138.354 359.519,138.021 363.5,137.5 Z"/></g>
<g><path style="opacity:1" fill="#1f7c5c" d="M 281.5,130.5 C 282.434,131.568 282.768,132.901 282.5,134.5C 282.5,135.5 282.5,136.5 282.5,137.5C 283.5,137.5 284.5,137.5 285.5,137.5C 285.5,138.833 285.5,140.167 285.5,141.5C 284.5,141.5 283.5,141.5 282.5,141.5C 282.007,139.194 281.674,136.861 281.5,134.5C 281.5,133.167 281.5,131.833 281.5,130.5 Z"/></g>
<g><path style="opacity:1" fill="#2a8ea9" d="M 285.5,141.5 C 285.833,141.5 286.167,141.5 286.5,141.5C 287.5,141.5 288.5,141.5 289.5,141.5C 289.5,142.833 289.5,144.167 289.5,145.5C 288.167,145.5 286.833,145.5 285.5,145.5C 285.5,144.167 285.5,142.833 285.5,141.5 Z"/></g>
<g><path style="opacity:0.931" fill="#33822a" d="M 227.5,137.5 C 230.167,137.833 232.833,138.167 235.5,138.5C 235.5,139.5 235.5,140.5 235.5,141.5C 238.167,141.833 240.833,142.167 243.5,142.5C 243.5,143.5 243.5,144.5 243.5,145.5C 246.167,145.5 248.833,145.5 251.5,145.5C 251.5,146.833 251.5,148.167 251.5,149.5C 253.833,149.5 256.167,149.5 258.5,149.5C 258.33,150.822 258.663,151.989 259.5,153C 263.152,153.499 266.818,153.665 270.5,153.5C 270.5,154.833 270.5,156.167 270.5,157.5C 272.833,157.5 275.167,157.5 277.5,157.5C 277.5,158.5 277.5,159.5 277.5,160.5C 282.797,161.275 288.13,161.608 293.5,161.5C 293.5,162.833 293.5,164.167 293.5,165.5C 292.167,165.5 290.833,165.5 289.5,165.5C 289.5,170.5 289.5,175.5 289.5,180.5C 286.5,180.833 285.167,179.5 285.5,176.5C 283.167,176.5 280.833,176.5 278.5,176.5C 278.67,175.178 278.337,174.011 277.5,173C 275.19,172.503 272.857,172.337 270.5,172.5C 270.5,171.5 270.5,170.5 270.5,169.5C 266.865,168.886 263.198,168.552 259.5,168.5C 259.5,167.5 259.5,166.5 259.5,165.5C 256.833,165.167 254.167,164.833 251.5,164.5C 251.5,163.5 251.5,162.5 251.5,161.5C 248.833,161.167 246.167,160.833 243.5,160.5C 243.5,159.5 243.5,158.5 243.5,157.5C 241.143,157.663 238.81,157.497 236.5,157C 235.663,155.989 235.33,154.822 235.5,153.5C 231.298,153.817 227.298,153.483 223.5,152.5C 223.5,150.167 223.5,147.833 223.5,145.5C 224.833,145.5 226.167,145.5 227.5,145.5C 227.5,142.833 227.5,140.167 227.5,137.5 Z"/></g>
<g><path style="opacity:1" fill="#258069" d="M 285.5,145.5 C 286.833,145.5 288.167,145.5 289.5,145.5C 289.5,146.833 289.5,148.167 289.5,149.5C 288.167,149.5 286.833,149.5 285.5,149.5C 285.5,148.167 285.5,146.833 285.5,145.5 Z"/></g>
<g><path style="opacity:0.905" fill="#3186c7" d="M 366.5,149.5 C 366.5,150.5 366.5,151.5 366.5,152.5C 367.833,152.5 369.167,152.5 370.5,152.5C 370.5,155.167 370.5,157.833 370.5,160.5C 371.833,160.5 373.167,160.5 374.5,160.5C 374.5,161.833 374.5,163.167 374.5,164.5C 373.167,164.5 371.833,164.5 370.5,164.5C 370.5,165.833 370.5,167.167 370.5,168.5C 366.466,168.505 362.466,168.838 358.5,169.5C 358.5,170.5 358.5,171.5 358.5,172.5C 356.167,172.5 353.833,172.5 351.5,172.5C 351.5,173.833 351.5,175.167 351.5,176.5C 347.5,176.5 343.5,176.5 339.5,176.5C 339.5,177.833 339.5,179.167 339.5,180.5C 336.833,180.5 334.167,180.5 331.5,180.5C 331.5,181.833 331.5,183.167 331.5,184.5C 329.167,184.5 326.833,184.5 324.5,184.5C 324.5,185.5 324.5,186.5 324.5,187.5C 320.466,187.505 316.466,187.838 312.5,188.5C 312.5,189.5 312.5,190.5 312.5,191.5C 309.833,191.833 307.167,192.167 304.5,192.5C 304.5,191.167 304.5,189.833 304.5,188.5C 303.167,188.5 301.833,188.5 300.5,188.5C 300.5,185.833 300.5,183.167 300.5,180.5C 299.167,180.5 297.833,180.5 296.5,180.5C 296.5,178.167 296.5,175.833 296.5,173.5C 297.43,169.6 297.763,165.6 297.5,161.5C 298.5,161.5 299.5,161.5 300.5,161.5C 300.263,162.791 300.596,163.791 301.5,164.5C 301.605,168.548 301.272,172.548 300.5,176.5C 303.167,176.5 305.833,176.5 308.5,176.5C 308.33,175.178 308.663,174.011 309.5,173C 313.152,172.501 316.818,172.335 320.5,172.5C 320.5,171.5 320.5,170.5 320.5,169.5C 324.135,168.886 327.802,168.552 331.5,168.5C 331.167,165.5 332.5,164.167 335.5,164.5C 335.5,163.5 335.5,162.5 335.5,161.5C 339.182,161.665 342.848,161.499 346.5,161C 347.337,159.989 347.67,158.822 347.5,157.5C 351.167,157.5 354.833,157.5 358.5,157.5C 358.5,156.167 358.5,154.833 358.5,153.5C 359.833,153.5 361.167,153.5 362.5,153.5C 362.5,152.167 362.5,150.833 362.5,149.5C 363.833,149.5 365.167,149.5 366.5,149.5 Z"/></g>
<g><path style="opacity:0.965" fill="#3a8829" d="M 223.5,152.5 C 227.298,153.483 231.298,153.817 235.5,153.5C 235.33,154.822 235.663,155.989 236.5,157C 238.81,157.497 241.143,157.663 243.5,157.5C 243.5,158.5 243.5,159.5 243.5,160.5C 246.167,160.833 248.833,161.167 251.5,161.5C 251.5,162.5 251.5,163.5 251.5,164.5C 254.167,164.833 256.833,165.167 259.5,165.5C 259.5,166.5 259.5,167.5 259.5,168.5C 263.198,168.552 266.865,168.886 270.5,169.5C 270.5,170.5 270.5,171.5 270.5,172.5C 272.857,172.337 275.19,172.503 277.5,173C 278.337,174.011 278.67,175.178 278.5,176.5C 280.833,176.5 283.167,176.5 285.5,176.5C 285.167,179.5 286.5,180.833 289.5,180.5C 289.5,175.5 289.5,170.5 289.5,165.5C 290.833,165.5 292.167,165.5 293.5,165.5C 293.5,168.167 293.5,170.833 293.5,173.5C 293.5,177.167 293.5,180.833 293.5,184.5C 292.5,184.5 291.5,184.5 290.5,184.5C 290.5,185.833 290.5,187.167 290.5,188.5C 287.05,189.244 285.384,187.91 285.5,184.5C 281.802,184.448 278.135,184.114 274.5,183.5C 274.5,182.5 274.5,181.5 274.5,180.5C 271.833,180.5 269.167,180.5 266.5,180.5C 266.5,179.167 266.5,177.833 266.5,176.5C 263.833,176.5 261.167,176.5 258.5,176.5C 258.5,175.167 258.5,173.833 258.5,172.5C 254.833,172.5 251.167,172.5 247.5,172.5C 247.5,171.167 247.5,169.833 247.5,168.5C 246.167,168.5 244.833,168.5 243.5,168.5C 243.5,167.5 243.5,166.5 243.5,165.5C 239.785,165.577 236.119,165.244 232.5,164.5C 232.5,163.5 232.5,162.5 232.5,161.5C 229.794,161.425 227.127,161.092 224.5,160.5C 224.833,157.5 223.5,156.167 220.5,156.5C 220.5,155.167 220.5,153.833 220.5,152.5C 221.5,152.5 222.5,152.5 223.5,152.5 Z"/></g>
<g><path style="opacity:1" fill="#2a8580" d="M 289.5,153.5 C 290.833,153.5 292.167,153.5 293.5,153.5C 293.5,154.833 293.5,156.167 293.5,157.5C 292.167,157.5 290.833,157.5 289.5,157.5C 289.5,156.167 289.5,154.833 289.5,153.5 Z"/></g>
<g><path style="opacity:0.91" fill="#418e2a" d="M 220.5,156.5 C 223.5,156.167 224.833,157.5 224.5,160.5C 227.127,161.092 229.794,161.425 232.5,161.5C 232.5,162.5 232.5,163.5 232.5,164.5C 236.119,165.244 239.785,165.577 243.5,165.5C 243.5,166.5 243.5,167.5 243.5,168.5C 244.833,168.5 246.167,168.5 247.5,168.5C 247.5,169.833 247.5,171.167 247.5,172.5C 251.167,172.5 254.833,172.5 258.5,172.5C 258.5,173.833 258.5,175.167 258.5,176.5C 261.167,176.5 263.833,176.5 266.5,176.5C 266.5,177.833 266.5,179.167 266.5,180.5C 269.167,180.5 271.833,180.5 274.5,180.5C 274.5,181.5 274.5,182.5 274.5,183.5C 278.135,184.114 281.802,184.448 285.5,184.5C 285.384,187.91 287.05,189.244 290.5,188.5C 290.5,189.833 290.5,191.167 290.5,192.5C 289.167,192.5 287.833,192.5 286.5,192.5C 286.5,193.833 286.5,195.167 286.5,196.5C 283.833,196.167 281.167,195.833 278.5,195.5C 278.67,194.178 278.337,193.011 277.5,192C 275.19,191.503 272.857,191.337 270.5,191.5C 270.5,190.5 270.5,189.5 270.5,188.5C 267.833,188.167 265.167,187.833 262.5,187.5C 262.5,186.5 262.5,185.5 262.5,184.5C 258.802,184.448 255.135,184.114 251.5,183.5C 251.5,182.5 251.5,181.5 251.5,180.5C 250.167,180.5 248.833,180.5 247.5,180.5C 247.5,179.167 247.5,177.833 247.5,176.5C 243.5,176.5 239.5,176.5 235.5,176.5C 235.5,175.167 235.5,173.833 235.5,172.5C 233.167,172.5 230.833,172.5 228.5,172.5C 228.5,171.5 228.5,170.5 228.5,169.5C 225.833,169.167 223.167,168.833 220.5,168.5C 220.5,167.167 220.5,165.833 220.5,164.5C 220.5,161.833 220.5,159.167 220.5,156.5 Z"/></g>
<g><path style="opacity:0.943" fill="#47942b" d="M 220.5,164.5 C 220.5,165.833 220.5,167.167 220.5,168.5C 223.167,168.833 225.833,169.167 228.5,169.5C 228.5,170.5 228.5,171.5 228.5,172.5C 230.833,172.5 233.167,172.5 235.5,172.5C 235.5,173.833 235.5,175.167 235.5,176.5C 239.5,176.5 243.5,176.5 247.5,176.5C 247.5,177.833 247.5,179.167 247.5,180.5C 248.833,180.5 250.167,180.5 251.5,180.5C 251.5,181.5 251.5,182.5 251.5,183.5C 255.135,184.114 258.802,184.448 262.5,184.5C 262.5,185.5 262.5,186.5 262.5,187.5C 265.167,187.833 267.833,188.167 270.5,188.5C 270.5,189.5 270.5,190.5 270.5,191.5C 272.857,191.337 275.19,191.503 277.5,192C 278.337,193.011 278.67,194.178 278.5,195.5C 281.167,195.833 283.833,196.167 286.5,196.5C 286.007,198.806 285.674,201.139 285.5,203.5C 284.5,203.5 283.5,203.5 282.5,203.5C 281.167,203.5 279.833,203.5 278.5,203.5C 278.5,202.167 278.5,200.833 278.5,199.5C 274.5,199.5 270.5,199.5 266.5,199.5C 266.5,198.167 266.5,196.833 266.5,195.5C 265.167,195.5 263.833,195.5 262.5,195.5C 262.5,194.5 262.5,193.5 262.5,192.5C 258.802,192.448 255.135,192.114 251.5,191.5C 251.5,190.5 251.5,189.5 251.5,188.5C 247.534,187.838 243.534,187.505 239.5,187.5C 239.5,186.5 239.5,185.5 239.5,184.5C 236.5,184.833 235.167,183.5 235.5,180.5C 231.833,180.5 228.167,180.5 224.5,180.5C 224.5,179.167 224.5,177.833 224.5,176.5C 220.5,176.5 216.5,176.5 212.5,176.5C 212.5,175.167 212.5,173.833 212.5,172.5C 213.833,172.5 215.167,172.5 216.5,172.5C 216.5,169.833 216.5,167.167 216.5,164.5C 217.833,164.5 219.167,164.5 220.5,164.5 Z"/></g>
<g><path style="opacity:0.138" fill="#308782" d="M 293.5,161.5 C 294.833,161.5 296.167,161.5 297.5,161.5C 297.763,165.6 297.43,169.6 296.5,173.5C 295.5,173.5 294.5,173.5 293.5,173.5C 293.5,170.833 293.5,168.167 293.5,165.5C 293.5,164.167 293.5,162.833 293.5,161.5 Z"/></g>
<g><path style="opacity:0.915" fill="#4d992b" d="M 212.5,176.5 C 216.5,176.5 220.5,176.5 224.5,176.5C 224.5,177.833 224.5,179.167 224.5,180.5C 228.167,180.5 231.833,180.5 235.5,180.5C 235.167,183.5 236.5,184.833 239.5,184.5C 239.5,185.5 239.5,186.5 239.5,187.5C 243.534,187.505 247.534,187.838 251.5,188.5C 251.5,189.5 251.5,190.5 251.5,191.5C 255.135,192.114 258.802,192.448 262.5,192.5C 262.5,193.5 262.5,194.5 262.5,195.5C 263.833,195.5 265.167,195.5 266.5,195.5C 266.5,196.833 266.5,198.167 266.5,199.5C 270.5,199.5 274.5,199.5 278.5,199.5C 278.5,200.833 278.5,202.167 278.5,203.5C 279.833,203.5 281.167,203.5 282.5,203.5C 282.5,206.167 282.5,208.833 282.5,211.5C 281.167,211.5 279.833,211.5 278.5,211.5C 274.534,210.838 270.534,210.505 266.5,210.5C 266.5,209.167 266.5,207.833 266.5,206.5C 265.167,206.5 263.833,206.5 262.5,206.5C 262.5,205.5 262.5,204.5 262.5,203.5C 258.833,203.5 255.167,203.5 251.5,203.5C 251.5,202.167 251.5,200.833 251.5,199.5C 248.833,199.5 246.167,199.5 243.5,199.5C 243.5,198.167 243.5,196.833 243.5,195.5C 240.833,195.5 238.167,195.5 235.5,195.5C 235.5,194.5 235.5,193.5 235.5,192.5C 231.881,191.756 228.215,191.423 224.5,191.5C 224.5,190.5 224.5,189.5 224.5,188.5C 223.167,188.5 221.833,188.5 220.5,188.5C 220.5,187.167 220.5,185.833 220.5,184.5C 216.466,184.495 212.466,184.162 208.5,183.5C 208.167,180.5 209.5,179.167 212.5,179.5C 212.5,178.5 212.5,177.5 212.5,176.5 Z"/></g>
<g><path style="opacity:0.935" fill="#347fc1" d="M 374.5,164.5 C 374.5,165.833 374.5,167.167 374.5,168.5C 375.833,168.5 377.167,168.5 378.5,168.5C 378.5,172.167 378.5,175.833 378.5,179.5C 379.833,179.5 381.167,179.5 382.5,179.5C 382.5,180.833 382.5,182.167 382.5,183.5C 381.167,183.5 379.833,183.5 378.5,183.5C 378.5,184.833 378.5,186.167 378.5,187.5C 375.833,187.5 373.167,187.5 370.5,187.5C 370.5,188.833 370.5,190.167 370.5,191.5C 365.13,191.392 359.797,191.725 354.5,192.5C 354.5,193.5 354.5,194.5 354.5,195.5C 350.833,195.5 347.167,195.5 343.5,195.5C 343.5,196.833 343.5,198.167 343.5,199.5C 342.167,199.5 340.833,199.5 339.5,199.5C 339.5,200.833 339.5,202.167 339.5,203.5C 335.833,203.5 332.167,203.5 328.5,203.5C 328.5,204.5 328.5,205.5 328.5,206.5C 324.534,207.162 320.534,207.495 316.5,207.5C 316.5,208.833 316.5,210.167 316.5,211.5C 315.167,211.5 313.833,211.5 312.5,211.5C 312.5,210.167 312.5,208.833 312.5,207.5C 311.167,207.5 309.833,207.5 308.5,207.5C 308.5,204.833 308.5,202.167 308.5,199.5C 307.167,199.5 305.833,199.5 304.5,199.5C 304.5,197.167 304.5,194.833 304.5,192.5C 307.167,192.167 309.833,191.833 312.5,191.5C 312.5,190.5 312.5,189.5 312.5,188.5C 316.466,187.838 320.466,187.505 324.5,187.5C 324.5,186.5 324.5,185.5 324.5,184.5C 326.833,184.5 329.167,184.5 331.5,184.5C 331.5,183.167 331.5,181.833 331.5,180.5C 334.167,180.5 336.833,180.5 339.5,180.5C 339.5,179.167 339.5,177.833 339.5,176.5C 343.5,176.5 347.5,176.5 351.5,176.5C 351.5,175.167 351.5,173.833 351.5,172.5C 353.833,172.5 356.167,172.5 358.5,172.5C 358.5,171.5 358.5,170.5 358.5,169.5C 362.466,168.838 366.466,168.505 370.5,168.5C 370.5,167.167 370.5,165.833 370.5,164.5C 371.833,164.5 373.167,164.5 374.5,164.5 Z"/></g>
<g><path style="opacity:0.938" fill="#549f2a" d="M 208.5,183.5 C 212.466,184.162 216.466,184.495 220.5,184.5C 220.5,185.833 220.5,187.167 220.5,188.5C 221.833,188.5 223.167,188.5 224.5,188.5C 224.5,189.5 224.5,190.5 224.5,191.5C 228.215,191.423 231.881,191.756 235.5,192.5C 235.5,193.5 235.5,194.5 235.5,195.5C 238.167,195.5 240.833,195.5 243.5,195.5C 243.5,196.833 243.5,198.167 243.5,199.5C 246.167,199.5 248.833,199.5 251.5,199.5C 251.5,200.833 251.5,202.167 251.5,203.5C 255.167,203.5 258.833,203.5 262.5,203.5C 262.5,204.5 262.5,205.5 262.5,206.5C 263.833,206.5 265.167,206.5 266.5,206.5C 266.5,207.833 266.5,209.167 266.5,210.5C 270.534,210.505 274.534,210.838 278.5,211.5C 278.5,214.167 278.5,216.833 278.5,219.5C 277.167,219.5 275.833,219.5 274.5,219.5C 274.5,220.5 274.5,221.5 274.5,222.5C 270.5,222.5 266.5,222.5 262.5,222.5C 262.5,221.167 262.5,219.833 262.5,218.5C 261.167,218.5 259.833,218.5 258.5,218.5C 258.5,217.5 258.5,216.5 258.5,215.5C 254.881,214.756 251.215,214.423 247.5,214.5C 247.5,213.5 247.5,212.5 247.5,211.5C 244.833,211.167 242.167,210.833 239.5,210.5C 239.5,209.5 239.5,208.5 239.5,207.5C 237.139,207.326 234.806,206.993 232.5,206.5C 232.5,205.5 232.5,204.5 232.5,203.5C 229.833,203.5 227.167,203.5 224.5,203.5C 224.5,202.167 224.5,200.833 224.5,199.5C 221.833,199.5 219.167,199.5 216.5,199.5C 216.5,198.167 216.5,196.833 216.5,195.5C 213.833,195.5 211.167,195.5 208.5,195.5C 208.5,194.167 208.5,192.833 208.5,191.5C 208.5,188.833 208.5,186.167 208.5,183.5 Z"/></g>
<g><path style="opacity:0.907" fill="#3679bc" d="M 382.5,183.5 C 382.5,184.833 382.5,186.167 382.5,187.5C 383.833,187.5 385.167,187.5 386.5,187.5C 386.5,190.167 386.5,192.833 386.5,195.5C 383.813,195.336 381.146,195.503 378.5,196C 377.565,198.381 377.232,200.881 377.5,203.5C 375.167,203.5 372.833,203.5 370.5,203.5C 370.5,204.5 370.5,205.5 370.5,206.5C 367.833,206.833 365.167,207.167 362.5,207.5C 362.5,208.833 362.5,210.167 362.5,211.5C 354.833,211.5 347.167,211.5 339.5,211.5C 339.5,213.833 339.5,216.167 339.5,218.5C 337.143,218.337 334.81,218.503 332.5,219C 331.663,220.011 331.33,221.178 331.5,222.5C 327.833,222.5 324.167,222.5 320.5,222.5C 320.768,224.099 320.434,225.432 319.5,226.5C 318.5,226.5 317.5,226.5 316.5,226.5C 316.5,224.167 316.5,221.833 316.5,219.5C 315.167,219.5 313.833,219.5 312.5,219.5C 312.5,216.833 312.5,214.167 312.5,211.5C 313.833,211.5 315.167,211.5 316.5,211.5C 316.5,210.167 316.5,208.833 316.5,207.5C 320.534,207.495 324.534,207.162 328.5,206.5C 328.5,205.5 328.5,204.5 328.5,203.5C 332.167,203.5 335.833,203.5 339.5,203.5C 339.5,202.167 339.5,200.833 339.5,199.5C 340.833,199.5 342.167,199.5 343.5,199.5C 343.5,198.167 343.5,196.833 343.5,195.5C 347.167,195.5 350.833,195.5 354.5,195.5C 354.5,194.5 354.5,193.5 354.5,192.5C 359.797,191.725 365.13,191.392 370.5,191.5C 370.5,190.167 370.5,188.833 370.5,187.5C 373.167,187.5 375.833,187.5 378.5,187.5C 378.5,186.167 378.5,184.833 378.5,183.5C 379.833,183.5 381.167,183.5 382.5,183.5 Z"/></g>
<g><path style="opacity:0.908" fill="#5aa52a" d="M 208.5,191.5 C 208.5,192.833 208.5,194.167 208.5,195.5C 211.167,195.5 213.833,195.5 216.5,195.5C 216.5,196.833 216.5,198.167 216.5,199.5C 219.167,199.5 221.833,199.5 224.5,199.5C 224.5,200.833 224.5,202.167 224.5,203.5C 227.167,203.5 229.833,203.5 232.5,203.5C 232.5,204.5 232.5,205.5 232.5,206.5C 234.806,206.993 237.139,207.326 239.5,207.5C 239.5,208.5 239.5,209.5 239.5,210.5C 242.167,210.833 244.833,211.167 247.5,211.5C 247.5,212.5 247.5,213.5 247.5,214.5C 251.215,214.423 254.881,214.756 258.5,215.5C 258.5,216.5 258.5,217.5 258.5,218.5C 259.833,218.5 261.167,218.5 262.5,218.5C 262.5,219.833 262.5,221.167 262.5,222.5C 266.5,222.5 270.5,222.5 274.5,222.5C 274.5,225.167 274.5,227.833 274.5,230.5C 273.167,230.5 271.833,230.5 270.5,230.5C 270.5,231.833 270.5,233.167 270.5,234.5C 267.833,234.167 265.167,233.833 262.5,233.5C 262.5,232.5 262.5,231.5 262.5,230.5C 258.785,230.577 255.119,230.244 251.5,229.5C 251.5,228.5 251.5,227.5 251.5,226.5C 250.167,226.5 248.833,226.5 247.5,226.5C 247.5,225.167 247.5,223.833 247.5,222.5C 243.5,222.5 239.5,222.5 235.5,222.5C 235.5,221.167 235.5,219.833 235.5,218.5C 233.167,218.5 230.833,218.5 228.5,218.5C 228.5,217.5 228.5,216.5 228.5,215.5C 224.466,215.495 220.466,215.162 216.5,214.5C 216.5,213.5 216.5,212.5 216.5,211.5C 213.833,211.167 211.167,210.833 208.5,210.5C 208.5,209.5 208.5,208.5 208.5,207.5C 205.833,207.167 203.167,206.833 200.5,206.5C 200.5,204.167 200.5,201.833 200.5,199.5C 201.833,199.5 203.167,199.5 204.5,199.5C 204.5,196.833 204.5,194.167 204.5,191.5C 205.833,191.5 207.167,191.5 208.5,191.5 Z"/></g>
<g><path style="opacity:0.91" fill="#3773b8" d="M 386.5,195.5 C 387.5,195.5 388.5,195.5 389.5,195.5C 389.5,199.167 389.5,202.833 389.5,206.5C 390.833,206.5 392.167,206.5 393.5,206.5C 393.5,209.167 393.5,211.833 393.5,214.5C 390.833,214.5 388.167,214.5 385.5,214.5C 385.5,215.833 385.5,217.167 385.5,218.5C 381.833,218.5 378.167,218.5 374.5,218.5C 374.5,219.833 374.5,221.167 374.5,222.5C 370.5,222.5 366.5,222.5 362.5,222.5C 362.5,223.833 362.5,225.167 362.5,226.5C 359.833,226.5 357.167,226.5 354.5,226.5C 354.5,227.833 354.5,229.167 354.5,230.5C 350.833,230.5 347.167,230.5 343.5,230.5C 343.5,231.833 343.5,233.167 343.5,234.5C 342.167,234.5 340.833,234.5 339.5,234.5C 339.5,235.5 339.5,236.5 339.5,237.5C 335.818,237.335 332.152,237.501 328.5,238C 327.62,239.356 327.286,240.856 327.5,242.5C 326.167,242.5 324.833,242.5 323.5,242.5C 323.5,239.833 323.5,237.167 323.5,234.5C 322.167,234.5 320.833,234.5 319.5,234.5C 319.5,231.833 319.5,229.167 319.5,226.5C 320.434,225.432 320.768,224.099 320.5,222.5C 324.167,222.5 327.833,222.5 331.5,222.5C 331.33,221.178 331.663,220.011 332.5,219C 334.81,218.503 337.143,218.337 339.5,218.5C 339.5,216.167 339.5,213.833 339.5,211.5C 347.167,211.5 354.833,211.5 362.5,211.5C 362.5,210.167 362.5,208.833 362.5,207.5C 365.167,207.167 367.833,206.833 370.5,206.5C 370.5,205.5 370.5,204.5 370.5,203.5C 372.833,203.5 375.167,203.5 377.5,203.5C 377.232,200.881 377.565,198.381 378.5,196C 381.146,195.503 383.813,195.336 386.5,195.5 Z"/></g>
<g><path style="opacity:0.904" fill="#61ab28" d="M 200.5,206.5 C 203.167,206.833 205.833,207.167 208.5,207.5C 208.5,208.5 208.5,209.5 208.5,210.5C 211.167,210.833 213.833,211.167 216.5,211.5C 216.5,212.5 216.5,213.5 216.5,214.5C 220.466,215.162 224.466,215.495 228.5,215.5C 228.5,216.5 228.5,217.5 228.5,218.5C 230.833,218.5 233.167,218.5 235.5,218.5C 235.5,219.833 235.5,221.167 235.5,222.5C 239.5,222.5 243.5,222.5 247.5,222.5C 247.5,223.833 247.5,225.167 247.5,226.5C 248.833,226.5 250.167,226.5 251.5,226.5C 251.5,227.5 251.5,228.5 251.5,229.5C 255.119,230.244 258.785,230.577 262.5,230.5C 262.5,231.5 262.5,232.5 262.5,233.5C 265.167,233.833 267.833,234.167 270.5,234.5C 270.5,235.833 270.5,237.167 270.5,238.5C 269.5,238.5 268.5,238.5 267.5,238.5C 267.663,240.857 267.497,243.19 267,245.5C 265.989,246.337 264.822,246.67 263.5,246.5C 263.5,247.5 263.5,248.5 263.5,249.5C 260.05,250.244 258.384,248.91 258.5,245.5C 255.833,245.5 253.167,245.5 250.5,245.5C 250.5,244.5 250.5,243.5 250.5,242.5C 246.881,241.756 243.215,241.423 239.5,241.5C 239.5,240.167 239.5,238.833 239.5,237.5C 237.167,237.5 234.833,237.5 232.5,237.5C 232.5,236.5 232.5,235.5 232.5,234.5C 228.5,234.5 224.5,234.5 220.5,234.5C 220.5,233.167 220.5,231.833 220.5,230.5C 219.167,230.5 217.833,230.5 216.5,230.5C 216.5,229.167 216.5,227.833 216.5,226.5C 212.833,226.5 209.167,226.5 205.5,226.5C 205.5,225.167 205.5,223.833 205.5,222.5C 202.833,222.5 200.167,222.5 197.5,222.5C 197.768,220.901 197.434,219.568 196.5,218.5C 196.423,214.785 196.756,211.119 197.5,207.5C 198.791,207.737 199.791,207.404 200.5,206.5 Z"/></g>
<g><path style="opacity:0.943" fill="#386db3" d="M 393.5,214.5 C 394.833,214.5 396.167,214.5 397.5,214.5C 397.5,218.167 397.5,221.833 397.5,225.5C 398.833,225.5 400.167,225.5 401.5,225.5C 401.5,226.833 401.5,228.167 401.5,229.5C 398.833,229.833 396.167,230.167 393.5,230.5C 393.833,233.5 392.5,234.833 389.5,234.5C 389.5,235.5 389.5,236.5 389.5,237.5C 385.481,237.646 381.481,237.979 377.5,238.5C 377.5,239.5 377.5,240.5 377.5,241.5C 375.167,241.5 372.833,241.5 370.5,241.5C 370.5,242.833 370.5,244.167 370.5,245.5C 366.5,245.5 362.5,245.5 358.5,245.5C 358.5,246.833 358.5,248.167 358.5,249.5C 354.833,249.5 351.167,249.5 347.5,249.5C 347.67,250.822 347.337,251.989 346.5,253C 344.19,253.497 341.857,253.663 339.5,253.5C 339.5,254.5 339.5,255.5 339.5,256.5C 336.833,256.833 334.167,257.167 331.5,257.5C 331.5,256.167 331.5,254.833 331.5,253.5C 330.167,253.5 328.833,253.5 327.5,253.5C 327.5,251.167 327.5,248.833 327.5,246.5C 324.5,246.833 323.167,245.5 323.5,242.5C 324.833,242.5 326.167,242.5 327.5,242.5C 327.286,240.856 327.62,239.356 328.5,238C 332.152,237.501 335.818,237.335 339.5,237.5C 339.5,236.5 339.5,235.5 339.5,234.5C 340.833,234.5 342.167,234.5 343.5,234.5C 343.5,233.167 343.5,231.833 343.5,230.5C 347.167,230.5 350.833,230.5 354.5,230.5C 354.5,229.167 354.5,227.833 354.5,226.5C 357.167,226.5 359.833,226.5 362.5,226.5C 362.5,225.167 362.5,223.833 362.5,222.5C 366.5,222.5 370.5,222.5 374.5,222.5C 374.5,221.167 374.5,219.833 374.5,218.5C 378.167,218.5 381.833,218.5 385.5,218.5C 385.5,217.167 385.5,215.833 385.5,214.5C 388.167,214.5 390.833,214.5 393.5,214.5 Z"/></g>
<g><path style="opacity:0.923" fill="#6ab227" d="M 196.5,218.5 C 197.434,219.568 197.768,220.901 197.5,222.5C 200.167,222.5 202.833,222.5 205.5,222.5C 205.5,223.833 205.5,225.167 205.5,226.5C 209.167,226.5 212.833,226.5 216.5,226.5C 216.5,227.833 216.5,229.167 216.5,230.5C 217.833,230.5 219.167,230.5 220.5,230.5C 220.5,231.833 220.5,233.167 220.5,234.5C 224.5,234.5 228.5,234.5 232.5,234.5C 232.5,235.5 232.5,236.5 232.5,237.5C 234.833,237.5 237.167,237.5 239.5,237.5C 239.5,238.833 239.5,240.167 239.5,241.5C 243.215,241.423 246.881,241.756 250.5,242.5C 250.5,243.5 250.5,244.5 250.5,245.5C 253.167,245.5 255.833,245.5 258.5,245.5C 258.384,248.91 260.05,250.244 263.5,249.5C 263.5,252.167 263.5,254.833 263.5,257.5C 262.167,257.5 260.833,257.5 259.5,257.5C 259.5,260.167 259.5,262.833 259.5,265.5C 258.167,265.5 256.833,265.5 255.5,265.5C 255.5,267.833 255.5,270.167 255.5,272.5C 254.167,272.5 252.833,272.5 251.5,272.5C 251.5,271.167 251.5,269.833 251.5,268.5C 250.167,268.5 248.833,268.5 247.5,268.5C 247.5,267.5 247.5,266.5 247.5,265.5C 244.833,265.167 242.167,264.833 239.5,264.5C 239.5,263.167 239.5,261.833 239.5,260.5C 236.5,260.167 235.167,261.5 235.5,264.5C 234.5,264.5 233.5,264.5 232.5,264.5C 232.833,261.5 231.5,260.167 228.5,260.5C 228.5,259.5 228.5,258.5 228.5,257.5C 225.833,257.5 223.167,257.5 220.5,257.5C 220.5,256.167 220.5,254.833 220.5,253.5C 217.833,253.5 215.167,253.5 212.5,253.5C 212.5,252.167 212.5,250.833 212.5,249.5C 208.833,249.5 205.167,249.5 201.5,249.5C 201.5,248.167 201.5,246.833 201.5,245.5C 197.5,245.5 193.5,245.5 189.5,245.5C 189.5,244.167 189.5,242.833 189.5,241.5C 188.167,241.5 186.833,241.5 185.5,241.5C 185.5,240.167 185.5,238.833 185.5,237.5C 186.833,237.5 188.167,237.5 189.5,237.5C 189.5,233.833 189.5,230.167 189.5,226.5C 190.833,226.5 192.167,226.5 193.5,226.5C 193.5,223.833 193.5,221.167 193.5,218.5C 194.5,218.5 195.5,218.5 196.5,218.5 Z"/></g>
<g><path style="opacity:0.948" fill="#3966ae" d="M 401.5,229.5 C 401.5,230.833 401.5,232.167 401.5,233.5C 402.833,233.5 404.167,233.5 405.5,233.5C 405.5,236.167 405.5,238.833 405.5,241.5C 406.822,241.33 407.989,241.663 409,242.5C 409.497,244.81 409.663,247.143 409.5,249.5C 407.833,249.5 406.167,249.5 404.5,249.5C 404.5,250.833 404.5,252.167 404.5,253.5C 400.833,253.5 397.167,253.5 393.5,253.5C 393.67,254.822 393.337,255.989 392.5,257C 390.19,257.497 387.857,257.663 385.5,257.5C 385.5,258.5 385.5,259.5 385.5,260.5C 383.143,260.337 380.81,260.503 378.5,261C 377.663,262.011 377.33,263.178 377.5,264.5C 373.833,264.5 370.167,264.5 366.5,264.5C 366.5,265.833 366.5,267.167 366.5,268.5C 362.818,268.335 359.152,268.501 355.5,269C 354.663,270.011 354.33,271.178 354.5,272.5C 350.833,272.5 347.167,272.5 343.5,272.5C 343.5,273.833 343.5,275.167 343.5,276.5C 342.167,276.5 340.833,276.5 339.5,276.5C 339.5,275.167 339.5,273.833 339.5,272.5C 338.167,272.5 336.833,272.5 335.5,272.5C 335.5,268.833 335.5,265.167 335.5,261.5C 334.167,261.5 332.833,261.5 331.5,261.5C 331.5,260.167 331.5,258.833 331.5,257.5C 334.167,257.167 336.833,256.833 339.5,256.5C 339.5,255.5 339.5,254.5 339.5,253.5C 341.857,253.663 344.19,253.497 346.5,253C 347.337,251.989 347.67,250.822 347.5,249.5C 351.167,249.5 354.833,249.5 358.5,249.5C 358.5,248.167 358.5,246.833 358.5,245.5C 362.5,245.5 366.5,245.5 370.5,245.5C 370.5,244.167 370.5,242.833 370.5,241.5C 372.833,241.5 375.167,241.5 377.5,241.5C 377.5,240.5 377.5,239.5 377.5,238.5C 381.481,237.979 385.481,237.646 389.5,237.5C 389.5,236.5 389.5,235.5 389.5,234.5C 392.5,234.833 393.833,233.5 393.5,230.5C 396.167,230.167 398.833,229.833 401.5,229.5 Z"/></g>
<g><path style="opacity:0.938" fill="#72b926" d="M 185.5,241.5 C 186.833,241.5 188.167,241.5 189.5,241.5C 189.5,242.833 189.5,244.167 189.5,245.5C 193.5,245.5 197.5,245.5 201.5,245.5C 201.5,246.833 201.5,248.167 201.5,249.5C 205.167,249.5 208.833,249.5 212.5,249.5C 212.5,250.833 212.5,252.167 212.5,253.5C 215.167,253.5 217.833,253.5 220.5,253.5C 220.5,254.833 220.5,256.167 220.5,257.5C 223.167,257.5 225.833,257.5 228.5,257.5C 228.5,258.5 228.5,259.5 228.5,260.5C 231.5,260.167 232.833,261.5 232.5,264.5C 233.5,264.5 234.5,264.5 235.5,264.5C 235.167,261.5 236.5,260.167 239.5,260.5C 239.5,261.833 239.5,263.167 239.5,264.5C 242.167,264.833 244.833,265.167 247.5,265.5C 247.5,266.5 247.5,267.5 247.5,268.5C 248.833,268.5 250.167,268.5 251.5,268.5C 251.5,269.833 251.5,271.167 251.5,272.5C 251.5,276.5 251.5,280.5 251.5,284.5C 250.167,284.5 248.833,284.5 247.5,284.5C 247.5,286.833 247.5,289.167 247.5,291.5C 246.167,291.5 244.833,291.5 243.5,291.5C 225.5,291.5 207.5,291.5 189.5,291.5C 187.167,291.5 184.833,291.5 182.5,291.5C 182.167,291.5 181.833,291.5 181.5,291.5C 181.5,290.5 181.5,289.5 181.5,288.5C 180.5,288.5 179.5,288.5 178.5,288.5C 178.5,286.833 178.5,285.167 178.5,283.5C 176.833,283.5 175.167,283.5 173.5,283.5C 173.5,277.167 173.5,270.833 173.5,264.5C 174.833,264.5 176.167,264.5 177.5,264.5C 177.423,260.785 177.756,257.119 178.5,253.5C 179.5,253.5 180.5,253.5 181.5,253.5C 181.5,250.833 181.5,248.167 181.5,245.5C 182.833,245.5 184.167,245.5 185.5,245.5C 185.5,244.167 185.5,242.833 185.5,241.5 Z"/></g>
<g><path style="opacity:0.938" fill="#3960aa" d="M 409.5,249.5 C 409.5,250.5 409.5,251.5 409.5,252.5C 410.5,252.5 411.5,252.5 412.5,252.5C 412.5,255.167 412.5,257.833 412.5,260.5C 413.833,260.5 415.167,260.5 416.5,260.5C 416.5,261.833 416.5,263.167 416.5,264.5C 415.167,264.5 413.833,264.5 412.5,264.5C 412.5,265.833 412.5,267.167 412.5,268.5C 411.167,268.5 409.833,268.5 408.5,268.5C 408.5,269.833 408.5,271.167 408.5,272.5C 404.833,272.5 401.167,272.5 397.5,272.5C 397.67,273.822 397.337,274.989 396.5,276C 392.848,276.499 389.182,276.665 385.5,276.5C 385.5,277.833 385.5,279.167 385.5,280.5C 384.167,280.5 382.833,280.5 381.5,280.5C 381.5,281.5 381.5,282.5 381.5,283.5C 380.167,283.5 378.833,283.5 377.5,283.5C 377.5,282.5 377.5,281.5 377.5,280.5C 376.5,280.5 375.5,280.5 374.5,280.5C 374.5,281.5 374.5,282.5 374.5,283.5C 371.833,283.833 369.167,284.167 366.5,284.5C 366.5,285.5 366.5,286.5 366.5,287.5C 360.145,287.725 353.812,287.892 347.5,288C 346.663,286.989 346.33,285.822 346.5,284.5C 345.167,284.5 343.833,284.5 342.5,284.5C 342.5,283.167 342.5,281.833 342.5,280.5C 341.5,280.5 340.5,280.5 339.5,280.5C 339.5,279.167 339.5,277.833 339.5,276.5C 340.833,276.5 342.167,276.5 343.5,276.5C 343.5,275.167 343.5,273.833 343.5,272.5C 347.167,272.5 350.833,272.5 354.5,272.5C 354.33,271.178 354.663,270.011 355.5,269C 359.152,268.501 362.818,268.335 366.5,268.5C 366.5,267.167 366.5,265.833 366.5,264.5C 370.167,264.5 373.833,264.5 377.5,264.5C 377.33,263.178 377.663,262.011 378.5,261C 380.81,260.503 383.143,260.337 385.5,260.5C 385.5,259.5 385.5,258.5 385.5,257.5C 387.857,257.663 390.19,257.497 392.5,257C 393.337,255.989 393.67,254.822 393.5,253.5C 397.167,253.5 400.833,253.5 404.5,253.5C 404.5,252.167 404.5,250.833 404.5,249.5C 406.167,249.5 407.833,249.5 409.5,249.5 Z"/></g>
<g><path style="opacity:0.941" fill="#395aa5" d="M 416.5,264.5 C 416.5,265.833 416.5,267.167 416.5,268.5C 417.833,268.5 419.167,268.5 420.5,268.5C 420.5,272.167 420.5,275.833 420.5,279.5C 421.833,279.5 423.167,279.5 424.5,279.5C 424.5,280.833 424.5,282.167 424.5,283.5C 423.167,283.5 421.833,283.5 420.5,283.5C 420.5,284.833 420.5,286.167 420.5,287.5C 415.13,287.392 409.797,287.725 404.5,288.5C 404.5,289.5 404.5,290.5 404.5,291.5C 402.167,291.5 399.833,291.5 397.5,291.5C 397.5,292.833 397.5,294.167 397.5,295.5C 394.833,295.5 392.167,295.5 389.5,295.5C 389.5,296.833 389.5,298.167 389.5,299.5C 386.833,299.5 384.167,299.5 381.5,299.5C 381.5,300.833 381.5,302.167 381.5,303.5C 376.5,303.5 371.5,303.5 366.5,303.5C 366.833,306.5 365.5,307.833 362.5,307.5C 362.5,308.5 362.5,309.5 362.5,310.5C 359.833,310.833 357.167,311.167 354.5,311.5C 354.5,310.167 354.5,308.833 354.5,307.5C 353.167,307.5 351.833,307.5 350.5,307.5C 350.5,304.833 350.5,302.167 350.5,299.5C 351.473,297.052 351.806,294.385 351.5,291.5C 350.167,291.5 348.833,291.5 347.5,291.5C 347.167,291.5 346.833,291.5 346.5,291.5C 346.5,290.5 346.5,289.5 346.5,288.5C 345.167,288.5 343.833,288.5 342.5,288.5C 342.5,287.167 342.5,285.833 342.5,284.5C 343.833,284.5 345.167,284.5 346.5,284.5C 346.33,285.822 346.663,286.989 347.5,288C 353.812,287.892 360.145,287.725 366.5,287.5C 366.5,286.5 366.5,285.5 366.5,284.5C 369.167,284.167 371.833,283.833 374.5,283.5C 374.5,282.5 374.5,281.5 374.5,280.5C 375.5,280.5 376.5,280.5 377.5,280.5C 377.5,281.5 377.5,282.5 377.5,283.5C 378.833,283.5 380.167,283.5 381.5,283.5C 381.5,282.5 381.5,281.5 381.5,280.5C 382.833,280.5 384.167,280.5 385.5,280.5C 385.5,279.167 385.5,277.833 385.5,276.5C 389.182,276.665 392.848,276.499 396.5,276C 397.337,274.989 397.67,273.822 397.5,272.5C 401.167,272.5 404.833,272.5 408.5,272.5C 408.5,271.167 408.5,269.833 408.5,268.5C 409.833,268.5 411.167,268.5 412.5,268.5C 412.5,267.167 412.5,265.833 412.5,264.5C 413.833,264.5 415.167,264.5 416.5,264.5 Z"/></g>
<g><path style="opacity:0.913" fill="#3a54a0" d="M 424.5,283.5 C 424.5,284.833 424.5,286.167 424.5,287.5C 425.833,287.5 427.167,287.5 428.5,287.5C 428.5,291.167 428.5,294.833 428.5,298.5C 429.833,298.5 431.167,298.5 432.5,298.5C 432.5,299.833 432.5,301.167 432.5,302.5C 429.05,301.756 427.384,303.09 427.5,306.5C 425.139,306.674 422.806,307.007 420.5,307.5C 420.5,308.5 420.5,309.5 420.5,310.5C 415.489,310.334 410.489,310.501 405.5,311C 404.663,312.011 404.33,313.178 404.5,314.5C 402.167,314.5 399.833,314.5 397.5,314.5C 397.5,315.833 397.5,317.167 397.5,318.5C 394.833,318.5 392.167,318.5 389.5,318.5C 389.5,319.833 389.5,321.167 389.5,322.5C 385.5,322.5 381.5,322.5 377.5,322.5C 377.5,323.833 377.5,325.167 377.5,326.5C 373.833,326.5 370.167,326.5 366.5,326.5C 366.167,329.167 365.833,331.833 365.5,334.5C 364.5,334.5 363.5,334.5 362.5,334.5C 362.5,331.833 362.5,329.167 362.5,326.5C 361.167,326.5 359.833,326.5 358.5,326.5C 358.5,323.833 358.5,321.167 358.5,318.5C 357.167,318.5 355.833,318.5 354.5,318.5C 354.5,316.167 354.5,313.833 354.5,311.5C 357.167,311.167 359.833,310.833 362.5,310.5C 362.5,309.5 362.5,308.5 362.5,307.5C 365.5,307.833 366.833,306.5 366.5,303.5C 371.5,303.5 376.5,303.5 381.5,303.5C 381.5,302.167 381.5,300.833 381.5,299.5C 384.167,299.5 386.833,299.5 389.5,299.5C 389.5,298.167 389.5,296.833 389.5,295.5C 392.167,295.5 394.833,295.5 397.5,295.5C 397.5,294.167 397.5,292.833 397.5,291.5C 399.833,291.5 402.167,291.5 404.5,291.5C 404.5,290.5 404.5,289.5 404.5,288.5C 409.797,287.725 415.13,287.392 420.5,287.5C 420.5,286.167 420.5,284.833 420.5,283.5C 421.833,283.5 423.167,283.5 424.5,283.5 Z"/></g>
<g><path style="opacity:0.616" fill="#5ea73f" d="M 173.5,283.5 C 175.167,283.5 176.833,283.5 178.5,283.5C 178.5,285.167 178.5,286.833 178.5,288.5C 179.5,288.5 180.5,288.5 181.5,288.5C 181.5,289.5 181.5,290.5 181.5,291.5C 180.167,291.5 178.833,291.5 177.5,291.5C 177.5,290.5 177.5,289.5 177.5,288.5C 176.167,288.5 174.833,288.5 173.5,288.5C 173.5,286.833 173.5,285.167 173.5,283.5 Z"/></g>
<g><path style="opacity:0.892" fill="#42b2a9" d="M 243.5,291.5 C 244.833,291.5 246.167,291.5 247.5,291.5C 252.5,291.5 257.5,291.5 262.5,291.5C 262.5,294.167 262.5,296.833 262.5,299.5C 263.833,299.5 265.167,299.5 266.5,299.5C 266.5,304.5 266.5,309.5 266.5,314.5C 267.833,314.5 269.167,314.5 270.5,314.5C 270.5,318.5 270.5,322.5 270.5,326.5C 271.833,326.5 273.167,326.5 274.5,326.5C 274.5,328.833 274.5,331.167 274.5,333.5C 275.822,333.33 276.989,333.663 278,334.5C 278.497,337.146 278.664,339.813 278.5,342.5C 278.5,343.5 278.5,344.5 278.5,345.5C 275.833,345.5 273.167,345.5 270.5,345.5C 270.5,346.833 270.5,348.167 270.5,349.5C 269.5,349.5 268.5,349.5 267.5,349.5C 267.833,352.5 266.5,353.833 263.5,353.5C 262.838,349.534 262.505,345.534 262.5,341.5C 261.5,341.5 260.5,341.5 259.5,341.5C 258.886,337.865 258.552,334.198 258.5,330.5C 257.5,330.5 256.5,330.5 255.5,330.5C 255.167,327.833 254.833,325.167 254.5,322.5C 253.5,322.5 252.5,322.5 251.5,322.5C 251.495,318.466 251.162,314.466 250.5,310.5C 249.5,310.5 248.5,310.5 247.5,310.5C 247.5,306.833 247.5,303.167 247.5,299.5C 246.167,299.5 244.833,299.5 243.5,299.5C 243.5,298.167 243.5,296.833 243.5,295.5C 243.5,294.167 243.5,292.833 243.5,291.5 Z"/></g>
<g><path style="opacity:0.79" fill="#45b8ad" d="M 262.5,291.5 C 290.5,291.5 318.5,291.5 346.5,291.5C 346.833,291.5 347.167,291.5 347.5,291.5C 347.5,292.833 347.5,294.167 347.5,295.5C 348.5,295.5 349.5,295.5 350.5,295.5C 350.5,296.833 350.5,298.167 350.5,299.5C 349.5,299.5 348.5,299.5 347.5,299.5C 347.67,300.822 347.337,301.989 346.5,303C 344.527,303.495 342.527,303.662 340.5,303.5C 340.67,304.822 340.337,305.989 339.5,307C 337.19,307.497 334.857,307.663 332.5,307.5C 332.5,308.833 332.5,310.167 332.5,311.5C 331.167,311.5 329.833,311.5 328.5,311.5C 328.5,312.833 328.5,314.167 328.5,315.5C 325.833,315.5 323.167,315.5 320.5,315.5C 320.5,316.833 320.5,318.167 320.5,319.5C 318.167,319.5 315.833,319.5 313.5,319.5C 313.5,320.5 313.5,321.5 313.5,322.5C 312.167,322.5 310.833,322.5 309.5,322.5C 309.5,323.833 309.5,325.167 309.5,326.5C 306.833,326.5 304.167,326.5 301.5,326.5C 301.5,327.833 301.5,329.167 301.5,330.5C 300.167,330.5 298.833,330.5 297.5,330.5C 297.5,331.833 297.5,333.167 297.5,334.5C 295.167,334.5 292.833,334.5 290.5,334.5C 290.5,335.833 290.5,337.167 290.5,338.5C 287.833,338.5 285.167,338.5 282.5,338.5C 282.5,339.833 282.5,341.167 282.5,342.5C 281.167,342.5 279.833,342.5 278.5,342.5C 278.664,339.813 278.497,337.146 278,334.5C 276.989,333.663 275.822,333.33 274.5,333.5C 274.5,331.167 274.5,328.833 274.5,326.5C 273.167,326.5 271.833,326.5 270.5,326.5C 270.5,322.5 270.5,318.5 270.5,314.5C 269.167,314.5 267.833,314.5 266.5,314.5C 266.5,309.5 266.5,304.5 266.5,299.5C 265.167,299.5 263.833,299.5 262.5,299.5C 262.5,296.833 262.5,294.167 262.5,291.5 Z"/></g>
<g><path style="opacity:1" fill="#55a047" d="M 182.5,291.5 C 184.833,291.5 187.167,291.5 189.5,291.5C 189.5,292.833 189.5,294.167 189.5,295.5C 187.167,295.5 184.833,295.5 182.5,295.5C 182.5,294.167 182.5,292.833 182.5,291.5 Z"/></g>
<g><path style="opacity:1" fill="#6cb733" d="M 189.5,291.5 C 207.5,291.5 225.5,291.5 243.5,291.5C 243.5,292.833 243.5,294.167 243.5,295.5C 236.833,295.5 230.167,295.5 223.5,295.5C 222.5,295.5 221.5,295.5 220.5,295.5C 215.167,295.5 209.833,295.5 204.5,295.5C 200.833,295.5 197.167,295.5 193.5,295.5C 192.167,295.5 190.833,295.5 189.5,295.5C 189.5,294.167 189.5,292.833 189.5,291.5 Z"/></g>
<g><path style="opacity:0.456" fill="#1a7273" d="M 173.5,288.5 C 174.833,288.5 176.167,288.5 177.5,288.5C 177.5,289.5 177.5,290.5 177.5,291.5C 178.833,291.5 180.167,291.5 181.5,291.5C 181.833,291.5 182.167,291.5 182.5,291.5C 182.5,292.833 182.5,294.167 182.5,295.5C 184.833,295.5 187.167,295.5 189.5,295.5C 190.833,295.5 192.167,295.5 193.5,295.5C 193.5,296.833 193.5,298.167 193.5,299.5C 194.833,299.5 196.167,299.5 197.5,299.5C 197.5,302.167 197.5,304.833 197.5,307.5C 198.5,307.5 199.5,307.5 200.5,307.5C 201.244,311.119 201.577,314.785 201.5,318.5C 202.5,318.5 203.5,318.5 204.5,318.5C 204.833,321.167 205.167,323.833 205.5,326.5C 206.5,326.5 207.5,326.5 208.5,326.5C 208.552,330.198 208.886,333.865 209.5,337.5C 210.5,337.5 211.5,337.5 212.5,337.5C 212.505,341.534 212.838,345.534 213.5,349.5C 214.5,349.5 215.5,349.5 216.5,349.5C 216.337,351.857 216.503,354.19 217,356.5C 218.011,357.337 219.178,357.67 220.5,357.5C 220.5,360.167 220.5,362.833 220.5,365.5C 219.167,365.5 217.833,365.5 216.5,365.5C 216.5,364.167 216.5,362.833 216.5,361.5C 215.167,361.5 213.833,361.5 212.5,361.5C 212.5,360.167 212.5,358.833 212.5,357.5C 211.167,357.5 209.833,357.5 208.5,357.5C 208.5,356.167 208.5,354.833 208.5,353.5C 207.167,353.5 205.833,353.5 204.5,353.5C 204.5,350.833 204.5,348.167 204.5,345.5C 203.167,345.5 201.833,345.5 200.5,345.5C 200.5,343.167 200.5,340.833 200.5,338.5C 199.178,338.67 198.011,338.337 197,337.5C 196.503,335.19 196.337,332.857 196.5,330.5C 195.5,330.5 194.5,330.5 193.5,330.5C 193.5,327.833 193.5,325.167 193.5,322.5C 192.167,322.5 190.833,322.5 189.5,322.5C 189.5,320.167 189.5,317.833 189.5,315.5C 188.167,315.5 186.833,315.5 185.5,315.5C 185.5,312.833 185.5,310.167 185.5,307.5C 184.167,307.5 182.833,307.5 181.5,307.5C 181.5,306.167 181.5,304.833 181.5,303.5C 180.167,303.5 178.833,303.5 177.5,303.5C 177.5,300.833 177.5,298.167 177.5,295.5C 176.167,295.5 174.833,295.5 173.5,295.5C 173.5,293.167 173.5,290.833 173.5,288.5 Z"/></g>
<g><path style="opacity:0.522" fill="#3d74a9" d="M 347.5,291.5 C 348.833,291.5 350.167,291.5 351.5,291.5C 351.806,294.385 351.473,297.052 350.5,299.5C 350.5,298.167 350.5,296.833 350.5,295.5C 349.5,295.5 348.5,295.5 347.5,295.5C 347.5,294.167 347.5,292.833 347.5,291.5 Z"/></g>
<g><path style="opacity:1" fill="#278584" d="M 193.5,295.5 C 197.167,295.5 200.833,295.5 204.5,295.5C 204.5,296.833 204.5,298.167 204.5,299.5C 205.833,299.5 207.167,299.5 208.5,299.5C 208.413,304.537 208.746,309.537 209.5,314.5C 210.5,314.5 211.5,314.5 212.5,314.5C 212.505,318.534 212.838,322.534 213.5,326.5C 214.5,326.5 215.5,326.5 216.5,326.5C 216.5,328.833 216.5,331.167 216.5,333.5C 218.861,333.674 221.194,334.007 223.5,334.5C 224.244,338.119 224.577,341.785 224.5,345.5C 225.5,345.5 226.5,345.5 227.5,345.5C 228.244,349.119 228.577,352.785 228.5,356.5C 229.5,356.5 230.5,356.5 231.5,356.5C 231.963,359.482 232.296,362.482 232.5,365.5C 228.5,365.5 224.5,365.5 220.5,365.5C 220.5,362.833 220.5,360.167 220.5,357.5C 219.178,357.67 218.011,357.337 217,356.5C 216.503,354.19 216.337,351.857 216.5,349.5C 215.5,349.5 214.5,349.5 213.5,349.5C 212.838,345.534 212.505,341.534 212.5,337.5C 211.5,337.5 210.5,337.5 209.5,337.5C 208.886,333.865 208.552,330.198 208.5,326.5C 207.5,326.5 206.5,326.5 205.5,326.5C 205.167,323.833 204.833,321.167 204.5,318.5C 203.5,318.5 202.5,318.5 201.5,318.5C 201.577,314.785 201.244,311.119 200.5,307.5C 199.5,307.5 198.5,307.5 197.5,307.5C 197.5,304.833 197.5,302.167 197.5,299.5C 196.167,299.5 194.833,299.5 193.5,299.5C 193.5,298.167 193.5,296.833 193.5,295.5 Z"/></g>
<g><path style="opacity:0.906" fill="#394d9c" d="M 432.5,302.5 C 432.5,303.833 432.5,305.167 432.5,306.5C 433.822,306.33 434.989,306.663 436,307.5C 436.497,309.81 436.663,312.143 436.5,314.5C 437.5,314.5 438.5,314.5 439.5,314.5C 439.5,318.167 439.5,321.833 439.5,325.5C 440.833,325.5 442.167,325.5 443.5,325.5C 443.5,326.833 443.5,328.167 443.5,329.5C 440.833,329.833 438.167,330.167 435.5,330.5C 435.5,331.5 435.5,332.5 435.5,333.5C 433.143,333.337 430.81,333.503 428.5,334C 427.663,335.011 427.33,336.178 427.5,337.5C 425.167,337.5 422.833,337.5 420.5,337.5C 420.5,338.833 420.5,340.167 420.5,341.5C 416.5,341.5 412.5,341.5 408.5,341.5C 408.5,342.833 408.5,344.167 408.5,345.5C 404.833,345.5 401.167,345.5 397.5,345.5C 397.67,346.822 397.337,347.989 396.5,349C 394.19,349.497 391.857,349.663 389.5,349.5C 389.5,350.833 389.5,352.167 389.5,353.5C 386.833,353.5 384.167,353.5 381.5,353.5C 381.5,354.5 381.5,355.5 381.5,356.5C 378.09,356.384 376.756,358.05 377.5,361.5C 376.167,361.5 374.833,361.5 373.5,361.5C 373.5,358.833 373.5,356.167 373.5,353.5C 372.167,353.5 370.833,353.5 369.5,353.5C 369.5,350.833 369.5,348.167 369.5,345.5C 368.167,345.5 366.833,345.5 365.5,345.5C 365.5,342.833 365.5,340.167 365.5,337.5C 364.5,337.5 363.5,337.5 362.5,337.5C 362.5,336.5 362.5,335.5 362.5,334.5C 363.5,334.5 364.5,334.5 365.5,334.5C 365.833,331.833 366.167,329.167 366.5,326.5C 370.167,326.5 373.833,326.5 377.5,326.5C 377.5,325.167 377.5,323.833 377.5,322.5C 381.5,322.5 385.5,322.5 389.5,322.5C 389.5,321.167 389.5,319.833 389.5,318.5C 392.167,318.5 394.833,318.5 397.5,318.5C 397.5,317.167 397.5,315.833 397.5,314.5C 399.833,314.5 402.167,314.5 404.5,314.5C 404.33,313.178 404.663,312.011 405.5,311C 410.489,310.501 415.489,310.334 420.5,310.5C 420.5,309.5 420.5,308.5 420.5,307.5C 422.806,307.007 425.139,306.674 427.5,306.5C 427.384,303.09 429.05,301.756 432.5,302.5 Z"/></g>
<g><path style="opacity:0.895" fill="#349b96" d="M 220.5,295.5 C 221.5,295.5 222.5,295.5 223.5,295.5C 224.234,296.708 224.567,298.041 224.5,299.5C 225.833,299.5 227.167,299.5 228.5,299.5C 228.5,303.167 228.5,306.833 228.5,310.5C 231.5,310.167 232.833,311.5 232.5,314.5C 233.5,314.5 234.5,314.5 235.5,314.5C 235.833,319.833 236.167,325.167 236.5,330.5C 237.5,330.5 238.5,330.5 239.5,330.5C 239.5,332.833 239.5,335.167 239.5,337.5C 240.833,337.5 242.167,337.5 243.5,337.5C 243.5,340.167 243.5,342.833 243.5,345.5C 244.833,345.5 246.167,345.5 247.5,345.5C 247.5,349.5 247.5,353.5 247.5,357.5C 248.833,357.5 250.167,357.5 251.5,357.5C 251.5,358.833 251.5,360.167 251.5,361.5C 248.833,361.5 246.167,361.5 243.5,361.5C 243.5,362.833 243.5,364.167 243.5,365.5C 241.167,365.5 238.833,365.5 236.5,365.5C 235.806,360.195 235.472,354.862 235.5,349.5C 234.5,349.5 233.5,349.5 232.5,349.5C 231.838,345.534 231.505,341.534 231.5,337.5C 230.5,337.5 229.5,337.5 228.5,337.5C 228.326,335.139 227.993,332.806 227.5,330.5C 226.5,330.5 225.5,330.5 224.5,330.5C 224.5,321.5 224.5,312.5 224.5,303.5C 223.167,303.5 221.833,303.5 220.5,303.5C 220.5,300.833 220.5,298.167 220.5,295.5 Z"/></g>
<g><path style="opacity:1" fill="#2f928f" d="M 204.5,295.5 C 209.833,295.5 215.167,295.5 220.5,295.5C 220.5,298.167 220.5,300.833 220.5,303.5C 221.833,303.5 223.167,303.5 224.5,303.5C 224.5,312.5 224.5,321.5 224.5,330.5C 225.5,330.5 226.5,330.5 227.5,330.5C 227.993,332.806 228.326,335.139 228.5,337.5C 229.5,337.5 230.5,337.5 231.5,337.5C 231.505,341.534 231.838,345.534 232.5,349.5C 233.5,349.5 234.5,349.5 235.5,349.5C 235.472,354.862 235.806,360.195 236.5,365.5C 235.167,365.5 233.833,365.5 232.5,365.5C 232.296,362.482 231.963,359.482 231.5,356.5C 230.5,356.5 229.5,356.5 228.5,356.5C 228.577,352.785 228.244,349.119 227.5,345.5C 226.5,345.5 225.5,345.5 224.5,345.5C 224.577,341.785 224.244,338.119 223.5,334.5C 221.194,334.007 218.861,333.674 216.5,333.5C 216.5,331.167 216.5,328.833 216.5,326.5C 215.5,326.5 214.5,326.5 213.5,326.5C 212.838,322.534 212.505,318.534 212.5,314.5C 211.5,314.5 210.5,314.5 209.5,314.5C 208.746,309.537 208.413,304.537 208.5,299.5C 207.167,299.5 205.833,299.5 204.5,299.5C 204.5,298.167 204.5,296.833 204.5,295.5 Z"/></g>
<g><path style="opacity:1" fill="#3ca9a1" d="M 223.5,295.5 C 230.167,295.5 236.833,295.5 243.5,295.5C 243.5,296.833 243.5,298.167 243.5,299.5C 244.833,299.5 246.167,299.5 247.5,299.5C 247.5,303.167 247.5,306.833 247.5,310.5C 248.5,310.5 249.5,310.5 250.5,310.5C 251.162,314.466 251.495,318.466 251.5,322.5C 252.5,322.5 253.5,322.5 254.5,322.5C 254.833,325.167 255.167,327.833 255.5,330.5C 256.5,330.5 257.5,330.5 258.5,330.5C 258.552,334.198 258.886,337.865 259.5,341.5C 260.5,341.5 261.5,341.5 262.5,341.5C 262.505,345.534 262.838,349.534 263.5,353.5C 262.167,353.5 260.833,353.5 259.5,353.5C 259.5,354.833 259.5,356.167 259.5,357.5C 256.833,357.5 254.167,357.5 251.5,357.5C 250.167,357.5 248.833,357.5 247.5,357.5C 247.5,353.5 247.5,349.5 247.5,345.5C 246.167,345.5 244.833,345.5 243.5,345.5C 243.5,342.833 243.5,340.167 243.5,337.5C 242.167,337.5 240.833,337.5 239.5,337.5C 239.5,335.167 239.5,332.833 239.5,330.5C 238.5,330.5 237.5,330.5 236.5,330.5C 236.167,325.167 235.833,319.833 235.5,314.5C 234.5,314.5 233.5,314.5 232.5,314.5C 232.833,311.5 231.5,310.167 228.5,310.5C 228.5,306.833 228.5,303.167 228.5,299.5C 227.167,299.5 225.833,299.5 224.5,299.5C 224.567,298.041 224.234,296.708 223.5,295.5 Z"/></g>
<g><path style="opacity:0.842" fill="#394899" d="M 443.5,329.5 C 443.5,330.833 443.5,332.167 443.5,333.5C 444.833,333.5 446.167,333.5 447.5,333.5C 447.5,336.167 447.5,338.833 447.5,341.5C 448.5,341.5 449.5,341.5 450.5,341.5C 451.244,345.119 451.577,348.785 451.5,352.5C 452.833,352.5 454.167,352.5 455.5,352.5C 455.5,356.833 455.5,361.167 455.5,365.5C 428.498,365.667 401.498,365.5 374.5,365C 373.663,363.989 373.33,362.822 373.5,361.5C 374.833,361.5 376.167,361.5 377.5,361.5C 376.756,358.05 378.09,356.384 381.5,356.5C 381.5,355.5 381.5,354.5 381.5,353.5C 384.167,353.5 386.833,353.5 389.5,353.5C 389.5,352.167 389.5,350.833 389.5,349.5C 391.857,349.663 394.19,349.497 396.5,349C 397.337,347.989 397.67,346.822 397.5,345.5C 401.167,345.5 404.833,345.5 408.5,345.5C 408.5,344.167 408.5,342.833 408.5,341.5C 412.5,341.5 416.5,341.5 420.5,341.5C 420.5,340.167 420.5,338.833 420.5,337.5C 422.833,337.5 425.167,337.5 427.5,337.5C 427.33,336.178 427.663,335.011 428.5,334C 430.81,333.503 433.143,333.337 435.5,333.5C 435.5,332.5 435.5,331.5 435.5,330.5C 438.167,330.167 440.833,329.833 443.5,329.5 Z"/></g>
<g><path style="opacity:0.629" fill="#000000" d="M 47.5,398.5 C 52.8333,398.5 58.1667,398.5 63.5,398.5C 63.5,399.833 63.5,401.167 63.5,402.5C 64.8221,402.33 65.9887,402.663 67,403.5C 67.4986,407.152 67.6653,410.818 67.5,414.5C 68.8333,414.5 70.1667,414.5 71.5,414.5C 71.5,416.833 71.5,419.167 71.5,421.5C 72.8221,421.33 73.9887,421.663 75,422.5C 75.4966,424.81 75.6633,427.143 75.5,429.5C 76.5,429.5 77.5,429.5 78.5,429.5C 78.5,432.167 78.5,434.833 78.5,437.5C 79.8333,437.5 81.1667,437.5 82.5,437.5C 82.5,441.167 82.5,444.833 82.5,448.5C 83.8333,448.5 85.1667,448.5 86.5,448.5C 86.5,451.167 86.5,453.833 86.5,456.5C 87.8333,456.5 89.1667,456.5 90.5,456.5C 90.5,460.167 90.5,463.833 90.5,467.5C 91.8333,467.5 93.1667,467.5 94.5,467.5C 94.5,470.5 94.5,473.5 94.5,476.5C 88.8333,476.5 83.1667,476.5 77.5,476.5C 77.5,475.167 77.5,473.833 77.5,472.5C 76.5,472.5 75.5,472.5 74.5,472.5C 74.5,469.833 74.5,467.167 74.5,464.5C 73.1667,464.5 71.8333,464.5 70.5,464.5C 70.5,463.5 70.5,462.5 70.5,461.5C 60.5,461.5 50.5,461.5 40.5,461.5C 40.5,462.5 40.5,463.5 40.5,464.5C 39.1667,464.5 37.8333,464.5 36.5,464.5C 36.5,468.5 36.5,472.5 36.5,476.5C 29.8333,476.5 23.1667,476.5 16.5,476.5C 16.5,473.5 16.5,470.5 16.5,467.5C 17.8333,467.5 19.1667,467.5 20.5,467.5C 20.335,464.15 20.5017,460.817 21,457.5C 22.0113,456.663 23.1779,456.33 24.5,456.5C 24.5,455.167 24.5,453.833 24.5,452.5C 25.8333,452.5 27.1667,452.5 28.5,452.5C 28.5,448.5 28.5,444.5 28.5,440.5C 29.5,440.5 30.5,440.5 31.5,440.5C 31.5,438.167 31.5,435.833 31.5,433.5C 32.8333,433.5 34.1667,433.5 35.5,433.5C 35.423,429.785 35.7564,426.119 36.5,422.5C 37.5,422.5 38.5,422.5 39.5,422.5C 39.5,419.833 39.5,417.167 39.5,414.5C 40.8333,414.5 42.1667,414.5 43.5,414.5C 43.5,411.833 43.5,409.167 43.5,406.5C 44.8333,406.5 46.1667,406.5 47.5,406.5C 47.5,403.833 47.5,401.167 47.5,398.5 Z M 55.5,426.5 C 56.5,426.5 57.5,426.5 58.5,426.5C 58.3347,430.182 58.5014,433.848 59,437.5C 60.2051,438.071 61.3717,438.738 62.5,439.5C 57.8333,440.833 53.1667,440.833 48.5,439.5C 49.6283,438.738 50.7949,438.071 52,437.5C 52.4966,435.19 52.6633,432.857 52.5,430.5C 53.5,430.5 54.5,430.5 55.5,430.5C 55.5,429.167 55.5,427.833 55.5,426.5 Z"/></g>
<g><path style="opacity:0.597" fill="#000000" d="M 97.5,398.5 C 102.547,398.337 107.547,398.671 112.5,399.5C 113.459,417.132 113.793,434.799 113.5,452.5C 114.5,452.5 115.5,452.5 116.5,452.5C 116.5,453.833 116.5,455.167 116.5,456.5C 118.167,456.5 119.833,456.5 121.5,456.5C 121.5,457.833 121.5,459.167 121.5,460.5C 124.833,460.5 128.167,460.5 131.5,460.5C 131.5,459.167 131.5,457.833 131.5,456.5C 134.167,456.5 136.833,456.5 139.5,456.5C 139.5,438.5 139.5,420.5 139.5,402.5C 140.833,402.5 142.167,402.5 143.5,402.5C 143.5,401.167 143.5,399.833 143.5,398.5C 148.762,398.195 153.928,398.529 159,399.5C 159.5,418.497 159.667,437.497 159.5,456.5C 158.167,456.5 156.833,456.5 155.5,456.5C 155.5,459.167 155.5,461.833 155.5,464.5C 154.167,464.5 152.833,464.5 151.5,464.5C 151.5,465.833 151.5,467.167 151.5,468.5C 150.5,468.5 149.5,468.5 148.5,468.5C 148.5,469.833 148.5,471.167 148.5,472.5C 145.833,472.5 143.167,472.5 140.5,472.5C 140.5,473.833 140.5,475.167 140.5,476.5C 131.167,476.5 121.833,476.5 112.5,476.5C 112.5,475.167 112.5,473.833 112.5,472.5C 109.833,472.5 107.167,472.5 104.5,472.5C 104.5,471.167 104.5,469.833 104.5,468.5C 103.167,468.5 101.833,468.5 100.5,468.5C 100.5,466.167 100.5,463.833 100.5,461.5C 99.5,461.5 98.5,461.5 97.5,461.5C 97.5,458.833 97.5,456.167 97.5,453.5C 96.1667,453.5 94.8333,453.5 93.5,453.5C 93.5,435.5 93.5,417.5 93.5,399.5C 95.099,399.768 96.4324,399.434 97.5,398.5 Z"/></g>
<g><path style="opacity:0.649" fill="#000000" d="M 170.5,398.5 C 189.833,398.5 209.167,398.5 228.5,398.5C 228.5,402.833 228.5,407.167 228.5,411.5C 227.167,411.5 225.833,411.5 224.5,411.5C 224.5,413.833 224.5,416.167 224.5,418.5C 218.167,418.5 211.833,418.5 205.5,418.5C 205.5,437.833 205.5,457.167 205.5,476.5C 200.167,476.5 194.833,476.5 189.5,476.5C 189.5,457.167 189.5,437.833 189.5,418.5C 181.833,418.5 174.167,418.5 166.5,418.5C 166.5,412.167 166.5,405.833 166.5,399.5C 168.099,399.768 169.432,399.434 170.5,398.5 Z"/></g>
<g><path style="opacity:0.667" fill="#000000" d="M 254.5,398.5 C 261.167,398.5 267.833,398.5 274.5,398.5C 274.5,399.833 274.5,401.167 274.5,402.5C 277.167,402.5 279.833,402.5 282.5,402.5C 282.5,403.833 282.5,405.167 282.5,406.5C 285.167,406.5 287.833,406.5 290.5,406.5C 290.5,407.833 290.5,409.167 290.5,410.5C 291.5,410.5 292.5,410.5 293.5,410.5C 293.5,411.833 293.5,413.167 293.5,414.5C 294.833,414.5 296.167,414.5 297.5,414.5C 297.5,416.833 297.5,419.167 297.5,421.5C 298.833,421.5 300.167,421.5 301.5,421.5C 301.667,433.171 301.5,444.838 301,456.5C 299.989,457.337 298.822,457.67 297.5,457.5C 297.5,458.833 297.5,460.167 297.5,461.5C 296.167,461.5 294.833,461.5 293.5,461.5C 293.5,462.5 293.5,463.5 293.5,464.5C 292.5,464.5 291.5,464.5 290.5,464.5C 290.5,465.833 290.5,467.167 290.5,468.5C 289.167,468.5 287.833,468.5 286.5,468.5C 286.5,469.833 286.5,471.167 286.5,472.5C 283.833,472.5 281.167,472.5 278.5,472.5C 278.5,473.833 278.5,475.167 278.5,476.5C 269.167,476.5 259.833,476.5 250.5,476.5C 250.5,475.167 250.5,473.833 250.5,472.5C 248.167,472.5 245.833,472.5 243.5,472.5C 243.5,471.167 243.5,469.833 243.5,468.5C 242.167,468.5 240.833,468.5 239.5,468.5C 239.5,467.167 239.5,465.833 239.5,464.5C 238.167,464.5 236.833,464.5 235.5,464.5C 235.5,463.5 235.5,462.5 235.5,461.5C 234.167,461.5 232.833,461.5 231.5,461.5C 231.5,460.167 231.5,458.833 231.5,457.5C 230.178,457.67 229.011,457.337 228,456.5C 227.501,452.848 227.335,449.182 227.5,445.5C 226.167,445.5 224.833,445.5 223.5,445.5C 223.334,440.489 223.501,435.489 224,430.5C 225.011,429.663 226.178,429.33 227.5,429.5C 227.5,426.833 227.5,424.167 227.5,421.5C 228.833,421.5 230.167,421.5 231.5,421.5C 231.5,419.167 231.5,416.833 231.5,414.5C 232.833,414.5 234.167,414.5 235.5,414.5C 235.5,413.167 235.5,411.833 235.5,410.5C 236.833,410.5 238.167,410.5 239.5,410.5C 239.5,409.167 239.5,407.833 239.5,406.5C 240.833,406.5 242.167,406.5 243.5,406.5C 243.5,405.167 243.5,403.833 243.5,402.5C 247.167,402.5 250.833,402.5 254.5,402.5C 254.5,401.167 254.5,399.833 254.5,398.5 Z M 263.5,415.5 C 264.5,415.5 265.5,415.5 266.5,415.5C 266.5,416.5 266.5,417.5 266.5,418.5C 270.167,418.5 273.833,418.5 277.5,418.5C 277.5,419.833 277.5,421.167 277.5,422.5C 278.833,422.5 280.167,422.5 281.5,422.5C 281.5,425.167 281.5,427.833 281.5,430.5C 282.833,430.5 284.167,430.5 285.5,430.5C 285.5,435.167 285.5,439.833 285.5,444.5C 284.167,444.5 282.833,444.5 281.5,444.5C 281.5,447.167 281.5,449.833 281.5,452.5C 280.167,452.5 278.833,452.5 277.5,452.5C 277.5,453.833 277.5,455.167 277.5,456.5C 275.167,456.5 272.833,456.5 270.5,456.5C 270.5,457.833 270.5,459.167 270.5,460.5C 265.5,460.5 260.5,460.5 255.5,460.5C 255.5,459.167 255.5,457.833 255.5,456.5C 254.167,456.5 252.833,456.5 251.5,456.5C 251.5,455.167 251.5,453.833 251.5,452.5C 250.167,452.5 248.833,452.5 247.5,452.5C 247.5,451.167 247.5,449.833 247.5,448.5C 246.5,448.5 245.5,448.5 244.5,448.5C 244.5,441.167 244.5,433.833 244.5,426.5C 245.5,426.5 246.5,426.5 247.5,426.5C 247.5,425.167 247.5,423.833 247.5,422.5C 248.833,422.5 250.167,422.5 251.5,422.5C 251.5,421.167 251.5,419.833 251.5,418.5C 255.5,418.5 259.5,418.5 263.5,418.5C 263.5,417.5 263.5,416.5 263.5,415.5 Z"/></g>
<g><path style="opacity:0.64" fill="#000000" d="M 312.5,398.5 C 322.833,398.5 333.167,398.5 343.5,398.5C 343.5,399.833 343.5,401.167 343.5,402.5C 348.547,402.337 353.547,402.671 358.5,403.5C 358.5,404.5 358.5,405.5 358.5,406.5C 360.167,406.5 361.833,406.5 363.5,406.5C 363.5,407.833 363.5,409.167 363.5,410.5C 364.5,410.5 365.5,410.5 366.5,410.5C 366.5,411.833 366.5,413.167 366.5,414.5C 367.833,414.5 369.167,414.5 370.5,414.5C 370.5,415.5 370.5,416.5 370.5,417.5C 371.833,417.5 373.167,417.5 374.5,417.5C 374.5,420.167 374.5,422.833 374.5,425.5C 375.822,425.33 376.989,425.663 378,426.5C 378.5,434.159 378.666,441.826 378.5,449.5C 377.167,449.5 375.833,449.5 374.5,449.5C 374.5,452.167 374.5,454.833 374.5,457.5C 373.167,457.5 371.833,457.5 370.5,457.5C 370.5,458.833 370.5,460.167 370.5,461.5C 369.167,461.5 367.833,461.5 366.5,461.5C 366.5,462.5 366.5,463.5 366.5,464.5C 365.5,464.5 364.5,464.5 363.5,464.5C 363.5,465.833 363.5,467.167 363.5,468.5C 362.167,468.5 360.833,468.5 359.5,468.5C 359.5,469.833 359.5,471.167 359.5,472.5C 355.5,472.5 351.5,472.5 347.5,472.5C 347.5,473.833 347.5,475.167 347.5,476.5C 334.5,476.5 321.5,476.5 308.5,476.5C 308.5,451.833 308.5,427.167 308.5,402.5C 309.833,402.5 311.167,402.5 312.5,402.5C 312.5,401.167 312.5,399.833 312.5,398.5 Z M 328.5,418.5 C 335.833,418.5 343.167,418.5 350.5,418.5C 350.5,419.833 350.5,421.167 350.5,422.5C 351.833,422.5 353.167,422.5 354.5,422.5C 354.5,423.833 354.5,425.167 354.5,426.5C 355.833,426.5 357.167,426.5 358.5,426.5C 358.5,433.833 358.5,441.167 358.5,448.5C 357.167,448.5 355.833,448.5 354.5,448.5C 354.5,449.833 354.5,451.167 354.5,452.5C 353.167,452.5 351.833,452.5 350.5,452.5C 350.5,453.833 350.5,455.167 350.5,456.5C 347.833,456.5 345.167,456.5 342.5,456.5C 342.5,457.833 342.5,459.167 342.5,460.5C 337.833,460.5 333.167,460.5 328.5,460.5C 328.5,446.5 328.5,432.5 328.5,418.5 Z"/></g>
<g><path style="opacity:0.665" fill="#000000" d="M 385.5,398.5 C 403.528,398.221 421.528,398.554 439.5,399.5C 439.5,405.833 439.5,412.167 439.5,418.5C 426.833,418.5 414.167,418.5 401.5,418.5C 401.5,422.167 401.5,425.833 401.5,429.5C 409.167,429.5 416.833,429.5 424.5,429.5C 424.5,434.833 424.5,440.167 424.5,445.5C 416.833,445.5 409.167,445.5 401.5,445.5C 401.5,450.5 401.5,455.5 401.5,460.5C 414.167,460.5 426.833,460.5 439.5,460.5C 439.5,465.833 439.5,471.167 439.5,476.5C 421.5,476.5 403.5,476.5 385.5,476.5C 385.5,450.5 385.5,424.5 385.5,398.5 Z"/></g>
<g><path style="opacity:0.64" fill="#000000" d="M 462.5,398.5 C 470.167,398.5 477.833,398.5 485.5,398.5C 485.5,399.833 485.5,401.167 485.5,402.5C 489.5,402.5 493.5,402.5 497.5,402.5C 497.5,403.833 497.5,405.167 497.5,406.5C 498.5,406.5 499.5,406.5 500.5,406.5C 500.5,407.833 500.5,409.167 500.5,410.5C 499.5,410.5 498.5,410.5 497.5,410.5C 497.5,413.167 497.5,415.833 497.5,418.5C 490.833,418.5 484.167,418.5 477.5,418.5C 477.5,417.5 477.5,416.5 477.5,415.5C 475.167,415.5 472.833,415.5 470.5,415.5C 470.5,416.5 470.5,417.5 470.5,418.5C 467.833,418.5 465.167,418.5 462.5,418.5C 462.5,419.5 462.5,420.5 462.5,421.5C 463.833,421.5 465.167,421.5 466.5,421.5C 466.5,422.833 466.5,424.167 466.5,425.5C 469.167,425.5 471.833,425.5 474.5,425.5C 474.5,426.833 474.5,428.167 474.5,429.5C 478.167,429.5 481.833,429.5 485.5,429.5C 485.5,430.833 485.5,432.167 485.5,433.5C 488.167,433.5 490.833,433.5 493.5,433.5C 493.5,434.833 493.5,436.167 493.5,437.5C 494.833,437.5 496.167,437.5 497.5,437.5C 497.5,438.5 497.5,439.5 497.5,440.5C 498.822,440.33 499.989,440.663 501,441.5C 501.5,449.159 501.666,456.826 501.5,464.5C 500.167,464.5 498.833,464.5 497.5,464.5C 497.5,465.833 497.5,467.167 497.5,468.5C 496.167,468.5 494.833,468.5 493.5,468.5C 493.5,469.833 493.5,471.167 493.5,472.5C 490.833,472.5 488.167,472.5 485.5,472.5C 485.5,473.833 485.5,475.167 485.5,476.5C 476.5,476.5 467.5,476.5 458.5,476.5C 458.5,475.167 458.5,473.833 458.5,472.5C 455.833,472.5 453.167,472.5 450.5,472.5C 450.5,471.167 450.5,469.833 450.5,468.5C 447.833,468.5 445.167,468.5 442.5,468.5C 442.5,465.833 442.5,463.167 442.5,460.5C 443.833,460.5 445.167,460.5 446.5,460.5C 446.5,457.833 446.5,455.167 446.5,452.5C 450.833,452.5 455.167,452.5 459.5,452.5C 459.5,453.833 459.5,455.167 459.5,456.5C 461.833,456.5 464.167,456.5 466.5,456.5C 466.5,457.833 466.5,459.167 466.5,460.5C 471.5,460.5 476.5,460.5 481.5,460.5C 481.5,459.167 481.5,457.833 481.5,456.5C 482.5,456.5 483.5,456.5 484.5,456.5C 484.5,454.167 484.5,451.833 484.5,449.5C 482.167,449.5 479.833,449.5 477.5,449.5C 477.5,448.167 477.5,446.833 477.5,445.5C 473.5,445.5 469.5,445.5 465.5,445.5C 465.5,444.167 465.5,442.833 465.5,441.5C 463.167,441.5 460.833,441.5 458.5,441.5C 458.5,440.5 458.5,439.5 458.5,438.5C 457.167,438.5 455.833,438.5 454.5,438.5C 454.5,437.167 454.5,435.833 454.5,434.5C 452.139,434.326 449.806,433.993 447.5,433.5C 446.602,425.876 446.269,418.209 446.5,410.5C 447.833,410.5 449.167,410.5 450.5,410.5C 450.5,409.167 450.5,407.833 450.5,406.5C 451.833,406.5 453.167,406.5 454.5,406.5C 454.5,405.167 454.5,403.833 454.5,402.5C 456.833,402.5 459.167,402.5 461.5,402.5C 461.433,401.041 461.766,399.708 462.5,398.5 Z"/></g>
<g><path style="opacity:0.56" fill="#000000" d="M 511.5,398.5 C 515.514,398.334 519.514,398.501 523.5,399C 524.337,400.011 524.67,401.178 524.5,402.5C 525.833,402.5 527.167,402.5 528.5,402.5C 528.5,410.167 528.5,417.833 528.5,425.5C 529.5,425.5 530.5,425.5 531.5,425.5C 531.5,424.167 531.5,422.833 531.5,421.5C 532.5,421.5 533.5,421.5 534.5,421.5C 534.5,420.167 534.5,418.833 534.5,417.5C 535.833,417.5 537.167,417.5 538.5,417.5C 538.5,416.5 538.5,415.5 538.5,414.5C 539.833,414.5 541.167,414.5 542.5,414.5C 542.5,413.167 542.5,411.833 542.5,410.5C 543.833,410.5 545.167,410.5 546.5,410.5C 546.5,409.167 546.5,407.833 546.5,406.5C 547.833,406.5 549.167,406.5 550.5,406.5C 550.5,405.167 550.5,403.833 550.5,402.5C 551.833,402.5 553.167,402.5 554.5,402.5C 554.5,401.167 554.5,399.833 554.5,398.5C 559.833,398.5 565.167,398.5 570.5,398.5C 570.666,402.514 570.499,406.514 570,410.5C 568.989,411.337 567.822,411.67 566.5,411.5C 566.5,412.5 566.5,413.5 566.5,414.5C 565.167,414.5 563.833,414.5 562.5,414.5C 562.5,415.833 562.5,417.167 562.5,418.5C 561.167,418.5 559.833,418.5 558.5,418.5C 558.5,419.833 558.5,421.167 558.5,422.5C 557.5,422.5 556.5,422.5 555.5,422.5C 555.5,423.833 555.5,425.167 555.5,426.5C 554.167,426.5 552.833,426.5 551.5,426.5C 551.5,427.833 551.5,429.167 551.5,430.5C 550.167,430.5 548.833,430.5 547.5,430.5C 547.5,431.833 547.5,433.167 547.5,434.5C 546.167,434.5 544.833,434.5 543.5,434.5C 543.5,436.5 543.5,438.5 543.5,440.5C 544.833,440.5 546.167,440.5 547.5,440.5C 547.5,441.833 547.5,443.167 547.5,444.5C 548.833,444.5 550.167,444.5 551.5,444.5C 551.5,445.833 551.5,447.167 551.5,448.5C 552.833,448.5 554.167,448.5 555.5,448.5C 555.5,449.833 555.5,451.167 555.5,452.5C 556.5,452.5 557.5,452.5 558.5,452.5C 558.5,453.833 558.5,455.167 558.5,456.5C 559.833,456.5 561.167,456.5 562.5,456.5C 562.5,457.833 562.5,459.167 562.5,460.5C 563.833,460.5 565.167,460.5 566.5,460.5C 566.5,461.5 566.5,462.5 566.5,463.5C 567.833,463.5 569.167,463.5 570.5,463.5C 570.5,464.833 570.5,466.167 570.5,467.5C 571.5,467.5 572.5,467.5 573.5,467.5C 573.5,466.5 573.5,465.5 573.5,464.5C 574.833,464.5 576.167,464.5 577.5,464.5C 577.5,463.167 577.5,461.833 577.5,460.5C 581.5,460.5 585.5,460.5 589.5,460.5C 589.5,465.5 589.5,470.5 589.5,475.5C 585.534,476.162 581.534,476.495 577.5,476.5C 577.5,475.167 577.5,473.833 577.5,472.5C 576.5,472.5 575.5,472.5 574.5,472.5C 574.5,473.833 574.5,475.167 574.5,476.5C 567.833,476.5 561.167,476.5 554.5,476.5C 554.5,475.167 554.5,473.833 554.5,472.5C 553.167,472.5 551.833,472.5 550.5,472.5C 550.5,471.167 550.5,469.833 550.5,468.5C 549.167,468.5 547.833,468.5 546.5,468.5C 546.5,467.167 546.5,465.833 546.5,464.5C 545.167,464.5 543.833,464.5 542.5,464.5C 542.5,463.5 542.5,462.5 542.5,461.5C 539.5,461.833 538.167,460.5 538.5,457.5C 535.5,457.833 534.167,456.5 534.5,453.5C 533.5,453.5 532.5,453.5 531.5,453.5C 531.5,452.167 531.5,450.833 531.5,449.5C 530.5,449.5 529.5,449.5 528.5,449.5C 528.716,458.533 528.383,467.533 527.5,476.5C 521.167,476.5 514.833,476.5 508.5,476.5C 508.5,450.833 508.5,425.167 508.5,399.5C 509.791,399.737 510.791,399.404 511.5,398.5 Z"/></g>
<g><path style="opacity:0.45" fill="#000000" d="M 105.5,498.5 C 108.119,498.232 110.619,498.565 113,499.5C 113.499,504.155 113.666,508.821 113.5,513.5C 114.5,513.5 115.5,513.5 116.5,513.5C 116.5,512.5 116.5,511.5 116.5,510.5C 118.167,510.5 119.833,510.5 121.5,510.5C 121.5,511.5 121.5,512.5 121.5,513.5C 123.833,513.5 126.167,513.5 128.5,513.5C 128.5,524.167 128.5,534.833 128.5,545.5C 125.833,545.5 123.167,545.5 120.5,545.5C 120.5,537.833 120.5,530.167 120.5,522.5C 118.167,522.5 115.833,522.5 113.5,522.5C 113.5,530.167 113.5,537.833 113.5,545.5C 105.5,545.5 97.5,545.5 89.5,545.5C 89.5,544.167 89.5,542.833 89.5,541.5C 88.1667,541.5 86.8333,541.5 85.5,541.5C 85.5,535.167 85.5,528.833 85.5,522.5C 84.5,522.5 83.5,522.5 82.5,522.5C 82.5,530.167 82.5,537.833 82.5,545.5C 79.8333,545.5 77.1667,545.5 74.5,545.5C 74.5,544.167 74.5,542.833 74.5,541.5C 73.5,541.5 72.5,541.5 71.5,541.5C 71.5,542.833 71.5,544.167 71.5,545.5C 67.4862,545.666 63.4862,545.499 59.5,545C 58.6634,543.989 58.33,542.822 58.5,541.5C 57.5,541.5 56.5,541.5 55.5,541.5C 55.5,542.833 55.5,544.167 55.5,545.5C 52.8333,545.5 50.1667,545.5 47.5,545.5C 47.5,544.167 47.5,542.833 47.5,541.5C 46.1667,541.5 44.8333,541.5 43.5,541.5C 43.5,539.167 43.5,536.833 43.5,534.5C 39.8333,534.5 36.1667,534.5 32.5,534.5C 32.5,535.5 32.5,536.5 32.5,537.5C 31.1667,537.5 29.8333,537.5 28.5,537.5C 28.5,540.167 28.5,542.833 28.5,545.5C 24.5,545.5 20.5,545.5 16.5,545.5C 16.5,542.5 16.5,539.5 16.5,536.5C 17.8333,536.5 19.1667,536.5 20.5,536.5C 20.5,532.833 20.5,529.167 20.5,525.5C 21.8333,525.5 23.1667,525.5 24.5,525.5C 24.5,522.833 24.5,520.167 24.5,517.5C 25.8333,517.5 27.1667,517.5 28.5,517.5C 28.5,513.833 28.5,510.167 28.5,506.5C 29.5,506.5 30.5,506.5 31.5,506.5C 31.5,505.167 31.5,503.833 31.5,502.5C 35.5138,502.334 39.5138,502.501 43.5,503C 44.4558,506.394 44.7892,509.894 44.5,513.5C 45.8333,513.5 47.1667,513.5 48.5,513.5C 48.5,516.167 48.5,518.833 48.5,521.5C 49.8221,521.33 50.9887,521.663 52,522.5C 52.1747,526.211 52.6747,529.878 53.5,533.5C 54.4967,526.866 54.83,520.2 54.5,513.5C 58.8333,513.5 63.1667,513.5 67.5,513.5C 67.5,520.167 67.5,526.833 67.5,533.5C 68.5,533.5 69.5,533.5 70.5,533.5C 70.5,526.833 70.5,520.167 70.5,513.5C 75.5,513.5 80.5,513.5 85.5,513.5C 85.5,511.167 85.5,508.833 85.5,506.5C 89.8333,506.5 94.1667,506.5 98.5,506.5C 98.1924,508.924 98.5258,511.257 99.5,513.5C 100.324,510.215 100.824,506.882 101,503.5C 102.011,502.663 103.178,502.33 104.5,502.5C 104.433,501.041 104.766,499.708 105.5,498.5 Z M 36.5,518.5 C 37.5,518.5 38.5,518.5 39.5,518.5C 39.5,520.833 39.5,523.167 39.5,525.5C 38.5,525.5 37.5,525.5 36.5,525.5C 36.5,523.167 36.5,520.833 36.5,518.5 Z M 98.5,522.5 C 99.7868,523.871 100.453,525.705 100.5,528C 100.167,529.833 99.8333,531.667 99.5,533.5C 98.5108,529.893 98.1774,526.226 98.5,522.5 Z"/></g>
<g><path style="opacity:0.441" fill="#000000" d="M 262.5,498.5 C 265.206,498.575 267.873,498.908 270.5,499.5C 270.5,514.833 270.5,530.167 270.5,545.5C 267.833,545.5 265.167,545.5 262.5,545.5C 262.5,544.167 262.5,542.833 262.5,541.5C 261.5,541.5 260.5,541.5 259.5,541.5C 259.5,542.833 259.5,544.167 259.5,545.5C 255.486,545.666 251.486,545.499 247.5,545C 246.663,543.989 246.33,542.822 246.5,541.5C 245.5,541.5 244.5,541.5 243.5,541.5C 243.5,539.167 243.5,536.833 243.5,534.5C 242.5,534.5 241.5,534.5 240.5,534.5C 240.5,538.167 240.5,541.833 240.5,545.5C 234.833,545.5 229.167,545.5 223.5,545.5C 223.5,544.167 223.5,542.833 223.5,541.5C 221.5,541.5 219.5,541.5 217.5,541.5C 217.5,542.833 217.5,544.167 217.5,545.5C 204.5,545.5 191.5,545.5 178.5,545.5C 177.642,537.868 177.309,530.201 177.5,522.5C 176.5,522.5 175.5,522.5 174.5,522.5C 174.5,523.833 174.5,525.167 174.5,526.5C 173.5,526.5 172.5,526.5 171.5,526.5C 171.5,532.833 171.5,539.167 171.5,545.5C 168.5,545.5 165.5,545.5 162.5,545.5C 162.5,534.833 162.5,524.167 162.5,513.5C 166.5,513.5 170.5,513.5 174.5,513.5C 174.5,512.5 174.5,511.5 174.5,510.5C 175.5,510.5 176.5,510.5 177.5,510.5C 177.5,507.833 177.5,505.167 177.5,502.5C 181.833,502.5 186.167,502.5 190.5,502.5C 190.5,505.5 190.5,508.5 190.5,511.5C 186.452,511.605 182.452,511.272 178.5,510.5C 178.5,511.5 178.5,512.5 178.5,513.5C 191.5,513.5 204.5,513.5 217.5,513.5C 217.5,514.833 217.5,516.167 217.5,517.5C 218.5,517.5 219.5,517.5 220.5,517.5C 220.5,516.167 220.5,514.833 220.5,513.5C 222.833,513.5 225.167,513.5 227.5,513.5C 227.5,512.5 227.5,511.5 227.5,510.5C 229.167,510.5 230.833,510.5 232.5,510.5C 232.5,511.5 232.5,512.5 232.5,513.5C 235.167,513.5 237.833,513.5 240.5,513.5C 240.5,516.167 240.5,518.833 240.5,521.5C 241.5,521.5 242.5,521.5 243.5,521.5C 243.5,518.833 243.5,516.167 243.5,513.5C 245.833,513.5 248.167,513.5 250.5,513.5C 250.5,512.5 250.5,511.5 250.5,510.5C 252.167,510.5 253.833,510.5 255.5,510.5C 255.5,511.5 255.5,512.5 255.5,513.5C 256.5,513.5 257.5,513.5 258.5,513.5C 258.5,508.833 258.5,504.167 258.5,499.5C 260.099,499.768 261.432,499.434 262.5,498.5 Z M 190.5,522.5 C 193.833,522.5 197.167,522.5 200.5,522.5C 200.5,523.5 200.5,524.5 200.5,525.5C 199.167,525.5 197.833,525.5 196.5,525.5C 196.5,526.833 196.5,528.167 196.5,529.5C 195.5,529.5 194.5,529.5 193.5,529.5C 193.5,530.833 193.5,532.167 193.5,533.5C 192.5,533.5 191.5,533.5 190.5,533.5C 190.5,529.833 190.5,526.167 190.5,522.5 Z M 213.5,522.5 C 214.5,522.5 215.5,522.5 216.5,522.5C 216.5,523.5 216.5,524.5 216.5,525.5C 215.5,525.5 214.5,525.5 213.5,525.5C 213.5,524.5 213.5,523.5 213.5,522.5 Z M 251.5,522.5 C 253.833,522.5 256.167,522.5 258.5,522.5C 258.5,526.167 258.5,529.833 258.5,533.5C 256.167,533.5 253.833,533.5 251.5,533.5C 251.5,529.833 251.5,526.167 251.5,522.5 Z M 209.5,526.5 C 210.5,526.5 211.5,526.5 212.5,526.5C 212.5,528.833 212.5,531.167 212.5,533.5C 210.167,533.5 207.833,533.5 205.5,533.5C 205.5,532.5 205.5,531.5 205.5,530.5C 206.833,530.5 208.167,530.5 209.5,530.5C 209.5,529.167 209.5,527.833 209.5,526.5 Z M 228.5,534.5 C 230.924,534.192 233.257,534.526 235.5,535.5C 234.333,535.833 233.167,536.167 232,536.5C 230.319,536.392 229.152,535.725 228.5,534.5 Z"/></g>
<g><path style="opacity:0.427" fill="#000000" d="M 282.5,502.5 C 293.833,502.5 305.167,502.5 316.5,502.5C 316.5,506.167 316.5,509.833 316.5,513.5C 318.833,513.5 321.167,513.5 323.5,513.5C 323.5,512.5 323.5,511.5 323.5,510.5C 326.167,510.5 328.833,510.5 331.5,510.5C 331.5,511.5 331.5,512.5 331.5,513.5C 334.167,513.5 336.833,513.5 339.5,513.5C 339.5,512.5 339.5,511.5 339.5,510.5C 340.833,510.5 342.167,510.5 343.5,510.5C 343.5,511.5 343.5,512.5 343.5,513.5C 346.167,513.5 348.833,513.5 351.5,513.5C 351.5,514.833 351.5,516.167 351.5,517.5C 352.5,517.5 353.5,517.5 354.5,517.5C 354.5,516.167 354.5,514.833 354.5,513.5C 358.5,513.5 362.5,513.5 366.5,513.5C 366.5,524.167 366.5,534.833 366.5,545.5C 359.833,545.5 353.167,545.5 346.5,545.5C 346.5,544.167 346.5,542.833 346.5,541.5C 345.5,541.5 344.5,541.5 343.5,541.5C 343.5,542.833 343.5,544.167 343.5,545.5C 339.5,545.5 335.5,545.5 331.5,545.5C 331.5,544.167 331.5,542.833 331.5,541.5C 330.167,541.5 328.833,541.5 327.5,541.5C 327.5,536.167 327.5,530.833 327.5,525.5C 330.167,525.5 332.833,525.5 335.5,525.5C 335.5,524.5 335.5,523.5 335.5,522.5C 331.833,522.5 328.167,522.5 324.5,522.5C 324.5,523.833 324.5,525.167 324.5,526.5C 323.167,526.5 321.833,526.5 320.5,526.5C 320.5,532.833 320.5,539.167 320.5,545.5C 317.833,545.5 315.167,545.5 312.5,545.5C 312.5,535.167 312.5,524.833 312.5,514.5C 310.167,514.5 307.833,514.5 305.5,514.5C 305.5,524.833 305.5,535.167 305.5,545.5C 301.5,545.5 297.5,545.5 293.5,545.5C 292.6,535.198 292.267,524.865 292.5,514.5C 288.833,514.5 285.167,514.5 281.5,514.5C 281.237,510.4 281.57,506.4 282.5,502.5 Z"/></g>
<g><path style="opacity:0.299" fill="#000000" d="M 354.5,502.5 C 358.5,502.5 362.5,502.5 366.5,502.5C 366.5,505.5 366.5,508.5 366.5,511.5C 362.818,511.665 359.152,511.499 355.5,511C 354.556,508.281 354.223,505.448 354.5,502.5 Z"/></g>
<g><path style="opacity:0.266" fill="#000000" d="M 396.5,502.5 C 400.833,502.5 405.167,502.5 409.5,502.5C 409.777,505.448 409.444,508.281 408.5,511C 404.514,511.499 400.514,511.666 396.5,511.5C 396.5,508.5 396.5,505.5 396.5,502.5 Z"/></g>
<g><path style="opacity:0.446" fill="#000000" d="M 496.5,502.5 C 501.833,502.5 507.167,502.5 512.5,502.5C 512.5,506.5 512.5,510.5 512.5,514.5C 507.5,514.5 502.5,514.5 497.5,514.5C 497.5,515.833 497.5,517.167 497.5,518.5C 496.167,518.5 494.833,518.5 493.5,518.5C 493.5,522.167 493.5,525.833 493.5,529.5C 494.833,529.5 496.167,529.5 497.5,529.5C 497.5,530.833 497.5,532.167 497.5,533.5C 502.167,533.5 506.833,533.5 511.5,533.5C 511.392,528.13 511.725,522.797 512.5,517.5C 513.5,517.5 514.5,517.5 515.5,517.5C 515.33,516.178 515.663,515.011 516.5,514C 518.81,513.503 521.143,513.337 523.5,513.5C 523.5,512.5 523.5,511.5 523.5,510.5C 526.167,510.5 528.833,510.5 531.5,510.5C 531.5,511.5 531.5,512.5 531.5,513.5C 539.128,514.117 546.795,514.117 554.5,513.5C 554.5,512.5 554.5,511.5 554.5,510.5C 555.833,510.5 557.167,510.5 558.5,510.5C 558.5,511.5 558.5,512.5 558.5,513.5C 563.567,514.1 568.567,514.1 573.5,513.5C 573.5,511.167 573.5,508.833 573.5,506.5C 576.167,506.5 578.833,506.5 581.5,506.5C 581.5,508.833 581.5,511.167 581.5,513.5C 584.167,513.5 586.833,513.5 589.5,513.5C 589.5,514.833 589.5,516.167 589.5,517.5C 590.5,517.5 591.5,517.5 592.5,517.5C 592.5,516.167 592.5,514.833 592.5,513.5C 595.167,513.5 597.833,513.5 600.5,513.5C 600.5,512.5 600.5,511.5 600.5,510.5C 601.833,510.5 603.167,510.5 604.5,510.5C 604.5,511.5 604.5,512.5 604.5,513.5C 607.167,513.5 609.833,513.5 612.5,513.5C 612.5,516.167 612.5,518.833 612.5,521.5C 613.5,521.5 614.5,521.5 615.5,521.5C 615.5,518.833 615.5,516.167 615.5,513.5C 619.5,513.5 623.5,513.5 627.5,513.5C 627.5,512.5 627.5,511.5 627.5,510.5C 628.833,510.5 630.167,510.5 631.5,510.5C 631.5,514.5 631.5,518.5 631.5,522.5C 630.5,522.5 629.5,522.5 628.5,522.5C 628.833,525.5 627.5,526.833 624.5,526.5C 624.5,532.833 624.5,539.167 624.5,545.5C 621.5,545.5 618.5,545.5 615.5,545.5C 615.5,541.5 615.5,537.5 615.5,533.5C 614.5,533.5 613.5,533.5 612.5,533.5C 612.5,537.5 612.5,541.5 612.5,545.5C 607.167,545.5 601.833,545.5 596.5,545.5C 596.5,544.167 596.5,542.833 596.5,541.5C 594.167,541.5 591.833,541.5 589.5,541.5C 589.5,542.833 589.5,544.167 589.5,545.5C 585.5,545.5 581.5,545.5 577.5,545.5C 577.5,544.167 577.5,542.833 577.5,541.5C 576.167,541.5 574.833,541.5 573.5,541.5C 573.5,535.167 573.5,528.833 573.5,522.5C 572.5,522.5 571.5,522.5 570.5,522.5C 570.5,530.167 570.5,537.833 570.5,545.5C 566.167,545.5 561.833,545.5 557.5,545.5C 557.5,537.833 557.5,530.167 557.5,522.5C 555.5,522.5 553.5,522.5 551.5,522.5C 551.5,530.167 551.5,537.833 551.5,545.5C 548.5,545.5 545.5,545.5 542.5,545.5C 542.5,542.833 542.5,540.167 542.5,537.5C 541.5,537.5 540.5,537.5 539.5,537.5C 539.5,540.167 539.5,542.833 539.5,545.5C 534.167,545.5 528.833,545.5 523.5,545.5C 523.5,544.167 523.5,542.833 523.5,541.5C 520.833,541.5 518.167,541.5 515.5,541.5C 515.5,540.167 515.5,538.833 515.5,537.5C 514.5,537.5 513.5,537.5 512.5,537.5C 512.5,540.167 512.5,542.833 512.5,545.5C 507.167,545.5 501.833,545.5 496.5,545.5C 496.5,544.167 496.5,542.833 496.5,541.5C 493.833,541.5 491.167,541.5 488.5,541.5C 488.5,540.167 488.5,538.833 488.5,537.5C 487.167,537.5 485.833,537.5 484.5,537.5C 484.5,536.167 484.5,534.833 484.5,533.5C 483.5,533.5 482.5,533.5 481.5,533.5C 481.5,527.167 481.5,520.833 481.5,514.5C 482.5,514.5 483.5,514.5 484.5,514.5C 484.5,513.167 484.5,511.833 484.5,510.5C 485.833,510.5 487.167,510.5 488.5,510.5C 488.5,509.167 488.5,507.833 488.5,506.5C 491.167,506.5 493.833,506.5 496.5,506.5C 496.5,505.167 496.5,503.833 496.5,502.5 Z M 539.5,518.5 C 540.5,518.5 541.5,518.5 542.5,518.5C 542.5,520.833 542.5,523.167 542.5,525.5C 541.5,525.5 540.5,525.5 539.5,525.5C 539.5,523.167 539.5,520.833 539.5,518.5 Z M 581.5,522.5 C 583.833,522.5 586.167,522.5 588.5,522.5C 588.5,523.5 588.5,524.5 588.5,525.5C 587.167,525.5 585.833,525.5 584.5,525.5C 584.575,528.206 584.908,530.873 585.5,533.5C 584.167,533.5 582.833,533.5 581.5,533.5C 581.5,529.833 581.5,526.167 581.5,522.5 Z M 528.5,534.5 C 529.675,534.281 530.675,534.614 531.5,535.5C 529.948,536.798 528.948,536.465 528.5,534.5 Z M 601.5,534.5 C 603.604,534.201 605.604,534.534 607.5,535.5C 606.5,535.833 605.5,536.167 604.5,536.5C 602.97,536.36 601.97,535.693 601.5,534.5 Z"/></g>
<g><path style="opacity:0.516" fill="#000000" d="M 143.5,510.5 C 144.833,510.5 146.167,510.5 147.5,510.5C 147.5,511.5 147.5,512.5 147.5,513.5C 150.167,513.5 152.833,513.5 155.5,513.5C 155.5,514.833 155.5,516.167 155.5,517.5C 156.833,517.5 158.167,517.5 159.5,517.5C 159.5,525.5 159.5,533.5 159.5,541.5C 156.833,541.5 154.167,541.5 151.5,541.5C 151.5,542.833 151.5,544.167 151.5,545.5C 147.5,545.5 143.5,545.5 139.5,545.5C 139.5,544.167 139.5,542.833 139.5,541.5C 136.833,541.5 134.167,541.5 131.5,541.5C 131.5,533.5 131.5,525.5 131.5,517.5C 132.833,517.5 134.167,517.5 135.5,517.5C 135.5,516.167 135.5,514.833 135.5,513.5C 138.167,513.5 140.833,513.5 143.5,513.5C 143.5,512.5 143.5,511.5 143.5,510.5 Z M 144.5,522.5 C 146.5,522.5 148.5,522.5 150.5,522.5C 150.5,526.167 150.5,529.833 150.5,533.5C 147.167,533.5 143.833,533.5 140.5,533.5C 140.5,531.167 140.5,528.833 140.5,526.5C 143.5,526.833 144.833,525.5 144.5,522.5 Z"/></g>
<g><path style="opacity:0.45" fill="#000000" d="M 381.5,510.5 C 383.167,510.5 384.833,510.5 386.5,510.5C 386.5,511.5 386.5,512.5 386.5,513.5C 388.833,513.5 391.167,513.5 393.5,513.5C 393.5,516.167 393.5,518.833 393.5,521.5C 394.5,521.5 395.5,521.5 396.5,521.5C 396.5,518.833 396.5,516.167 396.5,513.5C 405.5,513.5 414.5,513.5 423.5,513.5C 423.5,512.5 423.5,511.5 423.5,510.5C 425.167,510.5 426.833,510.5 428.5,510.5C 428.5,511.5 428.5,512.5 428.5,513.5C 431.119,513.232 433.619,513.565 436,514.5C 436.5,524.828 436.666,535.161 436.5,545.5C 433.5,545.5 430.5,545.5 427.5,545.5C 427.5,537.833 427.5,530.167 427.5,522.5C 425.167,522.5 422.833,522.5 420.5,522.5C 420.5,530.167 420.5,537.833 420.5,545.5C 417.833,545.5 415.167,545.5 412.5,545.5C 412.5,544.167 412.5,542.833 412.5,541.5C 411.5,541.5 410.5,541.5 409.5,541.5C 409.67,542.822 409.337,543.989 408.5,545C 400.841,545.5 393.174,545.666 385.5,545.5C 385.5,537.833 385.5,530.167 385.5,522.5C 383.167,522.5 380.833,522.5 378.5,522.5C 378.5,530.167 378.5,537.833 378.5,545.5C 375.5,545.5 372.5,545.5 369.5,545.5C 369.5,534.833 369.5,524.167 369.5,513.5C 373.5,513.5 377.5,513.5 381.5,513.5C 381.5,512.5 381.5,511.5 381.5,510.5 Z"/></g>
<g><path style="opacity:0.506" fill="#000000" d="M 450.5,510.5 C 451.833,510.5 453.167,510.5 454.5,510.5C 454.5,511.5 454.5,512.5 454.5,513.5C 458.5,513.5 462.5,513.5 466.5,513.5C 466.5,525.5 466.5,537.5 466.5,549.5C 465.167,549.5 463.833,549.5 462.5,549.5C 462.5,550.833 462.5,552.167 462.5,553.5C 454.5,553.5 446.5,553.5 438.5,553.5C 438.5,550.5 438.5,547.5 438.5,544.5C 441.167,544.5 443.833,544.5 446.5,544.5C 446.5,543.5 446.5,542.5 446.5,541.5C 443.833,541.5 441.167,541.5 438.5,541.5C 438.252,532.46 438.585,523.46 439.5,514.5C 443.119,513.756 446.785,513.423 450.5,513.5C 450.5,512.5 450.5,511.5 450.5,510.5 Z M 447.5,522.5 C 449.833,522.5 452.167,522.5 454.5,522.5C 454.5,523.833 454.5,525.167 454.5,526.5C 455.833,526.5 457.167,526.5 458.5,526.5C 458.5,527.5 458.5,528.5 458.5,529.5C 457.167,529.5 455.833,529.5 454.5,529.5C 454.5,530.833 454.5,532.167 454.5,533.5C 452.167,533.5 449.833,533.5 447.5,533.5C 447.5,529.833 447.5,526.167 447.5,522.5 Z"/></g>
</svg>
