<?xml version="1.0" encoding="UTF-8"?>
<!DOCTYPE svg PUBLIC "-//W3C//DTD SVG 1.1//EN" "http://www.w3.org/Graphics/SVG/1.1/DTD/svg11.dtd">
<svg xmlns="http://www.w3.org/2000/svg" version="1.1" width="265px" height="265px" style="shape-rendering:geometricPrecision; text-rendering:geometricPrecision; image-rendering:optimizeQuality; fill-rule:evenodd; clip-rule:evenodd" xmlns:xlink="http://www.w3.org/1999/xlink">
<g><path style="opacity:0.92" fill="#e3004e" d="M 126.5,13.5 C 131.913,13.2288 137.246,13.7288 142.5,15C 150.329,19.0801 157.996,23.4135 165.5,28C 143.5,28.6667 121.5,28.6667 99.5,28C 108.317,22.595 117.317,17.7616 126.5,13.5 Z"/></g>
<g><path style="opacity:0.904" fill="#e3004e" d="M 82.5,46.5 C 95.8375,46.3334 109.171,46.5001 122.5,47C 103.398,57.9669 84.2318,68.8003 65,79.5C 64.5,79.3333 64,79.1667 63.5,79C 70.2234,68.3854 76.5567,57.5521 82.5,46.5 Z"/></g>
<g><path style="opacity:0.905" fill="#e3004e" d="M 142.5,47.5 C 155.66,46.3396 168.994,46.173 182.5,47C 188.581,57.8318 194.915,68.4984 201.5,79C 198.983,79.2566 196.65,78.5899 194.5,77C 177.274,66.8897 159.941,57.0564 142.5,47.5 Z"/></g>
<g><path style="opacity:0.873" fill="#e3004e" d="M 58.5,51.5 C 59.2389,51.369 59.9056,51.5357 60.5,52C 49.7112,71.0809 38.5445,89.9142 27,108.5C 26.3333,99.5 26.3333,90.5 27,81.5C 28.6611,74.0166 32.4944,67.85 38.5,63C 45.3926,59.3924 52.0593,55.5591 58.5,51.5 Z"/></g>
<g><path style="opacity:0.872" fill="#e3004e" d="M 204.5,52.5 C 205.251,51.4265 206.251,51.2599 207.5,52C 213.67,55.9192 220.003,59.5859 226.5,63C 232.506,67.85 236.339,74.0166 238,81.5C 238.832,90.5185 238.665,99.5185 237.5,108.5C 226.474,89.7702 215.474,71.1035 204.5,52.5 Z"/></g>
<g><path style="opacity:0.93" fill="#e3004e" d="M 52.5,98.5 C 53.6629,120.663 53.8296,142.996 53,165.5C 46.6792,154.353 40.5125,143.187 34.5,132C 40.103,120.628 46.103,109.461 52.5,98.5 Z"/></g>
<g><path style="opacity:0.929" fill="#e3004e" d="M 211.5,98.5 C 218.392,109.27 225.059,120.27 231.5,131.5C 224.747,142.67 218.247,154.004 212,165.5C 211.5,143.169 211.333,120.836 211.5,98.5 Z"/></g>
<g><path style="opacity:0.874" fill="#e3004e" d="M 26.5,154.5 C 27.4584,154.953 28.2917,155.619 29,156.5C 39.3737,174.748 49.8737,192.915 60.5,211C 59.5,211.667 58.5,211.667 57.5,211C 51.3303,207.081 44.9969,203.414 38.5,200C 32.4944,195.15 28.6611,188.983 27,181.5C 26.5002,172.506 26.3336,163.506 26.5,154.5 Z"/></g>
<g><path style="opacity:0.873" fill="#e3004e" d="M 237.5,154.5 C 238.657,163.324 238.824,172.324 238,181.5C 236.84,189.319 233.006,195.486 226.5,200C 220.669,203.081 215.002,206.415 209.5,210C 207.956,211.187 206.289,211.52 204.5,211C 215.385,192.057 226.385,173.224 237.5,154.5 Z"/></g>
<g><path style="opacity:0.865" fill="#e3004e" d="M 63.5,184.5 C 65.0894,183.379 66.7561,183.546 68.5,185C 86.5,195.667 104.5,206.333 122.5,217C 109.154,217.833 95.8208,217.666 82.5,216.5C 76.6442,205.44 70.3109,194.773 63.5,184.5 Z"/></g>
<g><path style="opacity:0.866" fill="#e3004e" d="M 198.5,183.5 C 199.552,183.351 200.552,183.517 201.5,184C 194.788,194.587 188.455,205.42 182.5,216.5C 169.179,217.666 155.846,217.833 142.5,217C 161.075,205.572 179.742,194.405 198.5,183.5 Z"/></g>
<g><path style="opacity:0.926" fill="#e3004e" d="M 99.5,235.5 C 121.329,234.337 143.329,234.17 165.5,235C 157.996,239.587 150.329,243.92 142.5,248C 135.833,250 129.167,250 122.5,248C 114.806,243.821 107.14,239.654 99.5,235.5 Z"/></g>
</svg>
