<?xml version="1.0" encoding="UTF-8"?>
<!DOCTYPE svg PUBLIC "-//W3C//DTD SVG 1.1//EN" "http://www.w3.org/Graphics/SVG/1.1/DTD/svg11.dtd">
<svg xmlns="http://www.w3.org/2000/svg" version="1.1" width="250px" height="250px" style="shape-rendering:geometricPrecision; text-rendering:geometricPrecision; image-rendering:optimizeQuality; fill-rule:evenodd; clip-rule:evenodd" xmlns:xlink="http://www.w3.org/1999/xlink">
<g><path style="opacity:0.98" fill="#a434f0" d="M 122.5,-0.5 C 123.833,-0.5 125.167,-0.5 126.5,-0.5C 147.188,11.9331 168.021,24.2664 189,36.5C 189.833,49.1798 189.666,61.8465 188.5,74.5C 167.167,62.1667 145.833,49.8333 124.5,37.5C 103.167,49.8333 81.8333,62.1667 60.5,74.5C 59.334,61.8465 59.1674,49.1798 60,36.5C 80.979,24.2664 101.812,11.9331 122.5,-0.5 Z"/></g>
<g><path style="opacity:0.966" fill="#000000" d="M 138.5,249.5 C 129.167,249.5 119.833,249.5 110.5,249.5C 82.7147,244.549 65.8814,228.216 60,200.5C 59.5,168.502 59.3334,136.502 59.5,104.5C 71.1667,104.5 82.8333,104.5 94.5,104.5C 94.03,135.883 94.53,167.216 96,198.5C 104.362,215.926 117.862,221.759 136.5,216C 145.993,211.838 151.826,204.671 154,194.5C 154.5,164.502 154.667,134.502 154.5,104.5C 166.167,104.5 177.833,104.5 189.5,104.5C 189.667,136.502 189.5,168.502 189,200.5C 185.711,222.125 173.877,236.959 153.5,245C 148.423,246.68 143.423,248.18 138.5,249.5 Z"/></g>
</svg>
