<?xml version="1.0" encoding="UTF-8"?>
<!DOCTYPE svg PUBLIC "-//W3C//DTD SVG 1.1//EN" "http://www.w3.org/Graphics/SVG/1.1/DTD/svg11.dtd">
<svg xmlns="http://www.w3.org/2000/svg" version="1.1" width="250px" height="250px" style="shape-rendering:geometricPrecision; text-rendering:geometricPrecision; image-rendering:optimizeQuality; fill-rule:evenodd; clip-rule:evenodd" xmlns:xlink="http://www.w3.org/1999/xlink">
<g><path style="opacity:0.506" fill="#f9d6a6" d="M 88.5,9.5 C 88.5,9.83333 88.5,10.1667 88.5,10.5C 88.5,45.8333 88.5,81.1667 88.5,116.5C 105.5,116.5 122.5,116.5 139.5,116.5C 140.498,81.0039 140.832,45.3372 140.5,9.5C 141.498,45.3295 141.832,81.3295 141.5,117.5C 123.5,117.5 105.5,117.5 87.5,117.5C 87.1682,81.3295 87.5016,45.3295 88.5,9.5 Z"/></g>
<g><path style="opacity:1" fill="#f38010" d="M 88.5,10.5 C 89.5,10.5 90.5,10.5 91.5,10.5C 91.1743,18.6841 91.5076,26.6841 92.5,34.5C 92.5,35.1667 92.5,35.8333 92.5,36.5C 92.0876,45.4005 92.7542,54.0671 94.5,62.5C 95.6061,69.472 96.6061,76.472 97.5,83.5C 97.2938,86.4951 97.9605,89.1617 99.5,91.5C 99.1201,93.698 99.7868,95.3646 101.5,96.5C 103.467,102.265 106.8,107.098 111.5,111C 113.473,111.495 115.473,111.662 117.5,111.5C 120.5,110.5 122.5,108.5 123.5,105.5C 124.227,103.046 125.227,100.713 126.5,98.5C 128.655,96.3826 129.655,93.716 129.5,90.5C 129.5,90.1667 129.5,89.8333 129.5,89.5C 131.163,87.5615 131.829,85.2282 131.5,82.5C 133.244,70.882 134.577,59.2154 135.5,47.5C 136.495,35.3446 136.829,23.0113 136.5,10.5C 137.5,10.5 138.5,10.5 139.5,10.5C 139.5,45.8333 139.5,81.1667 139.5,116.5C 122.5,116.5 105.5,116.5 88.5,116.5C 88.5,81.1667 88.5,45.8333 88.5,10.5 Z"/></g>
<g><path style="opacity:0.69" fill="#f9c07e" d="M 123.5,105.5 C 122.5,108.5 120.5,110.5 117.5,111.5C 119.167,109.167 121.167,107.167 123.5,105.5 Z"/></g>
<g><path style="opacity:0.933" fill="#f8b871" d="M 99.5,91.5 C 100.537,92.9303 101.204,94.597 101.5,96.5C 99.7868,95.3646 99.1201,93.698 99.5,91.5 Z"/></g>
<g><path style="opacity:0.82" fill="#fac789" d="M 129.5,90.5 C 129.655,93.716 128.655,96.3826 126.5,98.5C 127.129,95.6027 128.129,92.936 129.5,90.5 Z"/></g>
<g><path style="opacity:0.906" fill="#f9bb77" d="M 97.5,83.5 C 98.7682,85.9052 99.4349,88.5718 99.5,91.5C 97.9605,89.1617 97.2938,86.4951 97.5,83.5 Z"/></g>
<g><path style="opacity:0.847" fill="#fac587" d="M 131.5,82.5 C 131.829,85.2282 131.163,87.5615 129.5,89.5C 129.721,86.9327 130.388,84.5994 131.5,82.5 Z"/></g>
<g><path style="opacity:0.243" fill="#fad19c" d="M 92.5,36.5 C 93.4566,44.9949 94.1233,53.6615 94.5,62.5C 92.7542,54.0671 92.0876,45.4005 92.5,36.5 Z"/></g>
<g><path style="opacity:0.684" fill="#f6ae5e" d="M 88.5,10.5 C 88.5,10.1667 88.5,9.83333 88.5,9.5C 90.1667,9.5 91.8333,9.5 93.5,9.5C 92.6682,17.8048 92.3348,26.1381 92.5,34.5C 91.5076,26.6841 91.1743,18.6841 91.5,10.5C 90.5,10.5 89.5,10.5 88.5,10.5 Z"/></g>
<g><path style="opacity:0.918" fill="#f5a047" d="M 140.5,9.5 C 140.832,45.3372 140.498,81.0039 139.5,116.5C 139.5,81.1667 139.5,45.8333 139.5,10.5C 138.5,10.5 137.5,10.5 136.5,10.5C 136.829,23.0113 136.495,35.3446 135.5,47.5C 135.5,34.8333 135.5,22.1667 135.5,9.5C 137.167,9.5 138.833,9.5 140.5,9.5 Z"/></g>
<g><path style="opacity:1" fill="#f48217" d="M 172.5,123.5 C 172.5,158.833 172.5,194.167 172.5,229.5C 171.5,229.5 170.5,229.5 169.5,229.5C 169.667,216.829 169.5,204.162 169,191.5C 168.819,188.305 168.319,185.305 167.5,182.5C 166.551,171.692 164.718,161.025 162,150.5C 160.352,145.21 158.185,140.21 155.5,135.5C 155.5,133.5 154.5,132.5 152.5,132.5C 145.574,132.905 141.074,136.572 139,143.5C 134.099,158.278 130.932,173.278 129.5,188.5C 127.743,200.953 127.076,213.62 127.5,226.5C 127.5,227.5 127.5,228.5 127.5,229.5C 126.167,229.5 124.833,229.5 123.5,229.5C 123.828,217.322 123.495,205.322 122.5,193.5C 121.57,189.6 121.237,185.6 121.5,181.5C 121.561,174.546 120.561,167.879 118.5,161.5C 116.4,152.207 112.733,143.54 107.5,135.5C 107.461,134.417 107.127,133.417 106.5,132.5C 103.572,131.516 100.572,131.183 97.5,131.5C 97.5,132.5 97.5,133.5 97.5,134.5C 92.731,140.71 89.5643,147.71 88,155.5C 84.2516,173.652 82.0849,191.985 81.5,210.5C 80.5098,216.645 80.1765,222.978 80.5,229.5C 79.5,229.5 78.5,229.5 77.5,229.5C 77.5,194.167 77.5,158.833 77.5,123.5C 109.167,123.5 140.833,123.5 172.5,123.5 Z"/></g>
<g><path style="opacity:0.388" fill="#f8cb8e" d="M 173.5,123.5 C 173.167,123.5 172.833,123.5 172.5,123.5C 140.833,123.5 109.167,123.5 77.5,123.5C 77.5,158.833 77.5,194.167 77.5,229.5C 78.5,229.5 79.5,229.5 80.5,229.5C 80.1765,222.978 80.5098,216.645 81.5,210.5C 81.5,217.167 81.5,223.833 81.5,230.5C 79.8333,230.5 78.1667,230.5 76.5,230.5C 76.5,194.5 76.5,158.5 76.5,122.5C 109.004,122.168 141.338,122.502 173.5,123.5 Z"/></g>
<g><path style="opacity:1" fill="#f79e48" d="M 107.5,135.5 C 104.426,132.135 101.092,131.801 97.5,134.5C 97.5,133.5 97.5,132.5 97.5,131.5C 100.572,131.183 103.572,131.516 106.5,132.5C 107.127,133.417 107.461,134.417 107.5,135.5 Z"/></g>
<g><path style="opacity:0.729" fill="#fcd099" d="M 152.5,132.5 C 154.5,132.5 155.5,133.5 155.5,135.5C 154.167,134.833 153.167,133.833 152.5,132.5 Z"/></g>
<g><path style="opacity:0.345" fill="#fad29d" d="M 118.5,161.5 C 120.561,167.879 121.561,174.546 121.5,181.5C 120.09,175.028 119.09,168.361 118.5,161.5 Z"/></g>
<g><path style="opacity:0.604" fill="#f9c88c" d="M 129.5,188.5 C 129.137,201.337 128.47,214.004 127.5,226.5C 127.076,213.62 127.743,200.953 129.5,188.5 Z"/></g>
<g><path style="opacity:0.475" fill="#f4b66d" d="M 172.5,123.5 C 172.833,123.5 173.167,123.5 173.5,123.5C 173.5,159.167 173.5,194.833 173.5,230.5C 171.833,230.5 170.167,230.5 168.5,230.5C 168.635,214.487 168.301,198.487 167.5,182.5C 168.319,185.305 168.819,188.305 169,191.5C 169.5,204.162 169.667,216.829 169.5,229.5C 170.5,229.5 171.5,229.5 172.5,229.5C 172.5,194.167 172.5,158.833 172.5,123.5 Z"/></g>
<g><path style="opacity:0.094" fill="#f9d9ad" d="M 122.5,193.5 C 123.495,205.322 123.828,217.322 123.5,229.5C 124.833,229.5 126.167,229.5 127.5,229.5C 126.081,230.451 124.415,230.784 122.5,230.5C 122.5,218.167 122.5,205.833 122.5,193.5 Z"/></g>
</svg>
