<?xml version="1.0" encoding="UTF-8"?>
<!DOCTYPE svg PUBLIC "-//W3C//DTD SVG 1.1//EN" "http://www.w3.org/Graphics/SVG/1.1/DTD/svg11.dtd">
<svg xmlns="http://www.w3.org/2000/svg" version="1.1" width="240px" height="240px" style="shape-rendering:geometricPrecision; text-rendering:geometricPrecision; image-rendering:optimizeQuality; fill-rule:evenodd; clip-rule:evenodd" xmlns:xlink="http://www.w3.org/1999/xlink">
<g><path style="opacity:0.997" fill="#eff8fb" d="M 50.5,-0.5 C 96.5,-0.5 142.5,-0.5 188.5,-0.5C 210.853,0.939886 226.686,11.9399 236,32.5C 237.731,38.5287 238.898,44.5287 239.5,50.5C 239.5,96.5 239.5,142.5 239.5,188.5C 238.06,210.853 227.06,226.686 206.5,236C 200.471,237.731 194.471,238.898 188.5,239.5C 142.5,239.5 96.5,239.5 50.5,239.5C 28.1474,238.06 12.314,227.06 3,206.5C 1.26866,200.471 0.101994,194.471 -0.5,188.5C -0.5,142.5 -0.5,96.5 -0.5,50.5C 0.939886,28.1474 11.9399,12.314 32.5,3C 38.5287,1.26866 44.5287,0.101994 50.5,-0.5 Z"/></g>
<g><path style="opacity:1" fill="#d2eef9" d="M 62.5,9.5 C 81.1637,8.83338 99.997,8.50005 119,8.5C 141.522,8.39831 164.022,8.89831 186.5,10C 206.213,13.1048 219.713,23.9381 227,42.5C 228.718,49.394 229.718,56.394 230,63.5C 230.833,99.8379 230.667,136.171 229.5,172.5C 219.456,167.976 209.123,164.31 198.5,161.5C 191.95,158.452 184.95,156.786 177.5,156.5C 179.06,154.046 180.06,151.38 180.5,148.5C 185.914,127.507 178.58,112.507 158.5,103.5C 167.186,96.1272 172.186,86.7939 173.5,75.5C 176.112,50.5825 165.445,34.0825 141.5,26C 138.568,25.0467 135.568,24.5467 132.5,24.5C 115.035,22.7697 97.3682,21.7697 79.5,21.5C 74.9866,21.5009 70.6533,21.8343 66.5,22.5C 66.5,62.1667 66.5,101.833 66.5,141.5C 65.8333,141.5 65.1667,141.5 64.5,141.5C 64.6667,103.165 64.5,64.8319 64,26.5C 63.8272,20.6518 63.3272,14.9851 62.5,9.5 Z"/></g>
<g><path style="opacity:1" fill="#9e9e9c" d="M 31.5,16.5 C 34.3553,15.1968 37.3553,15.1968 40.5,16.5C 45.0825,26.3221 49.0825,36.3221 52.5,46.5C 49.5525,46.7771 46.7191,46.4438 44,45.5C 39.9767,35.6908 35.81,26.0241 31.5,16.5 Z"/></g>
<g><path style="opacity:1" fill="#9f9f9e" d="M 28.5,17.5 C 29.4959,17.4142 30.3292,17.7476 31,18.5C 32.6077,21.3513 33.2743,24.3513 33,27.5C 31.9305,30.2081 30.7639,32.8747 29.5,35.5C 26.9135,36.48 24.2469,36.8134 21.5,36.5C 22.8444,29.7999 25.1777,23.4666 28.5,17.5 Z"/></g>
<g><path style="opacity:1" fill="#a6c9e4" d="M 66.5,22.5 C 70.6533,21.8343 74.9866,21.5009 79.5,21.5C 97.3682,21.7697 115.035,22.7697 132.5,24.5C 132.167,24.5 131.833,24.5 131.5,24.5C 125.804,24.553 120.138,24.2197 114.5,23.5C 112.5,23.5 110.5,23.5 108.5,23.5C 97.4959,23.2775 86.4959,22.9442 75.5,22.5C 72.8333,22.5 70.1667,22.5 67.5,22.5C 67.1667,22.5 66.8333,22.5 66.5,22.5 Z"/></g>
<g><path style="opacity:1" fill="#296cb4" d="M 67.5,22.5 C 70.1667,22.5 72.8333,22.5 75.5,22.5C 73.516,25.8655 73.516,29.3655 75.5,33C 74.9034,34.6282 75.2367,36.2949 76.5,38C 76.5,40 76.5,42 76.5,44C 78.3197,48.9141 80.3197,54.0808 82.5,59.5C 81.8444,61.4534 81.5111,63.4534 81.5,65.5C 81.0231,70.0708 80.0231,74.4041 78.5,78.5C 74.4123,69.8423 71.0789,60.8423 68.5,51.5C 67.5016,41.8563 67.1682,32.1896 67.5,22.5 Z"/></g>
<g><path style="opacity:1" fill="#3275b9" d="M 75.5,22.5 C 86.4959,22.9442 97.4959,23.2775 108.5,23.5C 102.013,24.3283 95.346,24.8283 88.5,25C 88.7032,27.6652 89.3699,30.4985 90.5,33.5C 89.6527,35.061 89.9861,36.561 91.5,38C 90.701,39.7487 91.3676,41.082 93.5,42C 92.1772,42.8159 91.5106,43.9826 91.5,45.5C 88.0936,49.646 85.7603,54.3127 84.5,59.5C 83.5,61.5 82.5,63.5 81.5,65.5C 81.5111,63.4534 81.8444,61.4534 82.5,59.5C 80.3197,54.0808 78.3197,48.9141 76.5,44C 76.5,42 76.5,40 76.5,38C 75.2367,36.2949 74.9034,34.6282 75.5,33C 73.516,29.3655 73.516,25.8655 75.5,22.5 Z"/></g>
<g><path style="opacity:1" fill="#4285c3" d="M 108.5,23.5 C 110.5,23.5 112.5,23.5 114.5,23.5C 113.892,24.7997 113.225,26.1331 112.5,27.5C 113.198,28.8626 113.198,30.0293 112.5,31C 113.167,31.3333 113.833,31.6667 114.5,32C 107.519,32.9927 101.519,35.826 96.5,40.5C 95.1667,42.5 93.5,44.1667 91.5,45.5C 91.5106,43.9826 92.1772,42.8159 93.5,42C 91.3676,41.082 90.701,39.7487 91.5,38C 89.9861,36.561 89.6527,35.061 90.5,33.5C 89.3699,30.4985 88.7032,27.6652 88.5,25C 95.346,24.8283 102.013,24.3283 108.5,23.5 Z"/></g>
<g><path style="opacity:1" fill="#5497cd" d="M 114.5,23.5 C 120.138,24.2197 125.804,24.553 131.5,24.5C 131.119,25.9311 130.119,26.7645 128.5,27C 129.109,29.5104 130.442,31.5104 132.5,33C 129.305,33.1805 126.305,33.6805 123.5,34.5C 120.5,34.5 117.5,34.5 114.5,34.5C 111.784,34.6785 109.117,35.1785 106.5,36C 103.264,37.7862 99.9302,39.2862 96.5,40.5C 101.519,35.826 107.519,32.9927 114.5,32C 113.833,31.6667 113.167,31.3333 112.5,31C 113.198,30.0293 113.198,28.8626 112.5,27.5C 113.225,26.1331 113.892,24.7997 114.5,23.5 Z"/></g>
<g><path style="opacity:1" fill="#68acda" d="M 131.5,24.5 C 131.833,24.5 132.167,24.5 132.5,24.5C 135.568,24.5467 138.568,25.0467 141.5,26C 165.445,34.0825 176.112,50.5825 173.5,75.5C 172.778,75.9175 172.278,76.5842 172,77.5C 169.988,75.3181 168.988,72.6514 169,69.5C 168.697,73.894 168.03,78.2273 167,82.5C 166.576,85.0254 165.41,87.0254 163.5,88.5C 166.379,80.7757 167.212,72.7757 166,64.5C 165.059,62.2726 163.892,60.2726 162.5,58.5C 161.306,54.6367 158.973,51.6367 155.5,49.5C 149.425,42.5075 141.759,38.0075 132.5,36C 129.568,35.0467 126.568,34.5467 123.5,34.5C 126.305,33.6805 129.305,33.1805 132.5,33C 130.442,31.5104 129.109,29.5104 128.5,27C 130.119,26.7645 131.119,25.9311 131.5,24.5 Z"/></g>
<g><path style="opacity:1" fill="#0a5586" d="M 114.5,34.5 C 117.5,34.5 120.5,34.5 123.5,34.5C 126.568,34.5467 129.568,35.0467 132.5,36C 141.759,38.0075 149.425,42.5075 155.5,49.5C 153.006,52.5862 149.672,54.4196 145.5,55C 140.5,55.6667 135.5,55.6667 130.5,55C 126.477,53.0224 122.31,52.5224 118,53.5C 114.801,50.1428 110.968,47.6428 106.5,46C 108.34,41.4508 111.006,37.6174 114.5,34.5 Z"/></g>
<g><path style="opacity:1" fill="#9f9f9d" d="M 21.5,38.5 C 27.5092,38.3338 33.5092,38.5005 39.5,39C 35.5853,41.9137 31.4186,44.4137 27,46.5C 25.7387,46.2409 24.7387,45.5742 24,44.5C 23.3448,42.3716 22.5114,40.3716 21.5,38.5 Z"/></g>
<g><path style="opacity:1" fill="#20609a" d="M 114.5,34.5 C 111.006,37.6174 108.34,41.4508 106.5,46C 110.968,47.6428 114.801,50.1428 118,53.5C 122.31,52.5224 126.477,53.0224 130.5,55C 135.5,55.6667 140.5,55.6667 145.5,55C 149.672,54.4196 153.006,52.5862 155.5,49.5C 158.973,51.6367 161.306,54.6367 162.5,58.5C 162.5,59.8333 162.5,61.1667 162.5,62.5C 158.147,63.2957 153.98,64.629 150,66.5C 147.615,65.8464 145.115,65.8464 142.5,66.5C 141.167,66.3333 139.833,66.1667 138.5,66C 137.149,63.7355 135.483,61.9022 133.5,60.5C 125.393,55.5941 116.726,54.4274 107.5,57C 106.069,57.4652 104.903,58.2986 104,59.5C 104.253,56.867 104.253,54.2004 104,51.5C 101.588,62.3756 100.922,73.3756 102,84.5C 103.397,86.0703 104.897,87.4036 106.5,88.5C 105.784,88.7831 104.951,89.1164 104,89.5C 103.323,93.4072 102.49,97.2405 101.5,101C 102.237,104.022 101.904,107.022 100.5,110C 101.013,112.718 101.013,115.551 100.5,118.5C 100.431,129.212 100.598,139.878 101,150.5C 92.9229,158.417 84.4229,165.75 75.5,172.5C 75.0766,171.735 74.7432,170.902 74.5,170C 84.315,141.429 88.9817,111.762 88.5,81C 87.3622,74.0329 86.0289,66.8662 84.5,59.5C 85.7603,54.3127 88.0936,49.646 91.5,45.5C 93.5,44.1667 95.1667,42.5 96.5,40.5C 99.9302,39.2862 103.264,37.7862 106.5,36C 109.117,35.1785 111.784,34.6785 114.5,34.5 Z"/></g>
<g><path style="opacity:1" fill="#c6e9f9" d="M 62.5,9.5 C 63.3272,14.9851 63.8272,20.6518 64,26.5C 64.5,64.8319 64.6667,103.165 64.5,141.5C 46.1667,141.5 27.8333,141.5 9.5,141.5C 9.5,114.167 9.5,86.8333 9.5,59.5C 23.1707,59.6666 36.8374,59.4999 50.5,59C 56.5535,57.9471 60.3868,54.4471 62,48.5C 62.4999,35.5043 62.6666,22.5043 62.5,9.5 Z"/></g>
<g><path style="opacity:1" fill="#ccebf9" d="M 133.5,60.5 C 137.318,67.3601 137.484,74.3601 134,81.5C 131.97,83.7375 129.47,85.2375 126.5,86C 119.988,88.0428 113.322,88.8761 106.5,88.5C 104.897,87.4036 103.397,86.0703 102,84.5C 100.922,73.3756 101.588,62.3756 104,51.5C 104.253,54.2004 104.253,56.867 104,59.5C 104.903,58.2986 106.069,57.4652 107.5,57C 116.726,54.4274 125.393,55.5941 133.5,60.5 Z"/></g>
<g><path style="opacity:1" fill="#155b91" d="M 84.5,59.5 C 86.0289,66.8662 87.3622,74.0329 88.5,81C 88.9817,111.762 84.315,141.429 74.5,170C 74.7432,170.902 75.0766,171.735 75.5,172.5C 73.1918,174.471 70.8585,176.471 68.5,178.5C 68.7691,144.875 72.1024,111.541 78.5,78.5C 80.0231,74.4041 81.0231,70.0708 81.5,65.5C 82.5,63.5 83.5,61.5 84.5,59.5 Z"/></g>
<g><path style="opacity:1" fill="#2965a3" d="M 162.5,58.5 C 163.892,60.2726 165.059,62.2726 166,64.5C 167.212,72.7757 166.379,80.7757 163.5,88.5C 155.793,98.533 145.793,105.366 133.5,109C 136.687,109.108 139.687,108.275 142.5,106.5C 143.172,107.949 143.839,109.282 144.5,110.5C 137.361,111.995 130.361,113.995 123.5,116.5C 116.646,116.176 109.979,116.509 103.5,117.5C 102.698,118.952 102.198,120.618 102,122.5C 101.79,120.942 101.29,119.609 100.5,118.5C 101.013,115.551 101.013,112.718 100.5,110C 101.904,107.022 102.237,104.022 101.5,101C 102.49,97.2405 103.323,93.4072 104,89.5C 104.951,89.1164 105.784,88.7831 106.5,88.5C 113.322,88.8761 119.988,88.0428 126.5,86C 129.47,85.2375 131.97,83.7375 134,81.5C 137.484,74.3601 137.318,67.3601 133.5,60.5C 135.483,61.9022 137.149,63.7355 138.5,66C 139.833,66.1667 141.167,66.3333 142.5,66.5C 145.115,65.8464 147.615,65.8464 150,66.5C 153.98,64.629 158.147,63.2957 162.5,62.5C 162.5,61.1667 162.5,59.8333 162.5,58.5 Z"/></g>
<g><path style="opacity:1" fill="#1d60ad" d="M 66.5,22.5 C 66.8333,22.5 67.1667,22.5 67.5,22.5C 67.1682,32.1896 67.5016,41.8563 68.5,51.5C 71.0789,60.8423 74.4123,69.8423 78.5,78.5C 72.1024,111.541 68.7691,144.875 68.5,178.5C 67.8099,169.404 67.1432,159.738 66.5,149.5C 66.5,146.833 66.5,144.167 66.5,141.5C 66.5,101.833 66.5,62.1667 66.5,22.5 Z"/></g>
<g><path style="opacity:1" fill="#5194cc" d="M 173.5,75.5 C 172.186,86.7939 167.186,96.1272 158.5,103.5C 156.77,104.026 155.436,105.026 154.5,106.5C 151.422,108.369 148.089,109.702 144.5,110.5C 143.839,109.282 143.172,107.949 142.5,106.5C 139.687,108.275 136.687,109.108 133.5,109C 145.793,105.366 155.793,98.533 163.5,88.5C 165.41,87.0254 166.576,85.0254 167,82.5C 168.03,78.2273 168.697,73.894 169,69.5C 168.988,72.6514 169.988,75.3181 172,77.5C 172.278,76.5842 172.778,75.9175 173.5,75.5 Z"/></g>
<g><path style="opacity:1" fill="#075382" d="M 154.5,106.5 C 157.305,109.831 160.472,112.831 164,115.5C 165.167,117.333 166.333,119.167 167.5,121C 164.178,125.319 160.178,128.985 155.5,132C 150.837,133.588 146.337,135.421 142,137.5C 140.316,136.807 138.816,136.474 137.5,136.5C 138.161,131.644 137.161,127.31 134.5,123.5C 132.642,118.425 128.976,116.092 123.5,116.5C 130.361,113.995 137.361,111.995 144.5,110.5C 148.089,109.702 151.422,108.369 154.5,106.5 Z"/></g>
<g><path style="opacity:1" fill="#cbebf8" d="M 123.5,116.5 C 128.976,116.092 132.642,118.425 134.5,123.5C 134.629,125.216 134.962,126.883 135.5,128.5C 136.148,136.573 132.815,141.907 125.5,144.5C 118.174,145.24 110.841,145.907 103.5,146.5C 103.5,136.833 103.5,127.167 103.5,117.5C 109.979,116.509 116.646,116.176 123.5,116.5 Z"/></g>
<g><path style="opacity:1" fill="#64afd6" d="M 134.5,123.5 C 137.161,127.31 138.161,131.644 137.5,136.5C 136.833,133.833 136.167,131.167 135.5,128.5C 134.962,126.883 134.629,125.216 134.5,123.5 Z"/></g>
<g><path style="opacity:1" fill="#2464a1" d="M 158.5,103.5 C 178.58,112.507 185.914,127.507 180.5,148.5C 179.778,148.918 179.278,149.584 179,150.5C 177.413,147.244 174.913,145.077 171.5,144C 172.801,142.384 172.801,140.884 171.5,139.5C 173.144,133.176 172.311,127.176 169,121.5C 169.078,125.337 169.578,129.17 170.5,133C 170.083,135.498 169.749,137.998 169.5,140.5C 168.778,140.082 168.278,139.416 168,138.5C 153.529,151.357 137.029,155.357 118.5,150.5C 113.669,151.599 109.002,151.599 104.5,150.5C 110.523,150.331 116.523,149.831 122.5,149C 123.737,148.768 124.737,148.268 125.5,147.5C 121.19,148.08 116.857,148.414 112.5,148.5C 116.622,146.872 120.956,145.539 125.5,144.5C 132.815,141.907 136.148,136.573 135.5,128.5C 136.167,131.167 136.833,133.833 137.5,136.5C 138.816,136.474 140.316,136.807 142,137.5C 146.337,135.421 150.837,133.588 155.5,132C 160.178,128.985 164.178,125.319 167.5,121C 166.333,119.167 165.167,117.333 164,115.5C 160.472,112.831 157.305,109.831 154.5,106.5C 155.436,105.026 156.77,104.026 158.5,103.5 Z"/></g>
<g><path style="opacity:1" fill="#4e91c1" d="M 171.5,139.5 C 171.267,142.542 170.267,145.208 168.5,147.5C 168.448,145.097 168.781,142.764 169.5,140.5C 169.749,137.998 170.083,135.498 170.5,133C 169.578,129.17 169.078,125.337 169,121.5C 172.311,127.176 173.144,133.176 171.5,139.5 Z"/></g>
<g><path style="opacity:1" fill="#ddf2fa" d="M 9.5,59.5 C 9.5,86.8333 9.5,114.167 9.5,141.5C 27.8333,141.5 46.1667,141.5 64.5,141.5C 65.1667,141.5 65.8333,141.5 66.5,141.5C 66.5,144.167 66.5,146.833 66.5,149.5C 66.5,159.5 66.5,169.5 66.5,179.5C 61.5217,174.187 56.5217,168.854 51.5,163.5C 50.174,184.732 50.174,205.898 51.5,227C 49.8659,227.494 48.1992,227.66 46.5,227.5C 27.9296,222.764 16.0962,211.097 11,192.5C 10.1696,187.857 9.50295,183.19 9,178.5C 8.16877,138.665 8.33544,98.9979 9.5,59.5 Z"/></g>
<g><path style="opacity:1" fill="#6cb1d7" d="M 125.5,147.5 C 130.146,145.417 133.646,142.084 136,137.5C 135.389,143.608 131.889,146.941 125.5,147.5 Z"/></g>
<g><path style="opacity:1" fill="#3472b6" d="M 103.5,117.5 C 103.5,127.167 103.5,136.833 103.5,146.5C 110.841,145.907 118.174,145.24 125.5,144.5C 120.956,145.539 116.622,146.872 112.5,148.5C 109.67,148.963 107.003,149.629 104.5,150.5C 109.002,151.599 113.669,151.599 118.5,150.5C 137.029,155.357 153.529,151.357 168,138.5C 168.278,139.416 168.778,140.082 169.5,140.5C 168.781,142.764 168.448,145.097 168.5,147.5C 168.25,149.674 167.25,151.341 165.5,152.5C 160.875,156.824 156.208,161.157 151.5,165.5C 144.896,168.091 138.229,170.591 131.5,173C 122.503,174.96 114.836,176.794 108.5,178.5C 107.791,179.404 106.791,179.737 105.5,179.5C 103.696,178.838 101.696,178.505 99.5,178.5C 89.4888,179.132 79.4888,179.799 69.5,180.5C 68.209,180.737 67.209,180.404 66.5,179.5C 66.5,169.5 66.5,159.5 66.5,149.5C 67.1432,159.738 67.8099,169.404 68.5,178.5C 70.8585,176.471 73.1918,174.471 75.5,172.5C 84.4229,165.75 92.9229,158.417 101,150.5C 100.598,139.878 100.431,129.212 100.5,118.5C 101.29,119.609 101.79,120.942 102,122.5C 102.198,120.618 102.698,118.952 103.5,117.5 Z"/></g>
<g><path style="opacity:1" fill="#65acd9" d="M 125.5,147.5 C 124.737,148.268 123.737,148.768 122.5,149C 116.523,149.831 110.523,150.331 104.5,150.5C 107.003,149.629 109.67,148.963 112.5,148.5C 116.857,148.414 121.19,148.08 125.5,147.5 Z"/></g>
<g><path style="opacity:1" fill="#0f538f" d="M 171.5,139.5 C 172.801,140.884 172.801,142.384 171.5,144C 174.913,145.077 177.413,147.244 179,150.5C 179.278,149.584 179.778,148.918 180.5,148.5C 180.06,151.38 179.06,154.046 177.5,156.5C 167.928,168.802 155.261,176.302 139.5,179C 131.216,180.362 122.883,181.195 114.5,181.5C 103.5,181.5 92.5,181.5 81.5,181.5C 89.3136,180.369 97.3136,179.702 105.5,179.5C 106.791,179.737 107.791,179.404 108.5,178.5C 119.468,177.796 130.135,175.629 140.5,172C 144.56,170.311 148.227,168.144 151.5,165.5C 158.103,163.23 162.769,158.897 165.5,152.5C 167.25,151.341 168.25,149.674 168.5,147.5C 170.267,145.208 171.267,142.542 171.5,139.5 Z"/></g>
<g><path style="opacity:1" fill="#e9f6fb" d="M 177.5,156.5 C 184.95,156.786 191.95,158.452 198.5,161.5C 197.448,161.351 196.448,161.517 195.5,162C 197.101,162.273 198.601,162.773 200,163.5C 200.667,174.5 200.667,185.5 200,196.5C 199.283,197.044 198.783,197.711 198.5,198.5C 194.982,192.25 189.649,190.084 182.5,192C 177.087,195.271 175.087,200.105 176.5,206.5C 175.327,218.493 180.66,223.326 192.5,221C 195.314,219.506 197.314,217.34 198.5,214.5C 199.222,214.918 199.722,215.584 200,216.5C 200.498,219.482 200.665,222.482 200.5,225.5C 188.747,228.789 176.747,230.289 164.5,230C 129.664,230.831 94.9976,230.664 60.5,229.5C 84.169,229.667 107.836,229.5 131.5,229C 130.887,226.853 130.221,224.686 129.5,222.5C 125.699,220.565 123.866,217.565 124,213.5C 124.278,214.416 124.778,215.082 125.5,215.5C 128.924,221.083 133.924,222.916 140.5,221C 146.095,218.646 147.928,214.479 146,208.5C 144.59,207.213 143.09,206.046 141.5,205C 145.292,202.947 146.458,199.781 145,195.5C 141.265,191.904 136.765,190.571 131.5,191.5C 130.523,188.713 130.19,185.713 130.5,182.5C 124.974,182.821 119.64,182.488 114.5,181.5C 122.883,181.195 131.216,180.362 139.5,179C 155.261,176.302 167.928,168.802 177.5,156.5 Z"/></g>
<g><path style="opacity:1" fill="#64a8ce" d="M 165.5,152.5 C 162.769,158.897 158.103,163.23 151.5,165.5C 156.208,161.157 160.875,156.824 165.5,152.5 Z"/></g>
<g><path style="opacity:1" fill="#e3f4fb" d="M 66.5,179.5 C 67.209,180.404 68.209,180.737 69.5,180.5C 73.2984,181.483 77.2984,181.817 81.5,181.5C 92.5,181.5 103.5,181.5 114.5,181.5C 119.64,182.488 124.974,182.821 130.5,182.5C 130.19,185.713 130.523,188.713 131.5,191.5C 128.334,193.154 126.667,195.821 126.5,199.5C 129.624,199.868 131.957,198.702 133.5,196C 139.327,194.498 141.494,196.664 140,202.5C 137.619,203.435 135.119,203.768 132.5,203.5C 132.5,204.833 132.5,206.167 132.5,207.5C 140.204,206.312 142.87,209.312 140.5,216.5C 137.897,217.562 135.23,217.728 132.5,217C 131.505,215.166 130.005,213.999 128,213.5C 126.624,213.684 125.791,214.351 125.5,215.5C 124.778,215.082 124.278,214.416 124,213.5C 123.866,217.565 125.699,220.565 129.5,222.5C 130.221,224.686 130.887,226.853 131.5,229C 107.836,229.5 84.169,229.667 60.5,229.5C 55.5662,229.771 50.8996,229.104 46.5,227.5C 48.1992,227.66 49.8659,227.494 51.5,227C 50.174,205.898 50.174,184.732 51.5,163.5C 56.5217,168.854 61.5217,174.187 66.5,179.5 Z"/></g>
<g><path style="opacity:1" fill="#63a7d1" d="M 151.5,165.5 C 148.227,168.144 144.56,170.311 140.5,172C 130.135,175.629 119.468,177.796 108.5,178.5C 114.836,176.794 122.503,174.96 131.5,173C 138.229,170.591 144.896,168.091 151.5,165.5 Z"/></g>
<g><path style="opacity:1" fill="#679fd1" d="M 105.5,179.5 C 97.3136,179.702 89.3136,180.369 81.5,181.5C 77.2984,181.817 73.2984,181.483 69.5,180.5C 79.4888,179.799 89.4888,179.132 99.5,178.5C 101.696,178.505 103.696,178.838 105.5,179.5 Z"/></g>
<g><path style="opacity:1" fill="#2d9de2" d="M 157.5,191.5 C 162.715,190.702 167.215,192.036 171,195.5C 171.49,196.793 171.657,198.127 171.5,199.5C 167.864,198.86 164.53,197.526 161.5,195.5C 159.626,195.39 158.126,196.056 157,197.5C 156.186,199.902 156.353,202.235 157.5,204.5C 168.514,200.667 173.014,204.667 171,216.5C 170.535,217.931 169.701,219.097 168.5,220C 164.625,221.52 160.625,221.854 156.5,221C 154.43,220.052 152.93,218.552 152,216.5C 151.333,210.167 151.333,203.833 152,197.5C 153.36,194.977 155.193,192.977 157.5,191.5 Z"/></g>
<g><path style="opacity:1" fill="#2f9fe3" d="M 198.5,198.5 C 198.5,203.833 198.5,209.167 198.5,214.5C 197.314,217.34 195.314,219.506 192.5,221C 180.66,223.326 175.327,218.493 176.5,206.5C 175.087,200.105 177.087,195.271 182.5,192C 189.649,190.084 194.982,192.25 198.5,198.5 Z"/></g>
<g><path style="opacity:1" fill="#e8f5fc" d="M 184.5,195.5 C 187.695,194.961 190.195,195.961 192,198.5C 192.667,204.167 192.667,209.833 192,215.5C 187.848,218.596 184.515,217.93 182,213.5C 181.333,208.5 181.333,203.5 182,198.5C 183.045,197.627 183.878,196.627 184.5,195.5 Z"/></g>
<g><path style="opacity:1" fill="#2c9ee3" d="M 131.5,191.5 C 136.765,190.571 141.265,191.904 145,195.5C 146.458,199.781 145.292,202.947 141.5,205C 143.09,206.046 144.59,207.213 146,208.5C 147.928,214.479 146.095,218.646 140.5,221C 133.924,222.916 128.924,221.083 125.5,215.5C 125.791,214.351 126.624,213.684 128,213.5C 130.005,213.999 131.505,215.166 132.5,217C 135.23,217.728 137.897,217.562 140.5,216.5C 142.87,209.312 140.204,206.312 132.5,207.5C 132.5,206.167 132.5,204.833 132.5,203.5C 135.119,203.768 137.619,203.435 140,202.5C 141.494,196.664 139.327,194.498 133.5,196C 131.957,198.702 129.624,199.868 126.5,199.5C 126.667,195.821 128.334,193.154 131.5,191.5 Z"/></g>
<g><path style="opacity:1" fill="#e5f4fb" d="M 159.5,206.5 C 167.257,206.503 169.257,210.003 165.5,217C 158,218.833 155.167,216 157,208.5C 157.995,207.934 158.828,207.267 159.5,206.5 Z"/></g>
</svg>
