<?xml version="1.0" encoding="UTF-8"?>
<!DOCTYPE svg PUBLIC "-//W3C//DTD SVG 1.1//EN" "http://www.w3.org/Graphics/SVG/1.1/DTD/svg11.dtd">
<svg xmlns="http://www.w3.org/2000/svg" version="1.1" width="335px" height="335px" style="shape-rendering:geometricPrecision; text-rendering:geometricPrecision; image-rendering:optimizeQuality; fill-rule:evenodd; clip-rule:evenodd" xmlns:xlink="http://www.w3.org/1999/xlink">
<g><path style="opacity:0.717" fill="#e8b6d5" d="M 168.5,3.5 C 166.833,3.5 165.167,3.5 163.5,3.5C 165.167,-0.5 166.833,-0.5 168.5,3.5 Z"/></g>
<g><path style="opacity:0.894" fill="#e5b1d1" d="M 163.5,3.5 C 165.167,3.5 166.833,3.5 168.5,3.5C 170.823,6.1261 173.157,8.79276 175.5,11.5C 169.167,11.5 162.833,11.5 156.5,11.5C 158.843,8.79276 161.177,6.1261 163.5,3.5 Z"/></g>
<g><path style="opacity:0.972" fill="#e3adcf" d="M 156.5,11.5 C 162.833,11.5 169.167,11.5 175.5,11.5C 175.833,12.1667 176.167,12.8333 176.5,13.5C 169.5,13.5 162.5,13.5 155.5,13.5C 155.833,12.8333 156.167,12.1667 156.5,11.5 Z"/></g>
<g><path style="opacity:0.949" fill="#e1aacd" d="M 155.5,13.5 C 162.5,13.5 169.5,13.5 176.5,13.5C 178.262,14.2623 179.262,15.5956 179.5,17.5C 170.5,17.5 161.5,17.5 152.5,17.5C 152.738,15.5956 153.738,14.2623 155.5,13.5 Z"/></g>
<g><path style="opacity:0.965" fill="#dfa4c9" d="M 152.5,17.5 C 161.5,17.5 170.5,17.5 179.5,17.5C 181.89,18.8908 183.557,20.8908 184.5,23.5C 172.167,23.5 159.833,23.5 147.5,23.5C 148.443,20.8908 150.11,18.8908 152.5,17.5 Z"/></g>
<g><path style="opacity:0.973" fill="#dc9fc6" d="M 147.5,23.5 C 159.833,23.5 172.167,23.5 184.5,23.5C 186.633,25.0905 188.299,27.0905 189.5,29.5C 173.833,29.5 158.167,29.5 142.5,29.5C 143.701,27.0905 145.367,25.0905 147.5,23.5 Z"/></g>
<g><path style="opacity:0.964" fill="#db9bc4" d="M 142.5,29.5 C 158.167,29.5 173.833,29.5 189.5,29.5C 190.5,29.8333 191.167,30.5 191.5,31.5C 174.5,31.5 157.5,31.5 140.5,31.5C 140.833,30.5 141.5,29.8333 142.5,29.5 Z"/></g>
<g><path style="opacity:0.982" fill="#d998c2" d="M 140.5,31.5 C 157.5,31.5 174.5,31.5 191.5,31.5C 192.5,32.8333 193.5,34.1667 194.5,35.5C 175.5,35.5 156.5,35.5 137.5,35.5C 138.5,34.1667 139.5,32.8333 140.5,31.5 Z"/></g>
<g><path style="opacity:0.98" fill="#d896c0" d="M 137.5,35.5 C 156.5,35.5 175.5,35.5 194.5,35.5C 195.338,35.8417 195.672,36.5084 195.5,37.5C 175.833,37.5 156.167,37.5 136.5,37.5C 136.328,36.5084 136.662,35.8417 137.5,35.5 Z"/></g>
<g><path style="opacity:0.981" fill="#d691bd" d="M 136.5,37.5 C 156.167,37.5 175.833,37.5 195.5,37.5C 197.587,38.5846 198.92,40.2512 199.5,42.5C 177.167,42.5 154.833,42.5 132.5,42.5C 133.08,40.2512 134.413,38.5846 136.5,37.5 Z"/></g>
<g><path style="opacity:0.963" fill="#d38cba" d="M 132.5,42.5 C 154.833,42.5 177.167,42.5 199.5,42.5C 202.2,44.2344 204.2,46.5677 205.5,49.5C 193.833,49.5 182.167,49.5 170.5,49.5C 169.236,47.7299 167.736,46.0632 166,44.5C 164.264,46.0632 162.764,47.7299 161.5,49.5C 149.833,49.5 138.167,49.5 126.5,49.5C 127.8,46.5677 129.8,44.2344 132.5,42.5 Z"/></g>
<g><path style="opacity:0.968" fill="#d187b7" d="M 126.5,49.5 C 138.167,49.5 149.833,49.5 161.5,49.5C 160.5,50.8333 159.5,52.1667 158.5,53.5C 146.833,53.5 135.167,53.5 123.5,53.5C 124.026,51.7697 125.026,50.4363 126.5,49.5 Z"/></g>
<g><path style="opacity:0.968" fill="#d187b7" d="M 170.5,49.5 C 182.167,49.5 193.833,49.5 205.5,49.5C 206.974,50.4363 207.974,51.7697 208.5,53.5C 196.833,53.5 185.167,53.5 173.5,53.5C 172.5,52.1667 171.5,50.8333 170.5,49.5 Z"/></g>
<g><path style="opacity:0.951" fill="#cf83b4" d="M 123.5,53.5 C 135.167,53.5 146.833,53.5 158.5,53.5C 157.833,54.8333 156.833,55.8333 155.5,56.5C 144.5,56.5 133.5,56.5 122.5,56.5C 122.263,55.209 122.596,54.209 123.5,53.5 Z"/></g>
<g><path style="opacity:0.951" fill="#cf83b4" d="M 173.5,53.5 C 185.167,53.5 196.833,53.5 208.5,53.5C 209.404,54.209 209.737,55.209 209.5,56.5C 198.5,56.5 187.5,56.5 176.5,56.5C 175.167,55.8333 174.167,54.8333 173.5,53.5 Z"/></g>
<g><path style="opacity:0.957" fill="#cd7fb1" d="M 122.5,56.5 C 133.5,56.5 144.5,56.5 155.5,56.5C 154.876,58.754 153.543,60.4206 151.5,61.5C 141.833,61.5 132.167,61.5 122.5,61.5C 122.5,59.8333 122.5,58.1667 122.5,56.5 Z"/></g>
<g><path style="opacity:0.957" fill="#cd7fb1" d="M 176.5,56.5 C 187.5,56.5 198.5,56.5 209.5,56.5C 209.5,58.1667 209.5,59.8333 209.5,61.5C 199.833,61.5 190.167,61.5 180.5,61.5C 178.457,60.4206 177.124,58.754 176.5,56.5 Z"/></g>
<g><path style="opacity:0.954" fill="#cb7baf" d="M 122.5,61.5 C 132.167,61.5 141.833,61.5 151.5,61.5C 151.443,62.609 151.11,63.609 150.5,64.5C 141.167,64.5 131.833,64.5 122.5,64.5C 122.5,63.5 122.5,62.5 122.5,61.5 Z"/></g>
<g><path style="opacity:0.954" fill="#cb7baf" d="M 180.5,61.5 C 190.167,61.5 199.833,61.5 209.5,61.5C 209.5,62.5 209.5,63.5 209.5,64.5C 200.167,64.5 190.833,64.5 181.5,64.5C 180.89,63.609 180.557,62.609 180.5,61.5 Z"/></g>
<g><path style="opacity:0.964" fill="#ca78ad" d="M 122.5,64.5 C 131.833,64.5 141.167,64.5 150.5,64.5C 150.5,65.8333 150.5,67.1667 150.5,68.5C 141.167,68.5 131.833,68.5 122.5,68.5C 122.5,67.1667 122.5,65.8333 122.5,64.5 Z"/></g>
<g><path style="opacity:0.964" fill="#ca78ad" d="M 181.5,64.5 C 190.833,64.5 200.167,64.5 209.5,64.5C 209.5,65.8333 209.5,67.1667 209.5,68.5C 200.167,68.5 190.833,68.5 181.5,68.5C 181.5,67.1667 181.5,65.8333 181.5,64.5 Z"/></g>
<g><path style="opacity:0.964" fill="#c873aa" d="M 122.5,68.5 C 131.833,68.5 141.167,68.5 150.5,68.5C 150.5,70.1667 150.5,71.8333 150.5,73.5C 141.167,73.5 131.833,73.5 122.5,73.5C 122.5,71.8333 122.5,70.1667 122.5,68.5 Z"/></g>
<g><path style="opacity:0.964" fill="#c873aa" d="M 181.5,68.5 C 190.833,68.5 200.167,68.5 209.5,68.5C 209.5,70.1667 209.5,71.8333 209.5,73.5C 200.167,73.5 190.833,73.5 181.5,73.5C 181.5,71.8333 181.5,70.1667 181.5,68.5 Z"/></g>
<g><path style="opacity:0.964" fill="#c56da6" d="M 122.5,73.5 C 131.833,73.5 141.167,73.5 150.5,73.5C 150.5,75.5 150.5,77.5 150.5,79.5C 141.167,79.5 131.833,79.5 122.5,79.5C 122.5,77.5 122.5,75.5 122.5,73.5 Z"/></g>
<g><path style="opacity:0.964" fill="#c56da6" d="M 181.5,73.5 C 190.833,73.5 200.167,73.5 209.5,73.5C 209.5,75.5 209.5,77.5 209.5,79.5C 200.167,79.5 190.833,79.5 181.5,79.5C 181.5,77.5 181.5,75.5 181.5,73.5 Z"/></g>
<g><path style="opacity:0.715" fill="#f5afb7" d="M 41.5,82.5 C 39.5,82.5 37.5,82.5 35.5,82.5C 35.2148,80.712 35.5481,79.0453 36.5,77.5C 38.5212,78.8545 40.1879,80.5212 41.5,82.5 Z"/></g>
<g><path style="opacity:0.813" fill="#8db7e2" d="M 296.5,82.5 C 294.5,82.5 292.5,82.5 290.5,82.5C 291.838,80.3302 293.672,78.6635 296,77.5C 296.494,79.1341 296.66,80.8008 296.5,82.5 Z"/></g>
<g><path style="opacity:0.964" fill="#c368a3" d="M 122.5,79.5 C 131.833,79.5 141.167,79.5 150.5,79.5C 150.5,81.1667 150.5,82.8333 150.5,84.5C 141.167,84.5 131.833,84.5 122.5,84.5C 122.5,82.8333 122.5,81.1667 122.5,79.5 Z"/></g>
<g><path style="opacity:0.964" fill="#c368a3" d="M 181.5,79.5 C 190.833,79.5 200.167,79.5 209.5,79.5C 209.5,81.1667 209.5,82.8333 209.5,84.5C 200.167,84.5 190.833,84.5 181.5,84.5C 181.5,82.8333 181.5,81.1667 181.5,79.5 Z"/></g>
<g><path style="opacity:0.915" fill="#f5abb1" d="M 35.5,82.5 C 37.5,82.5 39.5,82.5 41.5,82.5C 44.0892,83.4194 46.0892,85.086 47.5,87.5C 43.5,87.5 39.5,87.5 35.5,87.5C 35.5,85.8333 35.5,84.1667 35.5,82.5 Z"/></g>
<g><path style="opacity:0.875" fill="#8ab4e0" d="M 290.5,82.5 C 292.5,82.5 294.5,82.5 296.5,82.5C 296.5,83.1667 296.5,83.8333 296.5,84.5C 293.5,84.5 290.5,84.5 287.5,84.5C 288.29,83.5987 289.29,82.9321 290.5,82.5 Z"/></g>
<g><path style="opacity:0.964" fill="#c264a1" d="M 122.5,84.5 C 131.833,84.5 141.167,84.5 150.5,84.5C 150.5,85.1667 150.5,85.8333 150.5,86.5C 141.167,86.5 131.833,86.5 122.5,86.5C 122.5,85.8333 122.5,85.1667 122.5,84.5 Z"/></g>
<g><path style="opacity:0.964" fill="#c264a1" d="M 181.5,84.5 C 190.833,84.5 200.167,84.5 209.5,84.5C 209.5,85.1667 209.5,85.8333 209.5,86.5C 200.167,86.5 190.833,86.5 181.5,86.5C 181.5,85.8333 181.5,85.1667 181.5,84.5 Z"/></g>
<g><path style="opacity:0.93" fill="#86b0dd" d="M 287.5,84.5 C 290.5,84.5 293.5,84.5 296.5,84.5C 296.5,86.5 296.5,88.5 296.5,90.5C 291.167,90.5 285.833,90.5 280.5,90.5C 282.607,88.2733 284.94,86.2733 287.5,84.5 Z"/></g>
<g><path style="opacity:0.964" fill="#c05f9f" d="M 122.5,86.5 C 131.833,86.5 141.167,86.5 150.5,86.5C 150.5,88.5 150.5,90.5 150.5,92.5C 141.167,92.5 131.833,92.5 122.5,92.5C 122.5,90.5 122.5,88.5 122.5,86.5 Z"/></g>
<g><path style="opacity:0.964" fill="#c05f9f" d="M 181.5,86.5 C 190.833,86.5 200.167,86.5 209.5,86.5C 209.5,88.5 209.5,90.5 209.5,92.5C 200.167,92.5 190.833,92.5 181.5,92.5C 181.5,90.5 181.5,88.5 181.5,86.5 Z"/></g>
<g><path style="opacity:0.947" fill="#f4a6aa" d="M 35.5,87.5 C 39.5,87.5 43.5,87.5 47.5,87.5C 49.7488,88.0798 51.4154,89.4131 52.5,91.5C 46.8333,91.5 41.1667,91.5 35.5,91.5C 35.5,90.1667 35.5,88.8333 35.5,87.5 Z"/></g>
<g><path style="opacity:0.956" fill="#f4a4a6" d="M 35.5,91.5 C 41.1667,91.5 46.8333,91.5 52.5,91.5C 53.7095,91.9321 54.7095,92.5987 55.5,93.5C 48.8333,93.5 42.1667,93.5 35.5,93.5C 35.5,92.8333 35.5,92.1667 35.5,91.5 Z"/></g>
<g><path style="opacity:0.952" fill="#82acdb" d="M 280.5,90.5 C 285.833,90.5 291.167,90.5 296.5,90.5C 296.5,91.5 296.5,92.5 296.5,93.5C 289.833,93.5 283.167,93.5 276.5,93.5C 277.795,92.5116 279.128,91.5116 280.5,90.5 Z"/></g>
<g><path style="opacity:0.964" fill="#be5c9d" d="M 122.5,92.5 C 131.833,92.5 141.167,92.5 150.5,92.5C 150.5,93.5 150.5,94.5 150.5,95.5C 141.167,95.5 131.833,95.5 122.5,95.5C 122.5,94.5 122.5,93.5 122.5,92.5 Z"/></g>
<g><path style="opacity:0.964" fill="#be5c9d" d="M 181.5,92.5 C 190.833,92.5 200.167,92.5 209.5,92.5C 209.5,93.5 209.5,94.5 209.5,95.5C 200.167,95.5 190.833,95.5 181.5,95.5C 181.5,94.5 181.5,93.5 181.5,92.5 Z"/></g>
<g><path style="opacity:0.954" fill="#7fa9d8" d="M 276.5,93.5 C 283.167,93.5 289.833,93.5 296.5,93.5C 296.5,94.1667 296.5,94.8333 296.5,95.5C 289.167,95.5 281.833,95.5 274.5,95.5C 274.833,94.5 275.5,93.8333 276.5,93.5 Z"/></g>
<g><path style="opacity:0.96" fill="#f3a2a3" d="M 35.5,93.5 C 42.1667,93.5 48.8333,93.5 55.5,93.5C 56.5,93.8333 57.1667,94.5 57.5,95.5C 50.1667,95.5 42.8333,95.5 35.5,95.5C 35.5,94.8333 35.5,94.1667 35.5,93.5 Z"/></g>
<g><path style="opacity:0.968" fill="#f39f9f" d="M 35.5,95.5 C 42.8333,95.5 50.1667,95.5 57.5,95.5C 59.3885,96.604 61.0552,97.9373 62.5,99.5C 53.5,99.5 44.5,99.5 35.5,99.5C 35.5,98.1667 35.5,96.8333 35.5,95.5 Z"/></g>
<g><path style="opacity:0.964" fill="#bd599b" d="M 122.5,95.5 C 131.833,95.5 141.167,95.5 150.5,95.5C 150.5,96.8333 150.5,98.1667 150.5,99.5C 141.167,99.5 131.833,99.5 122.5,99.5C 122.5,98.1667 122.5,96.8333 122.5,95.5 Z"/></g>
<g><path style="opacity:0.964" fill="#bd599b" d="M 181.5,95.5 C 190.833,95.5 200.167,95.5 209.5,95.5C 209.5,96.8333 209.5,98.1667 209.5,99.5C 200.167,99.5 190.833,99.5 181.5,99.5C 181.5,98.1667 181.5,96.8333 181.5,95.5 Z"/></g>
<g><path style="opacity:0.975" fill="#7da8d7" d="M 274.5,95.5 C 281.833,95.5 289.167,95.5 296.5,95.5C 296.5,96.1667 296.5,96.8333 296.5,97.5C 288.5,97.5 280.5,97.5 272.5,97.5C 272.833,96.5 273.5,95.8333 274.5,95.5 Z"/></g>
<g><path style="opacity:0.964" fill="#7aa5d5" d="M 272.5,97.5 C 280.5,97.5 288.5,97.5 296.5,97.5C 296.5,98.8333 296.5,100.167 296.5,101.5C 286.833,101.5 277.167,101.5 267.5,101.5C 268.585,99.4131 270.251,98.0798 272.5,97.5 Z"/></g>
<g><path style="opacity:0.964" fill="#bc5699" d="M 122.5,99.5 C 131.833,99.5 141.167,99.5 150.5,99.5C 150.5,100.833 150.5,102.167 150.5,103.5C 141.167,103.5 131.833,103.5 122.5,103.5C 122.5,102.167 122.5,100.833 122.5,99.5 Z"/></g>
<g><path style="opacity:0.964" fill="#bc5699" d="M 181.5,99.5 C 190.833,99.5 200.167,99.5 209.5,99.5C 209.5,100.833 209.5,102.167 209.5,103.5C 200.167,103.5 190.833,103.5 181.5,103.5C 181.5,102.167 181.5,100.833 181.5,99.5 Z"/></g>
<g><path style="opacity:0.975" fill="#f29a98" d="M 35.5,99.5 C 44.5,99.5 53.5,99.5 62.5,99.5C 65.0599,101.273 67.3932,103.273 69.5,105.5C 58.1667,105.5 46.8333,105.5 35.5,105.5C 35.5,103.5 35.5,101.5 35.5,99.5 Z"/></g>
<g><path style="opacity:0.959" fill="#77a2d4" d="M 267.5,101.5 C 277.167,101.5 286.833,101.5 296.5,101.5C 296.5,102.167 296.5,102.833 296.5,103.5C 285.833,103.5 275.167,103.5 264.5,103.5C 265.29,102.599 266.29,101.932 267.5,101.5 Z"/></g>
<g><path style="opacity:0.964" fill="#ba5397" d="M 122.5,103.5 C 131.833,103.5 141.167,103.5 150.5,103.5C 150.5,104.5 150.5,105.5 150.5,106.5C 141.167,106.5 131.833,106.5 122.5,106.5C 122.5,105.5 122.5,104.5 122.5,103.5 Z"/></g>
<g><path style="opacity:0.964" fill="#ba5397" d="M 181.5,103.5 C 190.833,103.5 200.167,103.5 209.5,103.5C 209.5,104.5 209.5,105.5 209.5,106.5C 200.167,106.5 190.833,106.5 181.5,106.5C 181.5,105.5 181.5,104.5 181.5,103.5 Z"/></g>
<g><path style="opacity:0.975" fill="#739ed1" d="M 264.5,103.5 C 275.167,103.5 285.833,103.5 296.5,103.5C 296.5,105.167 296.5,106.833 296.5,108.5C 283.833,108.5 271.167,108.5 258.5,108.5C 260.475,106.863 262.475,105.196 264.5,103.5 Z"/></g>
<g><path style="opacity:0.986" fill="#f29693" d="M 35.5,105.5 C 46.8333,105.5 58.1667,105.5 69.5,105.5C 70.5,105.833 71.1667,106.5 71.5,107.5C 59.5,107.5 47.5,107.5 35.5,107.5C 35.5,106.833 35.5,106.167 35.5,105.5 Z"/></g>
<g><path style="opacity:0.964" fill="#b95096" d="M 122.5,106.5 C 131.833,106.5 141.167,106.5 150.5,106.5C 150.5,107.5 150.5,108.5 150.5,109.5C 141.167,109.5 131.833,109.5 122.5,109.5C 122.5,108.5 122.5,107.5 122.5,106.5 Z"/></g>
<g><path style="opacity:0.964" fill="#b95096" d="M 181.5,106.5 C 190.833,106.5 200.167,106.5 209.5,106.5C 209.5,107.5 209.5,108.5 209.5,109.5C 200.167,109.5 190.833,109.5 181.5,109.5C 181.5,108.5 181.5,107.5 181.5,106.5 Z"/></g>
<g><path style="opacity:0.972" fill="#f19491" d="M 35.5,107.5 C 47.5,107.5 59.5,107.5 71.5,107.5C 73.0269,107.427 74.0269,108.094 74.5,109.5C 61.5,109.5 48.5,109.5 35.5,109.5C 35.5,108.833 35.5,108.167 35.5,107.5 Z"/></g>
<g><path style="opacity:0.975" fill="#719bcf" d="M 258.5,108.5 C 271.167,108.5 283.833,108.5 296.5,108.5C 296.5,109.5 296.5,110.5 296.5,111.5C 282.833,111.5 269.167,111.5 255.5,111.5C 256.167,110.167 257.167,109.167 258.5,108.5 Z"/></g>
<g><path style="opacity:0.983" fill="#f0918c" d="M 35.5,109.5 C 48.5,109.5 61.5,109.5 74.5,109.5C 76.5398,111.177 78.5398,112.844 80.5,114.5C 65.5,114.5 50.5,114.5 35.5,114.5C 35.5,112.833 35.5,111.167 35.5,109.5 Z"/></g>
<g><path style="opacity:0.964" fill="#b84c94" d="M 122.5,109.5 C 131.833,109.5 141.167,109.5 150.5,109.5C 150.5,111.167 150.5,112.833 150.5,114.5C 141.167,114.5 131.833,114.5 122.5,114.5C 122.5,112.833 122.5,111.167 122.5,109.5 Z"/></g>
<g><path style="opacity:0.964" fill="#b84c94" d="M 181.5,109.5 C 190.833,109.5 200.167,109.5 209.5,109.5C 209.5,111.167 209.5,112.833 209.5,114.5C 200.167,114.5 190.833,114.5 181.5,114.5C 181.5,112.833 181.5,111.167 181.5,109.5 Z"/></g>
<g><path style="opacity:0.981" fill="#6d97cb" d="M 255.5,111.5 C 269.167,111.5 282.833,111.5 296.5,111.5C 296.5,113.167 296.5,114.833 296.5,116.5C 280.833,116.5 265.167,116.5 249.5,116.5C 250.891,114.11 252.891,112.443 255.5,111.5 Z"/></g>
<g><path style="opacity:0.985" fill="#ef8c86" d="M 35.5,114.5 C 50.5,114.5 65.5,114.5 80.5,114.5C 82.5398,116.177 84.5398,117.844 86.5,119.5C 69.5,119.5 52.5,119.5 35.5,119.5C 35.5,117.833 35.5,116.167 35.5,114.5 Z"/></g>
<g><path style="opacity:0.964" fill="#b64791" d="M 122.5,114.5 C 131.833,114.5 141.167,114.5 150.5,114.5C 150.5,116.5 150.5,118.5 150.5,120.5C 141.167,120.5 131.833,120.5 122.5,120.5C 122.5,118.5 122.5,116.5 122.5,114.5 Z"/></g>
<g><path style="opacity:0.964" fill="#b64791" d="M 181.5,114.5 C 190.833,114.5 200.167,114.5 209.5,114.5C 209.5,116.5 209.5,118.5 209.5,120.5C 200.167,120.5 190.833,120.5 181.5,120.5C 181.5,118.5 181.5,116.5 181.5,114.5 Z"/></g>
<g><path style="opacity:0.979" fill="#6993c8" d="M 249.5,116.5 C 265.167,116.5 280.833,116.5 296.5,116.5C 296.5,117.833 296.5,119.167 296.5,120.5C 279.167,120.5 261.833,120.5 244.5,120.5C 245.579,118.457 247.246,117.124 249.5,116.5 Z"/></g>
<g><path style="opacity:0.986" fill="#ef867f" d="M 35.5,119.5 C 52.5,119.5 69.5,119.5 86.5,119.5C 88.5398,121.177 90.5398,122.844 92.5,124.5C 73.5,124.5 54.5,124.5 35.5,124.5C 35.5,122.833 35.5,121.167 35.5,119.5 Z"/></g>
<g><path style="opacity:0.986" fill="#6590c6" d="M 244.5,120.5 C 261.833,120.5 279.167,120.5 296.5,120.5C 296.5,121.5 296.5,122.5 296.5,123.5C 277.833,123.5 259.167,123.5 240.5,123.5C 241.795,122.512 243.128,121.512 244.5,120.5 Z"/></g>
<g><path style="opacity:0.964" fill="#b3408e" d="M 122.5,120.5 C 131.833,120.5 141.167,120.5 150.5,120.5C 150.5,122.5 150.5,124.5 150.5,126.5C 141.167,126.5 131.833,126.5 122.5,126.5C 122.5,124.5 122.5,122.5 122.5,120.5 Z"/></g>
<g><path style="opacity:0.964" fill="#b3408e" d="M 181.5,120.5 C 190.833,120.5 200.167,120.5 209.5,120.5C 209.5,122.5 209.5,124.5 209.5,126.5C 200.167,126.5 190.833,126.5 181.5,126.5C 181.5,124.5 181.5,122.5 181.5,120.5 Z"/></g>
<g><path style="opacity:0.986" fill="#618cc3" d="M 240.5,123.5 C 259.167,123.5 277.833,123.5 296.5,123.5C 296.5,125.167 296.5,126.833 296.5,128.5C 275.833,128.5 255.167,128.5 234.5,128.5C 236.475,126.863 238.475,125.196 240.5,123.5 Z"/></g>
<g><path style="opacity:0.984" fill="#ee8178" d="M 35.5,124.5 C 54.5,124.5 73.5,124.5 92.5,124.5C 94.9095,125.701 96.9095,127.367 98.5,129.5C 77.5,129.5 56.5,129.5 35.5,129.5C 35.5,127.833 35.5,126.167 35.5,124.5 Z"/></g>
<g><path style="opacity:0.964" fill="#b13b8b" d="M 122.5,126.5 C 131.833,126.5 141.167,126.5 150.5,126.5C 150.5,128.5 150.5,130.5 150.5,132.5C 141.167,132.5 131.833,132.5 122.5,132.5C 122.5,130.5 122.5,128.5 122.5,126.5 Z"/></g>
<g><path style="opacity:0.964" fill="#b13b8b" d="M 181.5,126.5 C 190.833,126.5 200.167,126.5 209.5,126.5C 209.5,128.5 209.5,130.5 209.5,132.5C 200.167,132.5 190.833,132.5 181.5,132.5C 181.5,130.5 181.5,128.5 181.5,126.5 Z"/></g>
<g><path style="opacity:0.985" fill="#5f8ac1" d="M 234.5,128.5 C 255.167,128.5 275.833,128.5 296.5,128.5C 296.5,129.167 296.5,129.833 296.5,130.5C 275.167,130.5 253.833,130.5 232.5,130.5C 232.833,129.5 233.5,128.833 234.5,128.5 Z"/></g>
<g><path style="opacity:0.991" fill="#ee7d73" d="M 35.5,129.5 C 56.5,129.5 77.5,129.5 98.5,129.5C 99.5,129.833 100.167,130.5 100.5,131.5C 78.8333,131.5 57.1667,131.5 35.5,131.5C 35.5,130.833 35.5,130.167 35.5,129.5 Z"/></g>
<g><path style="opacity:0.986" fill="#5b86be" d="M 232.5,130.5 C 253.833,130.5 275.167,130.5 296.5,130.5C 296.5,132.5 296.5,134.5 296.5,136.5C 287.5,136.5 278.5,136.5 269.5,136.5C 269.062,135.494 268.396,135.494 267.5,136.5C 253.5,136.5 239.5,136.5 225.5,136.5C 227.234,133.8 229.568,131.8 232.5,130.5 Z"/></g>
<g><path style="opacity:0.984" fill="#ed7b71" d="M 35.5,131.5 C 57.1667,131.5 78.8333,131.5 100.5,131.5C 102.027,131.427 103.027,132.094 103.5,133.5C 80.8333,133.5 58.1667,133.5 35.5,133.5C 35.5,132.833 35.5,132.167 35.5,131.5 Z"/></g>
<g><path style="opacity:0.964" fill="#b0378a" d="M 122.5,132.5 C 131.833,132.5 141.167,132.5 150.5,132.5C 150.5,133.167 150.5,133.833 150.5,134.5C 141.167,134.5 131.833,134.5 122.5,134.5C 122.5,133.833 122.5,133.167 122.5,132.5 Z"/></g>
<g><path style="opacity:0.964" fill="#b0378a" d="M 181.5,132.5 C 190.833,132.5 200.167,132.5 209.5,132.5C 209.5,133.167 209.5,133.833 209.5,134.5C 200.167,134.5 190.833,134.5 181.5,134.5C 181.5,133.833 181.5,133.167 181.5,132.5 Z"/></g>
<g><path style="opacity:0.978" fill="#ec776d" d="M 35.5,133.5 C 58.1667,133.5 80.8333,133.5 103.5,133.5C 105.587,134.585 106.92,136.251 107.5,138.5C 94.1667,138.5 80.8333,138.5 67.5,138.5C 65.9826,138.489 64.8159,137.823 64,136.5C 63.5357,137.094 63.369,137.761 63.5,138.5C 54.1667,138.5 44.8333,138.5 35.5,138.5C 35.5,136.833 35.5,135.167 35.5,133.5 Z"/></g>
<g><path style="opacity:0.964" fill="#af3488" d="M 122.5,134.5 C 131.833,134.5 141.167,134.5 150.5,134.5C 150.5,136.167 150.5,137.833 150.5,139.5C 141.167,139.5 131.833,139.5 122.5,139.5C 122.5,137.833 122.5,136.167 122.5,134.5 Z"/></g>
<g><path style="opacity:0.964" fill="#af3488" d="M 181.5,134.5 C 190.833,134.5 200.167,134.5 209.5,134.5C 209.5,136.167 209.5,137.833 209.5,139.5C 200.167,139.5 190.833,139.5 181.5,139.5C 181.5,137.833 181.5,136.167 181.5,134.5 Z"/></g>
<g><path style="opacity:0.966" fill="#5882bc" d="M 225.5,136.5 C 239.5,136.5 253.5,136.5 267.5,136.5C 267.027,137.906 266.027,138.573 264.5,138.5C 251.167,138.5 237.833,138.5 224.5,138.5C 224.328,137.508 224.662,136.842 225.5,136.5 Z"/></g>
<g><path style="opacity:1" fill="#5882bc" d="M 269.5,136.5 C 278.5,136.5 287.5,136.5 296.5,136.5C 296.5,137.167 296.5,137.833 296.5,138.5C 287.5,138.5 278.5,138.5 269.5,138.5C 269.5,137.833 269.5,137.167 269.5,136.5 Z"/></g>
<g><path style="opacity:0.973" fill="#ec7267" d="M 35.5,138.5 C 44.8333,138.5 54.1667,138.5 63.5,138.5C 63.5,140.167 63.5,141.833 63.5,143.5C 54.1667,143.5 44.8333,143.5 35.5,143.5C 35.5,141.833 35.5,140.167 35.5,138.5 Z"/></g>
<g><path style="opacity:0.968" fill="#ec7267" d="M 67.5,138.5 C 80.8333,138.5 94.1667,138.5 107.5,138.5C 107.5,140.167 107.5,141.833 107.5,143.5C 96.1667,143.5 84.8333,143.5 73.5,143.5C 71.0905,142.299 69.0905,140.633 67.5,138.5 Z"/></g>
<g><path style="opacity:0.971" fill="#547fb9" d="M 224.5,138.5 C 237.833,138.5 251.167,138.5 264.5,138.5C 262.766,141.2 260.432,143.2 257.5,144.5C 246.5,144.5 235.5,144.5 224.5,144.5C 224.5,142.5 224.5,140.5 224.5,138.5 Z"/></g>
<g><path style="opacity:1" fill="#547fb9" d="M 269.5,138.5 C 278.5,138.5 287.5,138.5 296.5,138.5C 296.5,140.5 296.5,142.5 296.5,144.5C 287.5,144.5 278.5,144.5 269.5,144.5C 269.5,142.5 269.5,140.5 269.5,138.5 Z"/></g>
<g><path style="opacity:0.964" fill="#ad2f86" d="M 122.5,139.5 C 131.833,139.5 141.167,139.5 150.5,139.5C 150.5,142.167 150.5,144.833 150.5,147.5C 141.167,147.5 131.833,147.5 122.5,147.5C 122.5,144.833 122.5,142.167 122.5,139.5 Z"/></g>
<g><path style="opacity:0.964" fill="#ad2f86" d="M 181.5,139.5 C 190.833,139.5 200.167,139.5 209.5,139.5C 209.5,142.167 209.5,144.833 209.5,147.5C 200.167,147.5 190.833,147.5 181.5,147.5C 181.5,144.833 181.5,142.167 181.5,139.5 Z"/></g>
<g><path style="opacity:0.973" fill="#eb6d60" d="M 35.5,143.5 C 44.8333,143.5 54.1667,143.5 63.5,143.5C 63.5,145.167 63.5,146.833 63.5,148.5C 54.1667,148.5 44.8333,148.5 35.5,148.5C 35.5,146.833 35.5,145.167 35.5,143.5 Z"/></g>
<g><path style="opacity:0.956" fill="#eb6d60" d="M 73.5,143.5 C 84.8333,143.5 96.1667,143.5 107.5,143.5C 107.5,145.167 107.5,146.833 107.5,148.5C 98.1667,148.5 88.8333,148.5 79.5,148.5C 77.4602,146.823 75.4602,145.156 73.5,143.5 Z"/></g>
<g><path style="opacity:0.968" fill="#507bb6" d="M 224.5,144.5 C 235.5,144.5 246.5,144.5 257.5,144.5C 256.205,145.488 254.872,146.488 253.5,147.5C 243.833,147.5 234.167,147.5 224.5,147.5C 224.5,146.5 224.5,145.5 224.5,144.5 Z"/></g>
<g><path style="opacity:1" fill="#507bb6" d="M 269.5,144.5 C 278.5,144.5 287.5,144.5 296.5,144.5C 296.5,145.5 296.5,146.5 296.5,147.5C 287.5,147.5 278.5,147.5 269.5,147.5C 269.5,146.5 269.5,145.5 269.5,144.5 Z"/></g>
<g><path style="opacity:0.964" fill="#ab2984" d="M 122.5,147.5 C 131.833,147.5 141.167,147.5 150.5,147.5C 150.5,149.5 150.5,151.5 150.5,153.5C 141.167,153.5 131.833,153.5 122.5,153.5C 122.5,151.5 122.5,149.5 122.5,147.5 Z"/></g>
<g><path style="opacity:0.964" fill="#ab2984" d="M 181.5,147.5 C 190.833,147.5 200.167,147.5 209.5,147.5C 209.5,149.5 209.5,151.5 209.5,153.5C 200.167,153.5 190.833,153.5 181.5,153.5C 181.5,151.5 181.5,149.5 181.5,147.5 Z"/></g>
<g><path style="opacity:0.963" fill="#4d78b4" d="M 224.5,147.5 C 234.167,147.5 243.833,147.5 253.5,147.5C 252.766,148.708 252.433,150.041 252.5,151.5C 243.167,151.5 233.833,151.5 224.5,151.5C 224.5,150.167 224.5,148.833 224.5,147.5 Z"/></g>
<g><path style="opacity:1" fill="#4d78b3" d="M 269.5,147.5 C 278.5,147.5 287.5,147.5 296.5,147.5C 296.5,148.833 296.5,150.167 296.5,151.5C 287.5,151.5 278.5,151.5 269.5,151.5C 269.5,150.167 269.5,148.833 269.5,147.5 Z"/></g>
<g><path style="opacity:0.973" fill="#ea6759" d="M 35.5,148.5 C 44.8333,148.5 54.1667,148.5 63.5,148.5C 63.5,150.167 63.5,151.833 63.5,153.5C 54.1667,153.5 44.8333,153.5 35.5,153.5C 35.5,151.833 35.5,150.167 35.5,148.5 Z"/></g>
<g><path style="opacity:0.955" fill="#ea6759" d="M 79.5,148.5 C 88.8333,148.5 98.1667,148.5 107.5,148.5C 107.5,150.167 107.5,151.833 107.5,153.5C 98.1667,153.5 88.8333,153.5 79.5,153.5C 79.5,151.833 79.5,150.167 79.5,148.5 Z"/></g>
<g><path style="opacity:0.964" fill="#4b75b2" d="M 224.5,151.5 C 233.833,151.5 243.167,151.5 252.5,151.5C 252.5,152.167 252.5,152.833 252.5,153.5C 243.167,153.5 233.833,153.5 224.5,153.5C 224.5,152.833 224.5,152.167 224.5,151.5 Z"/></g>
<g><path style="opacity:1" fill="#4b75b2" d="M 269.5,151.5 C 278.5,151.5 287.5,151.5 296.5,151.5C 296.5,152.167 296.5,152.833 296.5,153.5C 287.5,153.5 278.5,153.5 269.5,153.5C 269.5,152.833 269.5,152.167 269.5,151.5 Z"/></g>
<g><path style="opacity:0.973" fill="#e96253" d="M 35.5,153.5 C 44.8333,153.5 54.1667,153.5 63.5,153.5C 63.5,154.5 63.5,155.5 63.5,156.5C 54.1667,156.5 44.8333,156.5 35.5,156.5C 35.5,155.5 35.5,154.5 35.5,153.5 Z"/></g>
<g><path style="opacity:0.955" fill="#e96253" d="M 79.5,153.5 C 88.8333,153.5 98.1667,153.5 107.5,153.5C 107.5,154.5 107.5,155.5 107.5,156.5C 98.1667,156.5 88.8333,156.5 79.5,156.5C 79.5,155.5 79.5,154.5 79.5,153.5 Z"/></g>
<g><path style="opacity:0.964" fill="#4873af" d="M 224.5,153.5 C 233.833,153.5 243.167,153.5 252.5,153.5C 252.5,155.167 252.5,156.833 252.5,158.5C 243.167,158.5 233.833,158.5 224.5,158.5C 224.5,156.833 224.5,155.167 224.5,153.5 Z"/></g>
<g><path style="opacity:1" fill="#4873af" d="M 269.5,153.5 C 278.5,153.5 287.5,153.5 296.5,153.5C 296.5,155.167 296.5,156.833 296.5,158.5C 287.5,158.5 278.5,158.5 269.5,158.5C 269.5,156.833 269.5,155.167 269.5,153.5 Z"/></g>
<g><path style="opacity:0.964" fill="#a92382" d="M 122.5,153.5 C 131.833,153.5 141.167,153.5 150.5,153.5C 150.5,156.5 150.5,159.5 150.5,162.5C 141.167,162.5 131.833,162.5 122.5,162.5C 122.5,159.5 122.5,156.5 122.5,153.5 Z"/></g>
<g><path style="opacity:0.964" fill="#a92382" d="M 181.5,153.5 C 190.833,153.5 200.167,153.5 209.5,153.5C 209.5,156.5 209.5,159.5 209.5,162.5C 200.167,162.5 190.833,162.5 181.5,162.5C 181.5,159.5 181.5,156.5 181.5,153.5 Z"/></g>
<g><path style="opacity:0.973" fill="#e95e50" d="M 35.5,156.5 C 44.8333,156.5 54.1667,156.5 63.5,156.5C 63.5,157.167 63.5,157.833 63.5,158.5C 54.1667,158.5 44.8333,158.5 35.5,158.5C 35.5,157.833 35.5,157.167 35.5,156.5 Z"/></g>
<g><path style="opacity:0.955" fill="#e95e50" d="M 79.5,156.5 C 88.8333,156.5 98.1667,156.5 107.5,156.5C 107.5,157.167 107.5,157.833 107.5,158.5C 98.1667,158.5 88.8333,158.5 79.5,158.5C 79.5,157.833 79.5,157.167 79.5,156.5 Z"/></g>
<g><path style="opacity:0.973" fill="#e85b4c" d="M 35.5,158.5 C 44.8333,158.5 54.1667,158.5 63.5,158.5C 63.5,159.5 63.5,160.5 63.5,161.5C 54.1667,161.5 44.8333,161.5 35.5,161.5C 35.5,160.5 35.5,159.5 35.5,158.5 Z"/></g>
<g><path style="opacity:0.955" fill="#e85b4c" d="M 79.5,158.5 C 88.8333,158.5 98.1667,158.5 107.5,158.5C 107.5,159.5 107.5,160.5 107.5,161.5C 98.1667,161.5 88.8333,161.5 79.5,161.5C 79.5,160.5 79.5,159.5 79.5,158.5 Z"/></g>
<g><path style="opacity:0.964" fill="#4570ad" d="M 224.5,158.5 C 233.833,158.5 243.167,158.5 252.5,158.5C 252.5,159.167 252.5,159.833 252.5,160.5C 243.167,160.5 233.833,160.5 224.5,160.5C 224.5,159.833 224.5,159.167 224.5,158.5 Z"/></g>
<g><path style="opacity:1" fill="#4570ad" d="M 269.5,158.5 C 278.5,158.5 287.5,158.5 296.5,158.5C 296.5,159.167 296.5,159.833 296.5,160.5C 287.5,160.5 278.5,160.5 269.5,160.5C 269.5,159.833 269.5,159.167 269.5,158.5 Z"/></g>
<g><path style="opacity:0.964" fill="#416caa" d="M 224.5,160.5 C 233.833,160.5 243.167,160.5 252.5,160.5C 252.5,162.833 252.5,165.167 252.5,167.5C 243.167,167.5 233.833,167.5 224.5,167.5C 224.5,165.167 224.5,162.833 224.5,160.5 Z"/></g>
<g><path style="opacity:1" fill="#416caa" d="M 269.5,160.5 C 278.5,160.5 287.5,160.5 296.5,160.5C 296.5,162.833 296.5,165.167 296.5,167.5C 287.5,167.5 278.5,167.5 269.5,167.5C 269.5,165.167 269.5,162.833 269.5,160.5 Z"/></g>
<g><path style="opacity:0.973" fill="#e85849" d="M 35.5,161.5 C 44.8333,161.5 54.1667,161.5 63.5,161.5C 63.5,162.167 63.5,162.833 63.5,163.5C 54.1667,163.5 44.8333,163.5 35.5,163.5C 35.5,162.833 35.5,162.167 35.5,161.5 Z"/></g>
<g><path style="opacity:0.955" fill="#e85849" d="M 79.5,161.5 C 88.8333,161.5 98.1667,161.5 107.5,161.5C 107.5,162.167 107.5,162.833 107.5,163.5C 98.1667,163.5 88.8333,163.5 79.5,163.5C 79.5,162.833 79.5,162.167 79.5,161.5 Z"/></g>
<g><path style="opacity:0.964" fill="#a61d7e" d="M 122.5,162.5 C 131.833,162.5 141.167,162.5 150.5,162.5C 150.5,166.5 150.5,170.5 150.5,174.5C 141.167,174.5 131.833,174.5 122.5,174.5C 122.5,170.5 122.5,166.5 122.5,162.5 Z"/></g>
<g><path style="opacity:0.964" fill="#a61d7e" d="M 181.5,162.5 C 190.833,162.5 200.167,162.5 209.5,162.5C 209.5,166.5 209.5,170.5 209.5,174.5C 200.167,174.5 190.833,174.5 181.5,174.5C 181.5,170.5 181.5,166.5 181.5,162.5 Z"/></g>
<g><path style="opacity:0.973" fill="#e75346" d="M 35.5,163.5 C 44.8333,163.5 54.1667,163.5 63.5,163.5C 63.5,164.833 63.5,166.167 63.5,167.5C 54.1667,167.5 44.8333,167.5 35.5,167.5C 35.5,166.167 35.5,164.833 35.5,163.5 Z"/></g>
<g><path style="opacity:0.955" fill="#e75346" d="M 79.5,163.5 C 88.8333,163.5 98.1667,163.5 107.5,163.5C 107.5,164.833 107.5,166.167 107.5,167.5C 98.1667,167.5 88.8333,167.5 79.5,167.5C 79.5,166.167 79.5,164.833 79.5,163.5 Z"/></g>
<g><path style="opacity:0.973" fill="#e64e40" d="M 35.5,167.5 C 44.8333,167.5 54.1667,167.5 63.5,167.5C 63.5,168.833 63.5,170.167 63.5,171.5C 54.1667,171.5 44.8333,171.5 35.5,171.5C 35.5,170.167 35.5,168.833 35.5,167.5 Z"/></g>
<g><path style="opacity:0.953" fill="#e64e40" d="M 79.5,167.5 C 88.8333,167.5 98.1667,167.5 107.5,167.5C 107.5,168.833 107.5,170.167 107.5,171.5C 98.1667,171.5 88.8333,171.5 79.5,171.5C 79.5,170.167 79.5,168.833 79.5,167.5 Z"/></g>
<g><path style="opacity:0.964" fill="#3b66a6" d="M 224.5,167.5 C 233.833,167.5 243.167,167.5 252.5,167.5C 252.5,171.833 252.5,176.167 252.5,180.5C 243.167,180.5 233.833,180.5 224.5,180.5C 224.5,176.167 224.5,171.833 224.5,167.5 Z"/></g>
<g><path style="opacity:1" fill="#3b66a6" d="M 269.5,167.5 C 278.5,167.5 287.5,167.5 296.5,167.5C 296.5,171.833 296.5,176.167 296.5,180.5C 287.5,180.5 278.5,180.5 269.5,180.5C 269.5,176.167 269.5,171.833 269.5,167.5 Z"/></g>
<g><path style="opacity:0.973" fill="#e6483b" d="M 35.5,171.5 C 44.8333,171.5 54.1667,171.5 63.5,171.5C 63.5,172.833 63.5,174.167 63.5,175.5C 54.1667,175.5 44.8333,175.5 35.5,175.5C 35.5,174.167 35.5,172.833 35.5,171.5 Z"/></g>
<g><path style="opacity:0.946" fill="#e6483b" d="M 79.5,171.5 C 88.8333,171.5 98.1667,171.5 107.5,171.5C 107.5,172.833 107.5,174.167 107.5,175.5C 98.1667,175.5 88.8333,175.5 79.5,175.5C 79.5,174.167 79.5,172.833 79.5,171.5 Z"/></g>
<g><path style="opacity:0.964" fill="#9f1d79" d="M 122.5,174.5 C 131.833,174.5 141.167,174.5 150.5,174.5C 150.5,177.5 150.5,180.5 150.5,183.5C 141.167,183.5 131.833,183.5 122.5,183.5C 122.5,180.5 122.5,177.5 122.5,174.5 Z"/></g>
<g><path style="opacity:0.964" fill="#9f1d79" d="M 181.5,174.5 C 190.833,174.5 200.167,174.5 209.5,174.5C 209.5,177.5 209.5,180.5 209.5,183.5C 200.167,183.5 190.833,183.5 181.5,183.5C 181.5,180.5 181.5,177.5 181.5,174.5 Z"/></g>
<g><path style="opacity:0.973" fill="#e54135" d="M 35.5,175.5 C 44.8333,175.5 54.1667,175.5 63.5,175.5C 63.5,177.167 63.5,178.833 63.5,180.5C 54.1667,180.5 44.8333,180.5 35.5,180.5C 35.5,178.833 35.5,177.167 35.5,175.5 Z"/></g>
<g><path style="opacity:0.946" fill="#e54135" d="M 79.5,175.5 C 88.8333,175.5 98.1667,175.5 107.5,175.5C 107.5,177.167 107.5,178.833 107.5,180.5C 98.1667,180.5 88.8333,180.5 79.5,180.5C 79.5,178.833 79.5,177.167 79.5,175.5 Z"/></g>
<g><path style="opacity:0.964" fill="#3764a4" d="M 224.5,180.5 C 233.833,180.5 243.167,180.5 252.5,180.5C 252.5,181.5 252.5,182.5 252.5,183.5C 243.167,183.5 233.833,183.5 224.5,183.5C 224.5,182.5 224.5,181.5 224.5,180.5 Z"/></g>
<g><path style="opacity:1" fill="#3764a4" d="M 269.5,180.5 C 278.5,180.5 287.5,180.5 296.5,180.5C 296.5,181.5 296.5,182.5 296.5,183.5C 287.5,183.5 278.5,183.5 269.5,183.5C 269.5,182.5 269.5,181.5 269.5,180.5 Z"/></g>
<g><path style="opacity:0.973" fill="#e43b2f" d="M 35.5,180.5 C 44.8333,180.5 54.1667,180.5 63.5,180.5C 63.5,181.833 63.5,183.167 63.5,184.5C 54.1667,184.5 44.8333,184.5 35.5,184.5C 35.5,183.167 35.5,181.833 35.5,180.5 Z"/></g>
<g><path style="opacity:0.946" fill="#e43b2f" d="M 79.5,180.5 C 88.8333,180.5 98.1667,180.5 107.5,180.5C 107.5,181.833 107.5,183.167 107.5,184.5C 98.1667,184.5 88.8333,184.5 79.5,184.5C 79.5,183.167 79.5,181.833 79.5,180.5 Z"/></g>
<g><path style="opacity:0.964" fill="#3662a3" d="M 224.5,183.5 C 233.833,183.5 243.167,183.5 252.5,183.5C 252.5,184.833 252.5,186.167 252.5,187.5C 243.167,187.5 233.833,187.5 224.5,187.5C 224.5,186.167 224.5,184.833 224.5,183.5 Z"/></g>
<g><path style="opacity:1" fill="#3662a3" d="M 269.5,183.5 C 278.5,183.5 287.5,183.5 296.5,183.5C 296.5,184.833 296.5,186.167 296.5,187.5C 287.5,187.5 278.5,187.5 269.5,187.5C 269.5,186.167 269.5,184.833 269.5,183.5 Z"/></g>
<g><path style="opacity:0.973" fill="#e3372c" d="M 35.5,184.5 C 44.8333,184.5 54.1667,184.5 63.5,184.5C 63.5,185.5 63.5,186.5 63.5,187.5C 54.1667,187.5 44.8333,187.5 35.5,187.5C 35.5,186.5 35.5,185.5 35.5,184.5 Z"/></g>
<g><path style="opacity:0.946" fill="#e3372c" d="M 79.5,184.5 C 88.8333,184.5 98.1667,184.5 107.5,184.5C 107.5,185.5 107.5,186.5 107.5,187.5C 98.1667,187.5 88.8333,187.5 79.5,187.5C 79.5,186.5 79.5,185.5 79.5,184.5 Z"/></g>
<g><path style="opacity:0.964" fill="#9b1e76" d="M 122.5,183.5 C 131.833,183.5 141.167,183.5 150.5,183.5C 150.5,184.5 150.5,185.5 150.5,186.5C 141.167,186.5 131.833,186.5 122.5,186.5C 122.5,185.5 122.5,184.5 122.5,183.5 Z"/></g>
<g><path style="opacity:0.964" fill="#9b1e76" d="M 181.5,183.5 C 190.833,183.5 200.167,183.5 209.5,183.5C 209.5,184.5 209.5,185.5 209.5,186.5C 200.167,186.5 190.833,186.5 181.5,186.5C 181.5,185.5 181.5,184.5 181.5,183.5 Z"/></g>
<g><path style="opacity:0.963" fill="#971d73" d="M 122.5,186.5 C 131.833,186.5 141.167,186.5 150.5,186.5C 151.167,188.833 151.833,191.167 152.5,193.5C 142.5,193.5 132.5,193.5 122.5,193.5C 122.5,191.167 122.5,188.833 122.5,186.5 Z"/></g>
<g><path style="opacity:0.952" fill="#971d73" d="M 181.5,186.5 C 190.833,186.5 200.167,186.5 209.5,186.5C 209.5,188.833 209.5,191.167 209.5,193.5C 199.167,193.5 188.833,193.5 178.5,193.5C 179.695,191.249 180.695,188.915 181.5,186.5 Z"/></g>
<g><path style="opacity:0.973" fill="#e23329" d="M 35.5,187.5 C 44.8333,187.5 54.1667,187.5 63.5,187.5C 63.5,189.167 63.5,190.833 63.5,192.5C 54.1667,192.5 44.8333,192.5 35.5,192.5C 35.5,190.833 35.5,189.167 35.5,187.5 Z"/></g>
<g><path style="opacity:0.946" fill="#e23329" d="M 79.5,187.5 C 88.8333,187.5 98.1667,187.5 107.5,187.5C 107.5,189.167 107.5,190.833 107.5,192.5C 98.1667,192.5 88.8333,192.5 79.5,192.5C 79.5,190.833 79.5,189.167 79.5,187.5 Z"/></g>
<g><path style="opacity:0.964" fill="#335fa0" d="M 224.5,187.5 C 233.833,187.5 243.167,187.5 252.5,187.5C 252.5,191.833 252.5,196.167 252.5,200.5C 243.167,200.5 233.833,200.5 224.5,200.5C 224.5,196.167 224.5,191.833 224.5,187.5 Z"/></g>
<g><path style="opacity:1" fill="#335fa0" d="M 269.5,187.5 C 278.5,187.5 287.5,187.5 296.5,187.5C 296.5,191.833 296.5,196.167 296.5,200.5C 287.5,200.5 278.5,200.5 269.5,200.5C 269.5,196.167 269.5,191.833 269.5,187.5 Z"/></g>
<g><path style="opacity:0.973" fill="#e12e27" d="M 35.5,192.5 C 44.8333,192.5 54.1667,192.5 63.5,192.5C 63.5,193.833 63.5,195.167 63.5,196.5C 54.1667,196.5 44.8333,196.5 35.5,196.5C 35.5,195.167 35.5,193.833 35.5,192.5 Z"/></g>
<g><path style="opacity:0.946" fill="#e12e27" d="M 79.5,192.5 C 88.8333,192.5 98.1667,192.5 107.5,192.5C 107.5,193.833 107.5,195.167 107.5,196.5C 98.1667,196.5 88.8333,196.5 79.5,196.5C 79.5,195.167 79.5,193.833 79.5,192.5 Z"/></g>
<g><path style="opacity:0.953" fill="#931e71" d="M 122.5,193.5 C 132.5,193.5 142.5,193.5 152.5,193.5C 154.167,194.5 155.5,195.833 156.5,197.5C 145.167,197.5 133.833,197.5 122.5,197.5C 122.5,196.167 122.5,194.833 122.5,193.5 Z"/></g>
<g><path style="opacity:0.959" fill="#931e71" d="M 178.5,193.5 C 188.833,193.5 199.167,193.5 209.5,193.5C 209.5,194.833 209.5,196.167 209.5,197.5C 198.167,197.5 186.833,197.5 175.5,197.5C 176.5,196.167 177.5,194.833 178.5,193.5 Z"/></g>
<g><path style="opacity:0.973" fill="#e12a24" d="M 35.5,196.5 C 44.8333,196.5 54.1667,196.5 63.5,196.5C 63.5,197.167 63.5,197.833 63.5,198.5C 54.1667,198.5 44.8333,198.5 35.5,198.5C 35.5,197.833 35.5,197.167 35.5,196.5 Z"/></g>
<g><path style="opacity:0.946" fill="#e12a24" d="M 79.5,196.5 C 88.8333,196.5 98.1667,196.5 107.5,196.5C 107.5,197.167 107.5,197.833 107.5,198.5C 98.1667,198.5 88.8333,198.5 79.5,198.5C 79.5,197.833 79.5,197.167 79.5,196.5 Z"/></g>
<g><path style="opacity:0.967" fill="#901e6f" d="M 122.5,197.5 C 133.833,197.5 145.167,197.5 156.5,197.5C 158.167,198.5 159.5,199.833 160.5,201.5C 148.167,201.5 135.833,201.5 123.5,201.5C 123.567,200.041 123.234,198.708 122.5,197.5 Z"/></g>
<g><path style="opacity:0.972" fill="#901e6f" d="M 175.5,197.5 C 186.833,197.5 198.167,197.5 209.5,197.5C 208.766,198.708 208.433,200.041 208.5,201.5C 196.167,201.5 183.833,201.5 171.5,201.5C 172.5,199.833 173.833,198.5 175.5,197.5 Z"/></g>
<g><path style="opacity:0.973" fill="#e02823" d="M 35.5,198.5 C 44.8333,198.5 54.1667,198.5 63.5,198.5C 63.5,199.833 63.5,201.167 63.5,202.5C 54.1667,202.5 44.8333,202.5 35.5,202.5C 35.5,201.167 35.5,199.833 35.5,198.5 Z"/></g>
<g><path style="opacity:0.946" fill="#e02823" d="M 79.5,198.5 C 88.8333,198.5 98.1667,198.5 107.5,198.5C 107.5,199.833 107.5,201.167 107.5,202.5C 98.1667,202.5 88.8333,202.5 79.5,202.5C 79.5,201.167 79.5,199.833 79.5,198.5 Z"/></g>
<g><path style="opacity:0.964" fill="#2f5b9d" d="M 224.5,200.5 C 233.833,200.5 243.167,200.5 252.5,200.5C 252.5,203.833 252.5,207.167 252.5,210.5C 243.167,210.5 233.833,210.5 224.5,210.5C 224.5,207.167 224.5,203.833 224.5,200.5 Z"/></g>
<g><path style="opacity:1" fill="#2f5b9d" d="M 269.5,200.5 C 278.5,200.5 287.5,200.5 296.5,200.5C 296.5,203.833 296.5,207.167 296.5,210.5C 287.5,210.5 278.5,210.5 269.5,210.5C 269.5,207.167 269.5,203.833 269.5,200.5 Z"/></g>
<g><path style="opacity:0.964" fill="#8c1e6c" d="M 123.5,201.5 C 135.833,201.5 148.167,201.5 160.5,201.5C 163.5,203.833 166.167,206.5 168.5,209.5C 155.5,209.5 142.5,209.5 129.5,209.5C 126.539,207.588 124.539,204.921 123.5,201.5 Z"/></g>
<g><path style="opacity:0.954" fill="#8d1e6c" d="M 171.5,201.5 C 183.833,201.5 196.167,201.5 208.5,201.5C 207.461,204.921 205.461,207.588 202.5,209.5C 193.167,209.5 183.833,209.5 174.5,209.5C 171.468,208.001 169.968,205.668 170,202.5C 170.383,201.944 170.883,201.611 171.5,201.5 Z"/></g>
<g><path style="opacity:0.973" fill="#df2220" d="M 35.5,202.5 C 44.8333,202.5 54.1667,202.5 63.5,202.5C 63.5,204.167 63.5,205.833 63.5,207.5C 54.1667,207.5 44.8333,207.5 35.5,207.5C 35.5,205.833 35.5,204.167 35.5,202.5 Z"/></g>
<g><path style="opacity:0.946" fill="#df2220" d="M 79.5,202.5 C 88.8333,202.5 98.1667,202.5 107.5,202.5C 107.5,204.167 107.5,205.833 107.5,207.5C 98.1667,207.5 88.8333,207.5 79.5,207.5C 79.5,205.833 79.5,204.167 79.5,202.5 Z"/></g>
<g><path style="opacity:0.973" fill="#dd1c1d" d="M 35.5,207.5 C 44.8333,207.5 54.1667,207.5 63.5,207.5C 63.5,209.833 63.5,212.167 63.5,214.5C 54.1667,214.5 44.8333,214.5 35.5,214.5C 35.5,212.167 35.5,209.833 35.5,207.5 Z"/></g>
<g><path style="opacity:0.946" fill="#dd1c1d" d="M 79.5,207.5 C 88.8333,207.5 98.1667,207.5 107.5,207.5C 107.5,209.833 107.5,212.167 107.5,214.5C 98.1667,214.5 88.8333,214.5 79.5,214.5C 79.5,212.167 79.5,209.833 79.5,207.5 Z"/></g>
<g><path style="opacity:0.963" fill="#861e67" d="M 129.5,209.5 C 142.5,209.5 155.5,209.5 168.5,209.5C 172.167,212.5 175.5,215.833 178.5,219.5C 165.5,219.5 152.5,219.5 139.5,219.5C 135.833,216.5 132.5,213.167 129.5,209.5 Z"/></g>
<g><path style="opacity:0.895" fill="#871e68" d="M 174.5,209.5 C 183.833,209.5 193.167,209.5 202.5,209.5C 199.5,213.167 196.167,216.5 192.5,219.5C 189.833,219.5 187.167,219.5 184.5,219.5C 180.833,216.5 177.5,213.167 174.5,209.5 Z"/></g>
<g><path style="opacity:0.964" fill="#2c599c" d="M 224.5,210.5 C 233.833,210.5 243.167,210.5 252.5,210.5C 252.5,211.833 252.5,213.167 252.5,214.5C 243.167,214.5 233.833,214.5 224.5,214.5C 224.5,213.167 224.5,211.833 224.5,210.5 Z"/></g>
<g><path style="opacity:1" fill="#2c599c" d="M 269.5,210.5 C 278.5,210.5 287.5,210.5 296.5,210.5C 296.5,211.833 296.5,213.167 296.5,214.5C 287.5,214.5 278.5,214.5 269.5,214.5C 269.5,213.167 269.5,211.833 269.5,210.5 Z"/></g>
<g><path style="opacity:0.973" fill="#dc161a" d="M 35.5,214.5 C 44.8333,214.5 54.1667,214.5 63.5,214.5C 63.5,215.833 63.5,217.167 63.5,218.5C 54.1667,218.5 44.8333,218.5 35.5,218.5C 35.5,217.167 35.5,215.833 35.5,214.5 Z"/></g>
<g><path style="opacity:0.946" fill="#dc161a" d="M 79.5,214.5 C 88.8333,214.5 98.1667,214.5 107.5,214.5C 107.5,215.833 107.5,217.167 107.5,218.5C 98.1667,218.5 88.8333,218.5 79.5,218.5C 79.5,217.167 79.5,215.833 79.5,214.5 Z"/></g>
<g><path style="opacity:0.964" fill="#2a589b" d="M 224.5,214.5 C 233.833,214.5 243.167,214.5 252.5,214.5C 252.5,216.167 252.5,217.833 252.5,219.5C 243.167,219.5 233.833,219.5 224.5,219.5C 224.5,217.833 224.5,216.167 224.5,214.5 Z"/></g>
<g><path style="opacity:1" fill="#2a589b" d="M 269.5,214.5 C 278.5,214.5 287.5,214.5 296.5,214.5C 296.5,216.167 296.5,217.833 296.5,219.5C 287.5,219.5 278.5,219.5 269.5,219.5C 269.5,217.833 269.5,216.167 269.5,214.5 Z"/></g>
<g><path style="opacity:0.973" fill="#db1117" d="M 35.5,218.5 C 44.8333,218.5 54.1667,218.5 63.5,218.5C 63.5,219.5 63.5,220.5 63.5,221.5C 54.1667,221.5 44.8333,221.5 35.5,221.5C 35.5,220.5 35.5,219.5 35.5,218.5 Z"/></g>
<g><path style="opacity:0.946" fill="#db1117" d="M 79.5,218.5 C 88.8333,218.5 98.1667,218.5 107.5,218.5C 107.5,219.5 107.5,220.5 107.5,221.5C 98.1667,221.5 88.8333,221.5 79.5,221.5C 79.5,220.5 79.5,219.5 79.5,218.5 Z"/></g>
<g><path style="opacity:0.963" fill="#821e64" d="M 139.5,219.5 C 152.5,219.5 165.5,219.5 178.5,219.5C 179.833,220.167 180.833,221.167 181.5,222.5C 168.5,222.5 155.5,222.5 142.5,222.5C 141.167,221.833 140.167,220.833 139.5,219.5 Z"/></g>
<g><path style="opacity:0.668" fill="#821e64" d="M 184.5,219.5 C 187.167,219.5 189.833,219.5 192.5,219.5C 189.833,224.833 187.167,224.833 184.5,219.5 Z"/></g>
<g><path style="opacity:0.964" fill="#275698" d="M 224.5,219.5 C 233.833,219.5 243.167,219.5 252.5,219.5C 252.5,222.167 252.5,224.833 252.5,227.5C 243.167,227.5 233.833,227.5 224.5,227.5C 224.5,224.833 224.5,222.167 224.5,219.5 Z"/></g>
<g><path style="opacity:1" fill="#275698" d="M 269.5,219.5 C 278.5,219.5 287.5,219.5 296.5,219.5C 296.5,222.167 296.5,224.833 296.5,227.5C 287.5,227.5 278.5,227.5 269.5,227.5C 269.5,224.833 269.5,222.167 269.5,219.5 Z"/></g>
<g><path style="opacity:0.973" fill="#da0e15" d="M 35.5,221.5 C 44.8333,221.5 54.1667,221.5 63.5,221.5C 63.5,222.833 63.5,224.167 63.5,225.5C 54.1667,225.5 44.8333,225.5 35.5,225.5C 35.5,224.167 35.5,222.833 35.5,221.5 Z"/></g>
<g><path style="opacity:0.946" fill="#da0e15" d="M 79.5,221.5 C 88.8333,221.5 98.1667,221.5 107.5,221.5C 107.5,222.833 107.5,224.167 107.5,225.5C 98.1667,225.5 88.8333,225.5 79.5,225.5C 79.5,224.167 79.5,222.833 79.5,221.5 Z"/></g>
<g><path style="opacity:0.963" fill="#7e1d61" d="M 142.5,222.5 C 155.5,222.5 168.5,222.5 181.5,222.5C 184.5,224.833 187.167,227.5 189.5,230.5C 176.5,230.5 163.5,230.5 150.5,230.5C 147.5,228.167 144.833,225.5 142.5,222.5 Z"/></g>
<g><path style="opacity:0.973" fill="#d70b14" d="M 35.5,225.5 C 44.8333,225.5 54.1667,225.5 63.5,225.5C 63.5,228.5 63.5,231.5 63.5,234.5C 54.1667,234.5 44.8333,234.5 35.5,234.5C 35.5,231.5 35.5,228.5 35.5,225.5 Z"/></g>
<g><path style="opacity:0.952" fill="#d70b14" d="M 79.5,225.5 C 88.8333,225.5 98.1667,225.5 107.5,225.5C 107.368,228.57 107.701,231.57 108.5,234.5C 98.8333,234.5 89.1667,234.5 79.5,234.5C 79.5,231.5 79.5,228.5 79.5,225.5 Z"/></g>
<g><path style="opacity:0.962" fill="#225397" d="M 224.5,227.5 C 233.833,227.5 243.167,227.5 252.5,227.5C 252.5,230.5 252.5,233.5 252.5,236.5C 242.5,236.5 232.5,236.5 222.5,236.5C 223.578,233.598 224.244,230.598 224.5,227.5 Z"/></g>
<g><path style="opacity:1" fill="#225397" d="M 269.5,227.5 C 278.5,227.5 287.5,227.5 296.5,227.5C 296.5,230.5 296.5,233.5 296.5,236.5C 287.5,236.5 278.5,236.5 269.5,236.5C 269.5,233.5 269.5,230.5 269.5,227.5 Z"/></g>
<g><path style="opacity:0.808" fill="#d70c13" d="M 147.5,234.5 C 144.5,234.5 141.5,234.5 138.5,234.5C 139.793,232.704 141.293,231.037 143,229.5C 144.707,231.037 146.207,232.704 147.5,234.5 Z"/></g>
<g><path style="opacity:0.954" fill="#7b1d5f" d="M 150.5,230.5 C 163.5,230.5 176.5,230.5 189.5,230.5C 195.146,235.479 200.479,240.812 205.5,246.5C 199.181,253.319 192.681,259.986 186,266.5C 173.965,254.632 162.131,242.632 150.5,230.5 Z"/></g>
<g><path style="opacity:0.973" fill="#d50d14" d="M 35.5,234.5 C 44.8333,234.5 54.1667,234.5 63.5,234.5C 63.5,236.167 63.5,237.833 63.5,239.5C 54.1667,239.5 44.8333,239.5 35.5,239.5C 35.5,237.833 35.5,236.167 35.5,234.5 Z"/></g>
<g><path style="opacity:0.952" fill="#d50d14" d="M 79.5,234.5 C 89.1667,234.5 98.8333,234.5 108.5,234.5C 109.833,236.167 111.167,237.833 112.5,239.5C 101.5,239.5 90.5,239.5 79.5,239.5C 79.5,237.833 79.5,236.167 79.5,234.5 Z"/></g>
<g><path style="opacity:0.934" fill="#d50d14" d="M 138.5,234.5 C 141.5,234.5 144.5,234.5 147.5,234.5C 149.5,235.833 151.167,237.5 152.5,239.5C 146.167,239.5 139.833,239.5 133.5,239.5C 134.833,237.5 136.5,235.833 138.5,234.5 Z"/></g>
<g><path style="opacity:0.957" fill="#1f5195" d="M 222.5,236.5 C 232.5,236.5 242.5,236.5 252.5,236.5C 252.5,237.5 252.5,238.5 252.5,239.5C 241.5,239.5 230.5,239.5 219.5,239.5C 220.167,238.167 221.167,237.167 222.5,236.5 Z"/></g>
<g><path style="opacity:1" fill="#1f5195" d="M 269.5,236.5 C 278.5,236.5 287.5,236.5 296.5,236.5C 296.5,237.5 296.5,238.5 296.5,239.5C 287.5,239.5 278.5,239.5 269.5,239.5C 269.5,238.5 269.5,237.5 269.5,236.5 Z"/></g>
<g><path style="opacity:0.992" fill="#d10f15" d="M 35.5,239.5 C 44.8333,239.5 54.1667,239.5 63.5,239.5C 62.7705,244.13 62.4372,248.797 62.5,253.5C 53.5,253.5 44.5,253.5 35.5,253.5C 35.5,248.833 35.5,244.167 35.5,239.5 Z"/></g>
<g><path style="opacity:0.951" fill="#d10f15" d="M 79.5,239.5 C 90.5,239.5 101.5,239.5 112.5,239.5C 115.347,241.514 117.68,244.014 119.5,247C 118.015,249.652 116.015,251.818 113.5,253.5C 104.833,253.5 96.1667,253.5 87.5,253.5C 82.2579,250.354 79.5912,245.687 79.5,239.5 Z"/></g>
<g><path style="opacity:0.967" fill="#d10f15" d="M 133.5,239.5 C 139.833,239.5 146.167,239.5 152.5,239.5C 156.146,242.479 159.479,245.812 162.5,249.5C 161.479,251.188 160.145,252.521 158.5,253.5C 145.5,253.5 132.5,253.5 119.5,253.5C 123.833,248.5 128.5,243.833 133.5,239.5 Z"/></g>
<g><path style="opacity:0.964" fill="#1b4f93" d="M 219.5,239.5 C 230.5,239.5 241.5,239.5 252.5,239.5C 252.067,244.367 250.067,248.367 246.5,251.5C 233.167,251.5 219.833,251.5 206.5,251.5C 210.807,247.528 215.141,243.528 219.5,239.5 Z"/></g>
<g><path style="opacity:1" fill="#1b4f93" d="M 269.5,239.5 C 278.5,239.5 287.5,239.5 296.5,239.5C 296.5,243.5 296.5,247.5 296.5,251.5C 287.5,251.5 278.5,251.5 269.5,251.5C 269.5,247.5 269.5,243.5 269.5,239.5 Z"/></g>
<g><path style="opacity:0.961" fill="#154c91" d="M 206.5,251.5 C 219.833,251.5 233.167,251.5 246.5,251.5C 243.5,255.167 240.167,258.5 236.5,261.5C 223.5,261.5 210.5,261.5 197.5,261.5C 200.529,258.141 203.529,254.808 206.5,251.5 Z"/></g>
<g><path style="opacity:1" fill="#154c91" d="M 269.5,251.5 C 278.5,251.5 287.5,251.5 296.5,251.5C 296.5,254.833 296.5,258.167 296.5,261.5C 287.5,261.5 278.5,261.5 269.5,261.5C 269.5,258.167 269.5,254.833 269.5,251.5 Z"/></g>
<g><path style="opacity:1" fill="#cc1115" d="M 35.5,253.5 C 44.5,253.5 53.5,253.5 62.5,253.5C 62.5,257.167 62.5,260.833 62.5,264.5C 53.5,264.5 44.5,264.5 35.5,264.5C 35.5,260.833 35.5,257.167 35.5,253.5 Z"/></g>
<g><path style="opacity:0.902" fill="#cc1115" d="M 87.5,253.5 C 96.1667,253.5 104.833,253.5 113.5,253.5C 110.167,257.5 106.5,261.167 102.5,264.5C 101.167,264.5 99.8333,264.5 98.5,264.5C 94.5,261.167 90.8333,257.5 87.5,253.5 Z"/></g>
<g><path style="opacity:0.969" fill="#cc1115" d="M 119.5,253.5 C 132.5,253.5 145.5,253.5 158.5,253.5C 155.167,257.5 151.5,261.167 147.5,264.5C 134.5,264.5 121.5,264.5 108.5,264.5C 111.833,260.5 115.5,256.833 119.5,253.5 Z"/></g>
<g><path style="opacity:0.963" fill="#134990" d="M 197.5,261.5 C 210.5,261.5 223.5,261.5 236.5,261.5C 236.167,262.5 235.5,263.167 234.5,263.5C 221.5,263.5 208.5,263.5 195.5,263.5C 195.833,262.5 196.5,261.833 197.5,261.5 Z"/></g>
<g><path style="opacity:1" fill="#134990" d="M 269.5,261.5 C 278.5,261.5 287.5,261.5 296.5,261.5C 296.5,262.167 296.5,262.833 296.5,263.5C 287.5,263.5 278.5,263.5 269.5,263.5C 269.5,262.833 269.5,262.167 269.5,261.5 Z"/></g>
<g><path style="opacity:0.97" fill="#134a8e" d="M 195.5,263.5 C 208.5,263.5 221.5,263.5 234.5,263.5C 233.71,264.401 232.71,265.068 231.5,265.5C 218.833,265.5 206.167,265.5 193.5,265.5C 193.833,264.5 194.5,263.833 195.5,263.5 Z"/></g>
<g><path style="opacity:1" fill="#134a8e" d="M 269.5,263.5 C 278.5,263.5 287.5,263.5 296.5,263.5C 296.5,264.167 296.5,264.833 296.5,265.5C 287.5,265.5 278.5,265.5 269.5,265.5C 269.5,264.833 269.5,264.167 269.5,263.5 Z"/></g>
<g><path style="opacity:1" fill="#c81316" d="M 35.5,264.5 C 44.5,264.5 53.5,264.5 62.5,264.5C 62.5,266.833 62.5,269.167 62.5,271.5C 53.5,271.5 44.5,271.5 35.5,271.5C 35.5,269.167 35.5,266.833 35.5,264.5 Z"/></g>
<g><path style="opacity:0.501" fill="#c91315" d="M 98.5,264.5 C 99.8333,264.5 101.167,264.5 102.5,264.5C 101.167,267.167 99.8333,267.167 98.5,264.5 Z"/></g>
<g><path style="opacity:0.969" fill="#c81316" d="M 108.5,264.5 C 121.5,264.5 134.5,264.5 147.5,264.5C 145.5,267.167 143.167,269.5 140.5,271.5C 127.5,271.5 114.5,271.5 101.5,271.5C 103.5,268.833 105.833,266.5 108.5,264.5 Z"/></g>
<g><path style="opacity:0.975" fill="#12488b" d="M 193.5,265.5 C 206.167,265.5 218.833,265.5 231.5,265.5C 229.833,267.833 227.833,269.833 225.5,271.5C 212.833,271.5 200.167,271.5 187.5,271.5C 189.167,269.167 191.167,267.167 193.5,265.5 Z"/></g>
<g><path style="opacity:1" fill="#12488b" d="M 269.5,265.5 C 278.5,265.5 287.5,265.5 296.5,265.5C 296.5,267.5 296.5,269.5 296.5,271.5C 287.5,271.5 278.5,271.5 269.5,271.5C 269.5,269.5 269.5,267.5 269.5,265.5 Z"/></g>
<g><path style="opacity:0.984" fill="#c41516" d="M 35.5,271.5 C 44.5,271.5 53.5,271.5 62.5,271.5C 62.9586,277.415 65.292,282.415 69.5,286.5C 58.1667,286.5 46.8333,286.5 35.5,286.5C 35.5,281.5 35.5,276.5 35.5,271.5 Z"/></g>
<g><path style="opacity:0.969" fill="#c41516" d="M 101.5,271.5 C 114.5,271.5 127.5,271.5 140.5,271.5C 135.833,276.833 130.833,281.833 125.5,286.5C 112.5,286.5 99.5,286.5 86.5,286.5C 91.1667,281.167 96.1667,276.167 101.5,271.5 Z"/></g>
<g><path style="opacity:0.766" fill="#114686" d="M 151.5,278.5 C 147.833,278.5 144.167,278.5 140.5,278.5C 142.127,276.37 143.96,274.37 146,272.5C 148.04,274.37 149.873,276.37 151.5,278.5 Z"/></g>
<g><path style="opacity:0.974" fill="#114687" d="M 187.5,271.5 C 200.167,271.5 212.833,271.5 225.5,271.5C 223.5,274.167 221.167,276.5 218.5,278.5C 205.833,278.5 193.167,278.5 180.5,278.5C 182.5,275.833 184.833,273.5 187.5,271.5 Z"/></g>
<g><path style="opacity:0.786" fill="#114686" d="M 237.5,278.5 C 233.5,278.5 229.5,278.5 225.5,278.5C 227.146,276.188 229.146,274.188 231.5,272.5C 233.854,274.188 235.854,276.188 237.5,278.5 Z"/></g>
<g><path style="opacity:0.988" fill="#114687" d="M 269.5,271.5 C 278.5,271.5 287.5,271.5 296.5,271.5C 296.5,273.833 296.5,276.167 296.5,278.5C 287.167,278.5 277.833,278.5 268.5,278.5C 268.674,276.139 269.007,273.806 269.5,271.5 Z"/></g>
<g><path style="opacity:0.893" fill="#134584" d="M 140.5,278.5 C 144.167,278.5 147.833,278.5 151.5,278.5C 152.5,278.833 153.167,279.5 153.5,280.5C 148.5,280.5 143.5,280.5 138.5,280.5C 138.833,279.5 139.5,278.833 140.5,278.5 Z"/></g>
<g><path style="opacity:0.969" fill="#134584" d="M 180.5,278.5 C 193.167,278.5 205.833,278.5 218.5,278.5C 218.167,279.5 217.5,280.167 216.5,280.5C 203.833,280.5 191.167,280.5 178.5,280.5C 178.833,279.5 179.5,278.833 180.5,278.5 Z"/></g>
<g><path style="opacity:0.9" fill="#134584" d="M 225.5,278.5 C 229.5,278.5 233.5,278.5 237.5,278.5C 238.5,278.833 239.167,279.5 239.5,280.5C 234.167,280.5 228.833,280.5 223.5,280.5C 223.833,279.5 224.5,278.833 225.5,278.5 Z"/></g>
<g><path style="opacity:0.983" fill="#134584" d="M 268.5,278.5 C 277.833,278.5 287.167,278.5 296.5,278.5C 296.5,279.167 296.5,279.833 296.5,280.5C 286.833,280.5 277.167,280.5 267.5,280.5C 267.328,279.508 267.662,278.842 268.5,278.5 Z"/></g>
<g><path style="opacity:0.954" fill="#10427f" d="M 138.5,280.5 C 143.5,280.5 148.5,280.5 153.5,280.5C 156.938,284.274 160.938,287.274 165.5,289.5C 170.657,287.674 174.99,284.674 178.5,280.5C 191.167,280.5 203.833,280.5 216.5,280.5C 213.877,284.791 210.544,288.457 206.5,291.5C 180.167,291.5 153.833,291.5 127.5,291.5C 130.833,287.5 134.5,283.833 138.5,280.5 Z"/></g>
<g><path style="opacity:0.96" fill="#10427f" d="M 223.5,280.5 C 228.833,280.5 234.167,280.5 239.5,280.5C 242.631,283.129 245.631,285.962 248.5,289C 252.667,291.086 256.667,290.753 260.5,288C 263.067,285.604 265.4,283.104 267.5,280.5C 277.167,280.5 286.833,280.5 296.5,280.5C 296.677,284.234 296.344,287.901 295.5,291.5C 267.833,291.5 240.167,291.5 212.5,291.5C 215.833,287.5 219.5,283.833 223.5,280.5 Z"/></g>
<g><path style="opacity:0.974" fill="#be1717" d="M 35.5,286.5 C 46.8333,286.5 58.1667,286.5 69.5,286.5C 75.2409,291.743 80.9076,291.743 86.5,286.5C 99.5,286.5 112.5,286.5 125.5,286.5C 121.167,291.5 116.5,296.167 111.5,300.5C 89.1667,300.5 66.8333,300.5 44.5,300.5C 39.4787,297.122 36.4787,292.455 35.5,286.5 Z"/></g>
<g><path style="opacity:0.98" fill="#104079" d="M 127.5,291.5 C 153.833,291.5 180.167,291.5 206.5,291.5C 203.833,294.833 200.833,297.833 197.5,300.5C 176.5,300.5 155.5,300.5 134.5,300.5C 131.87,298.372 129.37,296.039 127,293.5C 126.308,292.563 126.475,291.897 127.5,291.5 Z"/></g>
<g><path style="opacity:0.98" fill="#104079" d="M 212.5,291.5 C 240.167,291.5 267.833,291.5 295.5,291.5C 293.528,295.105 290.861,298.105 287.5,300.5C 265.167,300.5 242.833,300.5 220.5,300.5C 216.787,297.828 214.121,294.828 212.5,291.5 Z"/></g>
<g><path style="opacity:0.97" fill="#b91817" d="M 44.5,300.5 C 66.8333,300.5 89.1667,300.5 111.5,300.5C 108.833,303.833 105.833,306.833 102.5,309.5C 86.1667,309.5 69.8333,309.5 53.5,309.5C 50.1667,306.833 47.1667,303.833 44.5,300.5 Z"/></g>
<g><path style="opacity:0.977" fill="#0f3d73" d="M 134.5,300.5 C 155.5,300.5 176.5,300.5 197.5,300.5C 194.5,304.167 191.167,307.5 187.5,310.5C 173.167,310.5 158.833,310.5 144.5,310.5C 140.833,307.5 137.5,304.167 134.5,300.5 Z"/></g>
<g><path style="opacity:0.97" fill="#0f3d73" d="M 220.5,300.5 C 242.833,300.5 265.167,300.5 287.5,300.5C 284.5,304.167 281.167,307.5 277.5,310.5C 261.833,310.5 246.167,310.5 230.5,310.5C 226.833,307.5 223.5,304.167 220.5,300.5 Z"/></g>
<g><path style="opacity:0.959" fill="#b61917" d="M 53.5,309.5 C 69.8333,309.5 86.1667,309.5 102.5,309.5C 100.5,312.167 98.1667,314.5 95.5,316.5C 83.8333,316.5 72.1667,316.5 60.5,316.5C 57.8333,314.5 55.5,312.167 53.5,309.5 Z"/></g>
<g><path style="opacity:0.964" fill="#0f3a6d" d="M 144.5,310.5 C 158.833,310.5 173.167,310.5 187.5,310.5C 184.833,313.833 181.833,316.833 178.5,319.5C 170.167,319.5 161.833,319.5 153.5,319.5C 150.167,316.833 147.167,313.833 144.5,310.5 Z"/></g>
<g><path style="opacity:0.955" fill="#0f3a6d" d="M 230.5,310.5 C 246.167,310.5 261.833,310.5 277.5,310.5C 274.833,313.833 271.833,316.833 268.5,319.5C 258.833,319.5 249.167,319.5 239.5,319.5C 236.167,316.833 233.167,313.833 230.5,310.5 Z"/></g>
<g><path style="opacity:0.917" fill="#b31a17" d="M 60.5,316.5 C 72.1667,316.5 83.8333,316.5 95.5,316.5C 92.0371,320.464 88.3705,324.298 84.5,328C 79.6729,330.147 75.0062,329.814 70.5,327C 66.9626,323.631 63.6293,320.131 60.5,316.5 Z"/></g>
<g><path style="opacity:0.955" fill="#0e3969" d="M 153.5,319.5 C 161.833,319.5 170.167,319.5 178.5,319.5C 177.833,320.833 176.833,321.833 175.5,322.5C 169.167,322.5 162.833,322.5 156.5,322.5C 155.167,321.833 154.167,320.833 153.5,319.5 Z"/></g>
<g><path style="opacity:0.945" fill="#0e3969" d="M 239.5,319.5 C 249.167,319.5 258.833,319.5 268.5,319.5C 267.833,320.833 266.833,321.833 265.5,322.5C 257.833,322.5 250.167,322.5 242.5,322.5C 241.167,321.833 240.167,320.833 239.5,319.5 Z"/></g>
<g><path style="opacity:0.885" fill="#0e3867" d="M 156.5,322.5 C 162.833,322.5 169.167,322.5 175.5,322.5C 169.12,330.427 162.787,330.427 156.5,322.5 Z"/></g>
<g><path style="opacity:0.875" fill="#0e3867" d="M 242.5,322.5 C 250.167,322.5 257.833,322.5 265.5,322.5C 261.136,329.457 255.136,331.29 247.5,328C 245.627,326.296 243.96,324.463 242.5,322.5 Z"/></g>
</svg>
