<?xml version="1.0" encoding="UTF-8"?>
<!DOCTYPE svg PUBLIC "-//W3C//DTD SVG 1.1//EN" "http://www.w3.org/Graphics/SVG/1.1/DTD/svg11.dtd">
<svg xmlns="http://www.w3.org/2000/svg" version="1.1" width="300px" height="300px" style="shape-rendering:geometricPrecision; text-rendering:geometricPrecision; image-rendering:optimizeQuality; fill-rule:evenodd; clip-rule:evenodd" xmlns:xlink="http://www.w3.org/1999/xlink">
<g><path style="opacity:1" fill="#e73731" d="M 83.5,3.5 C 87.9319,5.88864 92.2652,8.55531 96.5,11.5C 96.5,11.8333 96.5,12.1667 96.5,12.5C 88.8069,11.4582 80.9736,9.79155 73,7.5C 63.9734,6.88146 55.64,10.2148 48,17.5C 46.2589,20.3093 45.0922,23.3093 44.5,26.5C 43.6618,26.1583 43.3284,25.4916 43.5,24.5C 44.3629,23.0597 44.3629,21.7264 43.5,20.5C 44.2343,18.1851 45.5676,16.3518 47.5,15C 47.1667,14.6667 46.8333,14.3333 46.5,14C 50.0705,11.9322 52.7371,9.09884 54.5,5.5C 63.9073,1.13278 73.5739,0.466117 83.5,3.5 Z"/></g>
<g><path style="opacity:1" fill="#5c3b63" d="M 83.5,3.5 C 130.688,12.8037 177.688,22.4704 224.5,32.5C 220.298,32.1832 216.298,32.5166 212.5,33.5C 212.167,33.5 211.833,33.5 211.5,33.5C 175.657,25.9095 139.657,18.4095 103.5,11C 100.961,10.2042 98.6282,10.3709 96.5,11.5C 92.2652,8.55531 87.9319,5.88864 83.5,3.5 Z"/></g>
<g><path style="opacity:1" fill="#fd514c" d="M 96.5,12.5 C 97.1667,12.5 97.8333,12.5 98.5,12.5C 99.1667,13.5 99.8333,14.5 100.5,15.5C 89.2897,13.1865 78.2897,11.1865 67.5,9.5C 62.7598,9.93194 58.4265,11.4319 54.5,14C 51.113,16.0016 49.613,18.835 50,22.5C 51.7409,21.2423 53.5742,20.2423 55.5,19.5C 52.6016,22.6278 49.2683,25.2945 45.5,27.5C 44.8933,27.3764 44.56,27.0431 44.5,26.5C 45.0922,23.3093 46.2589,20.3093 48,17.5C 55.64,10.2148 63.9734,6.88146 73,7.5C 80.9736,9.79155 88.8069,11.4582 96.5,12.5 Z"/></g>
<g><path style="opacity:1" fill="#fe6561" d="M 100.5,15.5 C 101.167,15.8333 101.833,16.1667 102.5,16.5C 102.427,18.0269 103.094,19.0269 104.5,19.5C 104.557,20.609 104.89,21.609 105.5,22.5C 96.2912,21.3031 87.7912,18.3031 80,13.5C 75.2189,13.7491 70.3855,13.9158 65.5,14C 61.9758,15.5932 58.6424,17.4265 55.5,19.5C 53.5742,20.2423 51.7409,21.2423 50,22.5C 49.613,18.835 51.113,16.0016 54.5,14C 58.4265,11.4319 62.7598,9.93194 67.5,9.5C 78.2897,11.1865 89.2897,13.1865 100.5,15.5 Z"/></g>
<g><path style="opacity:1" fill="#d12d28" d="M 54.5,5.5 C 52.7371,9.09884 50.0705,11.9322 46.5,14C 46.8333,14.3333 47.1667,14.6667 47.5,15C 45.5676,16.3518 44.2343,18.1851 43.5,20.5C 44.3629,21.7264 44.3629,23.0597 43.5,24.5C 42.4138,24.62 41.7472,25.2867 41.5,26.5C 41.0188,29.0832 40.3521,31.5832 39.5,34C 40.3502,44.6607 41.0169,55.1607 41.5,65.5C 40.1667,64.8333 39.1667,63.8333 38.5,62.5C 34.7647,55.8614 32.4314,48.8614 31.5,41.5C 32.134,24.8765 39.8007,12.8765 54.5,5.5 Z"/></g>
<g><path style="opacity:1" fill="#795785" d="M 98.5,12.5 C 131.863,19.4057 165.196,26.239 198.5,33C 200.852,33.2401 202.852,34.0735 204.5,35.5C 203.833,35.5 203.167,35.5 202.5,35.5C 199.813,35.6641 197.146,35.4974 194.5,35C 163.858,28.6384 133.192,22.4717 102.5,16.5C 101.833,16.1667 101.167,15.8333 100.5,15.5C 99.8333,14.5 99.1667,13.5 98.5,12.5 Z"/></g>
<g><path style="opacity:1" fill="#9473a1" d="M 102.5,16.5 C 133.192,22.4717 163.858,28.6384 194.5,35C 197.146,35.4974 199.813,35.6641 202.5,35.5C 199.204,37.8208 195.871,40.1542 192.5,42.5C 165.757,36.4706 139.09,31.1372 112.5,26.5C 109.833,24.1667 107.167,21.8333 104.5,19.5C 103.094,19.0269 102.427,18.0269 102.5,16.5 Z"/></g>
<g><path style="opacity:1" fill="#654372" d="M 211.5,33.5 C 209.214,33.595 207.214,34.2616 205.5,35.5C 205.167,35.5 204.833,35.5 204.5,35.5C 202.852,34.0735 200.852,33.2401 198.5,33C 165.196,26.239 131.863,19.4057 98.5,12.5C 97.8333,12.5 97.1667,12.5 96.5,12.5C 96.5,12.1667 96.5,11.8333 96.5,11.5C 98.6282,10.3709 100.961,10.2042 103.5,11C 139.657,18.4095 175.657,25.9095 211.5,33.5 Z"/></g>
<g><path style="opacity:1" fill="#ea413c" d="M 105.5,22.5 C 107.887,26.4943 109.387,30.8276 110,35.5C 110.5,53.1635 110.667,70.8302 110.5,88.5C 95.1798,85.8536 80.1798,83.0202 65.5,80C 59.7802,78.6353 54.4469,76.4687 49.5,73.5C 47.2459,72.5849 45.2459,71.2516 43.5,69.5C 43.5,68.1667 42.8333,67.5 41.5,67.5C 41.5,66.8333 41.5,66.1667 41.5,65.5C 41.0169,55.1607 40.3502,44.6607 39.5,34C 40.3521,31.5832 41.0188,29.0832 41.5,26.5C 41.7472,25.2867 42.4138,24.62 43.5,24.5C 43.3284,25.4916 43.6618,26.1583 44.5,26.5C 44.56,27.0431 44.8933,27.3764 45.5,27.5C 49.2683,25.2945 52.6016,22.6278 55.5,19.5C 58.6424,17.4265 61.9758,15.5932 65.5,14C 70.3855,13.9158 75.2189,13.7491 80,13.5C 87.7912,18.3031 96.2912,21.3031 105.5,22.5 Z M 81.5,29.5 C 82.1224,31.1216 83.1224,32.4549 84.5,33.5C 85.8049,36.0531 86.8049,38.7198 87.5,41.5C 86.5,44.1667 85.5,46.8333 84.5,49.5C 79.8486,55.3825 73.8486,57.7158 66.5,56.5C 64.5368,55.1798 62.5368,53.8465 60.5,52.5C 58.5797,49.6612 56.9131,46.6612 55.5,43.5C 55.5,41.5 55.5,39.5 55.5,37.5C 61.3464,25.5736 70.013,22.9069 81.5,29.5 Z"/></g>
<g><path style="opacity:1" fill="#ca2c27" d="M 78.5,16.5 C 95.387,21.2758 100.054,31.6091 92.5,47.5C 89.9963,48.6392 87.3297,49.3059 84.5,49.5C 85.5,46.8333 86.5,44.1667 87.5,41.5C 89.2569,40.9157 90.5902,39.749 91.5,38C 93.9998,26.4787 89.3331,19.812 77.5,18C 78.056,17.6174 78.3893,17.1174 78.5,16.5 Z"/></g>
<g><path style="opacity:1" fill="#921e16" d="M 84.5,33.5 C 83.1224,32.4549 82.1224,31.1216 81.5,29.5C 81.5479,26.7081 80.2146,24.8747 77.5,24C 64.816,20.1631 57.4827,24.6631 55.5,37.5C 55.5,39.5 55.5,41.5 55.5,43.5C 53.8868,43.0557 52.7202,42.0557 52,40.5C 50.4634,32.7348 52.9634,26.5681 59.5,22C 61.8987,21.2689 64.0653,20.1022 66,18.5C 68.6667,18.5 71.3333,18.5 74,18.5C 79.6799,20.2489 83.8466,23.7489 86.5,29C 86.8363,30.629 86.1696,32.129 84.5,33.5 Z"/></g>
<g><path style="opacity:1" fill="#994e67" d="M 104.5,19.5 C 107.167,21.8333 109.833,24.1667 112.5,26.5C 128.412,43.9149 144.912,60.9149 162,77.5C 162.464,78.0944 162.631,78.7611 162.5,79.5C 158.062,85.3904 153.395,91.0571 148.5,96.5C 135.841,94.1684 123.175,91.8351 110.5,89.5C 110.5,89.1667 110.5,88.8333 110.5,88.5C 110.667,70.8302 110.5,53.1635 110,35.5C 109.387,30.8276 107.887,26.4943 105.5,22.5C 104.89,21.609 104.557,20.609 104.5,19.5 Z"/></g>
<g><path style="opacity:1" fill="#6f4f7b" d="M 192.5,42.5 C 192.167,43.1667 191.833,43.8333 191.5,44.5C 188.364,47.429 185.697,50.7623 183.5,54.5C 176.123,62.2465 169.457,70.5798 163.5,79.5C 163.167,79.5 162.833,79.5 162.5,79.5C 162.631,78.7611 162.464,78.0944 162,77.5C 144.912,60.9149 128.412,43.9149 112.5,26.5C 139.09,31.1372 165.757,36.4706 192.5,42.5 Z"/></g>
<g><path style="opacity:1" fill="#b62722" d="M 78.5,16.5 C 78.3893,17.1174 78.056,17.6174 77.5,18C 89.3331,19.812 93.9998,26.4787 91.5,38C 90.5902,39.749 89.2569,40.9157 87.5,41.5C 86.8049,38.7198 85.8049,36.0531 84.5,33.5C 86.1696,32.129 86.8363,30.629 86.5,29C 83.8466,23.7489 79.6799,20.2489 74,18.5C 71.3333,18.5 68.6667,18.5 66,18.5C 64.0653,20.1022 61.8987,21.2689 59.5,22C 52.9634,26.5681 50.4634,32.7348 52,40.5C 52.7202,42.0557 53.8868,43.0557 55.5,43.5C 56.9131,46.6612 58.5797,49.6612 60.5,52.5C 55.1765,53.0751 51.3432,50.7418 49,45.5C 47.0024,39.3095 47.5024,33.3095 50.5,27.5C 55.331,21.9544 60.9977,18.2877 67.5,16.5C 71.1534,17.5718 74.8201,17.5718 78.5,16.5 Z"/></g>
<g><path style="opacity:0.988" fill="#811f18" d="M 81.5,29.5 C 70.013,22.9069 61.3464,25.5736 55.5,37.5C 57.4827,24.6631 64.816,20.1631 77.5,24C 80.2146,24.8747 81.5479,26.7081 81.5,29.5 Z"/></g>
<g><path style="opacity:1" fill="#73c7fc" d="M 202.5,35.5 C 203.167,35.5 203.833,35.5 204.5,35.5C 204.833,35.5 205.167,35.5 205.5,35.5C 211.717,37.7947 217.717,39.7947 223.5,41.5C 217.034,42.9685 210.701,43.9685 204.5,44.5C 201.074,43.8731 197.574,44.2064 194,45.5C 192.93,45.472 192.097,45.1386 191.5,44.5C 191.833,43.8333 192.167,43.1667 192.5,42.5C 195.871,40.1542 199.204,37.8208 202.5,35.5 Z"/></g>
<g><path style="opacity:0.972" fill="#448ec4" d="M 237.5,36.5 C 243.134,39.1353 247.467,43.1353 250.5,48.5C 249.352,47.105 248.352,47.2716 247.5,49C 248.315,54.941 249.149,61.441 250,68.5C 250.185,77.3121 250.351,85.9788 250.5,94.5C 249.4,95.6049 248.733,96.9382 248.5,98.5C 248.167,98.5 247.833,98.5 247.5,98.5C 251.279,77.0649 247.612,57.0649 236.5,38.5C 236.863,37.8165 237.196,37.1499 237.5,36.5 Z"/></g>
<g><path style="opacity:1" fill="#cc2d27" d="M 50.5,27.5 C 47.5024,33.3095 47.0024,39.3095 49,45.5C 51.3432,50.7418 55.1765,53.0751 60.5,52.5C 62.5368,53.8465 64.5368,55.1798 66.5,56.5C 61.4113,59.6194 56.2447,58.9528 51,54.5C 49.0134,50.0317 47.1801,45.5317 45.5,41C 46.2689,37.1556 47.1022,32.989 48,28.5C 48.6708,27.7476 49.5041,27.4142 50.5,27.5 Z"/></g>
<g><path style="opacity:1" fill="#3b82b4" d="M 224.5,46.5 C 225.681,48.0672 227.347,48.9005 229.5,49C 236.034,53.5151 238.867,59.6818 238,67.5C 237.467,69.9386 236.3,70.6052 234.5,69.5C 234.423,68.2502 233.756,67.4169 232.5,67C 233.171,66.0138 233.171,64.8471 232.5,63.5C 234.881,61.476 235.048,59.1427 233,56.5C 226.973,49.8276 219.64,47.1609 211,48.5C 198.973,53.6977 195.473,62.1977 200.5,74C 201.448,74.4828 202.448,74.6495 203.5,74.5C 204.363,76.4214 205.029,78.4214 205.5,80.5C 202.228,81.4635 199.395,80.4635 197,77.5C 191.146,64.7729 194.313,54.9396 206.5,48C 208.866,47.5604 211.199,47.0604 213.5,46.5C 217.315,45.8951 220.982,45.8951 224.5,46.5 Z"/></g>
<g><path style="opacity:1" fill="#4693cb" d="M 213.5,46.5 C 211.199,47.0604 208.866,47.5604 206.5,48C 194.313,54.9396 191.146,64.7729 197,77.5C 199.395,80.4635 202.228,81.4635 205.5,80.5C 208.729,83.6091 212.395,85.9424 216.5,87.5C 195.172,89.3316 186.672,79.6649 191,58.5C 192.247,55.6714 193.747,53.0048 195.5,50.5C 199.63,48.6828 203.797,47.0161 208,45.5C 209.843,45.4394 211.677,45.7727 213.5,46.5 Z"/></g>
<g><path style="opacity:1" fill="#316d99" d="M 232.5,63.5 C 231.527,61.8608 230.194,60.5274 228.5,59.5C 227.183,54.6855 224.016,51.6855 219,50.5C 210.303,49.9224 204.469,54.2558 201.5,63.5C 201.994,65.0255 202.661,66.3588 203.5,67.5C 203.5,69.8333 203.5,72.1667 203.5,74.5C 202.448,74.6495 201.448,74.4828 200.5,74C 195.473,62.1977 198.973,53.6977 211,48.5C 219.64,47.1609 226.973,49.8276 233,56.5C 235.048,59.1427 234.881,61.476 232.5,63.5 Z"/></g>
<g><path style="opacity:1" fill="#8b1a12" d="M 31.5,41.5 C 32.4314,48.8614 34.7647,55.8614 38.5,62.5C 37.1667,120.5 37.1667,178.5 38.5,236.5C 35.7046,240.759 34.038,245.425 33.5,250.5C 32.8333,252.5 32.1667,254.5 31.5,256.5C 31.5,184.833 31.5,113.167 31.5,41.5 Z"/></g>
<g><path style="opacity:1" fill="#4b9bd5" d="M 212.5,33.5 C 216.298,32.5166 220.298,32.1832 224.5,32.5C 229.093,33.0636 233.426,34.397 237.5,36.5C 237.196,37.1499 236.863,37.8165 236.5,38.5C 247.612,57.0649 251.279,77.0649 247.5,98.5C 246.833,99.1667 246.167,99.8333 245.5,100.5C 245.167,100.5 244.833,100.5 244.5,100.5C 246.377,90.5846 246.877,80.5846 246,70.5C 245.465,68.7295 244.631,68.3961 243.5,69.5C 241.443,73.2006 239.443,76.8673 237.5,80.5C 234.129,82.7383 230.463,84.405 226.5,85.5C 232.323,81.8542 234.99,76.5209 234.5,69.5C 236.3,70.6052 237.467,69.9386 238,67.5C 238.867,59.6818 236.034,53.5151 229.5,49C 227.347,48.9005 225.681,48.0672 224.5,46.5C 229.716,47.5233 234.55,49.5233 239,52.5C 239.328,49.7929 238.995,47.1262 238,44.5C 234.471,40.1497 230.471,37.1497 226,35.5C 221.706,33.7518 217.206,33.0852 212.5,33.5 Z"/></g>
<g><path style="opacity:1" fill="#325b7c" d="M 228.5,59.5 C 221.771,54.1358 215.104,54.3025 208.5,60C 206.177,62.1699 204.51,64.6699 203.5,67.5C 202.661,66.3588 201.994,65.0255 201.5,63.5C 204.469,54.2558 210.303,49.9224 219,50.5C 224.016,51.6855 227.183,54.6855 228.5,59.5 Z"/></g>
<g><path style="opacity:1" fill="#f94d48" d="M 99.5,43.5 C 100.473,43.9867 101.473,44.4867 102.5,45C 102.246,63.1009 92.913,73.2676 74.5,75.5C 71.8536,74.7865 69.3536,74.7865 67,75.5C 59.0588,73.0329 52.0588,69.0329 46,63.5C 44.6076,60.1783 44.4409,56.8449 45.5,53.5C 48.0842,56.0347 50.5842,58.7014 53,61.5C 58.5348,60.5713 64.2015,60.5713 70,61.5C 82.3493,58.4635 92.1826,52.4635 99.5,43.5 Z"/></g>
<g><path style="opacity:1" fill="#6260a3" d="M 183.5,54.5 C 182.572,57.4535 181.739,60.4535 181,63.5C 180.457,74.5105 180.624,85.5105 181.5,96.5C 175.5,90.8333 169.5,85.1667 163.5,79.5C 169.457,70.5798 176.123,62.2465 183.5,54.5 Z"/></g>
<g><path style="opacity:1" fill="#397aaa" d="M 250.5,48.5 C 256.541,55.9646 259.208,64.6312 258.5,74.5C 257.373,78.6832 256.373,83.0166 255.5,87.5C 254.263,88.9649 253.263,90.6316 252.5,92.5C 251.833,93.1667 251.167,93.8333 250.5,94.5C 250.351,85.9788 250.185,77.3121 250,68.5C 249.149,61.441 248.315,54.941 247.5,49C 248.352,47.2716 249.352,47.105 250.5,48.5 Z"/></g>
<g><path style="opacity:1" fill="#5cabe6" d="M 211.5,33.5 C 211.833,33.5 212.167,33.5 212.5,33.5C 217.206,33.0852 221.706,33.7518 226,35.5C 230.471,37.1497 234.471,40.1497 238,44.5C 238.995,47.1262 239.328,49.7929 239,52.5C 234.55,49.5233 229.716,47.5233 224.5,46.5C 220.982,45.8951 217.315,45.8951 213.5,46.5C 211.677,45.7727 209.843,45.4394 208,45.5C 203.797,47.0161 199.63,48.6828 195.5,50.5C 193.747,53.0048 192.247,55.6714 191,58.5C 186.672,79.6649 195.172,89.3316 216.5,87.5C 219.969,87.4535 223.302,86.7868 226.5,85.5C 226.047,86.4584 225.381,87.2917 224.5,88C 220.291,89.6354 215.958,90.8021 211.5,91.5C 205.966,91.1111 200.466,90.7777 195,90.5C 194.544,91.7441 195.044,92.5774 196.5,93C 192.5,93.6667 192.5,94.3333 196.5,95C 197.071,96.2051 197.738,97.3717 198.5,98.5C 201.597,100.561 204.43,102.894 207,105.5C 209.42,104.512 211.753,104.845 214,106.5C 217.667,106.5 221.333,106.5 225,106.5C 231.728,105.378 237.395,102.378 242,97.5C 243.289,94.6492 243.789,91.6492 243.5,88.5C 243.5,88.1667 243.5,87.8333 243.5,87.5C 244.809,86.376 245.475,84.876 245.5,83C 244.849,80.6373 244.849,78.1373 245.5,75.5C 244.448,75.3505 243.448,75.5172 242.5,76C 241.349,78.2003 239.682,79.7003 237.5,80.5C 239.443,76.8673 241.443,73.2006 243.5,69.5C 244.631,68.3961 245.465,68.7295 246,70.5C 246.877,80.5846 246.377,90.5846 244.5,100.5C 244.167,101.167 243.833,101.833 243.5,102.5C 233.716,109.86 222.716,112.36 210.5,110C 204.186,108.637 197.853,107.47 191.5,106.5C 188.697,105.072 185.697,104.405 182.5,104.5C 182.5,103.833 182.167,103.5 181.5,103.5C 181.5,101.167 181.5,98.8333 181.5,96.5C 180.624,85.5105 180.457,74.5105 181,63.5C 181.739,60.4535 182.572,57.4535 183.5,54.5C 185.697,50.7623 188.364,47.429 191.5,44.5C 192.097,45.1386 192.93,45.472 194,45.5C 197.574,44.2064 201.074,43.8731 204.5,44.5C 210.701,43.9685 217.034,42.9685 223.5,41.5C 217.717,39.7947 211.717,37.7947 205.5,35.5C 207.214,34.2616 209.214,33.595 211.5,33.5 Z"/></g>
<g><path style="opacity:1" fill="#992119" d="M 38.5,62.5 C 39.1667,63.8333 40.1667,64.8333 41.5,65.5C 41.5,66.1667 41.5,66.8333 41.5,67.5C 41.5,122.167 41.5,176.833 41.5,231.5C 41.4431,232.609 41.1098,233.609 40.5,234.5C 39.5,234.833 38.8333,235.5 38.5,236.5C 37.1667,178.5 37.1667,120.5 38.5,62.5 Z"/></g>
<g><path style="opacity:1" fill="#a62c24" d="M 41.5,67.5 C 42.8333,67.5 43.5,68.1667 43.5,69.5C 43.5,122.833 43.5,176.167 43.5,229.5C 43.1667,230.5 42.5,231.167 41.5,231.5C 41.5,176.833 41.5,122.167 41.5,67.5 Z"/></g>
<g><path style="opacity:1" fill="#ff635e" d="M 93.5,52.5 C 95.3588,52.4609 96.6921,53.2942 97.5,55C 95.2874,61.8766 90.9541,66.8766 84.5,70C 79.2562,71.3618 74.2562,72.5285 69.5,73.5C 67.5188,71.6703 65.1855,70.5036 62.5,70C 61.3128,68.9805 60.3128,67.8139 59.5,66.5C 66.44,64.3354 73.44,62.1688 80.5,60C 85.2325,57.9744 89.5658,55.4744 93.5,52.5 Z"/></g>
<g><path style="opacity:1" fill="#ff7974" d="M 88.5,57.5 C 89.9778,57.238 91.3112,57.5713 92.5,58.5C 91.8445,61.6588 90.1779,64.1588 87.5,66C 82.9515,67.0156 78.6182,68.5156 74.5,70.5C 71.6484,70.8027 68.9817,69.8027 66.5,67.5C 73.5528,63.5916 80.8861,60.2583 88.5,57.5 Z"/></g>
<g><path style="opacity:1" fill="#c94236" d="M 49.5,73.5 C 54.4469,76.4687 59.7802,78.6353 65.5,80C 80.1798,83.0202 95.1798,85.8536 110.5,88.5C 110.5,88.8333 110.5,89.1667 110.5,89.5C 110.5,104.833 110.5,120.167 110.5,135.5C 89.4489,115.45 69.1155,94.7829 49.5,73.5 Z"/></g>
<g><path style="opacity:0.981" fill="#315d67" d="M 258.5,74.5 C 261.747,113.111 264.413,151.778 266.5,190.5C 264.991,187.322 263.658,183.989 262.5,180.5C 260.14,151.887 258.474,123.387 257.5,95C 256.877,92.3927 256.21,89.8927 255.5,87.5C 256.373,83.0166 257.373,78.6832 258.5,74.5 Z"/></g>
<g><path style="opacity:1" fill="#856091" d="M 162.5,79.5 C 162.833,79.5 163.167,79.5 163.5,79.5C 169.5,85.1667 175.5,90.8333 181.5,96.5C 181.5,98.8333 181.5,101.167 181.5,103.5C 170.503,101.501 159.503,99.5006 148.5,97.5C 148.5,97.1667 148.5,96.8333 148.5,96.5C 153.395,91.0571 158.062,85.3904 162.5,79.5 Z"/></g>
<g><path style="opacity:1" fill="#b0382f" d="M 43.5,69.5 C 45.2459,71.2516 47.2459,72.5849 49.5,73.5C 69.1155,94.7829 89.4489,115.45 110.5,135.5C 110.5,136.167 110.5,136.833 110.5,137.5C 110.5,140.5 110.5,143.5 110.5,146.5C 88.4839,173.187 66.8173,200.187 45.5,227.5C 45.1667,228.167 44.8333,228.833 44.5,229.5C 44.1667,229.5 43.8333,229.5 43.5,229.5C 43.5,176.167 43.5,122.833 43.5,69.5 Z"/></g>
<g><path style="opacity:1" fill="#81d7ff" d="M 243.5,87.5 C 243.5,87.8333 243.5,88.1667 243.5,88.5C 237.052,100.059 227.385,104.559 214.5,102C 210.993,101.339 208.326,99.5052 206.5,96.5C 207.991,94.9884 209.824,93.9884 212,93.5C 223.024,92.6752 233.024,88.6752 242,81.5C 243.319,83.2495 243.819,85.2495 243.5,87.5 Z"/></g>
<g><path style="opacity:1" fill="#683c3a" d="M 110.5,89.5 C 123.175,91.8351 135.841,94.1684 148.5,96.5C 148.5,96.8333 148.5,97.1667 148.5,97.5C 137.167,111.833 125.833,126.167 114.5,140.5C 113.167,139.5 111.833,138.5 110.5,137.5C 110.5,136.833 110.5,136.167 110.5,135.5C 110.5,120.167 110.5,104.833 110.5,89.5 Z"/></g>
<g><path style="opacity:1" fill="#67bbf7" d="M 243.5,87.5 C 243.819,85.2495 243.319,83.2495 242,81.5C 233.024,88.6752 223.024,92.6752 212,93.5C 209.824,93.9884 207.991,94.9884 206.5,96.5C 208.326,99.5052 210.993,101.339 214.5,102C 227.385,104.559 237.052,100.059 243.5,88.5C 243.789,91.6492 243.289,94.6492 242,97.5C 237.395,102.378 231.728,105.378 225,106.5C 221.333,106.5 217.667,106.5 214,106.5C 211.753,104.845 209.42,104.512 207,105.5C 204.43,102.894 201.597,100.561 198.5,98.5C 197.738,97.3717 197.071,96.2051 196.5,95C 192.5,94.3333 192.5,93.6667 196.5,93C 195.044,92.5774 194.544,91.7441 195,90.5C 200.466,90.7777 205.966,91.1111 211.5,91.5C 215.958,90.8021 220.291,89.6354 224.5,88C 225.381,87.2917 226.047,86.4584 226.5,85.5C 230.463,84.405 234.129,82.7383 237.5,80.5C 239.682,79.7003 241.349,78.2003 242.5,76C 243.448,75.5172 244.448,75.3505 245.5,75.5C 244.849,78.1373 244.849,80.6373 245.5,83C 245.475,84.876 244.809,86.376 243.5,87.5 Z"/></g>
<g><path style="opacity:1" fill="#9bf2ff" d="M 238.5,86.5 C 240.441,87.6378 240.608,89.3045 239,91.5C 231.819,100.239 223.319,102.406 213.5,98C 214.667,96.8333 215.833,95.6667 217,94.5C 224.459,93.1735 231.626,90.5069 238.5,86.5 Z"/></g>
<g><path style="opacity:1" fill="#2c6874" d="M 255.5,87.5 C 256.21,89.8927 256.877,92.3927 257.5,95C 258.474,123.387 260.14,151.887 262.5,180.5C 261.31,178.131 259.643,176.131 257.5,174.5C 257.5,174.167 257.5,173.833 257.5,173.5C 255.945,152.868 254.278,132.035 252.5,111C 252.844,105.233 252.844,99.0661 252.5,92.5C 253.263,90.6316 254.263,88.9649 255.5,87.5 Z"/></g>
<g><path style="opacity:1" fill="#337582" d="M 252.5,92.5 C 252.844,99.0661 252.844,105.233 252.5,111C 254.278,132.035 255.945,152.868 257.5,173.5C 255.5,171.5 253.5,169.5 251.5,167.5C 252.375,163.988 252.708,160.488 252.5,157C 250.394,137.417 249.061,117.917 248.5,98.5C 248.733,96.9382 249.4,95.6049 250.5,94.5C 251.167,93.8333 251.833,93.1667 252.5,92.5 Z"/></g>
<g><path style="opacity:1" fill="#65576a" d="M 148.5,97.5 C 159.503,99.5006 170.503,101.501 181.5,103.5C 182.167,103.5 182.5,103.833 182.5,104.5C 183.999,127.491 185.333,150.491 186.5,173.5C 176.734,176.55 167.067,179.883 157.5,183.5C 157.167,183.5 156.833,183.5 156.5,183.5C 143.198,168.531 129.198,154.197 114.5,140.5C 125.833,126.167 137.167,111.833 148.5,97.5 Z"/></g>
<g><path style="opacity:1" fill="#428a98" d="M 247.5,98.5 C 247.833,98.5 248.167,98.5 248.5,98.5C 249.061,117.917 250.394,137.417 252.5,157C 252.708,160.488 252.375,163.988 251.5,167.5C 251.167,167.5 250.833,167.5 250.5,167.5C 249.306,166.728 248.306,165.728 247.5,164.5C 247.5,164.167 247.5,163.833 247.5,163.5C 247.389,159.261 247.722,155.094 248.5,151C 247.186,137.612 245.853,123.945 244.5,110C 245.012,107.158 245.345,103.991 245.5,100.5C 246.167,99.8333 246.833,99.1667 247.5,98.5 Z"/></g>
<g><path style="opacity:0.998" fill="#52a1c5" d="M 243.5,102.5 C 235.909,113.431 227.909,124.098 219.5,134.5C 209.833,125.5 200.5,116.167 191.5,106.5C 197.853,107.47 204.186,108.637 210.5,110C 222.716,112.36 233.716,109.86 243.5,102.5 Z"/></g>
<g><path style="opacity:1" fill="#8094a4" d="M 182.5,104.5 C 185.697,104.405 188.697,105.072 191.5,106.5C 200.5,116.167 209.833,125.5 219.5,134.5C 219.5,134.833 219.5,135.167 219.5,135.5C 209.468,146.541 200.134,158.207 191.5,170.5C 189.5,171.167 188.167,172.5 187.5,174.5C 187.167,174.5 186.833,174.5 186.5,174.5C 186.5,174.167 186.5,173.833 186.5,173.5C 185.333,150.491 183.999,127.491 182.5,104.5 Z"/></g>
<g><path style="opacity:1" fill="#5099a7" d="M 244.5,100.5 C 244.833,100.5 245.167,100.5 245.5,100.5C 245.345,103.991 245.012,107.158 244.5,110C 245.853,123.945 247.186,137.612 248.5,151C 247.722,155.094 247.389,159.261 247.5,163.5C 237.806,154.473 228.473,145.14 219.5,135.5C 219.5,135.167 219.5,134.833 219.5,134.5C 227.909,124.098 235.909,113.431 243.5,102.5C 243.833,101.833 244.167,101.167 244.5,100.5 Z"/></g>
<g><path style="opacity:1" fill="#8c8982" d="M 219.5,135.5 C 228.473,145.14 237.806,154.473 247.5,163.5C 247.5,163.833 247.5,164.167 247.5,164.5C 246.391,164.443 245.391,164.11 244.5,163.5C 237.515,160.337 230.181,159.171 222.5,160C 211.965,162.936 201.632,166.436 191.5,170.5C 200.134,158.207 209.468,146.541 219.5,135.5 Z"/></g>
<g><path style="opacity:1" fill="#435365" d="M 110.5,137.5 C 111.833,138.5 113.167,139.5 114.5,140.5C 129.198,154.197 143.198,168.531 156.5,183.5C 141.316,189.676 125.983,195.676 110.5,201.5C 110.5,183.167 110.5,164.833 110.5,146.5C 110.5,143.5 110.5,140.5 110.5,137.5 Z"/></g>
<g><path style="opacity:1" fill="#afa56c" d="M 244.5,163.5 C 244.414,164.496 244.748,165.329 245.5,166C 244.874,166.75 244.374,167.584 244,168.5C 242.345,168.198 241.012,166.864 240,164.5C 239.667,165.167 239.333,165.833 239,166.5C 238,165.5 237,164.5 236,163.5C 234.075,165.973 232.242,165.973 230.5,163.5C 229.158,164.902 228.324,164.569 228,162.5C 227.667,163.167 227.333,163.833 227,164.5C 224.824,164.572 222.824,164.238 221,163.5C 220.333,166.167 219.667,166.167 219,163.5C 218.683,165.301 218.016,165.634 217,164.5C 215.212,165.358 213.378,166.358 211.5,167.5C 210.914,167.291 210.414,166.957 210,166.5C 209.333,167.833 208.667,169.167 208,170.5C 207.667,169.833 207.333,169.167 207,168.5C 206.5,170.333 205.333,171.5 203.5,172C 203.833,172.333 204.167,172.667 204.5,173C 202.55,172.877 200.883,173.877 199.5,176C 200.634,177.016 200.301,177.683 198.5,178C 198.833,178.333 199.167,178.667 199.5,179C 196.46,181.7 195.126,184.366 195.5,187C 189.942,206.31 198.275,216.81 220.5,218.5C 227.429,217.63 234.096,215.963 240.5,213.5C 232.135,219.087 223.635,221.421 215,220.5C 211.968,221.345 211.801,222.678 214.5,224.5C 225.156,227.746 235.323,226.08 245,219.5C 246.303,217.06 247.47,214.56 248.5,212C 248.167,211.5 247.833,211 247.5,210.5C 245.925,211.456 244.258,212.123 242.5,212.5C 244.608,207.867 247.774,203.867 252,200.5C 253.319,202.25 253.819,204.25 253.5,206.5C 253.244,208.937 252.577,211.271 251.5,213.5C 248.67,215.322 246.67,217.822 245.5,221C 243.668,221.748 242.001,222.748 240.5,224C 229.247,227.087 217.913,229.587 206.5,231.5C 201.626,228.739 197.626,225.073 194.5,220.5C 191.788,215.533 189.955,210.2 189,204.5C 188.756,196.885 187.922,189.385 186.5,182C 187.075,179.859 187.408,177.359 187.5,174.5C 188.167,172.5 189.5,171.167 191.5,170.5C 201.632,166.436 211.965,162.936 222.5,160C 230.181,159.171 237.515,160.337 244.5,163.5 Z"/></g>
<g><path style="opacity:1" fill="#a59b61" d="M 244.5,163.5 C 245.391,164.11 246.391,164.443 247.5,164.5C 248.306,165.728 249.306,166.728 250.5,167.5C 250.663,169.857 250.497,172.19 250,174.5C 246.579,175.151 243.413,173.985 240.5,171C 226.457,165.216 213.957,168.049 203,179.5C 196.562,190.44 197.062,200.94 204.5,211C 211.019,216.019 217.353,217.186 223.5,214.5C 229.103,215.183 234.103,213.849 238.5,210.5C 239.922,210.291 241.255,209.791 242.5,209C 246,204.833 249.5,200.667 253,196.5C 254.684,199.894 254.851,203.228 253.5,206.5C 253.819,204.25 253.319,202.25 252,200.5C 247.774,203.867 244.608,207.867 242.5,212.5C 241.508,212.328 240.842,212.662 240.5,213.5C 234.096,215.963 227.429,217.63 220.5,218.5C 198.275,216.81 189.942,206.31 195.5,187C 195.126,184.366 196.46,181.7 199.5,179C 199.167,178.667 198.833,178.333 198.5,178C 200.301,177.683 200.634,177.016 199.5,176C 200.883,173.877 202.55,172.877 204.5,173C 204.167,172.667 203.833,172.333 203.5,172C 205.333,171.5 206.5,170.333 207,168.5C 207.333,169.167 207.667,169.833 208,170.5C 208.667,169.167 209.333,167.833 210,166.5C 210.414,166.957 210.914,167.291 211.5,167.5C 213.378,166.358 215.212,165.358 217,164.5C 218.016,165.634 218.683,165.301 219,163.5C 219.667,166.167 220.333,166.167 221,163.5C 222.824,164.238 224.824,164.572 227,164.5C 227.333,163.833 227.667,163.167 228,162.5C 228.324,164.569 229.158,164.902 230.5,163.5C 232.242,165.973 234.075,165.973 236,163.5C 237,164.5 238,165.5 239,166.5C 239.333,165.833 239.667,165.167 240,164.5C 241.012,166.864 242.345,168.198 244,168.5C 244.374,167.584 244.874,166.75 245.5,166C 244.748,165.329 244.414,164.496 244.5,163.5 Z"/></g>
<g><path style="opacity:1" fill="#9c5e58" d="M 110.5,146.5 C 110.5,164.833 110.5,183.167 110.5,201.5C 92.4236,207.701 74.4236,214.201 56.5,221C 52.7781,223.19 49.1114,225.356 45.5,227.5C 66.8173,200.187 88.4839,173.187 110.5,146.5 Z"/></g>
<g><path style="opacity:1" fill="#908650" d="M 250.5,167.5 C 250.833,167.5 251.167,167.5 251.5,167.5C 253.5,169.5 255.5,171.5 257.5,173.5C 257.5,173.833 257.5,174.167 257.5,174.5C 258.349,184.823 258.515,195.157 258,205.5C 254.966,209.889 252.299,214.556 250,219.5C 245.203,223.817 239.703,226.984 233.5,229C 225.924,229.96 218.591,231.794 211.5,234.5C 210.609,233.89 209.609,233.557 208.5,233.5C 208.158,232.662 207.492,232.328 206.5,232.5C 206.5,232.167 206.5,231.833 206.5,231.5C 217.913,229.587 229.247,227.087 240.5,224C 242.001,222.748 243.668,221.748 245.5,221C 246.67,217.822 248.67,215.322 251.5,213.5C 252.577,211.271 253.244,208.937 253.5,206.5C 254.851,203.228 254.684,199.894 253,196.5C 249.5,200.667 246,204.833 242.5,209C 241.255,209.791 239.922,210.291 238.5,210.5C 243.122,205.594 244.456,199.928 242.5,193.5C 244.391,191.164 244.891,188.498 244,185.5C 238.544,174.006 229.71,170.506 217.5,175C 204.259,182.106 201.259,192.106 208.5,205C 210.139,206.519 211.806,206.686 213.5,205.5C 215.658,209.896 218.991,212.896 223.5,214.5C 217.353,217.186 211.019,216.019 204.5,211C 197.062,200.94 196.562,190.44 203,179.5C 213.957,168.049 226.457,165.216 240.5,171C 243.413,173.985 246.579,175.151 250,174.5C 250.497,172.19 250.663,169.857 250.5,167.5 Z M 241.5,191.5 C 241.328,192.492 241.662,193.158 242.5,193.5C 244.456,199.928 243.122,205.594 238.5,210.5C 234.103,213.849 229.103,215.183 223.5,214.5C 218.991,212.896 215.658,209.896 213.5,205.5C 212.629,202.888 211.963,200.221 211.5,197.5C 215.724,185.058 224.057,181.225 236.5,186C 238.254,187.936 239.921,189.77 241.5,191.5 Z"/></g>
<g><path style="opacity:1" fill="#82877e" d="M 186.5,173.5 C 186.5,173.833 186.5,174.167 186.5,174.5C 181.578,182.095 176.245,189.428 170.5,196.5C 170.167,196.5 169.833,196.5 169.5,196.5C 165.5,192.167 161.5,187.833 157.5,183.5C 167.067,179.883 176.734,176.55 186.5,173.5 Z"/></g>
<g><path style="opacity:1" fill="#9b8356" d="M 186.5,174.5 C 186.833,174.5 187.167,174.5 187.5,174.5C 187.408,177.359 187.075,179.859 186.5,182C 187.922,189.385 188.756,196.885 189,204.5C 189.955,210.2 191.788,215.533 194.5,220.5C 186.167,212.833 178.167,204.833 170.5,196.5C 176.245,189.428 181.578,182.095 186.5,174.5 Z"/></g>
<g><path style="opacity:1" fill="#776e40" d="M 242.5,193.5 C 241.662,193.158 241.328,192.492 241.5,191.5C 241.507,186.361 239.507,182.194 235.5,179C 230.934,179.201 226.267,179.201 221.5,179C 219.167,180 216.833,181 214.5,182C 213.971,184.429 212.637,186.262 210.5,187.5C 208.968,191.095 209.302,194.428 211.5,197.5C 211.963,200.221 212.629,202.888 213.5,205.5C 211.806,206.686 210.139,206.519 208.5,205C 201.259,192.106 204.259,182.106 217.5,175C 229.71,170.506 238.544,174.006 244,185.5C 244.891,188.498 244.391,191.164 242.5,193.5 Z"/></g>
<g><path style="opacity:1" fill="#625936" d="M 241.5,191.5 C 239.921,189.77 238.254,187.936 236.5,186C 224.057,181.225 215.724,185.058 211.5,197.5C 209.302,194.428 208.968,191.095 210.5,187.5C 212.637,186.262 213.971,184.429 214.5,182C 216.833,181 219.167,180 221.5,179C 226.267,179.201 230.934,179.201 235.5,179C 239.507,182.194 241.507,186.361 241.5,191.5 Z"/></g>
<g><path style="opacity:1" fill="#726a3e" d="M 257.5,174.5 C 259.643,176.131 261.31,178.131 262.5,180.5C 263.658,183.989 264.991,187.322 266.5,190.5C 267.833,195.167 267.833,199.833 266.5,204.5C 261.197,210.644 256.031,216.978 251,223.5C 246.233,226.665 241.066,229.165 235.5,231C 228.462,232.404 221.462,233.904 214.5,235.5C 213.209,235.737 212.209,235.404 211.5,234.5C 218.591,231.794 225.924,229.96 233.5,229C 239.703,226.984 245.203,223.817 250,219.5C 252.299,214.556 254.966,209.889 258,205.5C 258.515,195.157 258.349,184.823 257.5,174.5 Z"/></g>
<g><path style="opacity:1" fill="#669783" d="M 156.5,183.5 C 156.833,183.5 157.167,183.5 157.5,183.5C 161.5,187.833 165.5,192.167 169.5,196.5C 151.809,219.185 134.143,241.852 116.5,264.5C 114.457,265.579 113.124,267.246 112.5,269.5C 110.367,271.091 108.701,273.091 107.5,275.5C 107.167,275.5 106.833,275.5 106.5,275.5C 106.5,275.167 106.5,274.833 106.5,274.5C 108.095,271.715 109.095,268.715 109.5,265.5C 110.497,244.34 110.831,223.007 110.5,201.5C 125.983,195.676 141.316,189.676 156.5,183.5 Z"/></g>
<g><path style="opacity:1" fill="#648b5b" d="M 169.5,196.5 C 169.833,196.5 170.167,196.5 170.5,196.5C 178.167,204.833 186.167,212.833 194.5,220.5C 197.626,225.073 201.626,228.739 206.5,231.5C 206.5,231.833 206.5,232.167 206.5,232.5C 176.441,242.964 146.441,253.631 116.5,264.5C 134.143,241.852 151.809,219.185 169.5,196.5 Z"/></g>
<g><path style="opacity:1" fill="#b47462" d="M 110.5,201.5 C 110.831,223.007 110.497,244.34 109.5,265.5C 109.631,264.761 109.464,264.094 109,263.5C 104.533,266.965 100.367,270.798 96.5,275C 92.612,277.772 88.612,280.272 84.5,282.5C 86.5862,280.178 89.0862,278.178 92,276.5C 92.9533,274.545 94.2866,272.878 96,271.5C 97.0086,269.975 97.5086,268.308 97.5,266.5C 91.9286,269.286 86.2619,272.119 80.5,275C 74.8625,276.825 69.1958,278.492 63.5,280C 64.7158,281.74 66.3825,282.74 68.5,283C 71.8168,283.498 75.1501,283.665 78.5,283.5C 70.4222,286.067 63.4222,284.233 57.5,278C 63.4506,276.89 69.4506,275.89 75.5,275C 81.6753,271.486 87.8419,267.986 94,264.5C 95.4323,260.469 97.2657,256.636 99.5,253C 101.316,237.771 94.6493,228.104 79.5,224C 65.8664,221.024 54.6997,224.857 46,235.5C 44.6814,233.75 44.1814,231.75 44.5,229.5C 44.8333,228.833 45.1667,228.167 45.5,227.5C 49.1114,225.356 52.7781,223.19 56.5,221C 74.4236,214.201 92.4236,207.701 110.5,201.5 Z"/></g>
<g><path style="opacity:1" fill="#5c5432" d="M 266.5,204.5 C 263.5,222.489 253.166,233.822 235.5,238.5C 232.023,237.881 228.356,237.881 224.5,238.5C 223.081,237.549 221.415,237.216 219.5,237.5C 217.958,236.699 216.292,236.366 214.5,236.5C 214.5,236.167 214.5,235.833 214.5,235.5C 221.462,233.904 228.462,232.404 235.5,231C 241.066,229.165 246.233,226.665 251,223.5C 256.031,216.978 261.197,210.644 266.5,204.5 Z"/></g>
<g><path style="opacity:1" fill="#d6cc8e" d="M 240.5,213.5 C 240.842,212.662 241.508,212.328 242.5,212.5C 244.258,212.123 245.925,211.456 247.5,210.5C 247.833,211 248.167,211.5 248.5,212C 247.47,214.56 246.303,217.06 245,219.5C 235.323,226.08 225.156,227.746 214.5,224.5C 211.801,222.678 211.968,221.345 215,220.5C 223.635,221.421 232.135,219.087 240.5,213.5 Z"/></g>
<g><path style="opacity:1" fill="#4e7346" d="M 206.5,232.5 C 207.492,232.328 208.158,232.662 208.5,233.5C 176.724,246.053 144.724,258.053 112.5,269.5C 113.124,267.246 114.457,265.579 116.5,264.5C 146.441,253.631 176.441,242.964 206.5,232.5 Z"/></g>
<g><path style="opacity:1" fill="#3f6038" d="M 208.5,233.5 C 209.609,233.557 210.609,233.89 211.5,234.5C 212.209,235.404 213.209,235.737 214.5,235.5C 214.5,235.833 214.5,236.167 214.5,236.5C 178.91,249.697 143.243,262.697 107.5,275.5C 108.701,273.091 110.367,271.091 112.5,269.5C 144.724,258.053 176.724,246.053 208.5,233.5 Z"/></g>
<g><path style="opacity:1" fill="#334f2d" d="M 214.5,236.5 C 216.292,236.366 217.958,236.699 219.5,237.5C 181.051,253.086 142.384,267.419 103.5,280.5C 104.263,278.632 105.263,276.965 106.5,275.5C 106.833,275.5 107.167,275.5 107.5,275.5C 143.243,262.697 178.91,249.697 214.5,236.5 Z"/></g>
<g><path style="opacity:1" fill="#2c4427" d="M 219.5,237.5 C 221.415,237.216 223.081,237.549 224.5,238.5C 183.375,254.43 142.042,269.763 100.5,284.5C 100.833,283.833 101.167,283.167 101.5,282.5C 101.833,281.5 102.5,280.833 103.5,280.5C 142.384,267.419 181.051,253.086 219.5,237.5 Z"/></g>
<g><path style="opacity:0.965" fill="#2f3f28" d="M 235.5,238.5 C 188.172,256.165 140.838,273.832 93.5,291.5C 92.7611,291.631 92.0944,291.464 91.5,291C 94.5294,288.824 97.5294,286.657 100.5,284.5C 142.042,269.763 183.375,254.43 224.5,238.5C 228.356,237.881 232.023,237.881 235.5,238.5 Z"/></g>
<g><path style="opacity:1" fill="#915645" d="M 40.5,234.5 C 40.5935,239.836 40.2602,245.336 39.5,251C 40.2883,254.076 40.7883,257.242 41,260.5C 46.1033,278.308 57.9366,286.641 76.5,285.5C 66.1287,288.336 56.7954,286.17 48.5,279C 46.3256,275.996 43.9923,273.163 41.5,270.5C 39.0039,266.176 36.5039,261.843 34,257.5C 33.5034,255.19 33.3367,252.857 33.5,250.5C 34.038,245.425 35.7046,240.759 38.5,236.5C 38.8333,235.5 39.5,234.833 40.5,234.5 Z"/></g>
<g><path style="opacity:1" fill="#a56655" d="M 78.5,283.5 C 80.5,283.167 82.5,282.833 84.5,282.5C 88.612,280.272 92.612,277.772 96.5,275C 100.367,270.798 104.533,266.965 109,263.5C 109.464,264.094 109.631,264.761 109.5,265.5C 109.095,268.715 108.095,271.715 106.5,274.5C 100.777,276.529 95.4433,279.363 90.5,283C 86.1014,284.97 81.4347,285.803 76.5,285.5C 57.9366,286.641 46.1033,278.308 41,260.5C 40.7883,257.242 40.2883,254.076 39.5,251C 40.2602,245.336 40.5935,239.836 40.5,234.5C 41.1098,233.609 41.4431,232.609 41.5,231.5C 42.5,231.167 43.1667,230.5 43.5,229.5C 43.8333,229.5 44.1667,229.5 44.5,229.5C 44.1814,231.75 44.6814,233.75 46,235.5C 54.6997,224.857 65.8664,221.024 79.5,224C 94.6493,228.104 101.316,237.771 99.5,253C 97.2657,256.636 95.4323,260.469 94,264.5C 87.8419,267.986 81.6753,271.486 75.5,275C 69.4506,275.89 63.4506,276.89 57.5,278C 63.4222,284.233 70.4222,286.067 78.5,283.5 Z M 85.5,250.5 C 85.8751,252.698 86.5418,254.698 87.5,256.5C 86.8333,259.167 86.1667,261.833 85.5,264.5C 80.8564,271.325 74.523,273.992 66.5,272.5C 63.0787,271.461 60.4121,269.461 58.5,266.5C 57.7368,264.632 56.7368,262.965 55.5,261.5C 56.3058,246.16 63.9725,240.327 78.5,244C 81.3576,245.694 83.691,247.861 85.5,250.5 Z"/></g>
<g><path style="opacity:1" fill="#935747" d="M 85.5,264.5 C 86.1667,261.833 86.8333,259.167 87.5,256.5C 92.4757,251.418 92.809,245.918 88.5,240C 76.1963,228.557 64.0297,228.724 52,240.5C 47.8063,247.997 47.473,255.663 51,263.5C 52.9877,266.431 55.4877,267.431 58.5,266.5C 60.4121,269.461 63.0787,271.461 66.5,272.5C 66.631,273.239 66.4643,273.906 66,274.5C 61.5664,274.132 57.0664,272.966 52.5,271C 44.2888,260.388 43.4555,249.221 50,237.5C 58.4648,228.989 67.9648,226.156 78.5,229C 93.4598,234.548 97.9598,244.715 92,259.5C 90.2419,261.765 88.0752,263.432 85.5,264.5 Z"/></g>
<g><path style="opacity:1" fill="#6b3f33" d="M 85.5,250.5 C 83.691,247.861 81.3576,245.694 78.5,244C 63.9725,240.327 56.3058,246.16 55.5,261.5C 53.1556,260.653 51.6556,258.986 51,256.5C 50.0845,246.02 54.5845,238.687 64.5,234.5C 74.1443,231.428 80.9776,234.428 85,243.5C 85.4966,245.81 85.6633,248.143 85.5,250.5 Z"/></g>
<g><path style="opacity:1" fill="#814b3c" d="M 87.5,256.5 C 86.5418,254.698 85.8751,252.698 85.5,250.5C 85.6633,248.143 85.4966,245.81 85,243.5C 80.9776,234.428 74.1443,231.428 64.5,234.5C 54.5845,238.687 50.0845,246.02 51,256.5C 51.6556,258.986 53.1556,260.653 55.5,261.5C 56.7368,262.965 57.7368,264.632 58.5,266.5C 55.4877,267.431 52.9877,266.431 51,263.5C 47.473,255.663 47.8063,247.997 52,240.5C 64.0297,228.724 76.1963,228.557 88.5,240C 92.809,245.918 92.4757,251.418 87.5,256.5 Z"/></g>
<g><path style="opacity:1" fill="#db9784" d="M 84.5,282.5 C 82.5,282.833 80.5,283.167 78.5,283.5C 75.1501,283.665 71.8168,283.498 68.5,283C 66.3825,282.74 64.7158,281.74 63.5,280C 69.1958,278.492 74.8625,276.825 80.5,275C 86.2619,272.119 91.9286,269.286 97.5,266.5C 97.5086,268.308 97.0086,269.975 96,271.5C 94.2866,272.878 92.9533,274.545 92,276.5C 89.0862,278.178 86.5862,280.178 84.5,282.5 Z"/></g>
<g><path style="opacity:0.996" fill="#5c362c" d="M 101.5,282.5 C 101.167,283.167 100.833,283.833 100.5,284.5C 97.5294,286.657 94.5294,288.824 91.5,291C 92.0944,291.464 92.7611,291.631 93.5,291.5C 75.3472,301.157 58.6805,299.157 43.5,285.5C 44.2646,285.077 45.0979,284.743 46,284.5C 52.2979,286.262 58.2979,288.596 64,291.5C 67.1481,290.687 70.1481,290.687 73,291.5C 82.6613,289.002 92.1613,286.002 101.5,282.5 Z"/></g>
<g><path style="opacity:1" fill="#754336" d="M 33.5,250.5 C 33.3367,252.857 33.5034,255.19 34,257.5C 36.5039,261.843 39.0039,266.176 41.5,270.5C 43.9923,273.163 46.3256,275.996 48.5,279C 56.7954,286.17 66.1287,288.336 76.5,285.5C 81.4347,285.803 86.1014,284.97 90.5,283C 95.4433,279.363 100.777,276.529 106.5,274.5C 106.5,274.833 106.5,275.167 106.5,275.5C 105.263,276.965 104.263,278.632 103.5,280.5C 102.5,280.833 101.833,281.5 101.5,282.5C 92.1613,286.002 82.6613,289.002 73,291.5C 70.1481,290.687 67.1481,290.687 64,291.5C 58.2979,288.596 52.2979,286.262 46,284.5C 45.0979,284.743 44.2646,285.077 43.5,285.5C 35.6267,277.573 31.6267,267.906 31.5,256.5C 32.1667,254.5 32.8333,252.5 33.5,250.5 Z"/></g>
</svg>
