<?xml version="1.0" encoding="UTF-8"?>
<!DOCTYPE svg PUBLIC "-//W3C//DTD SVG 1.1//EN" "http://www.w3.org/Graphics/SVG/1.1/DTD/svg11.dtd">
<svg xmlns="http://www.w3.org/2000/svg" version="1.1" width="250px" height="250px" style="shape-rendering:geometricPrecision; text-rendering:geometricPrecision; image-rendering:optimizeQuality; fill-rule:evenodd; clip-rule:evenodd" xmlns:xlink="http://www.w3.org/1999/xlink">
<g><path style="opacity:0.989" fill="#2f71bb" d="M 34.5,7.5 C 59.5022,7.33336 84.5022,7.50003 109.5,8C 132.082,8.90781 151.748,16.7411 168.5,31.5C 176.114,39.3914 181.114,48.7247 183.5,59.5C 182.504,59.4142 181.671,59.7476 181,60.5C 180.667,59.5 180.333,58.5 180,57.5C 173.736,65.437 167.069,73.1037 160,80.5C 159.667,78.5 159.333,76.5 159,74.5C 158.819,77.6946 158.319,80.6946 157.5,83.5C 159.466,62.6348 150.799,48.1348 131.5,40C 116.879,34.4623 101.879,33.129 86.5,36C 80.7413,38.6578 77.2413,43.1578 76,49.5C 74.7473,62.0495 75.7473,74.3828 79,86.5C 81.3864,92.1041 85.553,95.4374 91.5,96.5C 96.8333,96.5 102.167,96.5 107.5,96.5C 102.431,98.0994 97.0981,98.9327 91.5,99C 98.5,104.167 105.5,109.333 112.5,114.5C 114.358,116.524 116.025,118.691 117.5,121C 116.944,121.383 116.611,121.883 116.5,122.5C 101.666,127.504 86.3328,130.337 70.5,131C 57.0497,116.607 47.883,99.7733 43,80.5C 36.715,56.5733 33.8817,32.24 34.5,7.5 Z"/></g>
<g><path style="opacity:1" fill="#82d3f1" d="M 34.5,7.5 C 33.8817,32.24 36.715,56.5733 43,80.5C 47.883,99.7733 57.0497,116.607 70.5,131C 86.3328,130.337 101.666,127.504 116.5,122.5C 124.012,121.247 131.012,118.58 137.5,114.5C 143.448,111.552 148.115,107.219 151.5,101.5C 155.388,90.6619 156.388,79.6619 154.5,68.5C 149.847,51.8017 138.847,41.9684 121.5,39C 112.218,37.6841 102.884,37.1841 93.5,37.5C 88.4766,37.0701 84.4766,38.7368 81.5,42.5C 79.1257,45.6859 78.1257,49.3526 78.5,53.5C 76.6445,65.3289 77.8112,76.9956 82,88.5C 84.1057,91.1177 86.6057,93.1177 89.5,94.5C 90.5,94.8333 91.1667,95.5 91.5,96.5C 85.553,95.4374 81.3864,92.1041 79,86.5C 75.7473,74.3828 74.7473,62.0495 76,49.5C 77.2413,43.1578 80.7413,38.6578 86.5,36C 101.879,33.129 116.879,34.4623 131.5,40C 150.799,48.1348 159.466,62.6348 157.5,83.5C 157.6,97.8065 151.6,108.64 139.5,116C 131.939,120.449 123.939,123.783 115.5,126C 104.267,128.762 92.9333,131.095 81.5,133C 93.1588,134.807 104.492,137.807 115.5,142C 120.833,144.665 125.833,147.832 130.5,151.5C 135.833,157.167 141.167,162.833 146.5,168.5C 154.96,178.13 163.627,187.63 172.5,197C 184.398,207.076 196.398,216.909 208.5,226.5C 208.565,226.938 208.399,227.272 208,227.5C 197.958,219.286 187.791,211.286 177.5,203.5C 169.5,195.833 161.5,188.167 153.5,180.5C 149.511,175.179 145.178,170.179 140.5,165.5C 131.78,153.123 120.113,144.623 105.5,140C 94.2072,137.839 82.8738,136.006 71.5,134.5C 71.553,140.196 71.2197,145.862 70.5,151.5C 69.5269,153.948 69.1936,156.615 69.5,159.5C 68.5975,162.997 67.9309,166.663 67.5,170.5C 66.5489,169.081 66.2155,167.415 66.5,165.5C 67.7498,154.51 68.5831,143.51 69,132.5C 58.5527,121.948 50.8861,109.615 46,95.5C 38.6807,72.5553 33.8474,49.222 31.5,25.5C 31.5,19.5 31.5,13.5 31.5,7.5C 32.5,7.5 33.5,7.5 34.5,7.5 Z M 101.5,58.5 C 119.725,56.3939 128.059,64.3939 126.5,82.5C 125.334,85.5032 123.667,88.1698 121.5,90.5C 117.323,93.5874 112.656,95.5874 107.5,96.5C 102.167,96.5 96.8333,96.5 91.5,96.5C 91.1667,95.5 90.5,94.8333 89.5,94.5C 86.4567,84.3513 85.7901,74.018 87.5,63.5C 88.2899,62.2058 89.2899,61.0391 90.5,60C 94.0863,58.8924 97.753,58.3924 101.5,58.5 Z"/></g>
<g><path style="opacity:0.971" fill="#2a4f7a" d="M 81.5,42.5 C 86.4481,45.9069 91.7815,49.7402 97.5,54C 99.8333,55 102.167,56 104.5,57C 103.263,57.2321 102.263,57.7321 101.5,58.5C 97.753,58.3924 94.0863,58.8924 90.5,60C 89.2899,61.0391 88.2899,62.2058 87.5,63.5C 86.603,64.5981 85.7697,64.5981 85,63.5C 84.195,65.9011 83.3617,65.7344 82.5,63C 81.2341,62.6905 80.0674,62.1905 79,61.5C 78.5026,58.854 78.3359,56.1873 78.5,53.5C 78.1257,49.3526 79.1257,45.6859 81.5,42.5 Z"/></g>
<g><path style="opacity:1" fill="#263c56" d="M 93.5,37.5 C 102.884,37.1841 112.218,37.6841 121.5,39C 138.847,41.9684 149.847,51.8017 154.5,68.5C 154.854,72.6372 154.354,76.6372 153,80.5C 150.444,79.7809 149.277,78.1142 149.5,75.5C 146.193,74.7125 143.193,73.2125 140.5,71C 125.655,58.2883 109.988,47.1217 93.5,37.5 Z"/></g>
<g><path style="opacity:1" fill="#284467" d="M 93.5,37.5 C 109.988,47.1217 125.655,58.2883 140.5,71C 143.193,73.2125 146.193,74.7125 149.5,75.5C 149.277,78.1142 150.444,79.7809 153,80.5C 154.354,76.6372 154.854,72.6372 154.5,68.5C 156.388,79.6619 155.388,90.6619 151.5,101.5C 149.567,101.271 147.9,100.438 146.5,99C 145.048,96.2553 143.048,93.9219 140.5,92C 140.833,91.6667 141.167,91.3333 141.5,91C 136.761,87.9689 132.428,84.4689 128.5,80.5C 127.818,81.2427 127.151,81.9094 126.5,82.5C 128.059,64.3939 119.725,56.3939 101.5,58.5C 102.263,57.7321 103.263,57.2321 104.5,57C 102.167,56 99.8333,55 97.5,54C 91.7815,49.7402 86.4481,45.9069 81.5,42.5C 84.4766,38.7368 88.4766,37.0701 93.5,37.5 Z"/></g>
<g><path style="opacity:1" fill="#2c4169" d="M 31.5,25.5 C 33.8474,49.222 38.6807,72.5553 46,95.5C 50.8861,109.615 58.5527,121.948 69,132.5C 68.5831,143.51 67.7498,154.51 66.5,165.5C 65.111,170.269 64.4443,175.269 64.5,180.5C 61.7828,196.711 59.7828,213.044 58.5,229.5C 57.2911,233.618 56.6245,237.951 56.5,242.5C 49.4227,239.08 42.2561,235.747 35,232.5C 34.5391,224.331 34.0391,216.164 33.5,208C 33.5252,205.245 33.8586,202.578 34.5,200C 33.2238,141.903 32.2238,83.7363 31.5,25.5 Z"/></g>
<g><path style="opacity:1" fill="#2d609a" d="M 78.5,53.5 C 78.3359,56.1873 78.5026,58.854 79,61.5C 80.0674,62.1905 81.2341,62.6905 82.5,63C 83.3617,65.7344 84.195,65.9011 85,63.5C 85.7697,64.5981 86.603,64.5981 87.5,63.5C 85.7901,74.018 86.4567,84.3513 89.5,94.5C 86.6057,93.1177 84.1057,91.1177 82,88.5C 77.8112,76.9956 76.6445,65.3289 78.5,53.5 Z"/></g>
<g><path style="opacity:0.998" fill="#2e6aac" d="M 183.5,59.5 C 188.449,81.0896 184.449,100.756 171.5,118.5C 171.77,115.687 172.27,113.021 173,110.5C 160.402,124.157 147.902,137.99 135.5,152C 133.953,152.333 132.62,151.833 131.5,150.5C 130.893,150.624 130.56,150.957 130.5,151.5C 125.833,147.832 120.833,144.665 115.5,142C 104.492,137.807 93.1588,134.807 81.5,133C 92.9333,131.095 104.267,128.762 115.5,126C 123.939,123.783 131.939,120.449 139.5,116C 151.6,108.64 157.6,97.8065 157.5,83.5C 158.319,80.6946 158.819,77.6946 159,74.5C 159.333,76.5 159.667,78.5 160,80.5C 167.069,73.1037 173.736,65.437 180,57.5C 180.333,58.5 180.667,59.5 181,60.5C 181.671,59.7476 182.504,59.4142 183.5,59.5 Z"/></g>
<g><path style="opacity:0.992" fill="#2a5382" d="M 151.5,101.5 C 148.115,107.219 143.448,111.552 137.5,114.5C 132.666,107.012 126.999,100.179 120.5,94C 121.337,92.9887 121.67,91.8221 121.5,90.5C 123.667,88.1698 125.334,85.5032 126.5,82.5C 127.151,81.9094 127.818,81.2427 128.5,80.5C 132.428,84.4689 136.761,87.9689 141.5,91C 141.167,91.3333 140.833,91.6667 140.5,92C 143.048,93.9219 145.048,96.2553 146.5,99C 147.9,100.438 149.567,101.271 151.5,101.5 Z"/></g>
<g><path style="opacity:1" fill="#2d64a2" d="M 121.5,90.5 C 121.67,91.8221 121.337,92.9887 120.5,94C 126.999,100.179 132.666,107.012 137.5,114.5C 131.012,118.58 124.012,121.247 116.5,122.5C 116.611,121.883 116.944,121.383 117.5,121C 116.025,118.691 114.358,116.524 112.5,114.5C 105.5,109.333 98.5,104.167 91.5,99C 97.0981,98.9327 102.431,98.0994 107.5,96.5C 112.656,95.5874 117.323,93.5874 121.5,90.5 Z"/></g>
<g><path style="opacity:0.996" fill="#2c619d" d="M 171.5,118.5 C 167.943,124.889 164.61,131.389 161.5,138C 162.806,143.753 164.806,149.253 167.5,154.5C 166.883,154.611 166.383,154.944 166,155.5C 165,153.833 164,152.167 163,150.5C 160.08,156.087 156.08,160.754 151,164.5C 150.667,165.5 150.333,166.5 150,167.5C 148.791,167.653 147.625,167.986 146.5,168.5C 141.167,162.833 135.833,157.167 130.5,151.5C 130.56,150.957 130.893,150.624 131.5,150.5C 132.62,151.833 133.953,152.333 135.5,152C 147.902,137.99 160.402,124.157 173,110.5C 172.27,113.021 171.77,115.687 171.5,118.5 Z"/></g>
<g><path style="opacity:1" fill="#54839b" d="M 140.5,165.5 C 139.883,165.611 139.383,165.944 139,166.5C 137.509,164.996 135.676,164.163 133.5,164C 113.436,161.293 93.4356,158.126 73.5,154.5C 72.3527,154.818 71.5194,155.484 71,156.5C 70.5065,154.866 70.3398,153.199 70.5,151.5C 71.2197,145.862 71.553,140.196 71.5,134.5C 82.8738,136.006 94.2072,137.839 105.5,140C 120.113,144.623 131.78,153.123 140.5,165.5 Z"/></g>
<g><path style="opacity:0.999" fill="#5b90ab" d="M 70.5,151.5 C 70.3398,153.199 70.5065,154.866 71,156.5C 71.5194,155.484 72.3527,154.818 73.5,154.5C 93.4356,158.126 113.436,161.293 133.5,164C 135.676,164.163 137.509,164.996 139,166.5C 139.383,165.944 139.883,165.611 140.5,165.5C 145.178,170.179 149.511,175.179 153.5,180.5C 152.376,181.809 150.876,182.475 149,182.5C 138.307,180.132 128.14,178.465 118.5,177.5C 117.378,176.37 116.044,175.703 114.5,175.5C 110.318,170.154 105.318,165.654 99.5,162C 95.0768,160.878 92.0768,162.378 90.5,166.5C 89.7784,166.082 89.2784,165.416 89,164.5C 88.044,165.894 86.7106,166.561 85,166.5C 80.2277,165.817 75.561,164.817 71,163.5C 70.6667,163.833 70.3333,164.167 70,164.5C 69.5065,162.866 69.3398,161.199 69.5,159.5C 69.1936,156.615 69.5269,153.948 70.5,151.5 Z"/></g>
<g><path style="opacity:0.999" fill="#2b5688" d="M 167.5,154.5 C 172.44,163.28 177.607,171.947 183,180.5C 196.411,199.064 209.578,217.731 222.5,236.5C 217.833,233.167 213.167,229.833 208.5,226.5C 196.398,216.909 184.398,207.076 172.5,197C 163.627,187.63 154.96,178.13 146.5,168.5C 147.625,167.986 148.791,167.653 150,167.5C 150.333,166.5 150.667,165.5 151,164.5C 156.08,160.754 160.08,156.087 163,150.5C 164,152.167 165,153.833 166,155.5C 166.383,154.944 166.883,154.611 167.5,154.5 Z"/></g>
<g><path style="opacity:0.944" fill="#629fbd" d="M 69.5,159.5 C 69.3398,161.199 69.5065,162.866 70,164.5C 70.3333,164.167 70.6667,163.833 71,163.5C 75.561,164.817 80.2277,165.817 85,166.5C 86.7106,166.561 88.044,165.894 89,164.5C 89.2784,165.416 89.7784,166.082 90.5,166.5C 89.5447,172.409 89.2114,178.409 89.5,184.5C 88.6981,183.048 88.1981,181.382 88,179.5C 87.1612,180.624 85.9945,181.291 84.5,181.5C 79.2412,180.763 74.0746,179.763 69,178.5C 68.6667,179.167 68.3333,179.833 68,180.5C 67.5017,177.183 67.335,173.85 67.5,170.5C 67.9309,166.663 68.5975,162.997 69.5,159.5 Z"/></g>
<g><path style="opacity:0.996" fill="#6eb7da" d="M 66.5,165.5 C 66.2155,167.415 66.5489,169.081 67.5,170.5C 67.335,173.85 67.5017,177.183 68,180.5C 68.3333,179.833 68.6667,179.167 69,178.5C 74.0746,179.763 79.2412,180.763 84.5,181.5C 85.9945,181.291 87.1612,180.624 88,179.5C 88.1981,181.382 88.6981,183.048 89.5,184.5C 89.5,200.5 89.5,216.5 89.5,232.5C 78.3697,235.433 67.3697,238.766 56.5,242.5C 56.6245,237.951 57.2911,233.618 58.5,229.5C 58.3379,231.527 58.5045,233.527 59,235.5C 61.6682,216.153 64.1682,196.82 66.5,177.5C 66.3333,176.167 66.1667,174.833 66,173.5C 65.8138,176.036 65.3138,178.369 64.5,180.5C 64.4443,175.269 65.111,170.269 66.5,165.5 Z"/></g>
<g><path style="opacity:1" fill="#68aacb" d="M 114.5,175.5 C 116.044,175.703 117.378,176.37 118.5,177.5C 128.14,178.465 138.307,180.132 149,182.5C 150.876,182.475 152.376,181.809 153.5,180.5C 161.5,188.167 169.5,195.833 177.5,203.5C 163.766,201.851 149.6,199.518 135,196.5C 133.05,196.707 131.884,197.707 131.5,199.5C 125.345,191.86 119.678,183.86 114.5,175.5 Z"/></g>
<g><path style="opacity:0.998" fill="#6fb7dc" d="M 177.5,203.5 C 187.791,211.286 197.958,219.286 208,227.5C 208.399,227.272 208.565,226.938 208.5,226.5C 213.167,229.833 217.833,233.167 222.5,236.5C 224.465,236.948 224.798,237.948 223.5,239.5C 215.593,239.095 207.593,239.095 199.5,239.5C 186,239.985 172.667,238.818 159.5,236C 149.333,224.511 139.999,212.345 131.5,199.5C 131.884,197.707 133.05,196.707 135,196.5C 149.6,199.518 163.766,201.851 177.5,203.5 Z"/></g>
<g><path style="opacity:1" fill="#80ceed" d="M 58.5,229.5 C 59.7828,213.044 61.7828,196.711 64.5,180.5C 65.3138,178.369 65.8138,176.036 66,173.5C 66.1667,174.833 66.3333,176.167 66.5,177.5C 64.1682,196.82 61.6682,216.153 59,235.5C 58.5045,233.527 58.3379,231.527 58.5,229.5 Z"/></g>
</svg>
