<?xml version="1.0" encoding="UTF-8"?>
<!DOCTYPE svg PUBLIC "-//W3C//DTD SVG 1.1//EN" "http://www.w3.org/Graphics/SVG/1.1/DTD/svg11.dtd">
<svg xmlns="http://www.w3.org/2000/svg" version="1.1" width="262px" height="221px" style="shape-rendering:geometricPrecision; text-rendering:geometricPrecision; image-rendering:optimizeQuality; fill-rule:evenodd; clip-rule:evenodd" xmlns:xlink="http://www.w3.org/1999/xlink">
<g><path style="opacity:1" fill="#283c7e" d="M -0.5,-0.5 C 86.8333,-0.5 174.167,-0.5 261.5,-0.5C 261.5,73.1667 261.5,146.833 261.5,220.5C 174.167,220.5 86.8333,220.5 -0.5,220.5C -0.5,146.833 -0.5,73.1667 -0.5,-0.5 Z"/></g>
<g><path style="opacity:1" fill="#fcfcfc" d="M 128.5,13.5 C 137.978,27.1003 147.478,40.767 157,54.5C 157.306,61.3345 156.306,68.0012 154,74.5C 149.554,75.7367 145.054,76.9034 140.5,78C 140.043,78.414 139.709,78.914 139.5,79.5C 153.65,94.8178 167.984,109.984 182.5,125C 179.333,129.5 176.167,134 173,138.5C 152.175,127.755 131.508,116.755 111,105.5C 109.417,107.911 108.417,110.578 108,113.5C 106.572,122.613 104.738,131.613 102.5,140.5C 95.0754,139.248 87.7421,137.581 80.5,135.5C 84.2832,101.747 88.7832,68.0807 94,34.5C 94.7845,32.714 95.9512,31.214 97.5,30C 108.212,24.9803 118.546,19.4803 128.5,13.5 Z"/></g>
<g><path style="opacity:1" fill="#f0f1f6" d="M 7.5,163.5 C 16.0159,162.885 24.3492,163.718 32.5,166C 41.5526,176.51 39.8859,185.01 27.5,191.5C 31.5,197.5 35.5,203.5 39.5,209.5C 37.1667,210.833 34.8333,210.833 32.5,209.5C 28.6235,203.58 24.6235,197.746 20.5,192C 18.1902,191.503 15.8568,191.337 13.5,191.5C 13.5,197.833 13.5,204.167 13.5,210.5C 11.5,210.5 9.5,210.5 7.5,210.5C 7.5,194.833 7.5,179.167 7.5,163.5 Z"/></g>
<g><path style="opacity:1" fill="#f3f4f8" d="M 114.5,163.5 C 120.158,162.679 121.825,164.846 119.5,170C 113.244,170.934 111.577,168.767 114.5,163.5 Z"/></g>
<g><path style="opacity:1" fill="#f4f5f8" d="M 179.5,163.5 C 181.857,163.337 184.19,163.503 186.5,164C 192.777,179.222 198.777,194.555 204.5,210C 202.19,210.497 199.857,210.663 197.5,210.5C 197.054,205.998 195.721,201.831 193.5,198C 186.508,197.5 179.508,197.334 172.5,197.5C 171.777,201.737 170.443,205.737 168.5,209.5C 166.5,210.833 164.5,210.833 162.5,209.5C 168.571,194.285 174.237,178.952 179.5,163.5 Z"/></g>
<g><path style="opacity:1" fill="#eef0f5" d="M 209.5,163.5 C 218.016,162.885 226.349,163.718 234.5,166C 242.5,173.667 242.5,181.333 234.5,189C 228.364,191.178 222.031,192.012 215.5,191.5C 215.5,197.833 215.5,204.167 215.5,210.5C 213.5,210.5 211.5,210.5 209.5,210.5C 209.5,194.833 209.5,179.167 209.5,163.5 Z"/></g>
<g><path style="opacity:1" fill="#eeeff5" d="M 247.5,163.5 C 249.5,163.5 251.5,163.5 253.5,163.5C 253.5,179.167 253.5,194.833 253.5,210.5C 251.5,210.5 249.5,210.5 247.5,210.5C 247.5,194.833 247.5,179.167 247.5,163.5 Z"/></g>
<g><path style="opacity:1" fill="#6977a5" d="M 131.5,167.5 C 131.5,170.833 131.5,174.167 131.5,177.5C 129.5,177.5 127.5,177.5 125.5,177.5C 125.5,179.167 125.5,180.833 125.5,182.5C 124.539,180.735 124.205,178.735 124.5,176.5C 126.5,176.5 128.5,176.5 130.5,176.5C 130.19,173.287 130.523,170.287 131.5,167.5 Z"/></g>
<g><path style="opacity:1" fill="#fafafc" d="M 131.5,167.5 C 133.167,167.5 134.833,167.5 136.5,167.5C 136.5,170.833 136.5,174.167 136.5,177.5C 139.167,177.5 141.833,177.5 144.5,177.5C 144.5,179.167 144.5,180.833 144.5,182.5C 141.833,182.5 139.167,182.5 136.5,182.5C 136.334,189.508 136.5,196.508 137,203.5C 139.135,205.278 141.635,205.945 144.5,205.5C 144.5,207.167 144.5,208.833 144.5,210.5C 139.465,211.498 135.298,210.165 132,206.5C 131.5,198.507 131.334,190.507 131.5,182.5C 129.5,182.5 127.5,182.5 125.5,182.5C 125.5,180.833 125.5,179.167 125.5,177.5C 127.5,177.5 129.5,177.5 131.5,177.5C 131.5,174.167 131.5,170.833 131.5,167.5 Z"/></g>
<g><path style="opacity:1" fill="#2d3f80" d="M 13.5,169.5 C 18.1785,169.334 22.8452,169.501 27.5,170C 32.5681,172.983 33.7348,177.149 31,182.5C 29.5905,183.787 28.0905,184.954 26.5,186C 22.1794,186.499 17.8461,186.666 13.5,186.5C 13.5,180.833 13.5,175.167 13.5,169.5 Z"/></g>
<g><path style="opacity:1" fill="#293d7f" d="M 215.5,169.5 C 220.179,169.334 224.845,169.501 229.5,170C 234.568,172.983 235.735,177.149 233,182.5C 232.097,183.701 230.931,184.535 229.5,185C 224.845,185.499 220.179,185.666 215.5,185.5C 215.5,180.167 215.5,174.833 215.5,169.5 Z"/></g>
<g><path style="opacity:1" fill="#304282" d="M 190.5,190.5 C 188.359,191.163 186.025,191.497 183.5,191.5C 180.731,191.471 178.397,190.805 176.5,189.5C 178.177,183.3 180.344,177.3 183,171.5C 186.373,177.445 188.873,183.778 190.5,190.5 Z"/></g>
<g><path style="opacity:1" fill="#f4f5f8" d="M 51.5,176.5 C 65.6681,174.345 73.3348,180.345 74.5,194.5C 65.5,194.5 56.5,194.5 47.5,194.5C 48.3204,203.823 53.3204,207.656 62.5,206C 64.96,204.542 67.1266,202.709 69,200.5C 73.2965,202.511 73.4631,205.011 69.5,208C 56.7722,214.98 47.6056,211.813 42,198.5C 40.5446,189.085 43.7112,181.752 51.5,176.5 Z"/></g>
<g><path style="opacity:1" fill="#7c88b0" d="M 82.5,177.5 C 80.2646,177.205 78.2646,177.539 76.5,178.5C 75.9569,178.44 75.6236,178.107 75.5,177.5C 77.9732,176.203 80.3066,176.203 82.5,177.5 Z"/></g>
<g><path style="opacity:1" fill="#7683ac" d="M 136.5,167.5 C 137.477,170.287 137.81,173.287 137.5,176.5C 140.167,176.5 142.833,176.5 145.5,176.5C 145.795,178.735 145.461,180.735 144.5,182.5C 144.5,180.833 144.5,179.167 144.5,177.5C 141.833,177.5 139.167,177.5 136.5,177.5C 136.5,174.167 136.5,170.833 136.5,167.5 Z"/></g>
<g><path style="opacity:1" fill="#f2f3f7" d="M 76.5,178.5 C 78.2646,177.539 80.2646,177.205 82.5,177.5C 85.5617,185.849 88.7283,194.182 92,202.5C 96.034,194.427 99.534,186.094 102.5,177.5C 104.5,176.167 106.5,176.167 108.5,177.5C 104.236,187.793 100.069,198.127 96,208.5C 94.1644,210.604 91.9977,210.938 89.5,209.5C 84.9643,199.219 80.6309,188.886 76.5,178.5 Z"/></g>
<g><path style="opacity:1" fill="#6170a0" d="M 119.5,210.5 C 119.5,199.5 119.5,188.5 119.5,177.5C 117.833,177.5 116.167,177.5 114.5,177.5C 114.5,188.5 114.5,199.5 114.5,210.5C 113.505,199.346 113.172,188.012 113.5,176.5C 115.833,176.5 118.167,176.5 120.5,176.5C 120.828,188.012 120.495,199.346 119.5,210.5 Z"/></g>
<g><path style="opacity:1" fill="#fefffe" d="M 119.5,210.5 C 117.833,210.5 116.167,210.5 114.5,210.5C 114.5,199.5 114.5,188.5 114.5,177.5C 116.167,177.5 117.833,177.5 119.5,177.5C 119.5,188.5 119.5,199.5 119.5,210.5 Z"/></g>
<g><path style="opacity:1" fill="#2c3f80" d="M 67.5,188.5 C 61.1667,189.833 54.8333,189.833 48.5,188.5C 51.7714,181.415 57.1047,179.581 64.5,183C 66.16,184.488 67.16,186.321 67.5,188.5 Z"/></g>
<g><path style="opacity:1" fill="#6977a5" d="M 48.5,188.5 C 54.8333,189.833 61.1667,189.833 67.5,188.5C 68.0431,188.56 68.3764,188.893 68.5,189.5C 61.5,190.833 54.5,190.833 47.5,189.5C 47.6236,188.893 47.9569,188.56 48.5,188.5 Z"/></g>
<g><path style="opacity:1" fill="#6372a1" d="M 176.5,189.5 C 178.397,190.805 180.731,191.471 183.5,191.5C 186.025,191.497 188.359,191.163 190.5,190.5C 191.043,190.56 191.376,190.893 191.5,191.5C 186.208,192.495 180.875,192.828 175.5,192.5C 175.263,191.209 175.596,190.209 176.5,189.5 Z"/></g>
</svg>
