<?xml version="1.0" encoding="UTF-8"?>
<!DOCTYPE svg PUBLIC "-//W3C//DTD SVG 1.1//EN" "http://www.w3.org/Graphics/SVG/1.1/DTD/svg11.dtd">
<svg xmlns="http://www.w3.org/2000/svg" version="1.1" width="250px" height="250px" style="shape-rendering:geometricPrecision; text-rendering:geometricPrecision; image-rendering:optimizeQuality; fill-rule:evenodd; clip-rule:evenodd" xmlns:xlink="http://www.w3.org/1999/xlink">
<g><path style="opacity:1" fill="#4891a1" d="M 118.5,9.5 C 120.833,9.5 123.167,9.5 125.5,9.5C 125.5,16.5 125.5,23.5 125.5,30.5C 131.833,30.5 138.167,30.5 144.5,30.5C 144.5,32.8333 144.5,35.1667 144.5,37.5C 138.167,37.5 131.833,37.5 125.5,37.5C 125.5,44.5 125.5,51.5 125.5,58.5C 123.167,58.5 120.833,58.5 118.5,58.5C 118.5,51.5 118.5,44.5 118.5,37.5C 112.167,37.5 105.833,37.5 99.5,37.5C 99.5,35.1667 99.5,32.8333 99.5,30.5C 105.833,30.5 112.167,30.5 118.5,30.5C 118.5,23.5 118.5,16.5 118.5,9.5 Z"/></g>
<g><path style="opacity:1" fill="#fe9218" d="M 56.5,31.5 C 60.1667,31.5 63.8333,31.5 67.5,31.5C 67.5,41.5 67.5,51.5 67.5,61.5C 77.1667,61.5 86.8333,61.5 96.5,61.5C 96.5,64.8333 96.5,68.1667 96.5,71.5C 86.8333,71.5 77.1667,71.5 67.5,71.5C 67.5,81.8333 67.5,92.1667 67.5,102.5C 63.8333,102.5 60.1667,102.5 56.5,102.5C 56.5,92.1667 56.5,81.8333 56.5,71.5C 47.1667,71.5 37.8333,71.5 28.5,71.5C 28.5,68.1667 28.5,64.8333 28.5,61.5C 37.8333,61.5 47.1667,61.5 56.5,61.5C 56.5,51.5 56.5,41.5 56.5,31.5 Z"/></g>
<g><path style="opacity:1" fill="#43899f" d="M 186.5,46.5 C 185.624,46.3691 184.957,46.7025 184.5,47.5C 184.97,48.463 185.637,48.463 186.5,47.5C 186.5,52.1667 186.5,56.8333 186.5,61.5C 196.167,61.5 205.833,61.5 215.5,61.5C 215.5,64.8333 215.5,68.1667 215.5,71.5C 205.833,71.5 196.167,71.5 186.5,71.5C 186.5,81.8333 186.5,92.1667 186.5,102.5C 183.167,102.5 179.833,102.5 176.5,102.5C 176.5,92.1667 176.5,81.8333 176.5,71.5C 166.833,71.5 157.167,71.5 147.5,71.5C 147.5,68.1667 147.5,64.8333 147.5,61.5C 157.167,61.5 166.833,61.5 176.5,61.5C 176.5,51.5 176.5,41.5 176.5,31.5C 179.833,31.5 183.167,31.5 186.5,31.5C 186.5,36.5 186.5,41.5 186.5,46.5 Z"/></g>
<g><path style="opacity:1" fill="#004181" d="M 179.5,45.5 C 180.601,44.4017 181.934,44.235 183.5,45C 182.167,45.6667 182.167,46.3333 183.5,47C 181.829,48.8436 179.829,49.5103 177.5,49C 179.291,48.5848 180.624,47.5848 181.5,46C 180.906,45.5357 180.239,45.369 179.5,45.5 Z"/></g>
<g><path style="opacity:1" fill="#004181" d="M 186.5,46.5 C 186.5,46.8333 186.5,47.1667 186.5,47.5C 185.637,48.463 184.97,48.463 184.5,47.5C 184.957,46.7025 185.624,46.3691 186.5,46.5 Z"/></g>
<g><path style="opacity:1" fill="#004181" d="M 183.5,51.5 C 185.337,51.6395 185.67,52.3061 184.5,53.5C 183.702,53.0431 183.369,52.3764 183.5,51.5 Z"/></g>
<g><path style="opacity:1" fill="#004181" d="M 177.5,55.5 C 178.289,55.7828 178.956,56.2828 179.5,57C 178.184,57.5281 177.517,57.0281 177.5,55.5 Z"/></g>
<g><path style="opacity:1" fill="#004181" d="M 153.5,62.5 C 154.773,63.0768 154.773,63.7435 153.5,64.5C 152.537,64.0302 152.537,63.3635 153.5,62.5 Z"/></g>
<g><path style="opacity:1" fill="#004181" d="M 158.5,62.5 C 159.773,63.0768 159.773,63.7435 158.5,64.5C 157.537,64.0302 157.537,63.3635 158.5,62.5 Z"/></g>
<g><path style="opacity:1" fill="#004181" d="M 163.5,62.5 C 164.289,62.7828 164.956,63.2828 165.5,64C 164.184,64.5281 163.517,64.0281 163.5,62.5 Z"/></g>
<g><path style="opacity:1" fill="#004181" d="M 168.5,62.5 C 169.289,62.7828 169.956,63.2828 170.5,64C 169.184,64.5281 168.517,64.0281 168.5,62.5 Z"/></g>
<g><path style="opacity:1" fill="#004181" d="M 189.5,62.5 C 190.773,63.0768 190.773,63.7435 189.5,64.5C 188.537,64.0302 188.537,63.3635 189.5,62.5 Z"/></g>
<g><path style="opacity:1" fill="#004181" d="M 194.5,62.5 C 195.289,62.7828 195.956,63.2828 196.5,64C 195.184,64.5281 194.517,64.0281 194.5,62.5 Z"/></g>
<g><path style="opacity:1" fill="#004181" d="M 199.5,62.5 C 200.289,62.7828 200.956,63.2828 201.5,64C 200.184,64.5281 199.517,64.0281 199.5,62.5 Z"/></g>
<g><path style="opacity:1" fill="#004181" d="M 211.5,62.5 C 212.773,63.0768 212.773,63.7435 211.5,64.5C 210.537,64.0302 210.537,63.3635 211.5,62.5 Z"/></g>
<g><path style="opacity:1" fill="#004181" d="M 180.5,65.5 C 181.573,66.2506 181.74,67.2506 181,68.5C 179.272,67.6477 179.105,66.6477 180.5,65.5 Z"/></g>
<g><path style="opacity:1" fill="#004181" d="M 206.5,68.5 C 207.077,67.2267 207.743,67.2267 208.5,68.5C 208.03,69.463 207.363,69.463 206.5,68.5 Z"/></g>
<g><path style="opacity:1" fill="#004181" d="M 181.5,77.5 C 182.606,78.1494 183.606,78.4827 184.5,78.5C 182.948,79.7979 181.948,79.4646 181.5,77.5 Z"/></g>
<g><path style="opacity:1" fill="#ff771e" d="M 115.5,81.5 C 119.833,81.5 124.167,81.5 128.5,81.5C 128.5,92.8333 128.5,104.167 128.5,115.5C 138.833,115.5 149.167,115.5 159.5,115.5C 159.5,119.833 159.5,124.167 159.5,128.5C 149.167,128.5 138.833,128.5 128.5,128.5C 128.5,139.833 128.5,151.167 128.5,162.5C 124.167,162.5 119.833,162.5 115.5,162.5C 115.5,151.167 115.5,139.833 115.5,128.5C 104.833,128.5 94.1667,128.5 83.5,128.5C 83.5,124.167 83.5,119.833 83.5,115.5C 94.1667,115.5 104.833,115.5 115.5,115.5C 115.5,104.167 115.5,92.8333 115.5,81.5 Z"/></g>
<g><path style="opacity:1" fill="#556594" d="M 208.5,96.5 C 211.833,96.5 215.167,96.5 218.5,96.5C 218.5,103.5 218.5,110.5 218.5,117.5C 224.833,117.5 231.167,117.5 237.5,117.5C 237.5,120.5 237.5,123.5 237.5,126.5C 231.167,126.5 224.833,126.5 218.5,126.5C 218.5,133.5 218.5,140.5 218.5,147.5C 215.167,147.5 211.833,147.5 208.5,147.5C 208.5,140.5 208.5,133.5 208.5,126.5C 202.167,126.5 195.833,126.5 189.5,126.5C 189.5,123.5 189.5,120.5 189.5,117.5C 195.833,117.5 202.167,117.5 208.5,117.5C 208.5,110.5 208.5,103.5 208.5,96.5 Z"/></g>
<g><path style="opacity:1" fill="#4890a1" d="M 25.5,97.5 C 27.8333,97.5 30.1667,97.5 32.5,97.5C 32.5,104.5 32.5,111.5 32.5,118.5C 38.8333,118.5 45.1667,118.5 51.5,118.5C 51.5,120.833 51.5,123.167 51.5,125.5C 45.1667,125.5 38.8333,125.5 32.5,125.5C 32.5,132.5 32.5,139.5 32.5,146.5C 30.1667,146.5 27.8333,146.5 25.5,146.5C 25.5,139.5 25.5,132.5 25.5,125.5C 19.1667,125.5 12.8333,125.5 6.5,125.5C 6.5,123.167 6.5,120.833 6.5,118.5C 12.8333,118.5 19.1667,118.5 25.5,118.5C 25.5,111.5 25.5,104.5 25.5,97.5 Z"/></g>
<g><path style="opacity:1" fill="#e81c31" d="M 56.5,141.5 C 60.1667,141.5 63.8333,141.5 67.5,141.5C 67.5,151.5 67.5,161.5 67.5,171.5C 77.1667,171.5 86.8333,171.5 96.5,171.5C 96.5,174.833 96.5,178.167 96.5,181.5C 86.8333,181.5 77.1667,181.5 67.5,181.5C 67.5,191.833 67.5,202.167 67.5,212.5C 63.8333,212.5 60.1667,212.5 56.5,212.5C 56.5,202.167 56.5,191.833 56.5,181.5C 47.1667,181.5 37.8333,181.5 28.5,181.5C 28.5,178.167 28.5,174.833 28.5,171.5C 37.8333,171.5 47.1667,171.5 56.5,171.5C 56.5,161.5 56.5,151.5 56.5,141.5 Z"/></g>
<g><path style="opacity:1" fill="#004181" d="M 176.5,141.5 C 179.833,141.5 183.167,141.5 186.5,141.5C 186.5,151.5 186.5,161.5 186.5,171.5C 196.167,171.5 205.833,171.5 215.5,171.5C 215.5,174.833 215.5,178.167 215.5,181.5C 205.833,181.5 196.167,181.5 186.5,181.5C 186.5,191.833 186.5,202.167 186.5,212.5C 183.167,212.5 179.833,212.5 176.5,212.5C 176.5,202.167 176.5,191.833 176.5,181.5C 166.833,181.5 157.167,181.5 147.5,181.5C 147.5,178.167 147.5,174.833 147.5,171.5C 157.167,171.5 166.833,171.5 176.5,171.5C 176.5,161.5 176.5,151.5 176.5,141.5 Z"/></g>
<g><path style="opacity:1" fill="#566594" d="M 117.5,184.5 C 120.833,184.5 124.167,184.5 127.5,184.5C 127.5,191.5 127.5,198.5 127.5,205.5C 133.833,205.5 140.167,205.5 146.5,205.5C 146.5,208.5 146.5,211.5 146.5,214.5C 140.167,214.5 133.833,214.5 127.5,214.5C 127.5,221.5 127.5,228.5 127.5,235.5C 124.167,235.5 120.833,235.5 117.5,235.5C 117.5,228.5 117.5,221.5 117.5,214.5C 111.167,214.5 104.833,214.5 98.5,214.5C 98.5,211.5 98.5,208.5 98.5,205.5C 104.833,205.5 111.167,205.5 117.5,205.5C 117.5,198.5 117.5,191.5 117.5,184.5 Z"/></g>
</svg>
