<?xml version="1.0" encoding="UTF-8"?>
<!DOCTYPE svg PUBLIC "-//W3C//DTD SVG 1.1//EN" "http://www.w3.org/Graphics/SVG/1.1/DTD/svg11.dtd">
<svg xmlns="http://www.w3.org/2000/svg" version="1.1" width="1079px" height="1079px" style="shape-rendering:geometricPrecision; text-rendering:geometricPrecision; image-rendering:optimizeQuality; fill-rule:evenodd; clip-rule:evenodd" xmlns:xlink="http://www.w3.org/1999/xlink">
<g><path style="opacity:1" fill="#e02957" d="M -0.5,-0.5 C 359.167,-0.5 718.833,-0.5 1078.5,-0.5C 1078.5,359.167 1078.5,718.833 1078.5,1078.5C 718.833,1078.5 359.167,1078.5 -0.5,1078.5C -0.5,718.833 -0.5,359.167 -0.5,-0.5 Z"/></g>
<g><path style="opacity:1" fill="#fefefe" d="M 569.5,362.5 C 632.513,360.356 685.179,382.356 727.5,428.5C 713.978,442.174 700.144,455.507 686,468.5C 668.852,451.363 649.018,438.196 626.5,429C 595.697,418.72 565.03,419.053 534.5,430C 484.337,454.805 460.837,495.305 464,551.5C 471.539,609.707 504.039,644.874 561.5,657C 601.349,662.377 636.682,652.377 667.5,627C 673.65,621.684 679.65,616.184 685.5,610.5C 699.321,624.488 712.988,638.655 726.5,653C 669.152,711.092 600.818,729.425 521.5,708C 451.082,682.37 411.915,632.204 404,557.5C 397.878,474.876 431.712,415.376 505.5,379C 526.116,370.25 547.449,364.75 569.5,362.5 Z"/></g>
<g><path style="opacity:1" fill="#fefefe" d="M 225.5,369.5 C 229.892,376.608 234.059,383.942 238,391.5C 291.69,497.047 345.524,602.547 399.5,708C 376.493,708.833 353.493,708.666 330.5,707.5C 295.922,639.344 261.089,571.344 226,503.5C 190.911,571.344 156.078,639.344 121.5,707.5C 98.8431,708.5 76.1765,708.833 53.5,708.5C 110.544,595.413 167.877,482.413 225.5,369.5 Z"/></g>
<g><path style="opacity:1" fill="#fefdfe" d="M 787.5,371.5 C 807.833,371.5 828.167,371.5 848.5,371.5C 848.5,464.5 848.5,557.5 848.5,650.5C 907.5,650.5 966.5,650.5 1025.5,650.5C 1025.5,669.5 1025.5,688.5 1025.5,707.5C 946.167,707.5 866.833,707.5 787.5,707.5C 787.5,595.5 787.5,483.5 787.5,371.5 Z"/></g>
</svg>
