<?xml version="1.0" encoding="UTF-8"?>
<!DOCTYPE svg PUBLIC "-//W3C//DTD SVG 1.1//EN" "http://www.w3.org/Graphics/SVG/1.1/DTD/svg11.dtd">
<svg xmlns="http://www.w3.org/2000/svg" version="1.1" width="250px" height="250px" style="shape-rendering:geometricPrecision; text-rendering:geometricPrecision; image-rendering:optimizeQuality; fill-rule:evenodd; clip-rule:evenodd" xmlns:xlink="http://www.w3.org/1999/xlink">
<g><path style="opacity:0.846" fill="#919396" d="M 114.5,128.5 C 110.902,126.908 107.569,127.242 104.5,129.5C 99.067,98.5003 93.567,67.5003 88,36.5C 58.7256,94.0511 29.2256,151.384 -0.5,208.5C -0.5,202.167 -0.5,195.833 -0.5,189.5C 28.3923,134.051 57.059,78.3845 85.5,22.5C 88.7683,21.513 92.1016,21.1796 95.5,21.5C 101.448,57.2401 107.781,92.9068 114.5,128.5 Z"/></g>
<g><path style="opacity:0.848" fill="#8f9194" d="M 114.5,128.5 C 114.674,130.861 115.007,133.194 115.5,135.5C 156.835,135.333 198.168,135.5 239.5,136C 241.146,138.449 242.313,140.949 243,143.5C 233.833,156.5 224.667,169.5 215.5,182.5C 224.81,183.498 234.143,183.832 243.5,183.5C 243.5,186.5 243.5,189.5 243.5,192.5C 231.495,192.667 219.495,192.5 207.5,192C 205.206,189.112 204.039,185.945 204,182.5C 213.36,169.973 222.527,157.306 231.5,144.5C 193.506,143.5 155.506,143.167 117.5,143.5C 119.444,157.22 121.777,170.887 124.5,184.5C 124.333,185.167 124.167,185.833 124,186.5C 121.356,188.31 118.856,190.31 116.5,192.5C 104.113,176.112 92.1125,159.446 80.5,142.5C 81.6351,140.201 82.9684,138.034 84.5,136C 91.4921,135.5 98.4921,135.334 105.5,135.5C 105.483,133.435 105.15,131.435 104.5,129.5C 107.569,127.242 110.902,126.908 114.5,128.5 Z M 111.5,169.5 C 104.944,161.415 98.611,153.081 92.5,144.5C 97.456,143.506 102.456,143.173 107.5,143.5C 108.963,152.146 110.296,160.813 111.5,169.5 Z M 190.5,149.5 C 193.626,162.407 191.459,174.407 184,185.5C 182.729,186.883 181.229,187.883 179.5,188.5C 176.467,176.15 178.3,164.483 185,153.5C 186.451,151.536 188.284,150.203 190.5,149.5 Z M 151.5,149.5 C 153.411,149.574 154.578,150.574 155,152.5C 155.667,155.167 155.667,157.833 155,160.5C 151.86,164.061 148.527,167.395 145,170.5C 145.6,165.164 146.6,159.831 148,154.5C 148.997,152.677 150.164,151.01 151.5,149.5 Z"/></g>
<g><path style="opacity:0.829" fill="#919396" d="M 196.5,147.5 C 193.918,147.025 191.918,147.692 190.5,149.5C 188.284,150.203 186.451,151.536 185,153.5C 178.3,164.483 176.467,176.15 179.5,188.5C 180.672,190.539 182.338,191.872 184.5,192.5C 177.364,194.511 172.197,192.177 169,185.5C 167.144,171.416 170.644,158.916 179.5,148C 182.592,146.136 185.926,144.969 189.5,144.5C 192.36,144.555 194.693,145.555 196.5,147.5 Z"/></g>
<g><path style="opacity:0.835" fill="#8a8b8e" d="M 196.5,147.5 C 198.888,148.219 200.388,149.885 201,152.5C 202.394,165.03 199.894,176.696 193.5,187.5C 194.798,190.422 195.798,193.422 196.5,196.5C 193.482,196.665 190.482,196.498 187.5,196C 186.364,194.855 185.364,193.688 184.5,192.5C 182.338,191.872 180.672,190.539 179.5,188.5C 181.229,187.883 182.729,186.883 184,185.5C 191.459,174.407 193.626,162.407 190.5,149.5C 191.918,147.692 193.918,147.025 196.5,147.5 Z"/></g>
<g><path style="opacity:0.966" fill="#8c8e91" d="M 150.5,144.5 C 164.928,146.154 168.762,153.488 162,166.5C 159.386,170.301 155.886,172.634 151.5,173.5C 153.209,179.92 155.209,186.253 157.5,192.5C 154.5,192.5 151.5,192.5 148.5,192.5C 147.369,186.94 145.536,181.607 143,176.5C 142,181.5 141,186.5 140,191.5C 137.281,192.444 134.448,192.777 131.5,192.5C 133.629,179.023 136.462,165.69 140,152.5C 142.539,148.49 146.039,145.824 150.5,144.5 Z M 151.5,149.5 C 150.164,151.01 148.997,152.677 148,154.5C 146.6,159.831 145.6,165.164 145,170.5C 148.527,167.395 151.86,164.061 155,160.5C 155.667,157.833 155.667,155.167 155,152.5C 154.578,150.574 153.411,149.574 151.5,149.5 Z"/></g>
<g><path style="opacity:0.881" fill="#cadb33" d="M 126.5,204.5 C 151.167,204.5 175.833,204.5 200.5,204.5C 200.5,212.167 200.5,219.833 200.5,227.5C 172.5,227.5 144.5,227.5 116.5,227.5C 119.552,219.727 122.885,212.061 126.5,204.5 Z"/></g>
<g><path style="opacity:0.852" fill="#cada32" d="M 201.5,204.5 C 215.5,204.5 229.5,204.5 243.5,204.5C 243.5,212.167 243.5,219.833 243.5,227.5C 229.5,227.5 215.5,227.5 201.5,227.5C 201.5,219.833 201.5,212.167 201.5,204.5 Z"/></g>
<g><path style="opacity:1" fill="#f2f6cd" d="M 175.5,206.5 C 177.199,206.34 178.866,206.506 180.5,207C 178.415,209.139 176.749,208.972 175.5,206.5 Z"/></g>
<g><path style="opacity:1" fill="#fafbec" d="M 132.5,209.5 C 137.745,208.579 139.745,210.746 138.5,216C 139.745,221.254 137.745,223.421 132.5,222.5C 132.5,218.167 132.5,213.833 132.5,209.5 Z"/></g>
<g><path style="opacity:1" fill="#fcfcf2" d="M 163.5,209.5 C 165.199,209.34 166.866,209.506 168.5,210C 167.552,210.483 166.552,210.649 165.5,210.5C 165.5,212.167 165.5,213.833 165.5,215.5C 169.5,215.833 169.5,216.167 165.5,216.5C 165.5,218.167 165.5,219.833 165.5,221.5C 166.552,221.351 167.552,221.517 168.5,222C 166.866,222.494 165.199,222.66 163.5,222.5C 163.5,218.167 163.5,213.833 163.5,209.5 Z"/></g>
<g><path style="opacity:1" fill="#fafbec" d="M 174.5,209.5 C 175.5,209.5 176.5,209.5 177.5,209.5C 178.492,217.475 179.492,217.475 180.5,209.5C 181.492,213.783 181.826,218.116 181.5,222.5C 180.5,222.5 179.5,222.5 178.5,222.5C 177.51,213.197 176.51,213.197 175.5,222.5C 174.508,218.217 174.174,213.884 174.5,209.5 Z"/></g>
<g><path style="opacity:1" fill="#f8fae6" d="M 144.5,209.5 C 145.8,211.223 146.467,213.39 146.5,216C 146.167,218.167 145.833,220.333 145.5,222.5C 144.508,218.217 144.174,213.884 144.5,209.5 Z"/></g>
<g><path style="opacity:1" fill="#f9fae5" d="M 187.5,209.5 C 189.467,209.261 191.301,209.594 193,210.5C 193.667,214.167 193.667,217.833 193,221.5C 191,224.167 189,224.167 187,221.5C 186.238,217.413 186.404,213.413 187.5,209.5 Z"/></g>
<g><path style="opacity:1" fill="#eaf0aa" d="M 214.5,221.5 C 213.365,223.213 211.698,223.88 209.5,223.5C 209.5,218.5 209.5,213.5 209.5,208.5C 211.722,208.178 213.556,208.845 215,210.5C 214.945,214.276 214.778,217.943 214.5,221.5 Z"/></g>
<g><path style="opacity:1" fill="#c6d820" d="M 210.5,210.5 C 211.5,210.5 212.5,210.5 213.5,210.5C 213.5,211.833 213.5,213.167 213.5,214.5C 212.5,214.5 211.5,214.5 210.5,214.5C 210.5,213.167 210.5,211.833 210.5,210.5 Z"/></g>
<g><path style="opacity:1" fill="#c8d927" d="M 134.5,211.5 C 135.765,212.514 136.431,214.014 136.5,216C 136.167,217.5 135.833,219 135.5,220.5C 134.516,217.572 134.183,214.572 134.5,211.5 Z"/></g>
<g><path style="opacity:1" fill="#d2df56" d="M 188.5,211.5 C 189.5,211.5 190.5,211.5 191.5,211.5C 191.905,215.048 191.405,218.381 190,221.5C 188.595,218.381 188.095,215.048 188.5,211.5 Z"/></g>
<g><path style="opacity:1" fill="#f9fae7" d="M 152.5,209.5 C 154.167,209.5 155.833,209.5 157.5,209.5C 157.719,210.675 157.386,211.675 156.5,212.5C 155.391,211.41 154.391,211.41 153.5,212.5C 154.48,213.981 155.647,215.315 157,216.5C 157.495,218.473 157.662,220.473 157.5,222.5C 155.533,222.739 153.699,222.406 152,221.5C 151.627,218.142 152.461,217.808 154.5,220.5C 155.539,217.953 154.705,215.953 152,214.5C 151.36,212.735 151.527,211.068 152.5,209.5 Z"/></g>
<g><path style="opacity:1" fill="#c9da2d" d="M 214.5,221.5 C 213.167,221.5 211.833,221.5 210.5,221.5C 210.5,219.833 210.5,218.167 210.5,216.5C 213.91,216.384 215.244,218.05 214.5,221.5 Z"/></g>
<g><path style="opacity:1" fill="#ebf1af" d="M 227.5,209.5 C 229.384,211.769 230.717,214.436 231.5,217.5C 232.5,214.833 233.5,212.167 234.5,209.5C 235.661,213.795 235.828,218.129 235,222.5C 234.667,219.833 234.333,217.167 234,214.5C 232.779,224.281 231.112,224.615 229,215.5C 228.667,217.833 228.333,220.167 228,222.5C 227.501,218.179 227.334,213.846 227.5,209.5 Z"/></g>
</svg>
