<?xml version="1.0" encoding="UTF-8"?>
<!DOCTYPE svg PUBLIC "-//W3C//DTD SVG 1.1//EN" "http://www.w3.org/Graphics/SVG/1.1/DTD/svg11.dtd">
<svg xmlns="http://www.w3.org/2000/svg" version="1.1" width="200px" height="200px" style="shape-rendering:geometricPrecision; text-rendering:geometricPrecision; image-rendering:optimizeQuality; fill-rule:evenodd; clip-rule:evenodd" xmlns:xlink="http://www.w3.org/1999/xlink">
<g><path style="opacity:1" fill="#fefefe" d="M -0.5,-0.5 C 66.1667,-0.5 132.833,-0.5 199.5,-0.5C 199.5,66.1667 199.5,132.833 199.5,199.5C 132.833,199.5 66.1667,199.5 -0.5,199.5C -0.5,132.833 -0.5,66.1667 -0.5,-0.5 Z"/></g>
<g><path style="opacity:1" fill="#49b9e0" d="M 135.5,81.5 C 127.082,81.1981 118.748,81.5314 110.5,82.5C 114.276,81.1752 118.443,80.5085 123,80.5C 127.347,80.501 131.514,80.8343 135.5,81.5 Z"/></g>
<g><path style="opacity:1" fill="#20a7da" d="M 155.5,80.5 C 159.833,80.5 164.167,80.5 168.5,80.5C 170.727,89.7994 172.894,99.1328 175,108.5C 178.119,99.3595 180.619,90.0262 182.5,80.5C 186.833,80.5 191.167,80.5 195.5,80.5C 195.5,94.1667 195.5,107.833 195.5,121.5C 192.833,121.5 190.167,121.5 187.5,121.5C 187.832,111.145 187.499,100.812 186.5,90.5C 185.571,91.6888 185.238,93.0222 185.5,94.5C 183.883,103.25 181.883,111.917 179.5,120.5C 176.572,121.484 173.572,121.817 170.5,121.5C 169.346,112.732 167.68,104.066 165.5,95.5C 165.108,93.8211 164.608,92.1545 164,90.5C 163.5,100.828 163.334,111.161 163.5,121.5C 160.833,121.5 158.167,121.5 155.5,121.5C 155.5,107.833 155.5,94.1667 155.5,80.5 Z"/></g>
<g><path style="opacity:1" fill="#15a6da" d="M 61.5,80.5 C 64.1667,80.5 66.8333,80.5 69.5,80.5C 69.5,82.8333 69.5,85.1667 69.5,87.5C 66.8333,87.5 64.1667,87.5 61.5,87.5C 61.5,85.1667 61.5,82.8333 61.5,80.5 Z"/></g>
<g><path style="opacity:1" fill="#18a6d9" d="M 71.5,80.5 C 74.1667,80.5 76.8333,80.5 79.5,80.5C 79.3337,87.175 79.5004,93.8417 80,100.5C 80.4101,99.0993 80.9101,97.766 81.5,96.5C 85.0155,90.9229 90.0155,89.0896 96.5,91C 97.9308,91.4652 99.0975,92.2986 100,93.5C 100.499,89.1794 100.666,84.8461 100.5,80.5C 103.167,80.5 105.833,80.5 108.5,80.5C 108.5,94.1667 108.5,107.833 108.5,121.5C 105.289,121.988 102.456,121.321 100,119.5C 90.4607,125.23 83.7941,122.897 80,112.5C 79.502,115.482 79.3354,118.482 79.5,121.5C 76.8333,121.5 74.1667,121.5 71.5,121.5C 71.5,107.833 71.5,94.1667 71.5,80.5 Z"/></g>
<g><path style="opacity:1" fill="#bbeefb" d="M 11.5,80.5 C 12.1667,84.5 12.8333,88.5 13.5,92.5C 13.44,93.0431 13.1067,93.3764 12.5,93.5C 11.5078,89.2172 11.1744,84.8839 11.5,80.5 Z"/></g>
<g><path style="opacity:1" fill="#a6d8ec" d="M 61.5,80.5 C 61.5,82.8333 61.5,85.1667 61.5,87.5C 64.1667,87.5 66.8333,87.5 69.5,87.5C 66.7131,88.4767 63.7131,88.81 60.5,88.5C 60.1936,85.6146 60.5269,82.9479 61.5,80.5 Z"/></g>
<g><path style="opacity:1" fill="#aed2e6" d="M 145.5,80.5 C 145.5,94.1667 145.5,107.833 145.5,121.5C 144.833,118.833 144.167,116.167 143.5,113.5C 144.734,110.465 144.734,107.465 143.5,104.5C 144.167,96.5 144.833,88.5 145.5,80.5 Z"/></g>
<g><path style="opacity:1" fill="#05a4da" d="M 145.5,80.5 C 148.167,80.5 150.833,80.5 153.5,80.5C 153.5,94.1667 153.5,107.833 153.5,121.5C 150.833,121.5 148.167,121.5 145.5,121.5C 145.5,107.833 145.5,94.1667 145.5,80.5 Z"/></g>
<g><path style="opacity:1" fill="#d9eaf5" d="M 153.5,80.5 C 154.167,80.5 154.833,80.5 155.5,80.5C 155.5,94.1667 155.5,107.833 155.5,121.5C 154.833,121.5 154.167,121.5 153.5,121.5C 153.5,107.833 153.5,94.1667 153.5,80.5 Z"/></g>
<g><path style="opacity:1" fill="#c9ecf8" d="M 81.5,96.5 C 80.9101,97.766 80.4101,99.0993 80,100.5C 79.5004,93.8417 79.3337,87.175 79.5,80.5C 80.2095,85.2576 80.8762,90.5909 81.5,96.5 Z"/></g>
<g><path style="opacity:1" fill="#c4e6f4" d="M 59.5,91.5 C 60.1667,91.5 60.8333,91.5 61.5,91.5C 61.5,101.5 61.5,111.5 61.5,121.5C 60.8333,121.5 60.1667,121.5 59.5,121.5C 59.5,111.5 59.5,101.5 59.5,91.5 Z"/></g>
<g><path style="opacity:1" fill="#10a6db" d="M 61.5,91.5 C 64.1667,91.5 66.8333,91.5 69.5,91.5C 69.5,101.5 69.5,111.5 69.5,121.5C 66.8333,121.5 64.1667,121.5 61.5,121.5C 61.5,111.5 61.5,101.5 61.5,91.5 Z"/></g>
<g><path style="opacity:1" fill="#e0eaf3" d="M 69.5,80.5 C 70.1667,80.5 70.8333,80.5 71.5,80.5C 71.5,94.1667 71.5,107.833 71.5,121.5C 70.8333,121.5 70.1667,121.5 69.5,121.5C 69.5,111.5 69.5,101.5 69.5,91.5C 70.8333,90.1667 70.8333,88.8333 69.5,87.5C 69.5,85.1667 69.5,82.8333 69.5,80.5 Z"/></g>
<g><path style="opacity:1" fill="#18a6d9" d="M 11.5,80.5 C 11.1744,84.8839 11.5078,89.2172 12.5,93.5C 13.1067,93.3764 13.44,93.0431 13.5,92.5C 21.6068,88.4588 27.7735,90.4588 32,98.5C 32.4966,96.1902 32.6633,93.8568 32.5,91.5C 35.1667,91.5 37.8333,91.5 40.5,91.5C 40.1694,98.8635 40.5027,106.197 41.5,113.5C 45.2213,115.243 48.3879,114.576 51,111.5C 51.4996,104.842 51.6663,98.175 51.5,91.5C 54.1667,91.5 56.8333,91.5 59.5,91.5C 59.5,101.5 59.5,111.5 59.5,121.5C 56.8333,121.5 54.1667,121.5 51.5,121.5C 51.6495,120.448 51.4828,119.448 51,118.5C 46.7466,122.626 41.9133,123.459 36.5,121C 34.2625,118.97 32.7625,116.47 32,113.5C 27.6798,122.663 21.1798,124.663 12.5,119.5C 9.78773,121.26 6.78773,121.927 3.5,121.5C 3.5,107.833 3.5,94.1667 3.5,80.5C 6.16667,80.5 8.83333,80.5 11.5,80.5 Z"/></g>
<g><path style="opacity:1" fill="#f7fafb" d="M 14.5,98.5 C 22.7313,97.6086 25.898,101.275 24,109.5C 21.7703,116.077 18.1037,117.077 13,112.5C 10.559,107.374 11.059,102.708 14.5,98.5 Z"/></g>
<g><path style="opacity:1" fill="#f4f9fa" d="M 91.5,97.5 C 95.6826,96.8456 98.516,98.5123 100,102.5C 102.306,109.259 100.139,113.593 93.5,115.5C 88.4311,112.682 86.5978,108.348 88,102.5C 88.9973,100.677 90.1639,99.0103 91.5,97.5 Z"/></g>
<g><path style="opacity:1" fill="#1ba6d9" d="M 135.5,81.5 C 142.421,83.6706 144.921,88.3373 143,95.5C 141.647,96.6853 140.48,98.0186 139.5,99.5C 141.552,100.611 142.886,102.277 143.5,104.5C 144.734,107.465 144.734,110.465 143.5,113.5C 141.785,118.036 138.452,120.536 133.5,121C 125.841,121.5 118.174,121.666 110.5,121.5C 110.5,108.5 110.5,95.5 110.5,82.5C 118.748,81.5314 127.082,81.1981 135.5,81.5 Z"/></g>
<g><path style="opacity:1" fill="#f9fbfc" d="M 129.5,88.5 C 133.976,88.8003 135.31,90.9669 133.5,95C 128.964,96.3789 124.297,96.8789 119.5,96.5C 119.5,93.8333 119.5,91.1667 119.5,88.5C 122.833,88.5 126.167,88.5 129.5,88.5 Z"/></g>
<g><path style="opacity:1" fill="#7ed2ee" d="M 129.5,88.5 C 126.167,88.5 122.833,88.5 119.5,88.5C 119.5,91.1667 119.5,93.8333 119.5,96.5C 118.523,93.7131 118.19,90.7131 118.5,87.5C 122.371,87.185 126.038,87.5184 129.5,88.5 Z"/></g>
<g><path style="opacity:1" fill="#8abbdd" d="M 187.5,121.5 C 186.833,112.5 186.167,103.5 185.5,94.5C 185.238,93.0222 185.571,91.6888 186.5,90.5C 187.499,100.812 187.832,111.145 187.5,121.5 Z"/></g>
<g><path style="opacity:1" fill="#f2f8fa" d="M 119.5,103.5 C 123.514,103.334 127.514,103.501 131.5,104C 136.833,107.333 136.833,110.667 131.5,114C 127.514,114.499 123.514,114.666 119.5,114.5C 119.5,110.833 119.5,107.167 119.5,103.5 Z"/></g>
<g><path style="opacity:1" fill="#ade8f6" d="M 165.5,95.5 C 164.833,104.167 164.167,112.833 163.5,121.5C 163.334,111.161 163.5,100.828 164,90.5C 164.608,92.1545 165.108,93.8211 165.5,95.5 Z"/></g>
</svg>
