<?xml version="1.0" encoding="UTF-8"?>
<!DOCTYPE svg PUBLIC "-//W3C//DTD SVG 1.1//EN" "http://www.w3.org/Graphics/SVG/1.1/DTD/svg11.dtd">
<svg xmlns="http://www.w3.org/2000/svg" version="1.1" width="360px" height="360px" style="shape-rendering:geometricPrecision; text-rendering:geometricPrecision; image-rendering:optimizeQuality; fill-rule:evenodd; clip-rule:evenodd" xmlns:xlink="http://www.w3.org/1999/xlink">
<g><path style="opacity:1" fill="#121111" d="M 146.5,20.5 C 153.297,22.7813 160.297,24.2813 167.5,25C 214.736,18.8981 233.569,39.0647 224,85.5C 222.894,88.7262 221.061,91.3929 218.5,93.5C 218.25,103.386 216.75,113.052 214,122.5C 212.159,126.183 209.826,129.516 207,132.5C 202.987,146.492 207.153,156.992 219.5,164C 229.54,165.041 239.54,166.375 249.5,168C 262.597,171.29 272.43,178.79 279,190.5C 284.825,194.817 288.659,200.484 290.5,207.5C 293.107,208.318 295.774,208.818 298.5,209C 301.29,211.21 302.123,214.044 301,217.5C 296.097,244.425 290.93,271.259 285.5,298C 306.833,298.333 328.167,298.667 349.5,299C 353.645,303.901 352.478,307.068 346,308.5C 235.153,307.839 124.153,307.839 13,308.5C 8.93659,308.724 6.43659,306.891 5.5,303C 6.10074,301.395 7.10074,300.062 8.5,299C 29.8333,298.667 51.1667,298.333 72.5,298C 66.4287,269.312 61.262,240.479 57,211.5C 57.8333,210.667 58.6667,209.833 59.5,209C 62.7577,208.788 65.9243,208.288 69,207.5C 74.4964,194.343 82.6631,183.177 93.5,174C 97.9346,171.449 102.601,169.449 107.5,168C 117.805,166.448 128.138,165.114 138.5,164C 150.847,156.992 155.013,146.492 151,132.5C 146.452,128.075 143.452,122.741 142,116.5C 140.865,109.218 140.199,101.885 140,94.5C 135.914,92.3413 133.247,89.008 132,84.5C 128.667,73.1667 128.667,61.8333 132,50.5C 137.174,40.4897 142.008,30.4897 146.5,20.5 Z"/></g>
<g><path style="opacity:1" fill="#402c2c" d="M 150.5,31.5 C 166.382,33.8936 182.382,35.0602 198.5,35C 209.653,37.7714 215.82,44.9381 217,56.5C 217.831,63.856 217.665,71.1893 216.5,78.5C 214.371,69.2424 210.371,60.9091 204.5,53.5C 192.516,52.9983 180.516,52.8316 168.5,53C 166.5,52.3333 164.5,51.6667 162.5,51C 160.898,48.889 158.898,47.389 156.5,46.5C 154.971,46.5288 153.804,47.1955 153,48.5C 152.677,57.8336 149.344,65.8336 143,72.5C 142.118,75.7895 141.452,79.1228 141,82.5C 139.883,81.0506 139.216,79.3839 139,77.5C 138.333,71.1667 138.333,64.8333 139,58.5C 142.606,49.3967 146.44,40.3967 150.5,31.5 Z"/></g>
<g><path style="opacity:0.999" fill="#eebf90" d="M 159.5,58.5 C 165.118,60.5199 170.952,61.5199 177,61.5C 184.493,60.6668 191.993,60.5002 199.5,61C 202.38,65.2582 204.88,69.7582 207,74.5C 208.11,81.4244 208.61,88.4244 208.5,95.5C 211.901,112.518 206.234,125.351 191.5,134C 173.25,140.03 159.75,134.53 151,117.5C 149.389,104.236 149.056,90.9031 150,77.5C 154.767,71.9663 157.934,65.6329 159.5,58.5 Z"/></g>
<g><path style="opacity:0.998" fill="#edbe90" d="M 160.5,140.5 C 166.435,142.741 172.602,144.074 179,144.5C 185.349,143.864 191.515,142.531 197.5,140.5C 196.454,152.373 200.787,161.707 210.5,168.5C 189.268,184.144 167.935,184.31 146.5,169C 156.892,162.383 161.558,152.883 160.5,140.5 Z"/></g>
<g><path style="opacity:1" fill="#fca106" d="M 136.5,172.5 C 143.323,177.416 150.656,181.583 158.5,185C 181.215,191.157 201.882,186.99 220.5,172.5C 230.478,174.035 240.478,175.535 250.5,177C 256.147,179.148 261.147,182.315 265.5,186.5C 270.96,193.767 275.627,201.434 279.5,209.5C 213.167,209.5 146.833,209.5 80.5,209.5C 83.5714,197.179 90.238,187.346 100.5,180C 102.717,178.725 105.051,177.725 107.5,177C 117.319,175.568 126.986,174.068 136.5,172.5 Z"/></g>
<g><path style="opacity:0.998" fill="#a9a5a1" d="M 66.5,217.5 C 141.5,217.5 216.5,217.5 291.5,217.5C 287.143,244.62 282.143,271.62 276.5,298.5C 211.5,299.833 146.5,299.833 81.5,298.5C 76.0229,271.591 71.0229,244.591 66.5,217.5 Z"/></g>
</svg>
