<?xml version="1.0" encoding="UTF-8"?>
<!DOCTYPE svg PUBLIC "-//W3C//DTD SVG 1.1//EN" "http://www.w3.org/Graphics/SVG/1.1/DTD/svg11.dtd">
<svg xmlns="http://www.w3.org/2000/svg" version="1.1" width="600px" height="500px" style="shape-rendering:geometricPrecision; text-rendering:geometricPrecision; image-rendering:optimizeQuality; fill-rule:evenodd; clip-rule:evenodd" xmlns:xlink="http://www.w3.org/1999/xlink">
<g><path style="opacity:1" fill="#fefffe" d="M -0.5,-0.5 C 199.5,-0.5 399.5,-0.5 599.5,-0.5C 599.5,166.167 599.5,332.833 599.5,499.5C 399.5,499.5 199.5,499.5 -0.5,499.5C -0.5,332.833 -0.5,166.167 -0.5,-0.5 Z M 10.5,10.5 C 203.167,10.5 395.833,10.5 588.5,10.5C 588.5,169.833 588.5,329.167 588.5,488.5C 395.833,488.5 203.167,488.5 10.5,488.5C 10.5,329.167 10.5,169.833 10.5,10.5 Z M 202.5,232.5 C 219.833,232.5 237.167,232.5 254.5,232.5C 254.5,243.833 254.5,255.167 254.5,266.5C 237.167,266.5 219.833,266.5 202.5,266.5C 202.5,255.167 202.5,243.833 202.5,232.5 Z M 479.5,236.5 C 483.266,242.521 486.933,248.687 490.5,255C 483.5,255.667 476.5,255.667 469.5,255C 472.719,248.727 476.052,242.56 479.5,236.5 Z"/></g>
<g><path style="opacity:0.833" fill="#254a9b" d="M 7.5,7.5 C 202.167,7.33333 396.834,7.5 591.5,8C 592.666,168.764 592.832,329.597 592,490.5C 591.5,491 591,491.5 590.5,492C 396.5,492.667 202.5,492.667 8.5,492C 7.50083,330.57 7.1675,169.07 7.5,7.5 Z M 10.5,10.5 C 10.5,169.833 10.5,329.167 10.5,488.5C 203.167,488.5 395.833,488.5 588.5,488.5C 588.5,329.167 588.5,169.833 588.5,10.5C 395.833,10.5 203.167,10.5 10.5,10.5 Z M 202.5,232.5 C 202.5,243.833 202.5,255.167 202.5,266.5C 219.833,266.5 237.167,266.5 254.5,266.5C 254.5,255.167 254.5,243.833 254.5,232.5C 237.167,232.5 219.833,232.5 202.5,232.5 Z M 479.5,236.5 C 476.052,242.56 472.719,248.727 469.5,255C 476.5,255.667 483.5,255.667 490.5,255C 486.933,248.687 483.266,242.521 479.5,236.5 Z"/></g>
<g><path style="opacity:0.866" fill="#284b9b" d="M 198.5,207.5 C 218.503,207.333 238.503,207.5 258.5,208C 269.845,209.024 277.345,214.857 281,225.5C 281.667,241.5 281.667,257.5 281,273.5C 277.37,284.113 269.87,289.946 258.5,291C 238.5,291.667 218.5,291.667 198.5,291C 187.937,290.079 180.437,284.912 176,275.5C 175.333,258.167 175.333,240.833 176,223.5C 180.643,214.007 188.143,208.674 198.5,207.5 Z M 202.5,232.5 C 202.5,243.833 202.5,255.167 202.5,266.5C 219.833,266.5 237.167,266.5 254.5,266.5C 254.5,255.167 254.5,243.833 254.5,232.5C 237.167,232.5 219.833,232.5 202.5,232.5 Z"/></g>
<g><path style="opacity:0.874" fill="#214799" d="M 384.5,207.5 C 387.473,207.965 388.64,209.632 388,212.5C 373.541,223.957 359.374,235.79 345.5,248C 360.355,260.356 375.355,272.523 390.5,284.5C 391.333,259.84 391.833,235.173 392,210.5C 392.5,210 393,209.5 393.5,209C 401.833,208.333 410.167,208.333 418.5,209C 419,209.5 419.5,210 420,210.5C 420.333,235.5 420.667,260.5 421,285.5C 435.04,259.919 449.207,234.419 463.5,209C 474.5,208.333 485.5,208.333 496.5,209C 511.048,234.593 525.214,260.426 539,286.5C 539.711,288.367 539.211,289.867 537.5,291C 528.5,291.667 519.5,291.667 510.5,291C 507.459,287.088 504.792,282.921 502.5,278.5C 487.511,277.334 472.511,277.167 457.5,278C 455.23,282.598 452.563,286.931 449.5,291C 440.167,291.667 430.833,291.667 421.5,291C 420.5,289 419.5,289 418.5,291C 414.333,291.167 410.167,291.333 406,291.5C 389.58,291.385 373.08,291.218 356.5,291C 343,278.833 329.5,266.667 316,254.5C 315.667,266.167 315.333,277.833 315,289.5C 314.5,290 314,290.5 313.5,291C 304.833,291.667 296.167,291.667 287.5,291C 287,290.5 286.5,290 286,289.5C 285.333,263.167 285.333,236.833 286,210.5C 286.5,210 287,209.5 287.5,209C 296.167,208.333 304.833,208.333 313.5,209C 314,209.5 314.5,210 315,210.5C 315.333,221.167 315.667,231.833 316,242.5C 328.451,231.683 340.618,220.516 352.5,209C 363.341,208.83 374.008,208.33 384.5,207.5 Z M 479.5,236.5 C 476.052,242.56 472.719,248.727 469.5,255C 476.5,255.667 483.5,255.667 490.5,255C 486.933,248.687 483.266,242.521 479.5,236.5 Z"/></g>
<g><path style="opacity:0.859" fill="#1d4598" d="M 58.5,208.5 C 72.1707,208.333 85.8374,208.5 99.5,209C 113.787,226.408 127.953,243.908 142,261.5C 142.333,244.5 142.667,227.5 143,210.5C 143.5,210 144,209.5 144.5,209C 152.5,208.333 160.5,208.333 168.5,209C 169,209.5 169.5,210 170,210.5C 170.667,236.5 170.667,262.5 170,288.5C 169.5,289 169,289.5 168.5,290C 155.167,290.667 141.833,290.667 128.5,290C 113.641,272.442 99.1408,254.608 85,236.5C 84.6667,253.833 84.3333,271.167 84,288.5C 83.5,289 83,289.5 82.5,290C 74.5,290.667 66.5,290.667 58.5,290C 58,289.5 57.5,289 57,288.5C 56.3333,262.5 56.3333,236.5 57,210.5C 57.7172,209.956 58.2172,209.289 58.5,208.5 Z"/></g>
<g><path style="opacity:1" fill="#8da1cb" d="M 99.5,212.5 C 86.5,212.5 73.5,212.5 60.5,212.5C 60.5,230.167 60.5,247.833 60.5,265.5C 60.1667,265.5 59.8333,265.5 59.5,265.5C 59.5,247.5 59.5,229.5 59.5,211.5C 73.0105,211.171 86.3438,211.504 99.5,212.5 Z"/></g>
<g><path style="opacity:1" fill="#8da1cb" d="M 167.5,266.5 C 167.167,266.5 166.833,266.5 166.5,266.5C 166.5,248.5 166.5,230.5 166.5,212.5C 159.833,212.5 153.167,212.5 146.5,212.5C 146.83,230.674 146.497,248.674 145.5,266.5C 145.5,248.167 145.5,229.833 145.5,211.5C 152.833,211.5 160.167,211.5 167.5,211.5C 167.5,229.833 167.5,248.167 167.5,266.5 Z"/></g>
<g><path style="opacity:1" fill="#f9fafc" d="M 198.5,210.5 C 218.503,210.333 238.503,210.5 258.5,211C 266.567,211.339 272.734,214.839 277,221.5C 277.667,238.833 277.667,256.167 277,273.5C 275.975,279.528 272.475,283.361 266.5,285C 263.833,285.667 261.167,286.333 258.5,287C 238.5,287.667 218.5,287.667 198.5,287C 189.917,286.715 183.584,282.882 179.5,275.5C 178.334,258.176 178.167,240.843 179,223.5C 183.097,215.537 189.597,211.203 198.5,210.5 Z M 202.5,232.5 C 202.5,243.833 202.5,255.167 202.5,266.5C 219.833,266.5 237.167,266.5 254.5,266.5C 254.5,255.167 254.5,243.833 254.5,232.5C 237.167,232.5 219.833,232.5 202.5,232.5 Z"/></g>
<g><path style="opacity:1" fill="#8da1cb" d="M 312.5,246.5 C 311.505,235.346 311.172,224.012 311.5,212.5C 304.167,212.5 296.833,212.5 289.5,212.5C 289.5,225.5 289.5,238.5 289.5,251.5C 289.167,251.5 288.833,251.5 288.5,251.5C 288.5,238.167 288.5,224.833 288.5,211.5C 296.5,211.5 304.5,211.5 312.5,211.5C 312.5,223.167 312.5,234.833 312.5,246.5 Z"/></g>
<g><path style="opacity:1" fill="#8da2cc" d="M 352.5,212.5 C 362.992,211.341 373.659,211.175 384.5,212C 383.756,213.039 382.756,213.539 381.5,213.5C 372.014,212.506 362.348,212.173 352.5,212.5 Z"/></g>
<g><path style="opacity:1" fill="#8da1cb" d="M 417.5,257.5 C 417.167,257.5 416.833,257.5 416.5,257.5C 416.5,242.5 416.5,227.5 416.5,212.5C 409.5,212.5 402.5,212.5 395.5,212.5C 395.5,227.833 395.5,243.167 395.5,258.5C 395.167,258.5 394.833,258.5 394.5,258.5C 394.5,242.833 394.5,227.167 394.5,211.5C 402.167,211.5 409.833,211.5 417.5,211.5C 417.5,226.833 417.5,242.167 417.5,257.5 Z"/></g>
<g><path style="opacity:1" fill="#fdfdfe" d="M 99.5,212.5 C 114.564,230.951 129.398,249.617 144,268.5C 144.717,267.956 145.217,267.289 145.5,266.5C 146.497,248.674 146.83,230.674 146.5,212.5C 153.167,212.5 159.833,212.5 166.5,212.5C 166.5,230.5 166.5,248.5 166.5,266.5C 166.5,273.167 166.5,279.833 166.5,286.5C 153.833,286.5 141.167,286.5 128.5,286.5C 113.217,268.642 98.3836,250.309 84,231.5C 83.2303,230.402 82.397,230.402 81.5,231.5C 80.5032,249.659 80.1698,267.992 80.5,286.5C 73.8333,286.5 67.1667,286.5 60.5,286.5C 60.5,279.5 60.5,272.5 60.5,265.5C 60.5,247.833 60.5,230.167 60.5,212.5C 73.5,212.5 86.5,212.5 99.5,212.5 Z"/></g>
<g><path style="opacity:1" fill="#fbfbfd" d="M 312.5,246.5 C 313.117,246.611 313.617,246.944 314,247.5C 326.581,235.476 339.415,223.809 352.5,212.5C 362.348,212.173 372.014,212.506 381.5,213.5C 368.359,225.135 355.026,236.635 341.5,248C 356.435,261.772 372.101,274.605 388.5,286.5C 378.013,287.494 367.346,287.828 356.5,287.5C 342.826,274.328 328.659,261.661 314,249.5C 313.617,250.056 313.117,250.389 312.5,250.5C 311.505,262.655 311.171,274.989 311.5,287.5C 304.167,287.5 296.833,287.5 289.5,287.5C 289.5,275.5 289.5,263.5 289.5,251.5C 289.5,238.5 289.5,225.5 289.5,212.5C 296.833,212.5 304.167,212.5 311.5,212.5C 311.172,224.012 311.505,235.346 312.5,246.5 Z"/></g>
<g><path style="opacity:1" fill="#fefffe" d="M 416.5,257.5 C 416.5,267.5 416.5,277.5 416.5,287.5C 409.5,287.5 402.5,287.5 395.5,287.5C 395.5,277.833 395.5,268.167 395.5,258.5C 395.5,243.167 395.5,227.833 395.5,212.5C 402.5,212.5 409.5,212.5 416.5,212.5C 416.5,227.5 416.5,242.5 416.5,257.5 Z"/></g>
<g><path style="opacity:1" fill="#fafbfc" d="M 535.5,286.5 C 527.265,287.814 518.932,287.814 510.5,286.5C 508.571,282.145 506.238,277.979 503.5,274C 487.833,273.333 472.167,273.333 456.5,274C 453.181,278.143 450.514,282.643 448.5,287.5C 439.983,287.826 431.65,287.493 423.5,286.5C 428.892,278.062 434.059,269.395 439,260.5C 446.788,244.258 455.121,228.258 464,212.5C 474.667,211.167 485.333,211.167 496,212.5C 509.484,237.143 522.651,261.81 535.5,286.5 Z M 479.5,236.5 C 476.052,242.56 472.719,248.727 469.5,255C 476.5,255.667 483.5,255.667 490.5,255C 486.933,248.687 483.266,242.521 479.5,236.5 Z"/></g>
<g><path style="opacity:0.865" fill="#2a4c9c" d="M 201.5,229.5 C 219.503,229.333 237.503,229.5 255.5,230C 256.025,230.692 256.692,231.192 257.5,231.5C 258.666,243.486 258.833,255.486 258,267.5C 257.097,268.701 255.931,269.535 254.5,270C 236.833,270.667 219.167,270.667 201.5,270C 201,269.5 200.5,269 200,268.5C 199.333,256.167 199.333,243.833 200,231.5C 200.717,230.956 201.217,230.289 201.5,229.5 Z M 202.5,232.5 C 202.5,243.833 202.5,255.167 202.5,266.5C 219.833,266.5 237.167,266.5 254.5,266.5C 254.5,255.167 254.5,243.833 254.5,232.5C 237.167,232.5 219.833,232.5 202.5,232.5 Z"/></g>
<g><path style="opacity:0.85" fill="#24499a" d="M 479.5,231.5 C 484.978,239.777 489.978,248.444 494.5,257.5C 494.291,258.086 493.957,258.586 493.5,259C 484.255,259.817 475.089,259.65 466,258.5C 469.386,249.062 473.886,240.062 479.5,231.5 Z M 479.5,236.5 C 476.052,242.56 472.719,248.727 469.5,255C 476.5,255.667 483.5,255.667 490.5,255C 486.933,248.687 483.266,242.521 479.5,236.5 Z"/></g>
<g><path style="opacity:1" fill="#5574b2" d="M 312.5,250.5 C 312.5,263.167 312.5,275.833 312.5,288.5C 304.5,288.5 296.5,288.5 288.5,288.5C 288.5,276.167 288.5,263.833 288.5,251.5C 288.833,251.5 289.167,251.5 289.5,251.5C 289.5,263.5 289.5,275.5 289.5,287.5C 296.833,287.5 304.167,287.5 311.5,287.5C 311.171,274.989 311.505,262.655 312.5,250.5 Z"/></g>
<g><path style="opacity:1" fill="#5574b2" d="M 416.5,257.5 C 416.833,257.5 417.167,257.5 417.5,257.5C 417.5,267.833 417.5,278.167 417.5,288.5C 409.833,288.5 402.167,288.5 394.5,288.5C 394.5,278.5 394.5,268.5 394.5,258.5C 394.833,258.5 395.167,258.5 395.5,258.5C 395.5,268.167 395.5,277.833 395.5,287.5C 402.5,287.5 409.5,287.5 416.5,287.5C 416.5,277.5 416.5,267.5 416.5,257.5 Z"/></g>
<g><path style="opacity:1" fill="#647fb8" d="M 81.5,231.5 C 81.5,250.167 81.5,268.833 81.5,287.5C 74.1667,287.5 66.8333,287.5 59.5,287.5C 59.5,280.167 59.5,272.833 59.5,265.5C 59.8333,265.5 60.1667,265.5 60.5,265.5C 60.5,272.5 60.5,279.5 60.5,286.5C 67.1667,286.5 73.8333,286.5 80.5,286.5C 80.1698,267.992 80.5032,249.659 81.5,231.5 Z"/></g>
<g><path style="opacity:1" fill="#5574b2" d="M 166.5,266.5 C 166.833,266.5 167.167,266.5 167.5,266.5C 167.5,273.5 167.5,280.5 167.5,287.5C 154.323,287.829 141.323,287.495 128.5,286.5C 141.167,286.5 153.833,286.5 166.5,286.5C 166.5,279.833 166.5,273.167 166.5,266.5 Z"/></g>
<g><path style="opacity:1" fill="#5574b2" d="M 388.5,286.5 C 389.289,286.783 389.956,287.283 390.5,288C 378.992,288.826 367.659,288.659 356.5,287.5C 367.346,287.828 378.013,287.494 388.5,286.5 Z"/></g>
<g><path style="opacity:1" fill="#5574b2" d="M 423.5,286.5 C 431.65,287.493 439.983,287.826 448.5,287.5C 439.991,288.821 431.325,288.821 422.5,287.5C 422.624,286.893 422.957,286.56 423.5,286.5 Z"/></g>
<g><path style="opacity:1" fill="#5574b2" d="M 510.5,286.5 C 518.932,287.814 527.265,287.814 535.5,286.5C 536.043,286.56 536.376,286.893 536.5,287.5C 532.167,287.833 527.833,288.167 523.5,288.5C 518.778,288.492 514.445,287.825 510.5,286.5 Z"/></g>
</svg>
