<?xml version="1.0" encoding="UTF-8"?>
<!DOCTYPE svg PUBLIC "-//W3C//DTD SVG 1.1//EN" "http://www.w3.org/Graphics/SVG/1.1/DTD/svg11.dtd">
<svg xmlns="http://www.w3.org/2000/svg" version="1.1" width="140px" height="73px" style="shape-rendering:geometricPrecision; text-rendering:geometricPrecision; image-rendering:optimizeQuality; fill-rule:evenodd; clip-rule:evenodd" xmlns:xlink="http://www.w3.org/1999/xlink">
<g><path style="opacity:0.948" fill="#7c7d80" d="M -0.5,-0.5 C 10.1667,-0.5 20.8333,-0.5 31.5,-0.5C 33.0276,0.309209 34.6943,0.975875 36.5,1.5C 36.5,2.16667 36.8333,2.5 37.5,2.5C 37.5,3.16667 37.8333,3.5 38.5,3.5C 38.5,4.16667 38.8333,4.5 39.5,4.5C 39.5,4.83333 39.5,5.16667 39.5,5.5C 39.8333,6.5 40.5,7.16667 41.5,7.5C 44.6247,8.10023 44.958,9.2669 42.5,11C 45.1667,11.6667 45.1667,12.3333 42.5,13C 44.9312,14.0924 44.9312,15.2591 42.5,16.5C 42.5,17.1667 42.5,17.8333 42.5,18.5C 42.9175,19.2216 43.5842,19.7216 44.5,20C 43.2625,20.2321 42.2625,20.7321 41.5,21.5C 41.5,21.8333 41.5,22.1667 41.5,22.5C 41.1667,23.1667 40.8333,23.8333 40.5,24.5C 39.6618,24.8417 39.3284,25.5084 39.5,26.5C 37.6088,28.0163 35.6088,29.3496 33.5,30.5C 30.272,31.4137 26.9387,31.7471 23.5,31.5C 23.1667,31.5 22.8333,31.5 22.5,31.5C 20.1432,31.3367 17.8098,31.5034 15.5,32C 17.1667,32.3333 18.8333,32.6667 20.5,33C 19.0069,34.3681 17.5069,34.5348 16,33.5C 15.8299,39.1958 15.3299,44.8624 14.5,50.5C 9.66696,49.6656 4.66696,49.6656 -0.5,50.5C -0.5,33.5 -0.5,16.5 -0.5,-0.5 Z M 19.5,11.5 C 18.9935,12.8589 17.9935,13.8589 16.5,14.5C 17.3966,14.6691 18.3966,15.0024 19.5,15.5C 18.624,16.2508 17.624,16.7508 16.5,17C 17.7659,17.3095 18.9326,17.8095 20,18.5C 20.4966,16.1902 20.6633,13.8568 20.5,11.5C 20.8333,11.5 21.1667,11.5 21.5,11.5C 21.6491,13.351 21.6491,15.1843 21.5,17C 22,17.5 22.5,18 23,18.5C 23.4955,16.5273 23.6621,14.5273 23.5,12.5C 24.2389,12.369 24.9056,12.5357 25.5,13C 25.7425,15.072 25.4092,17.2386 24.5,19.5C 21.5,19.5 18.5,19.5 15.5,19.5C 15.3359,16.8127 15.5026,14.146 16,11.5C 17.1455,12.6843 18.3121,12.6843 19.5,11.5 Z"/></g>
<g><path style="opacity:0.944" fill="#7b7c7f" d="M 47.5,-0.5 C 59.1667,-0.5 70.8333,-0.5 82.5,-0.5C 82.8417,0.338246 83.5084,0.67158 84.5,0.5C 85.2905,1.40128 86.2905,2.06795 87.5,2.5C 87.8333,2.5 88.1667,2.5 88.5,2.5C 88.8333,3.16667 89.1667,3.83333 89.5,4.5C 89.5,5.16667 89.8333,5.5 90.5,5.5C 90.8333,6.16667 91.1667,6.83333 91.5,7.5C 91.5,8.16667 91.8333,8.5 92.5,8.5C 92.5,9.16667 92.5,9.83333 92.5,10.5C 92.5,10.8333 92.5,11.1667 92.5,11.5C 92.5,12.8333 92.5,14.1667 92.5,15.5C 92.5,15.8333 92.5,16.1667 92.5,16.5C 92.5,17.8333 92.5,19.1667 92.5,20.5C 91.8333,20.5 91.5,20.8333 91.5,21.5C 91.1667,22.1667 90.8333,22.8333 90.5,23.5C 89.1667,24.1667 88.1667,25.1667 87.5,26.5C 86.5084,26.3284 85.8417,26.6618 85.5,27.5C 84.8333,27.5 84.5,27.8333 84.5,28.5C 84.8333,29.1667 85.1667,29.8333 85.5,30.5C 85.5,30.8333 85.5,31.1667 85.5,31.5C 85.5,32.1667 85.8333,32.5 86.5,32.5C 86.5,32.8333 86.5,33.1667 86.5,33.5C 86.5,34.1667 86.8333,34.5 87.5,34.5C 87.5,34.8333 87.5,35.1667 87.5,35.5C 87.5,36.1667 87.8333,36.5 88.5,36.5C 88.5,37.1667 88.5,37.8333 88.5,38.5C 88.5,39.1667 88.8333,39.5 89.5,39.5C 89.5,39.8333 89.5,40.1667 89.5,40.5C 89.8333,41.1667 90.1667,41.8333 90.5,42.5C 90.5,42.8333 90.5,43.1667 90.5,43.5C 90.8333,44.1667 91.1667,44.8333 91.5,45.5C 93.4931,46.4716 93.8264,47.8049 92.5,49.5C 88.5,49.5 84.5,49.5 80.5,49.5C 79.4226,50.0184 78.2559,50.3517 77,50.5C 74.4704,48.6536 71.6371,47.487 68.5,47C 70.1667,46.6667 71.8333,46.3333 73.5,46C 72.944,45.6174 72.6107,45.1174 72.5,44.5C 72.5,44.1667 72.5,43.8333 72.5,43.5C 72.1667,42.8333 71.8333,42.1667 71.5,41.5C 71.5,40.8333 71.1667,40.5 70.5,40.5C 69.9524,39.3115 69.6191,38.1448 69.5,37C 68.1667,36.6667 66.8333,36.3333 65.5,36C 66.7375,35.7679 67.7375,35.2679 68.5,34.5C 68.6716,33.5084 68.3382,32.8417 67.5,32.5C 67.631,31.7611 67.4643,31.0944 67,30.5C 65.4477,30.0111 64.281,30.6777 63.5,32.5C 63.5,33.1667 63.5,33.8333 63.5,34.5C 63.5,36.5 63.5,38.5 63.5,40.5C 63.5,41.1667 63.5,41.8333 63.5,42.5C 63.5,42.8333 63.5,43.1667 63.5,43.5C 63.5,44.1667 63.5,44.8333 63.5,45.5C 64.6085,46.29 65.9419,46.79 67.5,47C 66.5,47.3333 65.5,47.6667 64.5,48C 63.1667,48.6667 63.1667,49.3333 64.5,50C 62.4024,50.6776 60.4024,50.5109 58.5,49.5C 57.8333,49.5 57.1667,49.5 56.5,49.5C 56.1667,49.5 55.8333,49.5 55.5,49.5C 54.1667,49.5 52.8333,49.5 51.5,49.5C 50.1667,50.8333 48.8333,50.8333 47.5,49.5C 47.631,48.7611 47.4643,48.0944 47,47.5C 46.3457,48.6956 45.8457,48.6956 45.5,47.5C 46.2427,46.8182 46.9094,46.1515 47.5,45.5C 47.5,44.8333 47.5,44.1667 47.5,43.5C 47.5,43.1667 47.5,42.8333 47.5,42.5C 47.5,41.8333 47.5,41.1667 47.5,40.5C 47.5,40.1667 47.5,39.8333 47.5,39.5C 47.5,39.1667 47.5,38.8333 47.5,38.5C 47.5,37.8333 47.5,37.1667 47.5,36.5C 47.5,36.1667 47.5,35.8333 47.5,35.5C 46.6091,34.7387 45.9424,33.7387 45.5,32.5C 46.2255,31.1331 46.8921,29.7997 47.5,28.5C 47.5,28.1667 47.5,27.8333 47.5,27.5C 47.5,26.8333 47.5,26.1667 47.5,25.5C 47.5,25.1667 47.5,24.8333 47.5,24.5C 47.5,24.1667 47.5,23.8333 47.5,23.5C 47.5,22.8333 47.5,22.1667 47.5,21.5C 47.5,21.1667 47.5,20.8333 47.5,20.5C 47.5,20.1667 47.5,19.8333 47.5,19.5C 47.5,19.1667 47.5,18.8333 47.5,18.5C 47.5,17.8333 47.5,17.1667 47.5,16.5C 44.9824,14.6434 44.9824,12.8101 47.5,11C 44.8333,10 44.8333,9 47.5,8C 45.0688,6.90757 45.0688,5.74091 47.5,4.5C 47.5,3.83333 47.5,3.16667 47.5,2.5C 47.5,2.16667 47.5,1.83333 47.5,1.5C 47.5,1.16667 47.5,0.833333 47.5,0.5C 47.5,0.166667 47.5,-0.166667 47.5,-0.5 Z M 72.5,11.5 C 72.1205,12.1331 71.7871,12.7997 71.5,13.5C 70.5318,12.5109 69.3651,11.8443 68,11.5C 66.3933,12.0735 64.8933,12.7402 63.5,13.5C 64.5981,12.603 64.5981,11.7697 63.5,11C 66.6965,10.1955 69.6965,10.3622 72.5,11.5 Z M 75.5,15.5 C 75.5,16.1667 75.1667,16.5 74.5,16.5C 70.8333,16.5 67.1667,16.5 63.5,16.5C 63.5,16.1667 63.5,15.8333 63.5,15.5C 67.5,15.5 71.5,15.5 75.5,15.5 Z M 70.5,18.5 C 68.1667,19.8333 65.8333,19.8333 63.5,18.5C 65.8333,17.1667 68.1667,17.1667 70.5,18.5 Z M 67.5,32.5 C 66.1667,32.5 64.8333,32.5 63.5,32.5C 64.281,30.6777 65.4477,30.0111 67,30.5C 67.4643,31.0944 67.631,31.7611 67.5,32.5 Z M 68.5,34.5 C 67.7375,35.2679 66.7375,35.7679 65.5,36C 66.8333,36.3333 68.1667,36.6667 69.5,37C 69.6191,38.1448 69.9524,39.3115 70.5,40.5C 68.1667,40.5 65.8333,40.5 63.5,40.5C 63.5,38.5 63.5,36.5 63.5,34.5C 65.36,33.9285 67.0267,33.9285 68.5,34.5 Z M 71.5,41.5 C 71.8333,42.1667 72.1667,42.8333 72.5,43.5C 69.5,43.5 66.5,43.5 63.5,43.5C 63.5,43.1667 63.5,42.8333 63.5,42.5C 66.1667,42.1667 68.8333,41.8333 71.5,41.5 Z"/></g>
<g><path style="opacity:0.913" fill="#7a7b7e" d="M 91.5,0.5 C 91.5,0.166667 91.5,-0.166667 91.5,-0.5C 97.8333,-0.5 104.167,-0.5 110.5,-0.5C 111.11,0.391047 111.443,1.39105 111.5,2.5C 111.833,3.5 112.5,4.16667 113.5,4.5C 113.5,4.83333 113.5,5.16667 113.5,5.5C 113.5,6.16667 113.833,6.5 114.5,6.5C 114.328,7.49162 114.662,8.15829 115.5,8.5C 115.328,9.49162 115.662,10.1583 116.5,10.5C 116.842,11.3382 117.508,11.6716 118.5,11.5C 118.5,11.8333 118.5,12.1667 118.5,12.5C 117.167,12.8333 117.167,13.1667 118.5,13.5C 119.338,13.8417 119.672,14.5084 119.5,15.5C 118.443,16.206 118.776,16.5393 120.5,16.5C 120.5,16.8333 120.5,17.1667 120.5,17.5C 119.167,17.8333 119.167,18.1667 120.5,18.5C 120.5,19.1667 120.833,19.5 121.5,19.5C 123.104,20.287 123.771,21.6203 123.5,23.5C 122.443,24.206 122.776,24.5393 124.5,24.5C 124.842,25.3382 125.508,25.6716 126.5,25.5C 125.833,26.1667 125.167,26.8333 124.5,27.5C 124.5,28.1667 124.5,28.8333 124.5,29.5C 124.5,29.8333 124.5,30.1667 124.5,30.5C 124.5,30.8333 124.5,31.1667 124.5,31.5C 124.5,31.8333 124.5,32.1667 124.5,32.5C 124.5,33.1667 124.5,33.8333 124.5,34.5C 124.5,34.8333 124.5,35.1667 124.5,35.5C 124.5,36.1667 124.5,36.8333 124.5,37.5C 124.5,37.8333 124.5,38.1667 124.5,38.5C 124.5,38.8333 124.5,39.1667 124.5,39.5C 124.5,39.8333 124.5,40.1667 124.5,40.5C 124.5,41.1667 124.5,41.8333 124.5,42.5C 124.5,42.8333 124.5,43.1667 124.5,43.5C 124.5,44.1667 124.5,44.8333 124.5,45.5C 125.718,46.1614 127.051,46.8281 128.5,47.5C 127.141,47.3867 125.807,48.0534 124.5,49.5C 121.5,49.5 118.5,49.5 115.5,49.5C 113.167,50.8333 110.833,50.8333 108.5,49.5C 108.5,49.1667 108.5,48.8333 108.5,48.5C 108.5,47.8333 108.5,47.1667 108.5,46.5C 108.5,45.8333 108.5,45.1667 108.5,44.5C 108.5,44.1667 108.5,43.8333 108.5,43.5C 108.5,43.1667 108.5,42.8333 108.5,42.5C 108.5,41.8333 108.5,41.1667 108.5,40.5C 108.5,40.1667 108.5,39.8333 108.5,39.5C 108.5,39.1667 108.5,38.8333 108.5,38.5C 108.5,38.1667 108.5,37.8333 108.5,37.5C 108.5,36.8333 108.5,36.1667 108.5,35.5C 108.5,35.1667 108.5,34.8333 108.5,34.5C 108.5,33.8333 108.5,33.1667 108.5,32.5C 107.595,31.2976 107.595,29.9643 108.5,28.5C 108.5,27.8333 108.167,27.5 107.5,27.5C 106.192,26.7677 104.858,25.9344 103.5,25C 104.416,24.7216 105.082,24.2216 105.5,23.5C 105.068,22.2905 104.401,21.2905 103.5,20.5C 103.5,19.8333 103.167,19.5 102.5,19.5C 102.5,19.1667 102.5,18.8333 102.5,18.5C 102.167,17.8333 101.833,17.1667 101.5,16.5C 101.167,15.5 100.5,14.8333 99.5,14.5C 99.6716,13.5084 99.3382,12.8417 98.5,12.5C 98.5,12.1667 98.5,11.8333 98.5,11.5C 98.1667,10.8333 97.8333,10.1667 97.5,9.5C 97.5,8.83333 97.1667,8.5 96.5,8.5C 96.1667,7.83333 95.8333,7.16667 95.5,6.5C 95.5,5.83333 95.1667,5.5 94.5,5.5C 94.6716,4.50838 94.3382,3.84171 93.5,3.5C 93.5,2.83333 93.1667,2.5 92.5,2.5C 92.5,2.16667 92.5,1.83333 92.5,1.5C 92.5,0.833333 92.1667,0.5 91.5,0.5 Z"/></g>
<g><path style="opacity:0.87" fill="#edc012" d="M 125.5,-0.5 C 130.167,-0.5 134.833,-0.5 139.5,-0.5C 139.5,1.16667 139.5,2.83333 139.5,4.5C 138.508,4.32842 137.842,4.66175 137.5,5.5C 136.662,5.84171 136.328,6.50838 136.5,7.5C 135.833,7.5 135.5,7.83333 135.5,8.5C 135.5,8.83333 135.5,9.16667 135.5,9.5C 134.662,9.84171 134.328,10.5084 134.5,11.5C 133.326,12.5137 132.66,13.847 132.5,15.5C 131.833,15.5 131.5,15.8333 131.5,16.5C 130.662,16.8417 130.328,17.5084 130.5,18.5C 129.833,18.5 129.5,18.8333 129.5,19.5C 129.5,19.8333 129.5,20.1667 129.5,20.5C 128.833,20.5 128.5,20.8333 128.5,21.5C 128.5,21.8333 128.5,22.1667 128.5,22.5C 128.167,23.1667 127.833,23.8333 127.5,24.5C 126.833,24.5 126.5,24.8333 126.5,25.5C 125.508,25.6716 124.842,25.3382 124.5,24.5C 124.5,23.8333 124.167,23.5 123.5,23.5C 123.771,21.6203 123.104,20.287 121.5,19.5C 120.833,19.5 120.5,19.1667 120.5,18.5C 120.5,18.1667 120.5,17.8333 120.5,17.5C 120.5,17.1667 120.5,16.8333 120.5,16.5C 120.5,15.8333 120.167,15.5 119.5,15.5C 119.672,14.5084 119.338,13.8417 118.5,13.5C 118.5,13.1667 118.5,12.8333 118.5,12.5C 118.5,12.1667 118.5,11.8333 118.5,11.5C 119.167,11.5 119.5,11.1667 119.5,10.5C 119.833,9.83333 120.167,9.16667 120.5,8.5C 120.5,8.16667 120.5,7.83333 120.5,7.5C 121.338,7.15829 121.672,6.49162 121.5,5.5C 122.906,5.02694 123.573,4.02694 123.5,2.5C 123.5,2.16667 123.5,1.83333 123.5,1.5C 124.167,1.5 124.5,1.16667 124.5,0.5C 125.167,0.5 125.5,0.166667 125.5,-0.5 Z"/></g>
<g><path style="opacity:0.008" fill="#000000" d="M 36.5,1.5 C 36.56,0.956913 36.8933,0.62358 37.5,0.5C 39.5,3.16667 41.5,3.16667 43.5,0.5C 43.8333,1.16667 44.1667,1.83333 44.5,2.5C 45.2652,1.38809 46.2652,0.721419 47.5,0.5C 47.5,0.833333 47.5,1.16667 47.5,1.5C 46.1667,1.83333 46.1667,2.16667 47.5,2.5C 47.5,3.16667 47.5,3.83333 47.5,4.5C 45.8974,3.32275 44.564,3.48942 43.5,5C 43.8333,5.33333 44.1667,5.66667 44.5,6C 43.4982,7.15631 42.4982,7.65631 41.5,7.5C 40.5,7.16667 39.8333,6.5 39.5,5.5C 40.675,5.71901 41.675,5.38568 42.5,4.5C 41.7666,3.91297 40.7666,3.91297 39.5,4.5C 38.8333,4.5 38.5,4.16667 38.5,3.5C 37.8333,3.5 37.5,3.16667 37.5,2.5C 36.8333,2.5 36.5,2.16667 36.5,1.5 Z"/></g>
<g><path style="opacity:0.008" fill="#000000" d="M 39.5,1.5 C 39.8966,0.474981 40.5632,0.308314 41.5,1C 40.9056,1.46434 40.2389,1.63101 39.5,1.5 Z"/></g>
<g><path style="opacity:0.008" fill="#000000" d="M 84.5,0.5 C 86.8333,0.5 89.1667,0.5 91.5,0.5C 92.1667,0.5 92.5,0.833333 92.5,1.5C 89.8333,1.83333 89.8333,2.16667 92.5,2.5C 93.1667,2.5 93.5,2.83333 93.5,3.5C 90.7417,4.96651 91.075,5.63318 94.5,5.5C 95.1667,5.5 95.5,5.83333 95.5,6.5C 94.1667,6.83333 92.8333,7.16667 91.5,7.5C 91.1667,6.83333 90.8333,6.16667 90.5,5.5C 89.8333,5.5 89.5,5.16667 89.5,4.5C 89.1667,3.83333 88.8333,3.16667 88.5,2.5C 89.1826,1.35594 88.8493,1.35594 87.5,2.5C 86.2905,2.06795 85.2905,1.40128 84.5,0.5 Z"/></g>
<g><path style="opacity:0.008" fill="#000000" d="M 113.5,4.5 C 112.5,4.16667 111.833,3.5 111.5,2.5C 112.212,1.26126 113.212,0.761256 114.5,1C 114.347,2.20869 114.014,3.37536 113.5,4.5 Z"/></g>
<g><path style="opacity:0.008" fill="#000000" d="M 124.5,0.5 C 124.5,1.16667 124.167,1.5 123.5,1.5C 122.167,1.83333 122.167,2.16667 123.5,2.5C 123.573,4.02694 122.906,5.02694 121.5,5.5C 119.735,4.53862 117.735,4.20528 115.5,4.5C 115.5,3.16667 115.5,1.83333 115.5,0.5C 118.5,0.5 121.5,0.5 124.5,0.5 Z"/></g>
<g><path style="opacity:0.008" fill="#000000" d="M 113.5,5.5 C 116.167,5.5 118.833,5.5 121.5,5.5C 121.672,6.49162 121.338,7.15829 120.5,7.5C 118.379,7.67474 116.379,7.34141 114.5,6.5C 113.833,6.5 113.5,6.16667 113.5,5.5 Z"/></g>
<g><path style="opacity:0.008" fill="#000000" d="M 137.5,5.5 C 138.167,5.5 138.833,5.5 139.5,5.5C 139.5,6.16667 139.5,6.83333 139.5,7.5C 138.5,6.16667 137.5,6.16667 136.5,7.5C 136.328,6.50838 136.662,5.84171 137.5,5.5 Z"/></g>
<g><path style="opacity:0.008" fill="#000000" d="M 92.5,8.5 C 93.8333,8.5 95.1667,8.5 96.5,8.5C 97.1667,8.5 97.5,8.83333 97.5,9.5C 95.917,9.43383 94.2503,9.76716 92.5,10.5C 92.5,9.83333 92.5,9.16667 92.5,8.5 Z"/></g>
<g><path style="opacity:0.008" fill="#000000" d="M 115.5,8.5 C 117.167,8.5 118.833,8.5 120.5,8.5C 120.167,9.16667 119.833,9.83333 119.5,10.5C 118.5,9.16667 117.5,9.16667 116.5,10.5C 115.662,10.1583 115.328,9.49162 115.5,8.5 Z"/></g>
<g><path style="opacity:0.008" fill="#000000" d="M 135.5,9.5 C 135.5,9.16667 135.5,8.83333 135.5,8.5C 136.833,8.5 138.167,8.5 139.5,8.5C 139.5,8.83333 139.5,9.16667 139.5,9.5C 138.036,10.4054 136.702,10.4054 135.5,9.5 Z"/></g>
<g><path style="opacity:0.008" fill="#000000" d="M 19.5,11.5 C 19.8333,11.5 20.1667,11.5 20.5,11.5C 20.6633,13.8568 20.4966,16.1902 20,18.5C 18.9326,17.8095 17.7659,17.3095 16.5,17C 17.624,16.7508 18.624,16.2508 19.5,15.5C 18.3966,15.0024 17.3966,14.6691 16.5,14.5C 17.9935,13.8589 18.9935,12.8589 19.5,11.5 Z"/></g>
<g><path style="opacity:0.008" fill="#000000" d="M 21.5,11.5 C 22.4916,11.3284 23.1583,11.6618 23.5,12.5C 23.6621,14.5273 23.4955,16.5273 23,18.5C 22.5,18 22,17.5 21.5,17C 21.6491,15.1843 21.6491,13.351 21.5,11.5 Z"/></g>
<g><path style="opacity:0.008" fill="#000000" d="M 72.5,11.5 C 73.4916,11.3284 74.1583,11.6618 74.5,12.5C 75.404,13.209 75.7373,14.209 75.5,15.5C 71.5,15.5 67.5,15.5 63.5,15.5C 63.5,14.8333 63.5,14.1667 63.5,13.5C 64.8933,12.7402 66.3933,12.0735 68,11.5C 69.3651,11.8443 70.5318,12.5109 71.5,13.5C 71.7871,12.7997 72.1205,12.1331 72.5,11.5 Z"/></g>
<g><path style="opacity:0.008" fill="#000000" d="M 92.5,11.5 C 94.5,11.5 96.5,11.5 98.5,11.5C 98.5,11.8333 98.5,12.1667 98.5,12.5C 99.3382,12.8417 99.6716,13.5084 99.5,14.5C 98.4719,15.0736 97.4719,15.407 96.5,15.5C 98.0453,16.4519 99.712,16.7852 101.5,16.5C 101.833,17.1667 102.167,17.8333 102.5,18.5C 99.4899,17.186 96.4899,17.186 93.5,18.5C 96.4281,19.4841 99.4281,19.8174 102.5,19.5C 103.167,19.5 103.5,19.8333 103.5,20.5C 104.401,21.2905 105.068,22.2905 105.5,23.5C 100.546,23.2129 95.5462,23.2129 90.5,23.5C 90.8333,22.8333 91.1667,22.1667 91.5,21.5C 92.1667,21.5 92.5,21.1667 92.5,20.5C 92.5,19.1667 92.5,17.8333 92.5,16.5C 93.675,16.719 94.675,16.3857 95.5,15.5C 94.5754,14.4376 93.5754,14.4376 92.5,15.5C 92.5,14.1667 92.5,12.8333 92.5,11.5 Z"/></g>
<g><path style="opacity:0.008" fill="#000000" d="M 134.5,11.5 C 136.167,11.5 137.833,11.5 139.5,11.5C 139.5,11.8333 139.5,12.1667 139.5,12.5C 135.5,12.8333 135.5,13.1667 139.5,13.5C 139.5,14.1667 139.5,14.8333 139.5,15.5C 137.411,14.7365 135.078,14.7365 132.5,15.5C 132.66,13.847 133.326,12.5137 134.5,11.5 Z"/></g>
<g><path style="opacity:0.008" fill="#000000" d="M 42.5,16.5 C 44.1667,16.5 45.8333,16.5 47.5,16.5C 47.5,17.1667 47.5,17.8333 47.5,18.5C 46.1667,18.8333 46.1667,19.1667 47.5,19.5C 47.5,19.8333 47.5,20.1667 47.5,20.5C 46.1667,20.8333 46.1667,21.1667 47.5,21.5C 47.5,22.1667 47.5,22.8333 47.5,23.5C 46.1667,23.8333 46.1667,24.1667 47.5,24.5C 47.5,24.8333 47.5,25.1667 47.5,25.5C 46.1667,26.1667 46.1667,26.8333 47.5,27.5C 47.5,27.8333 47.5,28.1667 47.5,28.5C 46.8826,28.6107 46.3826,28.944 46,29.5C 45.6667,28.1667 45.3333,26.8333 45,25.5C 43.1717,25.6897 41.3384,26.0231 39.5,26.5C 39.3284,25.5084 39.6618,24.8417 40.5,24.5C 42.288,24.7852 43.9547,24.4519 45.5,23.5C 44.3088,23.5953 42.9755,23.262 41.5,22.5C 41.5,22.1667 41.5,21.8333 41.5,21.5C 42.8333,21.5 44.1667,21.5 45.5,21.5C 45.6567,20.1266 45.49,18.7932 45,17.5C 44.3292,18.2524 43.4959,18.5858 42.5,18.5C 42.5,17.8333 42.5,17.1667 42.5,16.5 Z"/></g>
<g><path style="opacity:0.008" fill="#000000" d="M 63.5,16.5 C 67.1667,16.5 70.8333,16.5 74.5,16.5C 74.1667,17.5 73.5,18.1667 72.5,18.5C 71.8333,17.1667 71.1667,17.1667 70.5,18.5C 68.1667,17.1667 65.8333,17.1667 63.5,18.5C 63.5,17.8333 63.5,17.1667 63.5,16.5 Z"/></g>
<g><path style="opacity:0.008" fill="#000000" d="M 131.5,16.5 C 133.604,16.2011 135.604,16.5344 137.5,17.5C 135.3,18.3137 132.967,18.647 130.5,18.5C 130.328,17.5084 130.662,16.8417 131.5,16.5 Z"/></g>
<g><path style="opacity:0.008" fill="#000000" d="M 139.5,16.5 C 139.5,17.1667 139.5,17.8333 139.5,18.5C 138.167,17.8333 138.167,17.1667 139.5,16.5 Z"/></g>
<g><path style="opacity:0.008" fill="#000000" d="M 129.5,20.5 C 129.5,20.1667 129.5,19.8333 129.5,19.5C 132.833,19.5 136.167,19.5 139.5,19.5C 139.5,20.8333 139.5,22.1667 139.5,23.5C 135.911,23.4028 132.245,23.0694 128.5,22.5C 128.5,22.1667 128.5,21.8333 128.5,21.5C 130.224,21.5393 130.557,21.206 129.5,20.5 Z"/></g>
<g><path style="opacity:0.008" fill="#000000" d="M 90.5,23.5 C 94.3525,24.1663 98.3525,24.833 102.5,25.5C 99.4239,26.0673 96.4239,26.4006 93.5,26.5C 98.1196,27.4933 102.786,27.8266 107.5,27.5C 108.167,27.5 108.5,27.8333 108.5,28.5C 100.209,29.7447 92.2094,29.7447 84.5,28.5C 84.5,27.8333 84.8333,27.5 85.5,27.5C 87.924,27.8076 90.2573,27.4742 92.5,26.5C 91.1125,26.1928 89.4458,26.1928 87.5,26.5C 88.1667,25.1667 89.1667,24.1667 90.5,23.5 Z"/></g>
<g><path style="opacity:0.008" fill="#000000" d="M 126.5,25.5 C 126.5,24.8333 126.833,24.5 127.5,24.5C 130.898,24.1796 134.232,24.513 137.5,25.5C 134.424,26.0673 131.424,26.4006 128.5,26.5C 132.107,27.4892 135.774,27.8226 139.5,27.5C 139.5,27.8333 139.5,28.1667 139.5,28.5C 134.176,28.8074 129.176,29.1407 124.5,29.5C 124.5,28.8333 124.5,28.1667 124.5,27.5C 125.675,27.719 126.675,27.3857 127.5,26.5C 127.376,25.8933 127.043,25.56 126.5,25.5 Z"/></g>
<g><path style="opacity:0.008" fill="#000000" d="M 139.5,24.5 C 139.5,24.8333 139.5,25.1667 139.5,25.5C 138.83,25.0187 138.83,24.6853 139.5,24.5 Z"/></g>
<g><path style="opacity:0.008" fill="#000000" d="M 39.5,28.5 C 40.9464,27.3871 42.6131,27.2204 44.5,28C 44,28.5 43.5,29 43,29.5C 41.9887,28.6634 40.8221,28.33 39.5,28.5 Z"/></g>
<g><path style="opacity:0.008" fill="#000000" d="M 33.5,30.5 C 34.552,30.3505 35.552,30.5172 36.5,31C 35.2506,31.7401 34.2506,31.5735 33.5,30.5 Z"/></g>
<g><path style="opacity:0.008" fill="#000000" d="M 37.5,30.5 C 38.8333,31.1667 38.8333,31.1667 37.5,30.5 Z"/></g>
<g><path style="opacity:0.008" fill="#000000" d="M 39.5,31.5 C 40.9464,30.3871 42.6131,30.2204 44.5,31C 42.8659,31.4935 41.1992,31.6602 39.5,31.5 Z"/></g>
<g><path style="opacity:0.008" fill="#000000" d="M 85.5,31.5 C 85.5,31.1667 85.5,30.8333 85.5,30.5C 87.3914,30.8283 88.8914,31.495 90,32.5C 93.104,32.1493 92.9374,31.6493 89.5,31C 92.1667,30.3333 94.8333,30.3333 97.5,31C 96.1667,31.3333 94.8333,31.6667 93.5,32C 98.4889,32.4993 103.489,32.6659 108.5,32.5C 108.5,33.1667 108.5,33.8333 108.5,34.5C 106.662,34.0231 104.828,33.6897 103,33.5C 101.933,34.1905 100.766,34.6905 99.5,35C 102.482,35.498 105.482,35.6646 108.5,35.5C 108.5,36.1667 108.5,36.8333 108.5,37.5C 101.833,37.1667 95.1667,36.8333 88.5,36.5C 87.8333,36.5 87.5,36.1667 87.5,35.5C 90.3356,35.7978 90.8356,35.1311 89,33.5C 88.6174,34.056 88.1174,34.3893 87.5,34.5C 86.8333,34.5 86.5,34.1667 86.5,33.5C 86.5,33.1667 86.5,32.8333 86.5,32.5C 85.8333,32.5 85.5,32.1667 85.5,31.5 Z M 94.5,33.5 C 95.9584,33.5793 97.2917,34.0793 98.5,35C 96.1667,35.6667 93.8333,35.6667 91.5,35C 92.7375,34.7679 93.7375,34.2679 94.5,33.5 Z"/></g>
<g><path style="opacity:0.008" fill="#000000" d="M 124.5,31.5 C 124.5,31.1667 124.5,30.8333 124.5,30.5C 127.438,31.94 132.438,32.6067 139.5,32.5C 139.5,33.1667 139.5,33.8333 139.5,34.5C 137.966,33.7971 136.299,33.9637 134.5,35C 136.134,35.4935 137.801,35.6602 139.5,35.5C 139.5,36.1667 139.5,36.8333 139.5,37.5C 134.589,36.4116 129.589,36.4116 124.5,37.5C 124.5,36.8333 124.5,36.1667 124.5,35.5C 125.833,35.1667 125.833,34.8333 124.5,34.5C 124.5,33.8333 124.5,33.1667 124.5,32.5C 128.5,32.1667 128.5,31.8333 124.5,31.5 Z M 129.5,33.5 C 130.958,33.5793 132.292,34.0793 133.5,35C 131.167,35.6667 128.833,35.6667 126.5,35C 127.737,34.7679 128.737,34.2679 129.5,33.5 Z"/></g>
<g><path style="opacity:0.008" fill="#000000" d="M 139.5,30.5 C 139.5,30.8333 139.5,31.1667 139.5,31.5C 131.5,31.1667 131.5,30.8333 139.5,30.5 Z"/></g>
<g><path style="opacity:0.008" fill="#000000" d="M 22.5,31.5 C 22.8333,31.5 23.1667,31.5 23.5,31.5C 30.3447,32.1666 37.3447,32.8333 44.5,33.5C 44.1667,33.8333 43.8333,34.1667 43.5,34.5C 36.8931,33.5899 30.0598,33.5899 23,34.5C 21.2716,33.6477 21.105,32.6477 22.5,31.5 Z"/></g>
<g><path style="opacity:0.008" fill="#000000" d="M 63.5,32.5 C 64.8333,32.5 66.1667,32.5 67.5,32.5C 68.3382,32.8417 68.6716,33.5084 68.5,34.5C 67.0267,33.9285 65.36,33.9285 63.5,34.5C 63.5,33.8333 63.5,33.1667 63.5,32.5 Z"/></g>
<g><path style="opacity:0.008" fill="#000000" d="M 16.5,36.5 C 17.7082,35.218 19.0416,35.218 20.5,36.5C 19.4425,36.9059 18.1092,36.9059 16.5,36.5 Z"/></g>
<g><path style="opacity:0.008" fill="#000000" d="M 21.5,36.5 C 22.0768,35.2267 22.7435,35.2267 23.5,36.5C 23.0302,37.463 22.3635,37.463 21.5,36.5 Z"/></g>
<g><path style="opacity:0.008" fill="#000000" d="M 24.5,36.5 C 25.9464,35.3871 27.6131,35.2204 29.5,36C 27.701,37.0363 26.0343,37.2029 24.5,36.5 Z"/></g>
<g><path style="opacity:0.008" fill="#000000" d="M 30.5,36.5 C 30.8966,35.475 31.5632,35.3083 32.5,36C 31.9056,36.4643 31.2389,36.631 30.5,36.5 Z"/></g>
<g><path style="opacity:0.008" fill="#000000" d="M 47.5,35.5 C 47.5,35.8333 47.5,36.1667 47.5,36.5C 43.4308,36.9918 39.2641,37.3251 35,37.5C 34.5,37 34,36.5 33.5,36C 38.1548,35.5008 42.8215,35.3342 47.5,35.5 Z"/></g>
<g><path style="opacity:0.008" fill="#000000" d="M 16.5,39.5 C 17.6009,38.4017 18.9343,38.235 20.5,39C 19.2068,39.49 17.8734,39.6567 16.5,39.5 Z"/></g>
<g><path style="opacity:0.008" fill="#000000" d="M 21.5,39.5 C 21.8966,38.475 22.5632,38.3083 23.5,39C 22.9056,39.4643 22.2389,39.631 21.5,39.5 Z"/></g>
<g><path style="opacity:0.008" fill="#000000" d="M 24.5,39.5 C 24.8966,38.475 25.5632,38.3083 26.5,39C 25.9056,39.4643 25.2389,39.631 24.5,39.5 Z"/></g>
<g><path style="opacity:0.008" fill="#000000" d="M 27.5,39.5 C 27.8966,38.475 28.5632,38.3083 29.5,39C 28.9056,39.4643 28.2389,39.631 27.5,39.5 Z"/></g>
<g><path style="opacity:0.008" fill="#000000" d="M 30.5,39.5 C 30.8966,38.475 31.5632,38.3083 32.5,39C 31.9056,39.4643 31.2389,39.631 30.5,39.5 Z"/></g>
<g><path style="opacity:0.008" fill="#000000" d="M 33.5,39.5 C 33.8966,38.475 34.5632,38.3083 35.5,39C 34.9056,39.4643 34.2389,39.631 33.5,39.5 Z"/></g>
<g><path style="opacity:0.008" fill="#000000" d="M 36.5,39.5 C 36.8966,38.475 37.5632,38.3083 38.5,39C 37.9056,39.4643 37.2389,39.631 36.5,39.5 Z"/></g>
<g><path style="opacity:0.008" fill="#000000" d="M 39.5,38.5 C 40.8333,39.1667 40.8333,39.1667 39.5,38.5 Z"/></g>
<g><path style="opacity:0.008" fill="#000000" d="M 47.5,38.5 C 47.5,38.8333 47.5,39.1667 47.5,39.5C 46.1667,39.8333 46.1667,40.1667 47.5,40.5C 47.5,41.1667 47.5,41.8333 47.5,42.5C 46.1667,42.8333 46.1667,43.1667 47.5,43.5C 47.5,44.1667 47.5,44.8333 47.5,45.5C 37.691,45.0763 27.3576,44.743 16.5,44.5C 19.4465,43.6786 22.4465,43.1786 25.5,43C 25.0426,42.586 24.7093,42.086 24.5,41.5C 31.0153,41.0765 37.3487,40.0765 43.5,38.5C 43.8333,39.1667 44.1667,39.8333 44.5,40.5C 45.2652,39.3881 46.2652,38.7214 47.5,38.5 Z M 26.5,41.5 C 33.1656,41.8118 39.4989,42.1451 45.5,42.5C 42.3333,42.8333 39.1667,43.1667 36,43.5C 32.4242,43.4848 29.2575,42.8182 26.5,41.5 Z"/></g>
<g><path style="opacity:0.008" fill="#000000" d="M 88.5,38.5 C 90.1238,38.3601 91.2904,39.0267 92,40.5C 97.1973,38.5798 102.697,37.9132 108.5,38.5C 108.5,38.8333 108.5,39.1667 108.5,39.5C 96.5,39.8333 96.5,40.1667 108.5,40.5C 108.5,41.1667 108.5,41.8333 108.5,42.5C 104.561,41.7115 100.561,41.7115 96.5,42.5C 100.445,43.4909 104.445,43.8242 108.5,43.5C 108.5,43.8333 108.5,44.1667 108.5,44.5C 102.779,44.544 97.1119,44.8773 91.5,45.5C 91.1667,44.8333 90.8333,44.1667 90.5,43.5C 93.1667,43.1667 93.1667,42.8333 90.5,42.5C 90.1667,41.8333 89.8333,41.1667 89.5,40.5C 90.8333,40.1667 90.8333,39.8333 89.5,39.5C 88.8333,39.5 88.5,39.1667 88.5,38.5 Z M 93.5,41.5 C 94.2891,41.7828 94.9558,42.2828 95.5,43C 94.184,43.5281 93.5173,43.0281 93.5,41.5 Z"/></g>
<g><path style="opacity:0.008" fill="#000000" d="M 124.5,39.5 C 124.5,39.1667 124.5,38.8333 124.5,38.5C 125.75,38.5774 126.583,39.244 127,40.5C 130.836,38.6112 135.003,37.9445 139.5,38.5C 139.5,38.8333 139.5,39.1667 139.5,39.5C 132.833,39.8333 132.833,40.1667 139.5,40.5C 139.5,41.1667 139.5,41.8333 139.5,42.5C 136.76,42.3959 134.094,42.3959 131.5,42.5C 134.086,43.48 136.753,43.8134 139.5,43.5C 139.5,44.1667 139.5,44.8333 139.5,45.5C 134.831,44.1731 129.831,44.1731 124.5,45.5C 124.5,44.8333 124.5,44.1667 124.5,43.5C 128.5,43.1667 128.5,42.8333 124.5,42.5C 124.5,41.8333 124.5,41.1667 124.5,40.5C 125.833,40.1667 125.833,39.8333 124.5,39.5 Z M 128.5,41.5 C 129.289,41.7828 129.956,42.2828 130.5,43C 129.184,43.5281 128.517,43.0281 128.5,41.5 Z"/></g>
<g><path style="opacity:0.008" fill="#000000" d="M 16.5,40.5 C 17.9778,40.238 19.3112,40.5713 20.5,41.5C 19.6348,41.5639 18.6348,41.8973 17.5,42.5C 16.7025,42.0431 16.3691,41.3764 16.5,40.5 Z"/></g>
<g><path style="opacity:0.008" fill="#000000" d="M 21.5,40.5 C 23.337,40.6395 23.6704,41.3061 22.5,42.5C 21.7025,42.0431 21.3691,41.3764 21.5,40.5 Z"/></g>
<g><path style="opacity:0.008" fill="#000000" d="M 63.5,40.5 C 65.8333,40.5 68.1667,40.5 70.5,40.5C 71.1667,40.5 71.5,40.8333 71.5,41.5C 68.8333,41.8333 66.1667,42.1667 63.5,42.5C 63.5,41.8333 63.5,41.1667 63.5,40.5 Z"/></g>
<g><path style="opacity:0.008" fill="#000000" d="M 63.5,43.5 C 66.5,43.5 69.5,43.5 72.5,43.5C 72.5,43.8333 72.5,44.1667 72.5,44.5C 69.5749,44.483 66.5749,44.8163 63.5,45.5C 63.5,44.8333 63.5,44.1667 63.5,43.5 Z"/></g>
<g><path style="opacity:0.008" fill="#000000" d="M 16.5,47.5 C 17.6009,46.4017 18.9343,46.235 20.5,47C 19.2068,47.49 17.8734,47.6567 16.5,47.5 Z"/></g>
<g><path style="opacity:0.008" fill="#000000" d="M 21.5,47.5 C 22.0768,46.2267 22.7435,46.2267 23.5,47.5C 23.0302,48.463 22.3635,48.463 21.5,47.5 Z"/></g>
<g><path style="opacity:0.008" fill="#000000" d="M 24.5,47.5 C 25.0768,46.2267 25.7435,46.2267 26.5,47.5C 26.0302,48.463 25.3635,48.463 24.5,47.5 Z"/></g>
<g><path style="opacity:0.008" fill="#000000" d="M 27.5,47.5 C 27.8966,46.475 28.5632,46.3083 29.5,47C 28.9056,47.4643 28.2389,47.631 27.5,47.5 Z"/></g>
<g><path style="opacity:0.008" fill="#000000" d="M 30.5,47.5 C 30.8966,46.475 31.5632,46.3083 32.5,47C 31.9056,47.4643 31.2389,47.631 30.5,47.5 Z"/></g>
<g><path style="opacity:0.008" fill="#000000" d="M 33.5,47.5 C 33.8966,46.475 34.5632,46.3083 35.5,47C 34.9056,47.4643 34.2389,47.631 33.5,47.5 Z"/></g>
<g><path style="opacity:0.008" fill="#000000" d="M 36.5,47.5 C 37.0768,46.2267 37.7435,46.2267 38.5,47.5C 38.0302,48.463 37.3635,48.463 36.5,47.5 Z"/></g>
<g><path style="opacity:0.008" fill="#000000" d="M 39.5,46.5 C 42.0009,46.5109 42.1676,47.1776 40,48.5C 39.5357,47.9056 39.369,47.2389 39.5,46.5 Z"/></g>
<g><path style="opacity:0.008" fill="#000000" d="M 42.5,46.5 C 45.0009,46.5109 45.1676,47.1776 43,48.5C 42.5357,47.9056 42.369,47.2389 42.5,46.5 Z"/></g>
<g><path style="opacity:0.008" fill="#000000" d="M 94.5,47.5 C 95.0768,46.2267 95.7435,46.2267 96.5,47.5C 96.0302,48.463 95.3635,48.463 94.5,47.5 Z"/></g>
<g><path style="opacity:0.008" fill="#000000" d="M 97.5,47.5 C 98.0768,46.2267 98.7435,46.2267 99.5,47.5C 99.0302,48.463 98.3635,48.463 97.5,47.5 Z"/></g>
<g><path style="opacity:0.008" fill="#000000" d="M 108.5,46.5 C 108.5,47.1667 108.5,47.8333 108.5,48.5C 97.9962,47.195 97.9962,46.5284 108.5,46.5 Z"/></g>
<g><path style="opacity:0.008" fill="#000000" d="M 129.5,47.5 C 130.077,46.2267 130.743,46.2267 131.5,47.5C 131.03,48.463 130.363,48.463 129.5,47.5 Z"/></g>
<g><path style="opacity:0.008" fill="#000000" d="M 132.5,47.5 C 133.077,46.2267 133.743,46.2267 134.5,47.5C 134.03,48.463 133.363,48.463 132.5,47.5 Z"/></g>
<g><path style="opacity:0.008" fill="#000000" d="M 139.5,46.5 C 139.5,46.8333 139.5,47.1667 139.5,47.5C 134.167,47.1667 134.167,46.8333 139.5,46.5 Z"/></g>
<g><path style="opacity:0.008" fill="#000000" d="M 18.5,50.5 C 18.8966,49.475 19.5632,49.3083 20.5,50C 19.9056,50.4643 19.2389,50.631 18.5,50.5 Z"/></g>
<g><path style="opacity:0.008" fill="#000000" d="M 22.5,49.5 C 23.8333,50.1667 23.8333,50.1667 22.5,49.5 Z"/></g>
<g><path style="opacity:0.008" fill="#000000" d="M 24.5,50.5 C 24.8966,49.475 25.5632,49.3083 26.5,50C 25.9056,50.4643 25.2389,50.631 24.5,50.5 Z"/></g>
<g><path style="opacity:0.008" fill="#000000" d="M 28.5,49.5 C 29.8333,50.1667 29.8333,50.1667 28.5,49.5 Z"/></g>
<g><path style="opacity:0.008" fill="#000000" d="M 33.5,50.5 C 34.9187,49.5489 36.5853,49.2155 38.5,49.5C 38.6567,50.8734 38.49,52.2068 38,53.5C 35.7378,53.2874 33.2378,52.9541 30.5,52.5C 26.0008,52.7972 25.6675,53.6306 29.5,55C 27.8333,55.6667 26.1667,55.6667 24.5,55C 24.9574,54.586 25.2907,54.086 25.5,53.5C 24.011,53.4669 22.6776,52.9669 21.5,52C 28.3143,52.1135 32.3143,51.6135 33.5,50.5 Z"/></g>
<g><path style="opacity:0.008" fill="#000000" d="M 39.5,50.5 C 40.9187,49.5489 42.5853,49.2155 44.5,49.5C 44.762,50.9778 44.4287,52.3112 43.5,53.5C 42.2798,52.2889 41.1131,52.2889 40,53.5C 39.8333,53.1667 39.6667,52.8333 39.5,52.5C 44.6817,51.224 44.6817,50.5573 39.5,50.5 Z"/></g>
<g><path style="opacity:0.008" fill="#000000" d="M 47.5,49.5 C 46.1405,51.0093 46.6405,51.676 49,51.5C 50.3756,51.3158 51.2089,50.6491 51.5,49.5C 52.8333,49.5 54.1667,49.5 55.5,49.5C 54.7375,50.2679 53.7375,50.7679 52.5,51C 54.1667,51.6667 55.8333,51.6667 57.5,51C 56.944,50.6174 56.6107,50.1174 56.5,49.5C 57.1667,49.5 57.8333,49.5 58.5,49.5C 60.0251,51.0358 62.0251,52.0358 64.5,52.5C 63.6034,52.6691 62.6034,53.0024 61.5,53.5C 64.4465,54.3214 67.4465,54.8214 70.5,55C 66.4656,55.969 62.2989,56.469 58,56.5C 57.5,56 57,55.5 56.5,55C 57.938,54.7811 59.2713,54.2811 60.5,53.5C 59.1667,53.1667 57.8333,52.8333 56.5,52.5C 55.6143,53.325 55.281,54.325 55.5,55.5C 49.198,56.4404 43.3647,56.7738 38,56.5C 36.6012,55.7734 35.1012,55.2734 33.5,55C 38.5329,54.829 43.5329,54.329 48.5,53.5C 47.7261,52.2888 46.8928,52.2888 46,53.5C 45.1558,51.5372 45.6558,50.2039 47.5,49.5 Z M 47.5,49.5 C 48.8333,50.8333 50.1667,50.8333 51.5,49.5C 51.2089,50.6491 50.3756,51.3158 49,51.5C 46.6405,51.676 46.1405,51.0093 47.5,49.5 Z M 55.5,49.5 C 55.8333,49.5 56.1667,49.5 56.5,49.5C 56.6107,50.1174 56.944,50.6174 57.5,51C 55.8333,51.6667 54.1667,51.6667 52.5,51C 53.7375,50.7679 54.7375,50.2679 55.5,49.5 Z M 50.5,52.5 C 52.1033,52.3118 53.4366,52.8118 54.5,54C 52.8333,54.6667 51.1667,54.6667 49.5,54C 50.056,53.6174 50.3893,53.1174 50.5,52.5 Z"/></g>
<g><path style="opacity:0.008" fill="#000000" d="M 65.5,50.5 C 66.9464,49.3871 68.6131,49.2204 70.5,50C 68.8659,50.4935 67.1992,50.6602 65.5,50.5 Z"/></g>
<g><path style="opacity:0.008" fill="#000000" d="M 80.5,49.5 C 84.5,49.5 88.5,49.5 92.5,49.5C 94.3786,49.3932 94.7119,49.8932 93.5,51C 94.8333,51.1667 96.1667,51.3333 97.5,51.5C 100.416,51.7323 102.25,51.0656 103,49.5C 106.104,49.8507 105.937,50.3507 102.5,51C 103.333,51.1667 104.167,51.3333 105,51.5C 106.55,51.1265 107.717,50.4599 108.5,49.5C 109.152,50.7251 110.319,51.3917 112,51.5C 113.681,51.3917 114.848,50.7251 115.5,49.5C 118.5,49.5 121.5,49.5 124.5,49.5C 127.841,49.5622 130.507,50.2289 132.5,51.5C 134.824,50.8176 137.157,50.151 139.5,49.5C 139.5,49.8333 139.5,50.1667 139.5,50.5C 136.833,50.8333 136.833,51.1667 139.5,51.5C 139.5,52.1667 139.5,52.8333 139.5,53.5C 115.091,52.3184 90.5909,52.3184 66,53.5C 65.8333,53.1667 65.6667,52.8333 65.5,52.5C 67.7662,51.6858 70.0995,51.1858 72.5,51C 71.3044,50.3457 71.3044,49.8457 72.5,49.5C 73.7841,50.585 75.2841,51.2517 77,51.5C 78.6811,51.3917 79.8478,50.7251 80.5,49.5 Z M 108.5,49.5 C 110.833,50.8333 113.167,50.8333 115.5,49.5C 114.848,50.7251 113.681,51.3917 112,51.5C 110.319,51.3917 109.152,50.7251 108.5,49.5 Z"/></g>
<g><path style="opacity:0.008" fill="#000000" d="M 130.5,50.5 C 131.601,49.4017 132.934,49.235 134.5,50C 133.207,50.49 131.873,50.6567 130.5,50.5 Z"/></g>
<g><path style="opacity:0.008" fill="#000000" d="M -0.5,51.5 C 0.833333,52.1667 0.833333,52.1667 -0.5,51.5 Z"/></g>
<g><path style="opacity:0.008" fill="#000000" d="M 2.5,52.5 C 4.62816,51.3709 6.96149,51.2042 9.5,52C 8.23409,52.3095 7.06743,52.8095 6,53.5C 4.98873,52.6634 3.82207,52.33 2.5,52.5 Z"/></g>
<g><path style="opacity:0.008" fill="#000000" d="M 10.5,51.5 C 13.8499,51.335 17.1832,51.5017 20.5,52C 17.1498,52.8835 13.9831,53.3835 11,53.5C 10.5357,52.9056 10.369,52.2389 10.5,51.5 Z"/></g>
<g><path style="opacity:0.008" fill="#000000" d="M -0.5,54.5 C 0.833333,55.1667 0.833333,55.1667 -0.5,54.5 Z"/></g>
<g><path style="opacity:0.008" fill="#000000" d="M 4.5,55.5 C 5.94639,54.3871 7.61305,54.2204 9.5,55C 7.86586,55.4935 6.19919,55.6602 4.5,55.5 Z"/></g>
<g><path style="opacity:0.008" fill="#000000" d="M 10.5,55.5 C 10.8966,54.475 11.5632,54.3083 12.5,55C 11.9056,55.4643 11.2389,55.631 10.5,55.5 Z"/></g>
<g><path style="opacity:0.008" fill="#000000" d="M 13.5,55.5 C 13.8966,54.475 14.5632,54.3083 15.5,55C 14.9056,55.4643 14.2389,55.631 13.5,55.5 Z"/></g>
<g><path style="opacity:0.008" fill="#000000" d="M 16.5,55.5 C 16.8966,54.475 17.5632,54.3083 18.5,55C 17.9056,55.4643 17.2389,55.631 16.5,55.5 Z"/></g>
<g><path style="opacity:0.008" fill="#000000" d="M 19.5,54.5 C 20.525,54.8966 20.6917,55.5632 20,56.5C 19.5357,55.9056 19.369,55.2389 19.5,54.5 Z"/></g>
<g><path style="opacity:0.008" fill="#000000" d="M 21.5,55.5 C 21.8966,54.475 22.5632,54.3083 23.5,55C 22.9056,55.4643 22.2389,55.631 21.5,55.5 Z"/></g>
<g><path style="opacity:0.008" fill="#000000" d="M 31.5,54.5 C 32.8333,55.1667 32.8333,55.1667 31.5,54.5 Z"/></g>
<g><path style="opacity:0.008" fill="#000000" d="M 71.5,54.5 C 82.8382,54.3335 94.1716,54.5001 105.5,55C 104.128,55.4017 102.795,55.9017 101.5,56.5C 91.8333,55.1667 82.1667,55.1667 72.5,56.5C 71.7025,56.0431 71.3691,55.3764 71.5,54.5 Z"/></g>
<g><path style="opacity:0.008" fill="#000000" d="M 139.5,54.5 C 139.5,54.8333 139.5,55.1667 139.5,55.5C 128.429,55.7382 117.429,55.7382 106.5,55.5C 117.48,54.5012 128.48,54.1679 139.5,54.5 Z"/></g>
<g><path style="opacity:0.008" fill="#000000" d="M -0.5,57.5 C 0.833333,58.1667 0.833333,58.1667 -0.5,57.5 Z"/></g>
<g><path style="opacity:0.008" fill="#000000" d="M 4.5,58.5 C 4.89657,57.475 5.56323,57.3083 6.5,58C 5.90558,58.4643 5.23891,58.631 4.5,58.5 Z"/></g>
<g><path style="opacity:0.008" fill="#000000" d="M 7.5,58.5 C 7.89657,57.475 8.56323,57.3083 9.5,58C 8.90558,58.4643 8.23891,58.631 7.5,58.5 Z"/></g>
<g><path style="opacity:0.008" fill="#000000" d="M 17.5,61.5 C 16.5,60.1667 15.5,60.1667 14.5,61.5C 13.6043,60.4937 12.9377,60.4937 12.5,61.5C 11.0387,60.3143 9.7054,60.3143 8.5,61.5C 6.63603,61.6792 4.63603,61.1792 2.5,60C 5.76306,59.9355 8.76306,59.1022 11.5,57.5C 12.6956,57.8457 12.6956,58.3457 11.5,59C 14.5535,59.1786 17.5535,59.6786 20.5,60.5C 19.675,61.3857 18.675,61.719 17.5,61.5 Z"/></g>
<g><path style="opacity:0.008" fill="#000000" d="M 13.5,58.5 C 13.8966,57.475 14.5632,57.3083 15.5,58C 14.9056,58.4643 14.2389,58.631 13.5,58.5 Z"/></g>
<g><path style="opacity:0.008" fill="#000000" d="M 16.5,57.5 C 17.8333,58.1667 17.8333,58.1667 16.5,57.5 Z"/></g>
<g><path style="opacity:0.008" fill="#000000" d="M 19.5,57.5 C 20.8333,58.1667 20.8333,58.1667 19.5,57.5 Z"/></g>
<g><path style="opacity:0.008" fill="#000000" d="M 22.5,57.5 C 23.8333,58.1667 23.8333,58.1667 22.5,57.5 Z"/></g>
<g><path style="opacity:0.008" fill="#000000" d="M 25.5,57.5 C 26.8333,58.1667 26.8333,58.1667 25.5,57.5 Z"/></g>
<g><path style="opacity:0.008" fill="#000000" d="M 27.5,58.5 C 27.8966,57.475 28.5632,57.3083 29.5,58C 28.9056,58.4643 28.2389,58.631 27.5,58.5 Z"/></g>
<g><path style="opacity:0.008" fill="#000000" d="M 30.5,58.5 C 30.8966,57.475 31.5632,57.3083 32.5,58C 31.9056,58.4643 31.2389,58.631 30.5,58.5 Z"/></g>
<g><path style="opacity:0.008" fill="#000000" d="M 33.5,58.5 C 34.9464,57.3871 36.6131,57.2204 38.5,58C 36.8659,58.4935 35.1992,58.6602 33.5,58.5 Z"/></g>
<g><path style="opacity:0.008" fill="#000000" d="M 39.5,58.5 C 40.9464,57.3871 42.6131,57.2204 44.5,58C 42.8659,58.4935 41.1992,58.6602 39.5,58.5 Z"/></g>
<g><path style="opacity:0.008" fill="#000000" d="M 45.5,58.5 C 45.8966,57.475 46.5632,57.3083 47.5,58C 46.9056,58.4643 46.2389,58.631 45.5,58.5 Z"/></g>
<g><path style="opacity:0.008" fill="#000000" d="M 48.5,58.5 C 48.8966,57.475 49.5632,57.3083 50.5,58C 49.9056,58.4643 49.2389,58.631 48.5,58.5 Z"/></g>
<g><path style="opacity:0.008" fill="#000000" d="M 139.5,59.5 C 139.5,60.1667 139.5,60.8333 139.5,61.5C 134.021,61.1247 128.354,61.1247 122.5,61.5C 120.833,60.1667 119.167,60.1667 117.5,61.5C 114.833,61.5 112.167,61.5 109.5,61.5C 108.791,60.596 107.791,60.2627 106.5,60.5C 103.811,60.1642 101.478,60.4975 99.5,61.5C 96.728,60.2329 94.0613,60.2329 91.5,61.5C 89.3792,61.6747 87.3792,61.3414 85.5,60.5C 82.9407,60.1984 80.6074,60.5318 78.5,61.5C 76.0592,61.4216 73.7259,61.0883 71.5,60.5C 70.5,60.5 69.5,60.5 68.5,60.5C 66.1667,60.5 63.8333,60.5 61.5,60.5C 60.8333,60.5 60.1667,60.5 59.5,60.5C 58.5,61.8333 57.5,61.8333 56.5,60.5C 55.5,60.5 54.5,60.5 53.5,60.5C 52.1667,61.1667 52.1667,61.8333 53.5,62.5C 53.5,62.8333 53.5,63.1667 53.5,63.5C 52.1667,64.1667 52.1667,64.8333 53.5,65.5C 53.5,65.8333 53.5,66.1667 53.5,66.5C 52.3115,67.0476 51.1448,67.3809 50,67.5C 49.5,67 49,66.5 48.5,66C 49.624,65.7508 50.624,65.2508 51.5,64.5C 51.1667,64.1667 50.8333,63.8333 50.5,63.5C 47.9157,64.0854 45.249,64.0854 42.5,63.5C 43.5676,62.5655 44.901,62.2322 46.5,62.5C 48.288,62.7852 49.9547,62.4519 51.5,61.5C 50.2114,61.1677 48.5447,60.8344 46.5,60.5C 44.1667,60.5 41.8333,60.5 39.5,60.5C 37.3742,60.8499 35.0408,60.8499 32.5,60.5C 29.7212,60.2786 27.0545,60.612 24.5,61.5C 33.902,60.0717 43.5687,58.7384 53.5,57.5C 54.1667,57.6667 54.8333,57.8333 55.5,58C 52.0626,58.6493 51.896,59.1493 55,59.5C 56.3261,59.2451 57.3261,58.5784 58,57.5C 61.0636,58.7832 64.3969,59.4499 68,59.5C 71.1667,59.3333 74.3333,59.1667 77.5,59C 74.0626,58.3507 73.896,57.8507 77,57.5C 77.8333,57.6667 78.6667,57.8333 79.5,58C 79.1667,58.3333 78.8333,58.6667 78.5,59C 83.1667,59.6667 87.8333,59.6667 92.5,59C 88.5,58.6667 84.5,58.3333 80.5,58C 85.402,56.9752 90.0687,57.4752 94.5,59.5C 95.1924,58.9747 95.6924,58.3081 96,57.5C 96.3076,58.3081 96.8076,58.9747 97.5,59.5C 97.8333,58.8333 98.1667,58.1667 98.5,57.5C 102.931,59.5248 107.598,60.0248 112.5,59C 109.063,58.3507 108.896,57.8507 112,57.5C 112.833,57.6667 113.667,57.8333 114.5,58C 114.167,58.3333 113.833,58.6667 113.5,59C 118.167,59.6667 122.833,59.6667 127.5,59C 123.5,58.6667 119.5,58.3333 115.5,58C 120.402,56.9752 125.069,57.4752 129.5,59.5C 130.192,58.9747 130.692,58.3081 131,57.5C 131.308,58.3081 131.808,58.9747 132.5,59.5C 132.833,58.8333 133.167,58.1667 133.5,57.5C 135.179,59.1045 137.179,59.7711 139.5,59.5 Z"/></g>
<g><path style="opacity:0.008" fill="#000000" d="M 59.5,58.5 C 59.8966,57.475 60.5632,57.3083 61.5,58C 60.9056,58.4643 60.2389,58.631 59.5,58.5 Z"/></g>
<g><path style="opacity:0.008" fill="#000000" d="M 63.5,57.5 C 64.8333,58.1667 64.8333,58.1667 63.5,57.5 Z"/></g>
<g><path style="opacity:0.008" fill="#000000" d="M 65.5,58.5 C 65.8966,57.475 66.5632,57.3083 67.5,58C 66.9056,58.4643 66.2389,58.631 65.5,58.5 Z"/></g>
<g><path style="opacity:0.008" fill="#000000" d="M 68.5,58.5 C 68.8966,57.475 69.5632,57.3083 70.5,58C 69.9056,58.4643 69.2389,58.631 68.5,58.5 Z"/></g>
<g><path style="opacity:0.008" fill="#000000" d="M 71.5,58.5 C 71.8966,57.475 72.5632,57.3083 73.5,58C 72.9056,58.4643 72.2389,58.631 71.5,58.5 Z"/></g>
<g><path style="opacity:0.008" fill="#000000" d="M 100.5,58.5 C 100.897,57.475 101.563,57.3083 102.5,58C 101.906,58.4643 101.239,58.631 100.5,58.5 Z"/></g>
<g><path style="opacity:0.008" fill="#000000" d="M 103.5,58.5 C 103.897,57.475 104.563,57.3083 105.5,58C 104.906,58.4643 104.239,58.631 103.5,58.5 Z"/></g>
<g><path style="opacity:0.008" fill="#000000" d="M 106.5,58.5 C 106.897,57.475 107.563,57.3083 108.5,58C 107.906,58.4643 107.239,58.631 106.5,58.5 Z"/></g>
<g><path style="opacity:0.008" fill="#000000" d="M 135.5,58.5 C 135.897,57.475 136.563,57.3083 137.5,58C 136.906,58.4643 136.239,58.631 135.5,58.5 Z"/></g>
<g><path style="opacity:0.008" fill="#000000" d="M 139.5,57.5 C 139.5,57.8333 139.5,58.1667 139.5,58.5C 138.83,58.0187 138.83,57.6853 139.5,57.5 Z"/></g>
<g><path style="opacity:0.008" fill="#000000" d="M 21.5,60.5 C 22.0768,59.2267 22.7435,59.2267 23.5,60.5C 23.0302,61.463 22.3635,61.463 21.5,60.5 Z"/></g>
<g><path style="opacity:0.675" fill="#999a9d" d="M -0.5,59.5 C 1.30794,60.9179 1.97461,62.9179 1.5,65.5C 1.5,65.8333 1.5,66.1667 1.5,66.5C 1.5,68.5 1.5,70.5 1.5,72.5C 0.833333,72.5 0.166667,72.5 -0.5,72.5C -0.5,68.1667 -0.5,63.8333 -0.5,59.5 Z"/></g>
<g><path style="opacity:0.518" fill="#87898b" d="M 12.5,61.5 C 12.7856,63.9327 13.4523,63.9327 14.5,61.5C 15.5,60.1667 16.5,60.1667 17.5,61.5C 17.5,61.8333 17.5,62.1667 17.5,62.5C 17.5,62.8333 17.5,63.1667 17.5,63.5C 17.8807,64.9311 18.8807,65.7645 20.5,66C 19.376,66.2492 18.376,66.7492 17.5,67.5C 18.7914,68.5272 18.7914,69.5272 17.5,70.5C 17.5,71.1667 17.5,71.8333 17.5,72.5C 16.1667,72.5 14.8333,72.5 13.5,72.5C 13.719,71.325 13.3857,70.325 12.5,69.5C 12.4827,70.3937 12.1494,71.3937 11.5,72.5C 10.5,72.5 9.5,72.5 8.5,72.5C 8.45801,70.8543 8.45801,69.1877 8.5,67.5C 6.25731,66.5258 3.92397,66.1924 1.5,66.5C 1.5,66.1667 1.5,65.8333 1.5,65.5C 3.92397,65.8076 6.25731,65.4742 8.5,64.5C 7.20859,63.4728 7.20859,62.4728 8.5,61.5C 9.7054,60.3143 11.0387,60.3143 12.5,61.5 Z M 14.5,61.5 C 13.4523,63.9327 12.7856,63.9327 12.5,61.5C 12.9377,60.4937 13.6043,60.4937 14.5,61.5 Z"/></g>
<g><path style="opacity:0.494" fill="#8f9193" d="M 32.5,60.5 C 33.165,63.8884 32.165,64.8884 29.5,63.5C 28.263,63.5565 27.263,64.0565 26.5,65C 28.8098,65.4966 31.1432,65.6633 33.5,65.5C 33.5,65.8333 33.5,66.1667 33.5,66.5C 34.4054,67.9643 34.4054,69.2976 33.5,70.5C 33.5,70.8333 33.5,71.1667 33.5,71.5C 33.5,71.8333 33.5,72.1667 33.5,72.5C 30.8333,72.5 28.1667,72.5 25.5,72.5C 25.5,71.8333 25.1667,71.5 24.5,71.5C 24.5,71.1667 24.5,70.8333 24.5,70.5C 23.5038,69.123 22.5038,67.623 21.5,66C 23.8912,65.3086 23.8912,64.3086 21.5,63C 22.4491,62.3828 23.2825,62.5494 24,63.5C 24.4643,62.9056 24.631,62.2389 24.5,61.5C 27.0545,60.612 29.7212,60.2786 32.5,60.5 Z M 26.5,66.5 C 27.8149,67.4756 29.1482,68.4756 30.5,69.5C 27.5812,70.9318 26.2479,69.9318 26.5,66.5 Z"/></g>
<g><path style="opacity:0.557" fill="#989a9d" d="M 39.5,60.5 C 41.8333,60.5 44.1667,60.5 46.5,60.5C 46.5,61.1667 46.5,61.8333 46.5,62.5C 44.901,62.2322 43.5676,62.5655 42.5,63.5C 43.5893,65.1171 45.256,65.9504 47.5,66C 46.8095,67.0674 46.3095,68.2341 46,69.5C 45.2747,67.842 44.108,67.342 42.5,68C 45.1667,68.6667 45.1667,69.3333 42.5,70C 44.1341,70.4935 45.8008,70.6602 47.5,70.5C 47.5,70.8333 47.5,71.1667 47.5,71.5C 47.5,71.8333 47.5,72.1667 47.5,72.5C 44.8333,72.5 42.1667,72.5 39.5,72.5C 39.5,70.5 39.5,68.5 39.5,66.5C 39.5,66.1667 39.5,65.8333 39.5,65.5C 39.5,63.8333 39.5,62.1667 39.5,60.5 Z"/></g>
<g><path style="opacity:0.648" fill="#888a8c" d="M 53.5,60.5 C 54.5,60.5 55.5,60.5 56.5,60.5C 57.5,63.1667 58.5,63.1667 59.5,60.5C 60.1667,60.5 60.8333,60.5 61.5,60.5C 63.2789,62.3435 65.6122,63.0102 68.5,62.5C 68.5,62.8333 68.5,63.1667 68.5,63.5C 65.6122,62.9898 63.2789,63.6565 61.5,65.5C 61.5,65.8333 61.5,66.1667 61.5,66.5C 62.4054,67.9643 62.4054,69.2976 61.5,70.5C 61.5,70.8333 61.5,71.1667 61.5,71.5C 61.5,71.8333 61.5,72.1667 61.5,72.5C 60.1667,72.5 58.8333,72.5 57.5,72.5C 57.8361,70.5248 57.3361,68.5248 56,66.5C 55.5045,68.4727 55.3379,70.4727 55.5,72.5C 54.8333,72.5 54.1667,72.5 53.5,72.5C 53.5,72.1667 53.5,71.8333 53.5,71.5C 53.5,71.1667 53.5,70.8333 53.5,70.5C 53.5,69.1667 53.5,67.8333 53.5,66.5C 53.5,66.1667 53.5,65.8333 53.5,65.5C 53.5,64.8333 53.5,64.1667 53.5,63.5C 53.5,63.1667 53.5,62.8333 53.5,62.5C 53.5,61.8333 53.5,61.1667 53.5,60.5 Z M 56.5,60.5 C 57.5,61.8333 58.5,61.8333 59.5,60.5C 58.5,63.1667 57.5,63.1667 56.5,60.5 Z"/></g>
<g><path style="opacity:0.463" fill="#999a9d" d="M 68.5,60.5 C 69.5,60.5 70.5,60.5 71.5,60.5C 71.5,61.1667 71.5,61.8333 71.5,62.5C 71.5,62.8333 71.5,63.1667 71.5,63.5C 71.5,64.1667 71.5,64.8333 71.5,65.5C 71.5,65.8333 71.5,66.1667 71.5,66.5C 71.5,67.1667 71.5,67.8333 71.5,68.5C 71.5,69.8333 71.5,71.1667 71.5,72.5C 70.5,72.5 69.5,72.5 68.5,72.5C 68.5,72.1667 68.5,71.8333 68.5,71.5C 68.5,71.1667 68.5,70.8333 68.5,70.5C 67.7375,69.7321 66.7375,69.2321 65.5,69C 67.1193,68.7645 68.1193,67.9311 68.5,66.5C 68.5,66.1667 68.5,65.8333 68.5,65.5C 68.5,64.8333 68.5,64.1667 68.5,63.5C 68.5,63.1667 68.5,62.8333 68.5,62.5C 68.5,61.8333 68.5,61.1667 68.5,60.5 Z"/></g>
<g><path style="opacity:0.652" fill="#9fa1a4" d="M 85.5,60.5 C 85.5,61.1667 85.5,61.8333 85.5,62.5C 83.2188,62.0773 81.5521,62.744 80.5,64.5C 81.5676,65.4345 82.901,65.7678 84.5,65.5C 84.5,66.1667 84.5,66.8333 84.5,67.5C 84.1667,67.5 83.8333,67.5 83.5,67.5C 80.038,69.1927 80.038,70.1927 83.5,70.5C 83.8333,70.5 84.1667,70.5 84.5,70.5C 84.8333,70.5 85.1667,70.5 85.5,70.5C 85.5,71.1667 85.5,71.8333 85.5,72.5C 83.1667,72.5 80.8333,72.5 78.5,72.5C 78.5,70.1667 78.5,67.8333 78.5,65.5C 78.5,65.1667 78.5,64.8333 78.5,64.5C 78.5,63.8333 78.5,63.1667 78.5,62.5C 78.5,62.1667 78.5,61.8333 78.5,61.5C 80.6074,60.5318 82.9407,60.1984 85.5,60.5 Z"/></g>
<g><path style="opacity:0.53" fill="#a1a3a6" d="M 99.5,61.5 C 99.5,61.8333 99.5,62.1667 99.5,62.5C 99.5,62.8333 99.5,63.1667 99.5,63.5C 99.5,64.1667 99.5,64.8333 99.5,65.5C 99.5,65.8333 99.5,66.1667 99.5,66.5C 98.6618,66.8417 98.3284,67.5084 98.5,68.5C 98.5,69.1667 98.8333,69.5 99.5,69.5C 99.5,70.1667 99.8333,70.5 100.5,70.5C 100.5,71.1667 100.5,71.8333 100.5,72.5C 99.5,72.5 98.5,72.5 97.5,72.5C 97.5,71.8333 97.1667,71.5 96.5,71.5C 96.5,70.8333 96.1667,70.5 95.5,70.5C 95.1667,69.1667 94.8333,69.1667 94.5,70.5C 94.5,71.1667 94.5,71.8333 94.5,72.5C 93.5,72.5 92.5,72.5 91.5,72.5C 91.5,71.8333 91.5,71.1667 91.5,70.5C 91.5,70.1667 91.5,69.8333 91.5,69.5C 91.5,68.1667 91.5,66.8333 91.5,65.5C 91.5,64.8333 91.5,64.1667 91.5,63.5C 91.5,63.1667 91.5,62.8333 91.5,62.5C 91.5,62.1667 91.5,61.8333 91.5,61.5C 94.0613,60.2329 96.728,60.2329 99.5,61.5 Z M 94.5,63.5 C 97.7973,63.3287 98.1306,63.9954 95.5,65.5C 94.7025,65.0431 94.3691,64.3764 94.5,63.5 Z"/></g>
<g><path style="opacity:0.452" fill="#999a9d" d="M 106.5,60.5 C 107.791,60.2627 108.791,60.596 109.5,61.5C 109.5,61.8333 109.5,62.1667 109.5,62.5C 109.5,62.8333 109.5,63.1667 109.5,63.5C 109.5,64.1667 109.5,64.8333 109.5,65.5C 109.5,65.8333 109.5,66.1667 109.5,66.5C 109.5,67.1667 109.5,67.8333 109.5,68.5C 109.5,68.8333 109.5,69.1667 109.5,69.5C 109.5,69.8333 109.5,70.1667 109.5,70.5C 109.5,71.1667 109.5,71.8333 109.5,72.5C 108.5,72.5 107.5,72.5 106.5,72.5C 106.5,72.1667 106.5,71.8333 106.5,71.5C 106.5,71.1667 106.5,70.8333 106.5,70.5C 106.5,70.1667 106.5,69.8333 106.5,69.5C 106.5,69.1667 106.5,68.8333 106.5,68.5C 106.5,67.8333 106.5,67.1667 106.5,66.5C 106.5,66.1667 106.5,65.8333 106.5,65.5C 106.119,64.0689 105.119,63.2355 103.5,63C 105.119,62.7645 106.119,61.9311 106.5,60.5 Z"/></g>
<g><path style="opacity:0.542" fill="#a1a3a6" d="M 122.5,61.5 C 122.5,61.8333 122.5,62.1667 122.5,62.5C 122.5,62.8333 122.5,63.1667 122.5,63.5C 122.833,64.1667 123.167,64.8333 123.5,65.5C 123.5,65.8333 123.5,66.1667 123.5,66.5C 123.5,67.1667 123.833,67.5 124.5,67.5C 124.5,67.8333 124.5,68.1667 124.5,68.5C 124.328,69.4916 124.662,70.1583 125.5,70.5C 125.5,71.1667 125.5,71.8333 125.5,72.5C 124.5,72.5 123.5,72.5 122.5,72.5C 122.167,71.8333 121.833,71.1667 121.5,70.5C 121.158,69.6618 120.492,69.3284 119.5,69.5C 118.094,69.9731 117.427,70.9731 117.5,72.5C 116.5,72.5 115.5,72.5 114.5,72.5C 114.5,71.8333 114.5,71.1667 114.5,70.5C 115.167,70.5 115.5,70.1667 115.5,69.5C 115.5,69.1667 115.5,68.8333 115.5,68.5C 115.5,68.1667 115.5,67.8333 115.5,67.5C 116.338,67.1583 116.672,66.4916 116.5,65.5C 116.5,65.1667 116.5,64.8333 116.5,64.5C 117.167,64.5 117.5,64.1667 117.5,63.5C 117.5,63.1667 117.5,62.8333 117.5,62.5C 117.5,62.1667 117.5,61.8333 117.5,61.5C 119.167,60.1667 120.833,60.1667 122.5,61.5 Z"/></g>
<g><path style="opacity:0.008" fill="#000000" d="M 2.5,63.5 C 3.60093,62.4017 4.93426,62.235 6.5,63C 5.20677,63.49 3.87344,63.6567 2.5,63.5 Z"/></g>
<g><path style="opacity:0.008" fill="#000000" d="M 17.5,63.5 C 17.5,63.1667 17.5,62.8333 17.5,62.5C 18.675,62.281 19.675,62.6143 20.5,63.5C 19.7666,64.087 18.7666,64.087 17.5,63.5 Z"/></g>
<g><path style="opacity:0.008" fill="#000000" d="M 71.5,63.5 C 71.5,63.1667 71.5,62.8333 71.5,62.5C 73.8333,62.5 76.1667,62.5 78.5,62.5C 78.5,63.1667 78.5,63.8333 78.5,64.5C 76.283,63.6314 73.9496,63.298 71.5,63.5 Z"/></g>
<g><path style="opacity:0.008" fill="#000000" d="M 85.5,62.5 C 87.5,62.5 89.5,62.5 91.5,62.5C 91.5,62.8333 91.5,63.1667 91.5,63.5C 87.9114,63.5972 84.2447,63.9306 80.5,64.5C 81.5521,62.744 83.2188,62.0773 85.5,62.5 Z"/></g>
<g><path style="opacity:0.008" fill="#000000" d="M 99.5,63.5 C 99.5,63.1667 99.5,62.8333 99.5,62.5C 100.675,62.281 101.675,62.6143 102.5,63.5C 101.767,64.087 100.767,64.087 99.5,63.5 Z"/></g>
<g><path style="opacity:0.008" fill="#000000" d="M 109.5,63.5 C 109.5,63.1667 109.5,62.8333 109.5,62.5C 112.167,62.5 114.833,62.5 117.5,62.5C 117.5,62.8333 117.5,63.1667 117.5,63.5C 116.833,63.5 116.5,63.8333 116.5,64.5C 114.22,64.6462 111.887,64.3129 109.5,63.5 Z"/></g>
<g><path style="opacity:0.008" fill="#000000" d="M 122.5,63.5 C 122.5,63.1667 122.5,62.8333 122.5,62.5C 127.544,62.1725 132.544,62.5059 137.5,63.5C 132.609,63.7232 127.609,63.7232 122.5,63.5 Z"/></g>
<g><path style="opacity:0.008" fill="#000000" d="M 139.5,62.5 C 139.5,62.8333 139.5,63.1667 139.5,63.5C 138.83,63.0187 138.83,62.6853 139.5,62.5 Z"/></g>
<g><path style="opacity:0.008" fill="#000000" d="M 33.5,66.5 C 33.5,66.1667 33.5,65.8333 33.5,65.5C 35.5,65.5 37.5,65.5 39.5,65.5C 39.5,65.8333 39.5,66.1667 39.5,66.5C 37.7033,66.9349 35.7033,66.9349 33.5,66.5 Z"/></g>
<g><path style="opacity:0.008" fill="#000000" d="M 61.5,66.5 C 61.5,66.1667 61.5,65.8333 61.5,65.5C 63.8333,65.5 66.1667,65.5 68.5,65.5C 68.5,65.8333 68.5,66.1667 68.5,66.5C 66.002,67.0818 63.6687,67.0818 61.5,66.5 Z"/></g>
<g><path style="opacity:0.008" fill="#000000" d="M 71.5,66.5 C 71.5,66.1667 71.5,65.8333 71.5,65.5C 73.8333,65.5 76.1667,65.5 78.5,65.5C 78.5,67.8333 78.5,70.1667 78.5,72.5C 78.1667,72.5 77.8333,72.5 77.5,72.5C 77.1667,71.1667 76.8333,71.1667 76.5,72.5C 75.8333,72.5 75.1667,72.5 74.5,72.5C 74.8807,71.0689 75.8807,70.2355 77.5,70C 73.6395,69.4309 73.6395,68.5976 77.5,67.5C 75.7309,66.6607 73.7309,66.3273 71.5,66.5 Z"/></g>
<g><path style="opacity:0.008" fill="#000000" d="M 84.5,65.5 C 86.8333,65.5 89.1667,65.5 91.5,65.5C 91.5,66.8333 91.5,68.1667 91.5,69.5C 90.1667,69.8333 90.1667,70.1667 91.5,70.5C 91.5,71.1667 91.5,71.8333 91.5,72.5C 90.8333,72.5 90.1667,72.5 89.5,72.5C 89.1667,71.1667 88.8333,71.1667 88.5,72.5C 87.5,72.5 86.5,72.5 85.5,72.5C 85.5,71.8333 85.5,71.1667 85.5,70.5C 90.1393,69.6286 89.8059,69.6286 84.5,70.5C 84.1667,70.5 83.8333,70.5 83.5,70.5C 82.1667,69.5 82.1667,68.5 83.5,67.5C 83.8333,67.5 84.1667,67.5 84.5,67.5C 84.5,66.8333 84.5,66.1667 84.5,65.5 Z M 84.5,67.5 C 86.1439,67.7135 87.6439,67.3802 89,66.5C 89.5,67 90,67.5 90.5,68C 88.2884,68.7891 86.2884,68.6225 84.5,67.5 Z"/></g>
<g><path style="opacity:0.008" fill="#000000" d="M 99.5,66.5 C 99.5,66.1667 99.5,65.8333 99.5,65.5C 101.833,65.5 104.167,65.5 106.5,65.5C 106.5,65.8333 106.5,66.1667 106.5,66.5C 104.302,67.0671 101.969,67.0671 99.5,66.5 Z"/></g>
<g><path style="opacity:0.008" fill="#000000" d="M 109.5,66.5 C 109.5,66.1667 109.5,65.8333 109.5,65.5C 111.833,65.5 114.167,65.5 116.5,65.5C 116.672,66.4916 116.338,67.1583 115.5,67.5C 114.923,66.2267 114.257,66.2267 113.5,67.5C 113.957,68.2975 114.624,68.6309 115.5,68.5C 115.5,68.8333 115.5,69.1667 115.5,69.5C 113.776,69.4607 113.443,69.794 114.5,70.5C 114.5,71.1667 114.5,71.8333 114.5,72.5C 113.833,72.5 113.167,72.5 112.5,72.5C 112.167,71.1667 111.833,71.1667 111.5,72.5C 110.833,72.5 110.167,72.5 109.5,72.5C 109.5,71.8333 109.5,71.1667 109.5,70.5C 113.5,70.1667 113.5,69.8333 109.5,69.5C 109.5,69.1667 109.5,68.8333 109.5,68.5C 110.675,68.719 111.675,68.3857 112.5,67.5C 111.606,67.4827 110.606,67.1494 109.5,66.5 Z"/></g>
<g><path style="opacity:0.008" fill="#000000" d="M 123.5,66.5 C 123.5,66.1667 123.5,65.8333 123.5,65.5C 128.833,65.5 134.167,65.5 139.5,65.5C 139.5,66.1667 139.5,66.8333 139.5,67.5C 135.388,67.0527 131.721,67.0527 128.5,67.5C 131.263,68.1432 133.097,69.1432 134,70.5C 137.104,70.1493 136.937,69.6493 133.5,69C 135.473,68.5045 137.473,68.3379 139.5,68.5C 139.5,68.8333 139.5,69.1667 139.5,69.5C 136.833,69.8333 136.833,70.1667 139.5,70.5C 139.5,71.1667 139.5,71.8333 139.5,72.5C 139.167,72.5 138.833,72.5 138.5,72.5C 138.167,71.1667 137.833,71.1667 137.5,72.5C 136.833,72.5 136.167,72.5 135.5,72.5C 135.167,71.1667 134.833,71.1667 134.5,72.5C 133.833,72.5 133.167,72.5 132.5,72.5C 132.167,71.1667 131.833,71.1667 131.5,72.5C 130.833,72.5 130.167,72.5 129.5,72.5C 129.167,71.1667 128.833,71.1667 128.5,72.5C 127.5,72.5 126.5,72.5 125.5,72.5C 125.5,71.8333 125.5,71.1667 125.5,70.5C 124.662,70.1583 124.328,69.4916 124.5,68.5C 125.833,68.1667 125.833,67.8333 124.5,67.5C 123.833,67.5 123.5,67.1667 123.5,66.5 Z M 125.5,70.5 C 125.987,69.5266 126.487,68.5266 127,67.5C 127.772,68.8491 128.939,69.6824 130.5,70C 128.866,70.4935 127.199,70.6602 125.5,70.5 Z"/></g>
<g><path style="opacity:0.008" fill="#000000" d="M 4.5,68.5 C 5.83333,69.1667 5.83333,69.1667 4.5,68.5 Z"/></g>
<g><path style="opacity:0.008" fill="#000000" d="M 19.5,68.5 C 20.8333,69.1667 20.8333,69.1667 19.5,68.5 Z"/></g>
<g><path style="opacity:0.008" fill="#000000" d="M 35.5,68.5 C 36.8333,69.1667 36.8333,69.1667 35.5,68.5 Z"/></g>
<g><path style="opacity:0.008" fill="#000000" d="M 37.5,68.5 C 38.8333,69.1667 38.8333,69.1667 37.5,68.5 Z"/></g>
<g><path style="opacity:0.008" fill="#000000" d="M 53.5,70.5 C 53.5,70.8333 53.5,71.1667 53.5,71.5C 52.8333,71.5 52.5,71.8333 52.5,72.5C 51.1667,72.5 49.8333,72.5 48.5,72.5C 48.5,71.8333 48.1667,71.5 47.5,71.5C 47.5,71.1667 47.5,70.8333 47.5,70.5C 49.451,70.7733 50.951,70.1066 52,68.5C 52.2784,69.4158 52.7784,70.0825 53.5,70.5 Z"/></g>
<g><path style="opacity:0.008" fill="#000000" d="M 63.5,68.5 C 64.8333,69.1667 64.8333,69.1667 63.5,68.5 Z"/></g>
<g><path style="opacity:0.008" fill="#000000" d="M 71.5,68.5 C 72.2389,68.369 72.9056,68.5357 73.5,69C 72.8288,69.9862 72.8288,71.1529 73.5,72.5C 72.8333,72.5 72.1667,72.5 71.5,72.5C 71.5,71.1667 71.5,69.8333 71.5,68.5 Z"/></g>
<g><path style="opacity:0.008" fill="#000000" d="M 98.5,68.5 C 101.167,68.5 103.833,68.5 106.5,68.5C 106.5,68.8333 106.5,69.1667 106.5,69.5C 101.167,69.8333 101.167,70.1667 106.5,70.5C 106.5,70.8333 106.5,71.1667 106.5,71.5C 105.833,71.5 105.5,71.8333 105.5,72.5C 104.833,72.5 104.167,72.5 103.5,72.5C 103.167,71.1667 102.833,71.1667 102.5,72.5C 101.833,72.5 101.167,72.5 100.5,72.5C 100.5,71.8333 100.5,71.1667 100.5,70.5C 101.557,69.794 101.224,69.4607 99.5,69.5C 98.8333,69.5 98.5,69.1667 98.5,68.5 Z"/></g>
<g><path style="opacity:0.008" fill="#000000" d="M 119.5,69.5 C 119.842,70.3382 120.508,70.6716 121.5,70.5C 121.833,71.1667 122.167,71.8333 122.5,72.5C 120.833,72.5 119.167,72.5 117.5,72.5C 117.427,70.9731 118.094,69.9731 119.5,69.5 Z"/></g>
<g><path style="opacity:0.008" fill="#000000" d="M 2.5,71.5 C 3.60093,70.4017 4.93426,70.235 6.5,71C 5.20677,71.49 3.87344,71.6567 2.5,71.5 Z"/></g>
<g><path style="opacity:0.008" fill="#000000" d="M 17.5,70.5 C 19.1788,70.2852 20.1788,70.9519 20.5,72.5C 20.1667,72.5 19.8333,72.5 19.5,72.5C 19.1667,71.1667 18.8333,71.1667 18.5,72.5C 18.1667,72.5 17.8333,72.5 17.5,72.5C 17.5,71.8333 17.5,71.1667 17.5,70.5 Z"/></g>
<g><path style="opacity:0.008" fill="#000000" d="M 24.5,70.5 C 24.5,70.8333 24.5,71.1667 24.5,71.5C 23.8333,71.5 23.5,71.8333 23.5,72.5C 23.1667,72.5 22.8333,72.5 22.5,72.5C 21.3398,70.7973 22.0065,70.1307 24.5,70.5 Z"/></g>
<g><path style="opacity:0.008" fill="#000000" d="M 33.5,71.5 C 33.5,71.1667 33.5,70.8333 33.5,70.5C 35.7812,70.0773 37.4479,70.744 38.5,72.5C 38.1667,72.5 37.8333,72.5 37.5,72.5C 36.4324,71.5655 35.099,71.2322 33.5,71.5 Z"/></g>
<g><path style="opacity:0.008" fill="#000000" d="M 61.5,71.5 C 61.5,71.1667 61.5,70.8333 61.5,70.5C 63.1788,70.2852 64.1788,70.9519 64.5,72.5C 64.1667,72.5 63.8333,72.5 63.5,72.5C 63.1583,71.6618 62.4916,71.3284 61.5,71.5 Z"/></g>
<g><path style="opacity:0.008" fill="#000000" d="M 68.5,70.5 C 68.5,70.8333 68.5,71.1667 68.5,71.5C 67.5084,71.3284 66.8417,71.6618 66.5,72.5C 66.1667,72.5 65.8333,72.5 65.5,72.5C 65.8212,70.9519 66.8212,70.2852 68.5,70.5 Z"/></g>
<g><path style="opacity:0.008" fill="#000000" d="M 94.5,70.5 C 94.8333,70.5 95.1667,70.5 95.5,70.5C 96.1667,70.5 96.5,70.8333 96.5,71.5C 96.5,71.8333 96.5,72.1667 96.5,72.5C 95.8333,72.5 95.1667,72.5 94.5,72.5C 94.5,71.8333 94.5,71.1667 94.5,70.5 Z"/></g>
</svg>
