<?xml version="1.0" encoding="UTF-8"?>
<!DOCTYPE svg PUBLIC "-//W3C//DTD SVG 1.1//EN" "http://www.w3.org/Graphics/SVG/1.1/DTD/svg11.dtd">
<svg xmlns="http://www.w3.org/2000/svg" version="1.1" width="160px" height="160px" style="shape-rendering:geometricPrecision; text-rendering:geometricPrecision; image-rendering:optimizeQuality; fill-rule:evenodd; clip-rule:evenodd" xmlns:xlink="http://www.w3.org/1999/xlink">
<g><path style="opacity:1" fill="#88c1f6" d="M 126.5,27.5 C 128.5,30.1667 130.833,32.5 133.5,34.5C 134.434,36.2385 134.434,37.9052 133.5,39.5C 117.735,35.5571 101.735,33.7238 85.5,34C 84.9558,34.7172 84.2891,35.2172 83.5,35.5C 83.5,34.5 83.5,33.5 83.5,32.5C 95.1055,31.5377 94.7722,31.5377 82.5,32.5C 81.8718,50.812 81.2051,69.1453 80.5,87.5C 79.667,69.8428 79.167,52.1761 79,34.5C 78.5001,52.8303 78.3334,71.1636 78.5,89.5C 80.1667,89.5 81.8333,89.5 83.5,89.5C 82.7261,90.1471 81.7261,90.4805 80.5,90.5C 78.6814,90.6578 77.3481,89.9911 76.5,88.5C 77.6529,70.5439 77.8196,52.5439 77,34.5C 60.4875,33.522 44.1542,35.1886 28,39.5C 27.5,39.1667 27,38.8333 26.5,38.5C 27.5588,36.4664 28.5588,34.4664 29.5,32.5C 30.8333,31.8333 31.8333,30.8333 32.5,29.5C 54.6338,13.4769 78.9671,9.31026 105.5,17C 113.111,19.4722 120.111,22.9722 126.5,27.5 Z"/></g>
<g><path style="opacity:0.012" fill="#fefae9" d="M 106.5,15.5 C 107.833,16.1667 107.833,16.1667 106.5,15.5 Z"/></g>
<g><path style="opacity:0.012" fill="#f2f0e8" d="M 49.5,16.5 C 50.8333,17.1667 50.8333,17.1667 49.5,16.5 Z"/></g>
<g><path style="opacity:0.082" fill="#f0e9df" d="M 109.5,17.5 C 109.897,16.475 110.563,16.3083 111.5,17C 110.906,17.4643 110.239,17.631 109.5,17.5 Z"/></g>
<g><path style="opacity:0.059" fill="#efe9de" d="M 47.5,17.5 C 48.8333,18.1667 48.8333,18.1667 47.5,17.5 Z"/></g>
<g><path style="opacity:0.02" fill="#f5f7e6" d="M 112.5,17.5 C 113.833,18.1667 113.833,18.1667 112.5,17.5 Z"/></g>
<g><path style="opacity:0.02" fill="#edeae6" d="M 126.5,26.5 C 127.833,27.1667 127.833,27.1667 126.5,26.5 Z"/></g>
<g><path style="opacity:0.02" fill="#e6f0ea" d="M 32.5,29.5 C 31.8333,28.1667 31.8333,28.1667 32.5,29.5 Z"/></g>
<g><path style="opacity:0.039" fill="#e2f7fe" d="M 25.5,31.5 C 26.8333,32.1667 26.8333,32.1667 25.5,31.5 Z"/></g>
<g><path style="opacity:0.071" fill="#fdf2e1" d="M 29.5,32.5 C 28.7611,32.631 28.0944,32.4643 27.5,32C 28.4368,31.3083 29.1034,31.475 29.5,32.5 Z"/></g>
<g><path style="opacity:0.031" fill="#f9ebe5" d="M 132.5,31.5 C 133.833,32.1667 133.833,32.1667 132.5,31.5 Z"/></g>
<g><path style="opacity:0.02" fill="#f1f4e6" d="M 133.5,33.5 C 134.833,34.1667 134.833,34.1667 133.5,33.5 Z"/></g>
<g><path style="opacity:0.012" fill="#fefbe9" d="M 119.5,37.5 C 120.833,38.1667 120.833,38.1667 119.5,37.5 Z"/></g>
<g><path style="opacity:0.02" fill="#fcf0e7" d="M 36.5,38.5 C 37.8333,39.1667 37.8333,39.1667 36.5,38.5 Z"/></g>
<g><path style="opacity:1" fill="#87c1f7" d="M 63.5,39.5 C 68.3477,39.0803 71.0144,41.247 71.5,46C 68.8318,59.5004 65.9985,73.0004 63,86.5C 45.1631,85.3949 32.1631,76.7282 24,60.5C 22.265,55.1999 22.0983,49.8665 23.5,44.5C 36.9532,42.6517 50.2866,40.985 63.5,39.5 Z"/></g>
<g><path style="opacity:1" fill="#88c1f7" d="M 123.5,78.5 C 117.178,82.001 110.511,84.8343 103.5,87C 101.741,87.7975 100.074,87.6309 98.5,86.5C 95.6941,74.9113 93.1941,63.2447 91,51.5C 90.2483,48.1064 90.4149,44.773 91.5,41.5C 93.1459,40.3401 94.9792,39.6734 97,39.5C 110.659,40.478 124.159,42.478 137.5,45.5C 139.038,53.6957 137.538,61.3624 133,68.5C 129.897,71.952 126.731,75.2854 123.5,78.5 Z"/></g>
<g><path style="opacity:0.012" fill="#edf1e9" d="M 89.5,54.5 C 90.8333,55.1667 90.8333,55.1667 89.5,54.5 Z"/></g>
<g><path style="opacity:0.02" fill="#f0eee6" d="M 137.5,62.5 C 138.833,63.1667 138.833,63.1667 137.5,62.5 Z"/></g>
<g><path style="opacity:0.059" fill="#dfebe4" d="M 24.5,66.5 C 25.8333,67.1667 25.8333,67.1667 24.5,66.5 Z"/></g>
<g><path style="opacity:0.059" fill="#f1efdf" d="M 27.5,70.5 C 28.8333,71.1667 28.8333,71.1667 27.5,70.5 Z"/></g>
<g><path style="opacity:0.02" fill="#eeefe6" d="M 67.5,70.5 C 68.8333,71.1667 68.8333,71.1667 67.5,70.5 Z"/></g>
<g><path style="opacity:0.02" fill="#f6f3e6" d="M 132.5,70.5 C 133.833,71.1667 133.833,71.1667 132.5,70.5 Z"/></g>
<g><path style="opacity:1" fill="#7db8ef" d="M 83.5,35.5 C 83.5241,53.8062 83.5241,71.8062 83.5,89.5C 81.8333,89.5 80.1667,89.5 78.5,89.5C 78.3334,71.1636 78.5001,52.8303 79,34.5C 79.167,52.1761 79.667,69.8428 80.5,87.5C 81.2051,69.1453 81.8718,50.812 82.5,32.5C 94.7722,31.5377 95.1055,31.5377 83.5,32.5C 83.5,33.5 83.5,34.5 83.5,35.5 Z"/></g>
<g><path style="opacity:0.02" fill="#f1ede6" d="M 31.5,74.5 C 32.8333,75.1667 32.8333,75.1667 31.5,74.5 Z"/></g>
<g><path style="opacity:0.031" fill="#f7f5e5" d="M 127.5,75.5 C 128.833,76.1667 128.833,76.1667 127.5,75.5 Z"/></g>
<g><path style="opacity:0.039" fill="#eee7e3" d="M 34.5,77.5 C 35.8333,78.1667 35.8333,78.1667 34.5,77.5 Z"/></g>
<g><path style="opacity:0.012" fill="#f7f6e9" d="M 123.5,78.5 C 124.833,79.1667 124.833,79.1667 123.5,78.5 Z"/></g>
<g><path style="opacity:0.012" fill="#f3f4e9" d="M 118.5,82.5 C 119.833,83.1667 119.833,83.1667 118.5,82.5 Z"/></g>
<g><path style="opacity:0.02" fill="#f1eae6" d="M 110.5,85.5 C 111.833,86.1667 111.833,86.1667 110.5,85.5 Z"/></g>
<g><path style="opacity:0.012" fill="#fef1e8" d="M 85.5,87.5 C 86.8333,88.1667 86.8333,88.1667 85.5,87.5 Z"/></g>
<g><path style="opacity:0.012" fill="#fcf8e8" d="M 61.5,107.5 C 62.2506,106.427 63.2506,106.26 64.5,107C 63.552,107.483 62.552,107.649 61.5,107.5 Z"/></g>
<g><path style="opacity:0.02" fill="#f4f6e7" d="M 121.5,107.5 C 122.833,108.167 122.833,108.167 121.5,107.5 Z"/></g>
<g><path style="opacity:1" fill="#87c0f6" d="M 39.5,108.5 C 40.4227,112.064 40.756,115.731 40.5,119.5C 37.4768,119.643 34.1435,119.643 30.5,119.5C 30.1828,128.418 30.5161,137.251 31.5,146C 29.884,147.077 28.0507,147.577 26,147.5C 22.9219,146.756 19.9219,146.756 17,147.5C 15.3376,147.612 14.1709,146.946 13.5,145.5C 14.4711,136.888 14.8044,128.221 14.5,119.5C 10.8333,119.5 7.16667,119.5 3.5,119.5C 3.5,115.833 3.5,112.167 3.5,108.5C 15.5,108.5 27.5,108.5 39.5,108.5 Z"/></g>
<g><path style="opacity:1" fill="#89c1f5" d="M 83.5,146.5 C 78.1215,146.901 72.7881,147.067 67.5,147C 65.059,140.397 62.3923,133.897 59.5,127.5C 56.4187,133.492 54.4187,139.825 53.5,146.5C 48.8699,146.783 43.8699,147.116 38.5,147.5C 37.6919,147.192 37.0253,146.692 36.5,146C 41.8602,133.752 46.5268,121.252 50.5,108.5C 56.7576,108.19 62.9242,108.524 69,109.5C 73.3358,122.004 78.1691,134.337 83.5,146.5 Z"/></g>
<g><path style="opacity:1" fill="#89c2f7" d="M 78.5,107.5 C 90.758,108.314 103.091,108.814 115.5,109C 115.658,112.288 115.658,115.788 115.5,119.5C 112.167,119.5 108.833,119.5 105.5,119.5C 105.666,128.506 105.5,137.506 105,146.5C 104.275,147.059 103.442,147.392 102.5,147.5C 99.1801,146.295 95.8468,146.295 92.5,147.5C 90.9334,147.523 89.6001,147.023 88.5,146C 89.4839,137.251 89.8172,128.418 89.5,119.5C 85.8936,119.211 82.3936,119.544 79,120.5C 78.5,120 78,119.5 77.5,119C 78.266,115.113 78.5993,111.28 78.5,107.5 Z"/></g>
<g><path style="opacity:1" fill="#89c1f6" d="M 156.5,146.5 C 154.167,146.5 151.833,146.5 149.5,146.5C 146.763,147.213 144.096,147.213 141.5,146.5C 139.291,139.704 136.791,133.038 134,126.5C 131.889,133.503 129.389,140.337 126.5,147C 121.833,147.667 117.167,147.667 112.5,147C 111.978,146.439 111.645,145.772 111.5,145C 116.951,133.542 121.451,121.708 125,109.5C 125.667,108.833 126.333,108.167 127,107.5C 132.407,108.473 137.907,108.807 143.5,108.5C 147.384,121.154 152.05,133.487 157.5,145.5C 157.376,146.107 157.043,146.44 156.5,146.5 Z"/></g>
<g><path style="opacity:0.318" fill="#abd4f8" d="M 40.5,119.5 C 40.756,115.731 40.4227,112.064 39.5,108.5C 39.81,107.262 40.31,107.262 41,108.5C 41.8099,112.358 41.6433,116.024 40.5,119.5 Z"/></g>
<g><path style="opacity:0.012" fill="#f0ede9" d="M 121.5,111.5 C 122.833,112.167 122.833,112.167 121.5,111.5 Z"/></g>
<g><path style="opacity:0.02" fill="#f9f7e7" d="M 146.5,111.5 C 147.833,112.167 147.833,112.167 146.5,111.5 Z"/></g>
<g><path style="opacity:0.02" fill="#f5f2e6" d="M 43.5,120.5 C 44.8333,121.167 44.8333,121.167 43.5,120.5 Z"/></g>
<g><path style="opacity:0.012" fill="#f8f1e7" d="M 75.5,122.5 C 76.525,122.897 76.6917,123.563 76,124.5C 75.5357,123.906 75.369,123.239 75.5,122.5 Z"/></g>
<g><path style="opacity:0.031" fill="#eff0e5" d="M 41.5,127.5 C 42.8333,128.167 42.8333,128.167 41.5,127.5 Z"/></g>
<g><path style="opacity:0.012" fill="#f4f5e8" d="M 114.5,130.5 C 115.525,130.897 115.692,131.563 115,132.5C 114.536,131.906 114.369,131.239 114.5,130.5 Z"/></g>
<g><path style="opacity:0.051" fill="#f2eae0" d="M 129.5,142.5 C 130.833,143.167 130.833,143.167 129.5,142.5 Z"/></g>
<g><path style="opacity:0.031" fill="#f0ece5" d="M 137.5,142.5 C 138.833,143.167 138.833,143.167 137.5,142.5 Z"/></g>
<g><path style="opacity:0.012" fill="#fdf5e9" d="M 108.5,144.5 C 108.897,143.475 109.563,143.308 110.5,144C 109.906,144.464 109.239,144.631 108.5,144.5 Z"/></g>
<g><path style="opacity:0.012" fill="#feffe9" d="M 53.5,146.5 C 54.2389,146.369 54.9056,146.536 55.5,147C 54.5632,147.692 53.8966,147.525 53.5,146.5 Z"/></g>
<g><path style="opacity:0.012" fill="#feffe9" d="M 83.5,146.5 C 84.2389,146.369 84.9056,146.536 85.5,147C 84.5632,147.692 83.8966,147.525 83.5,146.5 Z"/></g>
<g><path style="opacity:0.11" fill="#e3f3f3" d="M 149.5,146.5 C 151.833,146.5 154.167,146.5 156.5,146.5C 154.098,148.891 151.764,148.891 149.5,146.5 Z"/></g>
</svg>
