<?xml version="1.0" encoding="UTF-8"?>
<!DOCTYPE svg PUBLIC "-//W3C//DTD SVG 1.1//EN" "http://www.w3.org/Graphics/SVG/1.1/DTD/svg11.dtd">
<svg xmlns="http://www.w3.org/2000/svg" version="1.1" width="250px" height="250px" style="shape-rendering:geometricPrecision; text-rendering:geometricPrecision; image-rendering:optimizeQuality; fill-rule:evenodd; clip-rule:evenodd" xmlns:xlink="http://www.w3.org/1999/xlink">
<g><path style="opacity:1" fill="#f11128" d="M 157.5,0.5 C 161.846,0.334316 166.179,0.500982 170.5,1C 172.061,1.31762 173.228,2.15095 174,3.5C 174.671,2.74756 175.504,2.41423 176.5,2.5C 178.434,3.11028 180.101,4.11028 181.5,5.5C 181.738,7.40435 182.738,8.73769 184.5,9.5C 189.167,13.5 193.5,17.8333 197.5,22.5C 198.08,24.7488 199.413,26.4154 201.5,27.5C 205.5,30.8333 209.167,34.5 212.5,38.5C 213.08,40.7488 214.413,42.4154 216.5,43.5C 220.167,46.5 223.5,49.8333 226.5,53.5C 227.757,56.4274 229.757,58.7607 232.5,60.5C 237.23,64.2269 241.23,68.5603 244.5,73.5C 244.427,75.0269 245.094,76.0269 246.5,76.5C 247.292,82.1302 247.625,87.7969 247.5,93.5C 247.245,96.0163 246.411,98.3496 245,100.5C 225.469,119.699 205.636,138.532 185.5,157C 178.193,161.706 170.526,162.539 162.5,159.5C 162.027,158.094 161.027,157.427 159.5,157.5C 155.587,156.55 152.92,154.217 151.5,150.5C 150.89,149.609 150.557,148.609 150.5,147.5C 152.404,147.262 153.738,146.262 154.5,144.5C 156.167,142.167 158.167,140.167 160.5,138.5C 164.771,135.899 168.437,132.566 171.5,128.5C 172.5,126.833 173.833,125.5 175.5,124.5C 180.44,121.23 184.773,117.23 188.5,112.5C 188.5,111.833 188.833,111.5 189.5,111.5C 193.5,109.5 196.5,106.5 198.5,102.5C 201.427,101.243 203.761,99.2427 205.5,96.5C 208.629,92.8691 211.963,89.3691 215.5,86C 210.658,81.3245 205.991,76.4912 201.5,71.5C 200.92,69.2512 199.587,67.5846 197.5,66.5C 186.507,55.1995 175.507,43.8661 164.5,32.5C 159.015,37.485 153.681,42.6516 148.5,48C 145.696,48.3874 143.696,47.2208 142.5,44.5C 141.92,42.2512 140.587,40.5846 138.5,39.5C 135.833,37.5 133.5,35.1667 131.5,32.5C 130.532,29.5547 130.366,26.5547 131,23.5C 134.112,20.8991 136.612,17.8991 138.5,14.5C 142.534,10.4645 146.868,6.7978 151.5,3.5C 153.027,3.57298 154.027,2.90632 154.5,1.5C 155.209,0.596028 156.209,0.262695 157.5,0.5 Z"/></g>
<g><path style="opacity:0.812" fill="#ee4f57" d="M 157.5,0.5 C 157.5,0.166667 157.5,-0.166667 157.5,-0.5C 162.167,-0.5 166.833,-0.5 171.5,-0.5C 173.261,0.312714 174.928,1.31271 176.5,2.5C 175.504,2.41423 174.671,2.74756 174,3.5C 173.228,2.15095 172.061,1.31762 170.5,1C 166.179,0.500982 161.846,0.334316 157.5,0.5 Z"/></g>
<g><path style="opacity:1" fill="#1452a1" d="M 117.5,21.5 C 118.08,23.7488 119.413,25.4154 121.5,26.5C 125.167,29.5 128.5,32.8333 131.5,36.5C 132.757,39.4274 134.757,41.7607 137.5,43.5C 141.167,46.5 144.5,49.8333 147.5,53.5C 148.419,56.0892 150.086,58.0892 152.5,59.5C 154.914,60.9108 156.581,62.9108 157.5,65.5C 157.427,67.0269 158.094,68.0269 159.5,68.5C 159.5,68.8333 159.5,69.1667 159.5,69.5C 160.2,73.7978 160.533,78.1311 160.5,82.5C 159.555,88.7685 156.555,93.7685 151.5,97.5C 150.504,97.4142 149.671,97.7476 149,98.5C 147.629,96.9586 146.129,95.6253 144.5,94.5C 129.163,79.163 114.163,63.4963 99.5,47.5C 99.2624,45.5956 98.2624,44.2623 96.5,43.5C 93.1866,40.5222 89.8533,37.5222 86.5,34.5C 79.461,40.5454 72.461,46.5454 65.5,52.5C 64.5,52.8333 63.8333,53.5 63.5,54.5C 53.0618,64.4373 42.7284,74.6039 32.5,85C 38.2122,90.3768 43.5455,96.0434 48.5,102C 41.3997,109.1 34.2331,116.267 27,123.5C 18.9689,115.803 11.3022,107.803 4,99.5C 2.20496,96.9007 0.704964,94.2341 -0.5,91.5C -0.5,86.8333 -0.5,82.1667 -0.5,77.5C 0.65323,74.53 2.3199,71.8633 4.5,69.5C 5.83333,68.8333 6.83333,67.8333 7.5,66.5C 8.16667,65.1667 9.16667,64.1667 10.5,63.5C 15.774,59.8953 20.4407,55.562 24.5,50.5C 26.7851,47.5482 29.4517,44.8815 32.5,42.5C 36.1002,40.5698 39.1002,37.9031 41.5,34.5C 44.8333,30.5 48.5,26.8333 52.5,23.5C 55.4274,22.2427 57.7607,20.2427 59.5,17.5C 64.9007,9.92904 71.9007,4.42904 80.5,1C 87.543,-0.281063 94.2097,0.718937 100.5,4C 106.342,9.67526 112.009,15.5086 117.5,21.5 Z"/></g>
<g><path style="opacity:0.835" fill="#f07883" d="M 154.5,1.5 C 154.027,2.90632 153.027,3.57298 151.5,3.5C 151.973,2.09368 152.973,1.42702 154.5,1.5 Z"/></g>
<g><path style="opacity:0.788" fill="#f1868e" d="M 181.5,5.5 C 183.262,6.26231 184.262,7.59565 184.5,9.5C 182.738,8.73769 181.738,7.40435 181.5,5.5 Z"/></g>
<g><path style="opacity:0.843" fill="#6a91be" d="M 59.5,17.5 C 57.7607,20.2427 55.4274,22.2427 52.5,23.5C 54.2393,20.7573 56.5726,18.7573 59.5,17.5 Z"/></g>
<g><path style="opacity:0.812" fill="#92adcd" d="M 117.5,21.5 C 119.587,22.5846 120.92,24.2512 121.5,26.5C 119.413,25.4154 118.08,23.7488 117.5,21.5 Z"/></g>
<g><path style="opacity:0.812" fill="#f5929d" d="M 197.5,22.5 C 199.587,23.5846 200.92,25.2512 201.5,27.5C 199.413,26.4154 198.08,24.7488 197.5,22.5 Z"/></g>
<g><path style="opacity:1" fill="#f14245" d="M 138.5,14.5 C 136.612,17.8991 134.112,20.8991 131,23.5C 130.366,26.5547 130.532,29.5547 131.5,32.5C 129.833,31.5 128.5,30.1667 127.5,28.5C 127.5,27.5 127.5,26.5 127.5,25.5C 130.833,21.5 134.5,17.8333 138.5,14.5 Z"/></g>
<g><path style="opacity:0.824" fill="#f4979b" d="M 127.5,25.5 C 127.5,26.5 127.5,27.5 127.5,28.5C 125.015,27.2601 125.015,26.2601 127.5,25.5 Z"/></g>
<g><path style="opacity:0.878" fill="#7da1c9" d="M 131.5,36.5 C 134.243,38.2393 136.243,40.5726 137.5,43.5C 134.757,41.7607 132.757,39.4274 131.5,36.5 Z"/></g>
<g><path style="opacity:0.898" fill="#6e91c0" d="M 41.5,34.5 C 39.1002,37.9031 36.1002,40.5698 32.5,42.5C 34.8998,39.0969 37.8998,36.4302 41.5,34.5 Z"/></g>
<g><path style="opacity:0.824" fill="#f58e94" d="M 212.5,38.5 C 214.587,39.5846 215.92,41.2512 216.5,43.5C 214.413,42.4154 213.08,40.7488 212.5,38.5 Z"/></g>
<g><path style="opacity:0.02" fill="#ee808d" d="M 138.5,39.5 C 140.587,40.5846 141.92,42.2512 142.5,44.5C 140.413,43.4154 139.08,41.7488 138.5,39.5 Z"/></g>
<g><path style="opacity:0.027" fill="#8eaecf" d="M 96.5,43.5 C 98.2624,44.2623 99.2624,45.5956 99.5,47.5C 97.7376,46.7377 96.7376,45.4044 96.5,43.5 Z"/></g>
<g><path style="opacity:0.008" fill="#95b4cd" d="M 65.5,52.5 C 65.5,53.8333 64.8333,54.5 63.5,54.5C 63.8333,53.5 64.5,52.8333 65.5,52.5 Z"/></g>
<g><path style="opacity:0.859" fill="#7a98c4" d="M 147.5,53.5 C 149.914,54.9108 151.581,56.9108 152.5,59.5C 150.086,58.0892 148.419,56.0892 147.5,53.5 Z"/></g>
<g><path style="opacity:0.898" fill="#f17a82" d="M 226.5,53.5 C 229.243,55.2393 231.243,57.5726 232.5,60.5C 229.757,58.7607 227.757,56.4274 226.5,53.5 Z"/></g>
<g><path style="opacity:1" fill="#f11528" d="M 102.5,54.5 C 103.08,56.7488 104.413,58.4154 106.5,59.5C 110.833,63.1667 114.833,67.1667 118.5,71.5C 118.738,73.4044 119.738,74.7377 121.5,75.5C 125.5,78.8333 129.167,82.5 132.5,86.5C 133.419,89.0892 135.086,91.0892 137.5,92.5C 140.812,95.1456 143.812,98.1456 146.5,101.5C 141.11,107.892 135.11,113.559 128.5,118.5C 126.194,118.993 123.861,119.326 121.5,119.5C 111.533,109.365 101.7,99.0316 92,88.5C 90.878,86.5932 90.0447,84.5932 89.5,82.5C 88.2258,76.508 88.2258,70.508 89.5,64.5C 89.5,64.1667 89.5,63.8333 89.5,63.5C 90.9063,63.0269 91.573,62.0269 91.5,60.5C 93.2199,57.2689 95.5532,54.4356 98.5,52C 100.412,51.7207 101.746,52.5541 102.5,54.5 Z"/></g>
<g><path style="opacity:0.78" fill="#f8949a" d="M 102.5,54.5 C 104.587,55.5846 105.92,57.2512 106.5,59.5C 104.413,58.4154 103.08,56.7488 102.5,54.5 Z"/></g>
<g><path style="opacity:1" fill="#557ab5" d="M 24.5,50.5 C 20.4407,55.562 15.774,59.8953 10.5,63.5C 14.5593,58.438 19.226,54.1047 24.5,50.5 Z"/></g>
<g><path style="opacity:0.357" fill="#f18d95" d="M 91.5,60.5 C 91.573,62.0269 90.9063,63.0269 89.5,63.5C 89.427,61.9731 90.0937,60.9731 91.5,60.5 Z"/></g>
<g><path style="opacity:0.671" fill="#8baacf" d="M 7.5,66.5 C 6.83333,67.8333 5.83333,68.8333 4.5,69.5C 4.5,67.5 5.5,66.5 7.5,66.5 Z"/></g>
<g><path style="opacity:0.263" fill="#9fb9d6" d="M 157.5,65.5 C 158.906,65.9731 159.573,66.9731 159.5,68.5C 158.094,68.0269 157.427,67.0269 157.5,65.5 Z"/></g>
<g><path style="opacity:0.039" fill="#ec818d" d="M 197.5,66.5 C 199.587,67.5846 200.92,69.2512 201.5,71.5C 199.413,70.4154 198.08,68.7488 197.5,66.5 Z"/></g>
<g><path style="opacity:0.514" fill="#f0808c" d="M 89.5,64.5 C 88.2258,70.508 88.2258,76.508 89.5,82.5C 88.7784,82.0825 88.2784,81.4158 88,80.5C 87.3333,75.8333 87.3333,71.1667 88,66.5C 88.2784,65.5842 88.7784,64.9175 89.5,64.5 Z"/></g>
<g><path style="opacity:0.804" fill="#f38a91" d="M 118.5,71.5 C 120.262,72.2623 121.262,73.5956 121.5,75.5C 119.738,74.7377 118.738,73.4044 118.5,71.5 Z"/></g>
<g><path style="opacity:0.141" fill="#96b5d4" d="M 159.5,69.5 C 160.952,71.8476 161.618,74.5143 161.5,77.5C 161.493,79.3693 161.16,81.036 160.5,82.5C 160.533,78.1311 160.2,73.7978 159.5,69.5 Z"/></g>
<g><path style="opacity:0.357" fill="#f59ea7" d="M 244.5,73.5 C 245.906,73.9731 246.573,74.9731 246.5,76.5C 245.094,76.0269 244.427,75.0269 244.5,73.5 Z"/></g>
<g><path style="opacity:0.833" fill="#f26e7b" d="M 246.5,76.5 C 248.019,79.5256 248.685,82.8589 248.5,86.5C 248.497,89.0254 248.163,91.3587 247.5,93.5C 247.625,87.7969 247.292,82.1302 246.5,76.5 Z"/></g>
<g><path style="opacity:0.827" fill="#ee7782" d="M 132.5,86.5 C 134.914,87.9108 136.581,89.9108 137.5,92.5C 135.086,91.0892 133.419,89.0892 132.5,86.5 Z"/></g>
<g><path style="opacity:0.91" fill="#bc75ae" d="M 85.5,89.5 C 79.4638,89.3599 73.4638,89.6932 67.5,90.5C 73.3527,87.0167 79.3527,86.6834 85.5,89.5 Z"/></g>
<g><path style="opacity:1" fill="#1da0b1" d="M 168.5,87.5 C 180.823,85.2698 190.49,89.2698 197.5,99.5C 180.875,115.158 164.208,130.824 147.5,146.5C 139.798,139.799 132.798,132.466 126.5,124.5C 137.655,113.512 148.989,102.679 160.5,92C 163.191,90.3952 165.858,88.8952 168.5,87.5 Z"/></g>
<g><path style="opacity:1" fill="#a03b8d" d="M 85.5,89.5 C 91.3801,91.2843 96.0467,94.7843 99.5,100C 77.8678,121.297 55.8678,142.297 33.5,163C 50.4769,180.312 67.1435,197.979 83.5,216C 84.1667,216.667 84.8333,216.667 85.5,216C 90.7176,210.28 96.3842,205.113 102.5,200.5C 109.291,207.792 116.291,214.959 123.5,222C 115.803,230.031 107.803,237.698 99.5,245C 96.8085,246.605 94.1418,248.105 91.5,249.5C 86.8333,249.5 82.1667,249.5 77.5,249.5C 75.2585,248.379 72.9252,247.213 70.5,246C 48.6353,223.803 27.1353,201.303 6,178.5C -0.92893,168.362 -1.26226,158.028 5,147.5C 18.7028,134.295 32.5361,121.295 46.5,108.5C 50.4356,106.234 53.7689,103.234 56.5,99.5C 59.2901,95.3717 62.9568,92.3717 67.5,90.5C 73.4638,89.6932 79.4638,89.3599 85.5,89.5 Z"/></g>
<g><path style="opacity:0.024" fill="#7ea6c9" d="M 144.5,94.5 C 146.129,95.6253 147.629,96.9586 149,98.5C 149.671,97.7476 150.504,97.4142 151.5,97.5C 150.686,99.2726 149.352,99.7726 147.5,99C 145.859,97.871 144.859,96.371 144.5,94.5 Z"/></g>
<g><path style="opacity:0.737" fill="#ed6875" d="M 205.5,96.5 C 203.761,99.2427 201.427,101.243 198.5,102.5C 200.239,99.7573 202.573,97.7573 205.5,96.5 Z"/></g>
<g><path style="opacity:0.906" fill="#b96fa9" d="M 56.5,99.5 C 53.7689,103.234 50.4356,106.234 46.5,108.5C 49.2311,104.766 52.5644,101.766 56.5,99.5 Z"/></g>
<g><path style="opacity:1" fill="#1452a1" d="M 113.5,114.5 C 113.427,116.027 114.094,117.027 115.5,117.5C 118.719,119.528 120.886,122.195 122,125.5C 110.575,136.766 98.7412,147.433 86.5,157.5C 84.847,157.66 83.5137,158.326 82.5,159.5C 77.213,160.342 71.8797,160.676 66.5,160.5C 65.391,160.443 64.391,160.11 63.5,159.5C 63.0269,158.094 62.0269,157.427 60.5,157.5C 56.9199,155.592 53.9199,152.926 51.5,149.5C 55.8275,145.506 60.1608,141.506 64.5,137.5C 68.4356,135.234 71.7689,132.234 74.5,128.5C 75.5,126.833 76.8333,125.5 78.5,124.5C 83.4397,121.23 87.7731,117.23 91.5,112.5C 94.4789,108.854 97.8123,105.521 101.5,102.5C 105.854,106.188 109.854,110.188 113.5,114.5 Z"/></g>
<g><path style="opacity:1" fill="#f04b4d" d="M 198.5,102.5 C 196.5,106.5 193.5,109.5 189.5,111.5C 192.167,108.167 195.167,105.167 198.5,102.5 Z"/></g>
<g><path style="opacity:0.761" fill="#8baed3" d="M 113.5,114.5 C 114.906,114.973 115.573,115.973 115.5,117.5C 114.094,117.027 113.427,116.027 113.5,114.5 Z"/></g>
<g><path style="opacity:0.839" fill="#f16067" d="M 188.5,112.5 C 184.773,117.23 180.44,121.23 175.5,124.5C 179.227,119.77 183.56,115.77 188.5,112.5 Z"/></g>
<g><path style="opacity:1" fill="#ef5350" d="M 128.5,118.5 C 126.46,123.064 124.127,123.398 121.5,119.5C 123.861,119.326 126.194,118.993 128.5,118.5 Z"/></g>
<g><path style="opacity:1" fill="#5b7fb6" d="M 91.5,112.5 C 87.7731,117.23 83.4397,121.23 78.5,124.5C 82.2269,119.77 86.5603,115.77 91.5,112.5 Z"/></g>
<g><path style="opacity:1" fill="#18a0b0" d="M 249.5,157.5 C 249.5,162.5 249.5,167.5 249.5,172.5C 247.472,176.703 244.805,180.536 241.5,184C 219.467,205.034 197.134,225.701 174.5,246C 165.654,249.601 156.988,249.267 148.5,245C 129.301,225.469 110.468,205.636 92,185.5C 84.574,171.208 87.2406,159.208 100,149.5C 120.975,170.976 141.809,192.643 162.5,214.5C 180.801,198.201 198.801,181.534 216.5,164.5C 210.988,158.822 205.654,152.988 200.5,147C 207.6,139.9 214.767,132.733 222,125.5C 232.851,134.971 242.017,145.638 249.5,157.5 Z"/></g>
<g><path style="opacity:1" fill="#a03b8d" d="M 160.5,168.5 C 160.676,173.88 160.342,179.213 159.5,184.5C 157.716,189.959 154.383,194.293 149.5,197.5C 134.812,181.813 120.145,166.146 105.5,150.5C 105.34,148.801 105.506,147.134 106,145.5C 109.371,142.297 112.538,138.964 115.5,135.5C 118.186,131.627 121.519,128.794 125.5,127C 136,138.167 146.5,149.333 157,160.5C 158.845,162.867 160.011,165.533 160.5,168.5 Z"/></g>
<g><path style="opacity:0.925" fill="#7092bf" d="M 74.5,128.5 C 71.7689,132.234 68.4356,135.234 64.5,137.5C 67.2311,133.766 70.5644,130.766 74.5,128.5 Z"/></g>
<g><path style="opacity:1" fill="#f06268" d="M 171.5,128.5 C 168.437,132.566 164.771,135.899 160.5,138.5C 163.563,134.434 167.229,131.101 171.5,128.5 Z"/></g>
<g><path style="opacity:0.894" fill="#b669a6" d="M 115.5,135.5 C 112.538,138.964 109.371,142.297 106,145.5C 105.506,147.134 105.34,148.801 105.5,150.5C 103.554,149.746 102.721,148.412 103,146.5C 106.761,142.23 110.928,138.563 115.5,135.5 Z"/></g>
<g><path style="opacity:0.749" fill="#f0707f" d="M 154.5,144.5 C 153.738,146.262 152.404,147.262 150.5,147.5C 151.262,145.738 152.596,144.738 154.5,144.5 Z"/></g>
<g><path style="opacity:0.49" fill="#ef96a0" d="M 150.5,147.5 C 150.557,148.609 150.89,149.609 151.5,150.5C 149.448,149.947 149.115,148.947 150.5,147.5 Z"/></g>
<g><path style="opacity:0.38" fill="#7a9fc6" d="M 60.5,157.5 C 62.0269,157.427 63.0269,158.094 63.5,159.5C 61.9731,159.573 60.9731,158.906 60.5,157.5 Z"/></g>
<g><path style="opacity:0.376" fill="#87a8ca" d="M 86.5,157.5 C 85.713,159.104 84.3797,159.771 82.5,159.5C 83.5137,158.326 84.847,157.66 86.5,157.5 Z"/></g>
<g><path style="opacity:0.345" fill="#f28f99" d="M 159.5,157.5 C 161.027,157.427 162.027,158.094 162.5,159.5C 160.973,159.573 159.973,158.906 159.5,157.5 Z"/></g>
<g><path style="opacity:0.584" fill="#7ca2c9" d="M 82.5,159.5 C 82.0825,160.222 81.4158,160.722 80.5,161C 75.6478,161.815 70.9811,161.648 66.5,160.5C 71.8797,160.676 77.213,160.342 82.5,159.5 Z"/></g>
<g><path style="opacity:0.559" fill="#c58cba" d="M 160.5,168.5 C 161.648,172.981 161.815,177.648 161,182.5C 160.722,183.416 160.222,184.082 159.5,184.5C 160.342,179.213 160.676,173.88 160.5,168.5 Z"/></g>
</svg>
