<?xml version="1.0" encoding="UTF-8"?>
<!DOCTYPE svg PUBLIC "-//W3C//DTD SVG 1.1//EN" "http://www.w3.org/Graphics/SVG/1.1/DTD/svg11.dtd">
<svg xmlns="http://www.w3.org/2000/svg" version="1.1" width="250px" height="250px" style="shape-rendering:geometricPrecision; text-rendering:geometricPrecision; image-rendering:optimizeQuality; fill-rule:evenodd; clip-rule:evenodd" xmlns:xlink="http://www.w3.org/1999/xlink">
<g><path style="opacity:0.955" fill="#d46125" d="M 95.5,9.5 C 95.5,12.5 95.5,15.5 95.5,18.5C 94.5731,33.8182 93.9065,49.1515 93.5,64.5C 92.8333,67.8333 92.1667,71.1667 91.5,74.5C 78.15,74.8325 64.8167,74.4992 51.5,73.5C 56.5504,52.2479 61.217,30.9146 65.5,9.5C 75.5,9.5 85.5,9.5 95.5,9.5 Z"/></g>
<g><path style="opacity:0.977" fill="#af5226" d="M 95.5,9.5 C 129.833,9.5 164.167,9.5 198.5,9.5C 198.5,31.1667 198.5,52.8333 198.5,74.5C 184.5,74.5 170.5,74.5 156.5,74.5C 156.167,73.5 155.5,72.8333 154.5,72.5C 135.803,51.8171 116.637,31.4838 97,11.5C 96.8138,14.0356 96.3138,16.369 95.5,18.5C 95.5,15.5 95.5,12.5 95.5,9.5 Z"/></g>
<g><path style="opacity:1" fill="#832c1b" d="M 154.5,72.5 C 134.34,73.4972 114.007,73.8305 93.5,73.5C 93.5,70.5 93.5,67.5 93.5,64.5C 93.9065,49.1515 94.5731,33.8182 95.5,18.5C 96.3138,16.369 96.8138,14.0356 97,11.5C 116.637,31.4838 135.803,51.8171 154.5,72.5 Z"/></g>
<g><path style="opacity:0.977" fill="#a53a21" d="M 93.5,64.5 C 93.5,67.5 93.5,70.5 93.5,73.5C 114.007,73.8305 134.34,73.4972 154.5,72.5C 155.5,72.8333 156.167,73.5 156.5,74.5C 156.5,108.833 156.5,143.167 156.5,177.5C 156.5,178.167 156.167,178.5 155.5,178.5C 134.5,178.5 113.5,178.5 92.5,178.5C 92.5,177.833 92.1667,177.5 91.5,177.5C 91.5,143.167 91.5,108.833 91.5,74.5C 92.1667,71.1667 92.8333,67.8333 93.5,64.5 Z"/></g>
<g><path style="opacity:0.972" fill="#90391c" d="M 156.5,177.5 C 170.5,177.5 184.5,177.5 198.5,177.5C 198.5,198.167 198.5,218.833 198.5,239.5C 163.5,239.5 128.5,239.5 93.5,239.5C 93.5569,238.391 93.8902,237.391 94.5,236.5C 114.542,217.491 134.542,198.491 154.5,179.5C 155.167,179.5 155.5,179.167 155.5,178.5C 156.167,178.5 156.5,178.167 156.5,177.5 Z"/></g>
<g><path style="opacity:0.965" fill="#bb4e24" d="M 91.5,177.5 C 92.1667,177.5 92.5,177.833 92.5,178.5C 92.5,198.833 92.5,219.167 92.5,239.5C 78.1667,239.5 63.8333,239.5 49.5,239.5C 49.5,219.167 49.5,198.833 49.5,178.5C 63.6766,178.829 77.6766,178.496 91.5,177.5 Z"/></g>
<g><path style="opacity:1" fill="#882e13" d="M 92.5,178.5 C 113.5,178.5 134.5,178.5 155.5,178.5C 155.5,179.167 155.167,179.5 154.5,179.5C 134.167,179.5 113.833,179.5 93.5,179.5C 93.1697,198.674 93.503,217.674 94.5,236.5C 93.8902,237.391 93.5569,238.391 93.5,239.5C 93.1667,239.5 92.8333,239.5 92.5,239.5C 92.5,219.167 92.5,198.833 92.5,178.5 Z"/></g>
<g><path style="opacity:1" fill="#7e280e" d="M 154.5,179.5 C 134.542,198.491 114.542,217.491 94.5,236.5C 93.503,217.674 93.1697,198.674 93.5,179.5C 113.833,179.5 134.167,179.5 154.5,179.5 Z"/></g>
</svg>
