<?xml version="1.0" encoding="UTF-8"?>
<!DOCTYPE svg PUBLIC "-//W3C//DTD SVG 1.1//EN" "http://www.w3.org/Graphics/SVG/1.1/DTD/svg11.dtd">
<svg xmlns="http://www.w3.org/2000/svg" version="1.1" width="240px" height="240px" style="shape-rendering:geometricPrecision; text-rendering:geometricPrecision; image-rendering:optimizeQuality; fill-rule:evenodd; clip-rule:evenodd" xmlns:xlink="http://www.w3.org/1999/xlink">
<g><path style="opacity:0.608" fill="#97d0ad" d="M 187.5,14.5 C 187.715,16.1788 187.048,17.1788 185.5,17.5C 185.932,16.2905 186.599,15.2905 187.5,14.5 Z"/></g>
<g><path style="opacity:1" fill="#115e30" d="M 56.5,16.5 C 59.2718,18.5523 61.9385,20.719 64.5,23C 62.6992,23.3173 62.3659,23.984 63.5,25C 64.448,25.4828 65.448,25.6495 66.5,25.5C 66.67,26.8221 66.3366,27.9887 65.5,29C 71.6928,30.211 75.3595,33.5443 76.5,39C 78.5165,39.6743 80.1832,40.8409 81.5,42.5C 82.7321,43.1445 84.0654,43.3112 85.5,43C 84.7069,44.0852 84.0402,45.2519 83.5,46.5C 88.9748,46.8202 91.4748,49.8202 91,55.5C 91.6891,54.6433 92.5224,53.9767 93.5,53.5C 94.2421,55.1082 94.4087,56.7749 94,58.5C 94.7504,57.8742 95.5838,57.3742 96.5,57C 95.5494,56.2825 95.3828,55.4491 96,54.5C 97.9053,56.4241 99.072,58.7574 99.5,61.5C 101.727,63.6068 103.727,65.9401 105.5,68.5C 106.651,69.731 107.817,69.731 109,68.5C 110.766,70.596 112.099,72.9293 113,75.5C 115.274,75.9816 117.441,77.1482 119.5,79C 119.043,79.414 118.709,79.914 118.5,80.5C 119.247,80.7365 120.08,81.0698 121,81.5C 121.807,85.449 122.307,85.449 122.5,81.5C 123.873,81.3433 125.207,81.51 126.5,82C 123.622,83.4478 123.289,84.9478 125.5,86.5C 126.647,86.1822 127.481,85.5156 128,84.5C 128.667,85.8333 129.333,87.1667 130,88.5C 133.69,86.9928 137.524,85.9928 141.5,85.5C 142.738,87.2143 143.405,89.2143 143.5,91.5C 142.548,92.452 141.548,93.452 140.5,94.5C 141.929,96.3313 142.429,98.3313 142,100.5C 141.667,100.167 141.333,99.8333 141,99.5C 139.992,104.541 139.492,104.208 139.5,98.5C 136.402,98.4125 136.068,98.9125 138.5,100C 136.579,100.36 134.912,101.194 133.5,102.5C 132.5,101.167 131.5,99.8333 130.5,98.5C 127.711,98.8781 125.211,97.8781 123,95.5C 122.586,95.9574 122.086,96.2907 121.5,96.5C 120.218,93.436 118.552,90.6027 116.5,88C 116.645,87.228 116.978,86.5613 117.5,86C 115.956,86.4866 114.29,86.9866 112.5,87.5C 112.815,85.7741 112.981,84.1075 113,82.5C 111.984,83.6341 111.317,83.3008 111,81.5C 108.827,84.277 108.327,84.1103 109.5,81C 108.953,80.0754 108.287,79.2421 107.5,78.5C 106.227,78.7455 105.06,78.7455 104,78.5C 102.74,75.5719 100.573,73.7386 97.5,73C 99.5733,70.9068 99.0733,69.0735 96,67.5C 94.85,66.5761 93.85,66.5761 93,67.5C 92.8898,65.1517 91.7231,63.6517 89.5,63C 90.8331,61.1598 90.6665,60.6598 89,61.5C 87.1508,59.9527 85.6508,58.1193 84.5,56C 83.552,55.5172 82.552,55.3505 81.5,55.5C 81.5417,53.1511 80.3751,51.8178 78,51.5C 76.9701,51.8361 76.4701,52.5028 76.5,53.5C 69.07,41.644 62.4033,29.3107 56.5,16.5 Z"/></g>
<g><path style="opacity:0.518" fill="#9fd3b3" d="M 184.5,18.5 C 184.715,20.1788 184.048,21.1788 182.5,21.5C 182.932,20.2905 183.599,19.2905 184.5,18.5 Z"/></g>
<g><path style="opacity:0.999" fill="#176536" d="M 56.5,14.5 C 84.5766,35.5233 112.577,56.5233 140.5,77.5C 140.833,78.1667 141.167,78.8333 141.5,79.5C 141.046,81.2589 141.046,83.2589 141.5,85.5C 137.524,85.9928 133.69,86.9928 130,88.5C 129.333,87.1667 128.667,85.8333 128,84.5C 127.481,85.5156 126.647,86.1822 125.5,86.5C 123.289,84.9478 123.622,83.4478 126.5,82C 125.207,81.51 123.873,81.3433 122.5,81.5C 122.307,85.449 121.807,85.449 121,81.5C 120.08,81.0698 119.247,80.7365 118.5,80.5C 118.709,79.914 119.043,79.414 119.5,79C 117.441,77.1482 115.274,75.9816 113,75.5C 112.099,72.9293 110.766,70.596 109,68.5C 107.817,69.731 106.651,69.731 105.5,68.5C 103.727,65.9401 101.727,63.6068 99.5,61.5C 99.072,58.7574 97.9053,56.4241 96,54.5C 95.3828,55.4491 95.5494,56.2825 96.5,57C 95.5838,57.3742 94.7504,57.8742 94,58.5C 94.4087,56.7749 94.2421,55.1082 93.5,53.5C 92.5224,53.9767 91.6891,54.6433 91,55.5C 91.4748,49.8202 88.9748,46.8202 83.5,46.5C 84.0402,45.2519 84.7069,44.0852 85.5,43C 84.0654,43.3112 82.7321,43.1445 81.5,42.5C 80.1832,40.8409 78.5165,39.6743 76.5,39C 75.3595,33.5443 71.6928,30.211 65.5,29C 66.3366,27.9887 66.67,26.8221 66.5,25.5C 65.448,25.6495 64.448,25.4828 63.5,25C 62.3659,23.984 62.6992,23.3173 64.5,23C 61.9385,20.719 59.2718,18.5523 56.5,16.5C 56.5,15.8333 56.5,15.1667 56.5,14.5 Z"/></g>
<g><path style="opacity:0.443" fill="#a2d1b2" d="M 177.5,27.5 C 177.715,29.1788 177.048,30.1788 175.5,30.5C 175.932,29.2905 176.599,28.2905 177.5,27.5 Z"/></g>
<g><path style="opacity:1" fill="#0d793d" d="M 56.5,14.5 C 56.5,15.1667 56.5,15.8333 56.5,16.5C 62.4033,29.3107 69.07,41.644 76.5,53.5C 82.8921,65.9488 89.5588,78.2821 96.5,90.5C 99.3473,94.8612 101.681,99.5278 103.5,104.5C 101.352,104.389 101.019,105.056 102.5,106.5C 102.192,107.308 101.692,107.975 101,108.5C 100.784,106.616 100.117,104.949 99,103.5C 98.5488,105.929 97.7155,106.096 96.5,104C 96.8333,102.333 97.1667,100.667 97.5,99C 96.552,98.5172 95.552,98.3505 94.5,98.5C 94.6495,99.552 94.4828,100.552 94,101.5C 93.1382,99.4056 91.9715,98.4056 90.5,98.5C 91.8114,97.7425 92.3114,96.7425 92,95.5C 90.984,96.6341 90.3173,96.3008 90,94.5C 89.3109,95.3567 88.4776,96.0233 87.5,96.5C 86.5,95 85.5,93.5 84.5,92C 84.6448,91.228 84.9781,90.5613 85.5,90C 83.913,89.1376 82.2464,88.4709 80.5,88C 80.8333,87.6667 81.1667,87.3333 81.5,87C 80.376,86.7508 79.376,86.2508 78.5,85.5C 79.7345,83.6017 79.4011,81.935 77.5,80.5C 76.5224,80.9767 75.6891,81.6433 75,82.5C 74.3483,80.2769 72.8483,79.1102 70.5,79C 73.2862,76.9786 72.9528,75.4786 69.5,74.5C 71.0107,72.1625 70.6773,71.4958 68.5,72.5C 67.3044,72.1543 67.3044,71.6543 68.5,71C 67.552,70.5172 66.552,70.3505 65.5,70.5C 65.7361,67.7743 64.9028,65.441 63,63.5C 62.5814,64.6721 61.9147,65.6721 61,66.5C 59.8333,64.6667 58.3333,63.1667 56.5,62C 56.8333,61.6667 57.1667,61.3333 57.5,61C 55.2986,53.2149 53.9653,45.3816 53.5,37.5C 53.1688,29.1401 53.5021,20.8068 54.5,12.5C 55.5223,12.8555 56.189,13.5222 56.5,14.5 Z"/></g>
<g><path style="opacity:1" fill="#139649" d="M 187.5,14.5 C 188.493,23.3178 188.827,32.3178 188.5,41.5C 187.672,47.6534 187.172,53.9867 187,60.5C 186.824,57.1182 186.324,53.7848 185.5,50.5C 185.254,52.2195 185.254,54.2195 185.5,56.5C 184.022,56.762 182.689,56.4287 181.5,55.5C 182.397,55.3309 183.397,54.9976 184.5,54.5C 183.975,53.8076 183.308,53.3076 182.5,53C 182.833,52.6667 183.167,52.3333 183.5,52C 181.837,51.7351 180.337,52.2351 179,53.5C 177.084,52.0722 174.917,51.0722 172.5,50.5C 171.833,48.5 170.5,47.1667 168.5,46.5C 166.277,45.962 164.277,46.6286 162.5,48.5C 166.629,42.2936 170.962,36.2936 175.5,30.5C 177.048,30.1788 177.715,29.1788 177.5,27.5C 179.633,25.9095 181.299,23.9095 182.5,21.5C 184.048,21.1788 184.715,20.1788 184.5,18.5C 184.5,17.8333 184.833,17.5 185.5,17.5C 187.048,17.1788 187.715,16.1788 187.5,14.5 Z"/></g>
<g><path style="opacity:1" fill="#115a2e" d="M 143.5,91.5 C 147.425,100.606 150.758,109.94 153.5,119.5C 153.5,120.833 153.5,122.167 153.5,123.5C 152.015,122.065 150.682,122.232 149.5,124C 150.34,125.666 149.84,125.833 148,124.5C 147.349,126.235 147.515,127.902 148.5,129.5C 147.833,129.833 147.167,130.167 146.5,130.5C 147.025,131.192 147.692,131.692 148.5,132C 145.843,132.175 143.176,132.008 140.5,131.5C 140.674,128.155 139.341,126.988 136.5,128C 135.363,125.543 133.863,123.376 132,121.5C 131.333,122.833 130.667,122.833 130,121.5C 130.148,120.175 129.982,119.008 129.5,118C 127.048,117.71 124.715,117.044 122.5,116C 124.657,114.915 124.824,113.749 123,112.5C 122.667,113.167 122.333,113.833 122,114.5C 120.414,112.33 119.08,109.996 118,107.5C 117.586,107.957 117.086,108.291 116.5,108.5C 115.646,107.478 114.646,106.645 113.5,106C 115.301,105.683 115.634,105.016 114.5,104C 111.175,100.478 107.175,97.645 102.5,95.5C 101.289,94.2798 101.289,93.1131 102.5,92C 101.551,91.3828 100.718,91.5494 100,92.5C 99.0766,91.2412 98.2432,89.9079 97.5,88.5C 96.7025,88.9569 96.3691,89.6236 96.5,90.5C 89.5588,78.2821 82.8921,65.9488 76.5,53.5C 76.4701,52.5028 76.9701,51.8361 78,51.5C 80.3751,51.8178 81.5417,53.1511 81.5,55.5C 82.552,55.3505 83.552,55.5172 84.5,56C 85.6508,58.1193 87.1508,59.9527 89,61.5C 90.6665,60.6598 90.8331,61.1598 89.5,63C 91.7231,63.6517 92.8898,65.1517 93,67.5C 93.85,66.5761 94.85,66.5761 96,67.5C 99.0733,69.0735 99.5733,70.9068 97.5,73C 100.573,73.7386 102.74,75.5719 104,78.5C 105.06,78.7455 106.227,78.7455 107.5,78.5C 108.287,79.2421 108.953,80.0754 109.5,81C 108.327,84.1103 108.827,84.277 111,81.5C 111.317,83.3008 111.984,83.6341 113,82.5C 112.981,84.1075 112.815,85.7741 112.5,87.5C 114.29,86.9866 115.956,86.4866 117.5,86C 116.978,86.5613 116.645,87.228 116.5,88C 118.552,90.6027 120.218,93.436 121.5,96.5C 122.086,96.2907 122.586,95.9574 123,95.5C 125.211,97.8781 127.711,98.8781 130.5,98.5C 131.5,99.8333 132.5,101.167 133.5,102.5C 134.912,101.194 136.579,100.36 138.5,100C 136.068,98.9125 136.402,98.4125 139.5,98.5C 139.492,104.208 139.992,104.541 141,99.5C 141.333,99.8333 141.667,100.167 142,100.5C 142.429,98.3313 141.929,96.3313 140.5,94.5C 141.548,93.452 142.548,92.452 143.5,91.5 Z"/></g>
<g><path style="opacity:0.282" fill="#8dc49f" d="M 157.5,54.5 C 157.715,56.1788 157.048,57.1788 155.5,57.5C 155.427,55.9731 156.094,54.9731 157.5,54.5 Z"/></g>
<g><path style="opacity:1" fill="#17753e" d="M 53.5,37.5 C 53.9653,45.3816 55.2986,53.2149 57.5,61C 57.1667,61.3333 56.8333,61.6667 56.5,62C 58.3333,63.1667 59.8333,64.6667 61,66.5C 61.9147,65.6721 62.5814,64.6721 63,63.5C 64.9028,65.441 65.7361,67.7743 65.5,70.5C 66.552,70.3505 67.552,70.5172 68.5,71C 67.3044,71.6543 67.3044,72.1543 68.5,72.5C 70.6773,71.4958 71.0107,72.1625 69.5,74.5C 72.9528,75.4786 73.2862,76.9786 70.5,79C 72.8483,79.1102 74.3483,80.2769 75,82.5C 75.6891,81.6433 76.5224,80.9767 77.5,80.5C 79.4011,81.935 79.7345,83.6017 78.5,85.5C 79.376,86.2508 80.376,86.7508 81.5,87C 81.1667,87.3333 80.8333,87.6667 80.5,88C 82.2464,88.4709 83.913,89.1376 85.5,90C 84.9781,90.5613 84.6448,91.228 84.5,92C 85.5,93.5 86.5,95 87.5,96.5C 88.4776,96.0233 89.3109,95.3567 90,94.5C 90.3173,96.3008 90.984,96.6341 92,95.5C 92.3114,96.7425 91.8114,97.7425 90.5,98.5C 91.9715,98.4056 93.1382,99.4056 94,101.5C 94.4828,100.552 94.6495,99.552 94.5,98.5C 95.552,98.3505 96.552,98.5172 97.5,99C 97.1667,100.667 96.8333,102.333 96.5,104C 97.7155,106.096 98.5488,105.929 99,103.5C 100.117,104.949 100.784,106.616 101,108.5C 101.692,107.975 102.192,107.308 102.5,106.5C 101.019,105.056 101.352,104.389 103.5,104.5C 110.607,118.033 118.273,131.366 126.5,144.5C 129.384,149.601 131.718,154.934 133.5,160.5C 130.097,165.234 125.764,168.901 120.5,171.5C 120.577,170.25 121.244,169.417 122.5,169C 121.736,166.931 121.236,164.764 121,162.5C 119.667,161.833 118.667,160.833 118,159.5C 117.667,159.833 117.333,160.167 117,160.5C 116.837,158.324 116.004,156.491 114.5,155C 116.397,153.89 118.23,153.724 120,154.5C 120.667,153.5 120.667,152.5 120,151.5C 119.667,151.833 119.333,152.167 119,152.5C 117.258,149.649 114.925,148.982 112,150.5C 110.798,148.447 110.464,146.447 111,144.5C 110.085,145.328 109.419,146.328 109,147.5C 108.487,145.479 107.32,143.979 105.5,143C 106.167,142.333 106.833,141.667 107.5,141C 105.91,139.954 104.41,138.787 103,137.5C 102.667,137.833 102.333,138.167 102,138.5C 102.655,136.172 103.322,133.839 104,131.5C 102.817,132.731 101.651,132.731 100.5,131.5C 98.2486,128.705 95.5819,126.372 92.5,124.5C 92.1013,120.939 90.268,120.605 87,123.5C 87.1953,121.874 87.1953,120.207 87,118.5C 86.586,118.957 86.086,119.291 85.5,119.5C 84.2888,118.726 84.2888,117.893 85.5,117C 83.3761,115.379 81.3761,113.546 79.5,111.5C 78.8333,111.833 78.1667,112.167 77.5,112.5C 76.3044,112.154 76.3044,111.654 77.5,111C 76.552,110.517 75.552,110.351 74.5,110.5C 74.5479,107.708 73.2146,105.875 70.5,105C 70.8333,104.667 71.1667,104.333 71.5,104C 69.7289,101.887 68.2289,102.053 67,104.5C 66.5078,103.451 66.6744,102.451 67.5,101.5C 66.3493,100.269 65.1827,100.269 64,101.5C 63.6905,100.234 63.1905,99.0674 62.5,98C 63.5,97.6667 64.5,97.3333 65.5,97C 63.6667,96.5 62.5,95.3333 62,93.5C 57.5255,94.7654 57.3589,94.0987 61.5,91.5C 60.4179,91.2514 59.0846,91.0848 57.5,91C 59.7092,90.043 59.5425,88.8764 57,87.5C 56.6667,84.8333 56.3333,82.1667 56,79.5C 55.5005,85.4908 55.3338,91.4908 55.5,97.5C 55.8261,106.017 55.4927,114.35 54.5,122.5C 53.5088,94.2405 53.1755,65.9072 53.5,37.5 Z"/></g>
<g><path style="opacity:1" fill="#0d8b44" d="M 188.5,41.5 C 188.5,72.8333 188.5,104.167 188.5,135.5C 187.509,129.021 187.176,122.354 187.5,115.5C 172.206,103.511 156.872,91.5111 141.5,79.5C 141.167,78.8333 140.833,78.1667 140.5,77.5C 144.793,70.2198 149.793,63.5532 155.5,57.5C 157.048,57.1788 157.715,56.1788 157.5,54.5C 158.345,52.3841 160.011,50.3841 162.5,48.5C 164.277,46.6286 166.277,45.962 168.5,46.5C 170.5,47.1667 171.833,48.5 172.5,50.5C 174.917,51.0722 177.084,52.0722 179,53.5C 180.337,52.2351 181.837,51.7351 183.5,52C 183.167,52.3333 182.833,52.6667 182.5,53C 183.308,53.3076 183.975,53.8076 184.5,54.5C 183.397,54.9976 182.397,55.3309 181.5,55.5C 182.689,56.4287 184.022,56.762 185.5,56.5C 185.254,54.2195 185.254,52.2195 185.5,50.5C 186.324,53.7848 186.824,57.1182 187,60.5C 187.172,53.9867 187.672,47.6534 188.5,41.5 Z"/></g>
<g><path style="opacity:1" fill="#0e431f" d="M 141.5,79.5 C 156.872,91.5111 172.206,103.511 187.5,115.5C 182.187,119.15 177.187,123.15 172.5,127.5C 172.586,126.504 172.252,125.671 171.5,125C 173.007,124.163 173.507,122.996 173,121.5C 172.163,123.007 170.996,123.507 169.5,123C 170.731,121.817 170.731,120.651 169.5,119.5C 168.833,120.5 168.167,121.5 167.5,122.5C 164.947,120.106 162.281,117.939 159.5,116C 160.731,114.817 160.731,113.651 159.5,112.5C 160.016,113.758 159.35,114.758 157.5,115.5C 157.693,114.312 157.193,112.978 156,111.5C 154.864,114.096 154.031,116.763 153.5,119.5C 150.758,109.94 147.425,100.606 143.5,91.5C 143.405,89.2143 142.738,87.2143 141.5,85.5C 141.046,83.2589 141.046,81.2589 141.5,79.5 Z"/></g>
<g><path style="opacity:1" fill="#0f6d38" d="M 120.5,171.5 C 119.578,173.816 117.911,175.483 115.5,176.5C 116.323,174.545 116.49,172.545 116,170.5C 114.667,172.5 113,174.167 111,175.5C 111.222,173.544 112.055,171.71 113.5,170C 111.892,169.342 110.725,169.842 110,171.5C 107.832,170.371 107.332,168.871 108.5,167C 105.73,165.34 104.563,163.173 105,160.5C 104.044,161.579 103.211,162.745 102.5,164C 101.833,164.667 101.167,164.667 100.5,164C 101.357,163.311 102.023,162.478 102.5,161.5C 101.139,159.972 99.972,158.305 99,156.5C 98.1627,154.993 96.9961,154.493 95.5,155C 97.326,156.835 98.326,158.669 98.5,160.5C 96.0046,158.851 94.5046,156.517 94,153.5C 93.6667,153.833 93.3333,154.167 93,154.5C 92.6924,153.692 92.1924,153.025 91.5,152.5C 90.1054,153.815 89.1054,153.481 88.5,151.5C 89.376,150.749 90.376,150.249 91.5,150C 91.2533,148.187 90.92,146.353 90.5,144.5C 88.674,144.08 86.674,144.08 84.5,144.5C 84.7852,146.288 84.4519,147.955 83.5,149.5C 83.9743,147.207 83.3076,145.041 81.5,143C 81.9903,141.018 82.9903,139.351 84.5,138C 83.5509,137.383 82.7175,137.549 82,138.5C 81.9405,135.21 80.6071,134.21 78,135.5C 76.3468,135.18 75.3468,134.18 75,132.5C 74.2588,133.641 73.4255,133.641 72.5,132.5C 70.1457,129.312 67.3124,126.645 64,124.5C 63.5172,123.552 63.3505,122.552 63.5,121.5C 62.448,121.649 61.448,121.483 60.5,121C 59.8448,119.513 58.8448,118.347 57.5,117.5C 57.4975,110.801 56.8308,104.134 55.5,97.5C 55.3338,91.4908 55.5005,85.4908 56,79.5C 56.3333,82.1667 56.6667,84.8333 57,87.5C 59.5425,88.8764 59.7092,90.043 57.5,91C 59.0846,91.0848 60.4179,91.2514 61.5,91.5C 57.3589,94.0987 57.5255,94.7654 62,93.5C 62.5,95.3333 63.6667,96.5 65.5,97C 64.5,97.3333 63.5,97.6667 62.5,98C 63.1905,99.0674 63.6905,100.234 64,101.5C 65.1827,100.269 66.3493,100.269 67.5,101.5C 66.6744,102.451 66.5078,103.451 67,104.5C 68.2289,102.053 69.7289,101.887 71.5,104C 71.1667,104.333 70.8333,104.667 70.5,105C 73.2146,105.875 74.5479,107.708 74.5,110.5C 75.552,110.351 76.552,110.517 77.5,111C 76.3044,111.654 76.3044,112.154 77.5,112.5C 78.1667,112.167 78.8333,111.833 79.5,111.5C 81.3761,113.546 83.3761,115.379 85.5,117C 84.2888,117.893 84.2888,118.726 85.5,119.5C 86.086,119.291 86.586,118.957 87,118.5C 87.1953,120.207 87.1953,121.874 87,123.5C 90.268,120.605 92.1013,120.939 92.5,124.5C 95.5819,126.372 98.2486,128.705 100.5,131.5C 101.651,132.731 102.817,132.731 104,131.5C 103.322,133.839 102.655,136.172 102,138.5C 102.333,138.167 102.667,137.833 103,137.5C 104.41,138.787 105.91,139.954 107.5,141C 106.833,141.667 106.167,142.333 105.5,143C 107.32,143.979 108.487,145.479 109,147.5C 109.419,146.328 110.085,145.328 111,144.5C 110.464,146.447 110.798,148.447 112,150.5C 114.925,148.982 117.258,149.649 119,152.5C 119.333,152.167 119.667,151.833 120,151.5C 120.667,152.5 120.667,153.5 120,154.5C 118.23,153.724 116.397,153.89 114.5,155C 116.004,156.491 116.837,158.324 117,160.5C 117.333,160.167 117.667,159.833 118,159.5C 118.667,160.833 119.667,161.833 121,162.5C 121.236,164.764 121.736,166.931 122.5,169C 121.244,169.417 120.577,170.25 120.5,171.5 Z"/></g>
<g><path style="opacity:1" fill="#0f3b1d" d="M 172.5,127.5 C 169.5,130.167 166.5,132.833 163.5,135.5C 162.5,136.167 161.5,136.833 160.5,137.5C 158.17,132.853 155.837,128.186 153.5,123.5C 153.5,122.167 153.5,120.833 153.5,119.5C 154.031,116.763 154.864,114.096 156,111.5C 157.193,112.978 157.693,114.312 157.5,115.5C 159.35,114.758 160.016,113.758 159.5,112.5C 160.731,113.651 160.731,114.817 159.5,116C 162.281,117.939 164.947,120.106 167.5,122.5C 168.167,121.5 168.833,120.5 169.5,119.5C 170.731,120.651 170.731,121.817 169.5,123C 170.996,123.507 172.163,123.007 173,121.5C 173.507,122.996 173.007,124.163 171.5,125C 172.252,125.671 172.586,126.504 172.5,127.5 Z"/></g>
<g><path style="opacity:1" fill="#10542a" d="M 153.5,123.5 C 155.837,128.186 158.17,132.853 160.5,137.5C 160.5,138.167 160.167,138.5 159.5,138.5C 150.898,145.618 142.564,152.951 134.5,160.5C 134.167,160.5 133.833,160.5 133.5,160.5C 131.718,154.934 129.384,149.601 126.5,144.5C 118.273,131.366 110.607,118.033 103.5,104.5C 101.681,99.5278 99.3473,94.8612 96.5,90.5C 96.3691,89.6236 96.7025,88.9569 97.5,88.5C 98.2432,89.9079 99.0766,91.2412 100,92.5C 100.718,91.5494 101.551,91.3828 102.5,92C 101.289,93.1131 101.289,94.2798 102.5,95.5C 107.175,97.645 111.175,100.478 114.5,104C 115.634,105.016 115.301,105.683 113.5,106C 114.646,106.645 115.646,107.478 116.5,108.5C 117.086,108.291 117.586,107.957 118,107.5C 119.08,109.996 120.414,112.33 122,114.5C 122.333,113.833 122.667,113.167 123,112.5C 124.824,113.749 124.657,114.915 122.5,116C 124.715,117.044 127.048,117.71 129.5,118C 129.982,119.008 130.148,120.175 130,121.5C 130.667,122.833 131.333,122.833 132,121.5C 133.863,123.376 135.363,125.543 136.5,128C 139.341,126.988 140.674,128.155 140.5,131.5C 143.176,132.008 145.843,132.175 148.5,132C 147.692,131.692 147.025,131.192 146.5,130.5C 147.167,130.167 147.833,129.833 148.5,129.5C 147.515,127.902 147.349,126.235 148,124.5C 149.84,125.833 150.34,125.666 149.5,124C 150.682,122.232 152.015,122.065 153.5,123.5 Z"/></g>
<g><path style="opacity:0.996" fill="#116735" d="M 55.5,97.5 C 56.8308,104.134 57.4975,110.801 57.5,117.5C 58.8448,118.347 59.8448,119.513 60.5,121C 61.448,121.483 62.448,121.649 63.5,121.5C 63.3505,122.552 63.5172,123.552 64,124.5C 67.3124,126.645 70.1457,129.312 72.5,132.5C 73.4255,133.641 74.2588,133.641 75,132.5C 75.3468,134.18 76.3468,135.18 78,135.5C 80.6071,134.21 81.9405,135.21 82,138.5C 82.7175,137.549 83.5509,137.383 84.5,138C 82.9903,139.351 81.9903,141.018 81.5,143C 83.3076,145.041 83.9743,147.207 83.5,149.5C 84.4519,147.955 84.7852,146.288 84.5,144.5C 86.674,144.08 88.674,144.08 90.5,144.5C 90.92,146.353 91.2533,148.187 91.5,150C 90.376,150.249 89.376,150.749 88.5,151.5C 89.1054,153.481 90.1054,153.815 91.5,152.5C 92.1924,153.025 92.6924,153.692 93,154.5C 93.3333,154.167 93.6667,153.833 94,153.5C 94.5046,156.517 96.0046,158.851 98.5,160.5C 98.326,158.669 97.326,156.835 95.5,155C 96.9961,154.493 98.1627,154.993 99,156.5C 99.972,158.305 101.139,159.972 102.5,161.5C 102.023,162.478 101.357,163.311 100.5,164C 101.167,164.667 101.833,164.667 102.5,164C 103.211,162.745 104.044,161.579 105,160.5C 104.563,163.173 105.73,165.34 108.5,167C 107.332,168.871 107.832,170.371 110,171.5C 110.725,169.842 111.892,169.342 113.5,170C 112.055,171.71 111.222,173.544 111,175.5C 113,174.167 114.667,172.5 116,170.5C 116.49,172.545 116.323,174.545 115.5,176.5C 109.823,182.176 103.823,187.509 97.5,192.5C 97.5,191.833 97.1667,191.5 96.5,191.5C 97.1847,189.586 97.6847,187.586 98,185.5C 98.6543,186.696 99.1543,186.696 99.5,185.5C 97.443,183.731 95.6097,181.731 94,179.5C 92.3335,180.34 92.1669,179.84 93.5,178C 92.0039,177.493 90.8373,177.993 90,179.5C 88.513,178.747 88.3463,177.914 89.5,177C 88.8333,176.667 88.1667,176.333 87.5,176C 88.6721,175.581 89.6721,174.915 90.5,174C 88.2088,174.811 86.3754,173.977 85,171.5C 84.6667,171.833 84.3333,172.167 84,172.5C 83.0857,170.336 81.919,168.336 80.5,166.5C 79.7261,165.289 78.8928,165.289 78,166.5C 77.1667,165 76,163.833 74.5,163C 76.6857,162.396 76.8524,161.23 75,159.5C 74.0266,161.392 73.3599,163.392 73,165.5C 71.513,164.747 71.3463,163.914 72.5,163C 70.7834,161.441 68.7834,160.608 66.5,160.5C 66.3739,158.8 65.7073,157.3 64.5,156C 65.3302,153.721 64.4969,151.888 62,150.5C 61.1887,151.96 60.3554,152.293 59.5,151.5C 62.3054,147.472 61.3054,145.972 56.5,147C 55.3659,145.984 55.6992,145.317 57.5,145C 56.4734,144.487 55.4734,143.987 54.5,143.5C 54.5,136.5 54.5,129.5 54.5,122.5C 55.4927,114.35 55.8261,106.017 55.5,97.5 Z"/></g>
<g><path style="opacity:1" fill="#126032" d="M 187.5,115.5 C 187.176,122.354 187.509,129.021 188.5,135.5C 188.5,153.167 188.5,170.833 188.5,188.5C 188.134,179.914 187.134,171.414 185.5,163C 186.022,162.439 186.355,161.772 186.5,161C 185.518,159.946 184.351,159.446 183,159.5C 183.979,157.721 183.646,156.055 182,154.5C 181.586,154.957 181.086,155.291 180.5,155.5C 178.016,153.517 175.683,151.35 173.5,149C 172.551,148.383 171.718,148.549 171,149.5C 170.727,147.899 170.227,146.399 169.5,145C 170.28,143.927 170.113,142.76 169,141.5C 168.549,143.929 167.715,144.096 166.5,142C 167.784,140.703 167.617,139.536 166,138.5C 164.667,139.167 163.667,140.167 163,141.5C 162.626,140.584 162.126,139.75 161.5,139C 162.823,138.184 163.489,137.017 163.5,135.5C 166.5,132.833 169.5,130.167 172.5,127.5C 177.187,123.15 182.187,119.15 187.5,115.5 Z"/></g>
<g><path style="opacity:1" fill="#11592d" d="M 163.5,135.5 C 163.489,137.017 162.823,138.184 161.5,139C 162.126,139.75 162.626,140.584 163,141.5C 163.667,140.167 164.667,139.167 166,138.5C 167.617,139.536 167.784,140.703 166.5,142C 167.715,144.096 168.549,143.929 169,141.5C 170.113,142.76 170.28,143.927 169.5,145C 170.227,146.399 170.727,147.899 171,149.5C 171.718,148.549 172.551,148.383 173.5,149C 175.683,151.35 178.016,153.517 180.5,155.5C 181.086,155.291 181.586,154.957 182,154.5C 183.646,156.055 183.979,157.721 183,159.5C 184.351,159.446 185.518,159.946 186.5,161C 186.355,161.772 186.022,162.439 185.5,163C 187.134,171.414 188.134,179.914 188.5,188.5C 188.5,201.5 188.5,214.5 188.5,227.5C 187.365,224.098 186.032,220.765 184.5,217.5C 175.961,191.218 167.628,164.885 159.5,138.5C 160.167,138.5 160.5,138.167 160.5,137.5C 161.5,136.833 162.5,136.167 163.5,135.5 Z"/></g>
<g><path style="opacity:0.993" fill="#106031" d="M 54.5,143.5 C 55.4734,143.987 56.4734,144.487 57.5,145C 55.6992,145.317 55.3659,145.984 56.5,147C 61.3054,145.972 62.3054,147.472 59.5,151.5C 60.3554,152.293 61.1887,151.96 62,150.5C 64.4969,151.888 65.3302,153.721 64.5,156C 65.7073,157.3 66.3739,158.8 66.5,160.5C 68.7834,160.608 70.7834,161.441 72.5,163C 71.3463,163.914 71.513,164.747 73,165.5C 73.3599,163.392 74.0266,161.392 75,159.5C 76.8524,161.23 76.6857,162.396 74.5,163C 76,163.833 77.1667,165 78,166.5C 78.8928,165.289 79.7261,165.289 80.5,166.5C 81.919,168.336 83.0857,170.336 84,172.5C 84.3333,172.167 84.6667,171.833 85,171.5C 86.3754,173.977 88.2088,174.811 90.5,174C 89.6721,174.915 88.6721,175.581 87.5,176C 88.1667,176.333 88.8333,176.667 89.5,177C 88.3463,177.914 88.513,178.747 90,179.5C 90.8373,177.993 92.0039,177.493 93.5,178C 92.1669,179.84 92.3335,180.34 94,179.5C 95.6097,181.731 97.443,183.731 99.5,185.5C 99.1543,186.696 98.6543,186.696 98,185.5C 97.6847,187.586 97.1847,189.586 96.5,191.5C 95.0937,191.973 94.427,192.973 94.5,194.5C 94.1667,194.5 93.8333,194.5 93.5,194.5C 93.5654,194.062 93.3988,193.728 93,193.5C 90.0347,194.348 87.2014,195.181 84.5,196C 85.5,195 86.5,194 87.5,193C 86.5509,192.383 85.7175,192.549 85,193.5C 84.3162,192.216 84.4829,191.049 85.5,190C 82.3346,190.446 81.668,188.946 83.5,185.5C 83.1924,184.692 82.6924,184.025 82,183.5C 81.7266,185.101 81.2266,186.601 80.5,188C 78.567,188.251 76.7337,188.751 75,189.5C 74.8078,187.423 74.3078,185.423 73.5,183.5C 72.5224,183.977 71.6891,184.643 71,185.5C 69.3903,182.218 67.2237,182.218 64.5,185.5C 62.5121,184.711 62.1787,183.545 63.5,182C 62.8742,181.25 62.3742,180.416 62,179.5C 60.6124,180.554 59.1124,180.72 57.5,180C 58.5,179.667 59.5,179.333 60.5,179C 57.9417,178.116 55.9417,176.616 54.5,174.5C 54.5,164.167 54.5,153.833 54.5,143.5 Z"/></g>
<g><path style="opacity:1" fill="#11743c" d="M 159.5,138.5 C 167.628,164.885 175.961,191.218 184.5,217.5C 184.286,219.144 184.62,220.644 185.5,222C 183.865,222.54 182.532,222.04 181.5,220.5C 180.914,220.709 180.414,221.043 180,221.5C 179.727,219.671 178.893,218.171 177.5,217C 180.855,217.795 181.355,216.628 179,213.5C 177.488,214.257 176.154,215.257 175,216.5C 174.333,215.833 174.333,215.167 175,214.5C 176.255,213.789 177.421,212.956 178.5,212C 177.751,210.266 177.251,208.433 177,206.5C 176.273,208.953 175.273,211.286 174,213.5C 173.282,214.451 172.449,214.617 171.5,214C 170.844,212.335 170.844,209.835 171.5,206.5C 171.182,205.353 170.516,204.519 169.5,204C 171.5,203.333 173.5,202.667 175.5,202C 173.239,201.761 171.239,201.594 169.5,201.5C 169.808,200.692 170.308,200.025 171,199.5C 172.388,200.554 173.888,200.72 175.5,200C 173.369,199.457 171.369,198.624 169.5,197.5C 170.167,197.167 170.833,196.833 171.5,196.5C 169.902,194.027 168.402,194.027 167,196.5C 163.716,194.615 163.216,192.448 165.5,190C 164.833,189.333 164.167,189.333 163.5,190C 162.636,191.697 161.303,192.863 159.5,193.5C 158.351,190.881 156.017,188.881 152.5,187.5C 152.167,187.667 151.833,187.833 151.5,188C 152.867,190.301 153.534,192.801 153.5,195.5C 147.888,186.481 142.888,177.481 138.5,168.5C 138.416,165.318 137.083,162.985 134.5,161.5C 134.5,161.167 134.5,160.833 134.5,160.5C 142.564,152.951 150.898,145.618 159.5,138.5 Z"/></g>
<g><path style="opacity:0.475" fill="#90bfa0" d="M 134.5,161.5 C 137.083,162.985 138.416,165.318 138.5,168.5C 136.929,166.365 135.596,164.032 134.5,161.5 Z"/></g>
<g><path style="opacity:0.991" fill="#145c30" d="M 54.5,174.5 C 55.9417,176.616 57.9417,178.116 60.5,179C 59.5,179.333 58.5,179.667 57.5,180C 59.1124,180.72 60.6124,180.554 62,179.5C 62.3742,180.416 62.8742,181.25 63.5,182C 62.1787,183.545 62.5121,184.711 64.5,185.5C 67.2237,182.218 69.3903,182.218 71,185.5C 71.6891,184.643 72.5224,183.977 73.5,183.5C 74.3078,185.423 74.8078,187.423 75,189.5C 76.7337,188.751 78.567,188.251 80.5,188C 81.2266,186.601 81.7266,185.101 82,183.5C 82.6924,184.025 83.1924,184.692 83.5,185.5C 81.668,188.946 82.3346,190.446 85.5,190C 84.4829,191.049 84.3162,192.216 85,193.5C 85.7175,192.549 86.5509,192.383 87.5,193C 86.5,194 85.5,195 84.5,196C 87.2014,195.181 90.0347,194.348 93,193.5C 93.3988,193.728 93.5654,194.062 93.5,194.5C 93.1667,195.5 92.5,196.167 91.5,196.5C 89.9731,196.427 88.9731,197.094 88.5,198.5C 87.483,200.911 85.8163,202.578 83.5,203.5C 81.9731,203.427 80.9731,204.094 80.5,205.5C 80.1667,206.5 79.5,207.167 78.5,207.5C 78.1667,207.5 77.8333,207.5 77.5,207.5C 76.5868,205.914 76.5868,204.414 77.5,203C 73.4844,200.787 73.4844,199.787 77.5,200C 75.9512,198.786 74.7845,197.286 74,195.5C 72.321,197.846 70.321,199.846 68,201.5C 67.5,201.333 67,201.167 66.5,201C 68.7898,200.21 69.1231,198.876 67.5,197C 66.2011,195.674 64.8678,194.34 63.5,193C 61.9242,192.612 60.5909,193.112 59.5,194.5C 60.4767,198.236 59.81,198.236 57.5,194.5C 58.55,192.898 57.8833,192.065 55.5,192C 57.9288,191.549 58.0955,190.715 56,189.5C 55.6174,190.056 55.1174,190.389 54.5,190.5C 54.5,185.167 54.5,179.833 54.5,174.5 Z"/></g>
<g><path style="opacity:0.047" fill="#a3c4ae" d="M 96.5,191.5 C 97.1667,191.5 97.5,191.833 97.5,192.5C 96.7095,193.401 95.7095,194.068 94.5,194.5C 94.427,192.973 95.0937,191.973 96.5,191.5 Z"/></g>
<g><path style="opacity:0.977" fill="#14552c" d="M 77.5,207.5 C 75.4131,208.585 74.0798,210.251 73.5,212.5C 72.5,213.167 71.5,213.833 70.5,214.5C 68.9731,214.427 67.9731,215.094 67.5,216.5C 66.1667,218.5 64.5,220.167 62.5,221.5C 62.5654,221.062 62.3988,220.728 62,220.5C 60.9614,221.244 60.4614,222.244 60.5,223.5C 58.8523,224.81 57.1856,226.143 55.5,227.5C 54.501,215.185 54.1676,202.851 54.5,190.5C 55.1174,190.389 55.6174,190.056 56,189.5C 58.0955,190.715 57.9288,191.549 55.5,192C 57.8833,192.065 58.55,192.898 57.5,194.5C 59.81,198.236 60.4767,198.236 59.5,194.5C 60.5909,193.112 61.9242,192.612 63.5,193C 64.8678,194.34 66.2011,195.674 67.5,197C 69.1231,198.876 68.7898,200.21 66.5,201C 67,201.167 67.5,201.333 68,201.5C 70.321,199.846 72.321,197.846 74,195.5C 74.7845,197.286 75.9512,198.786 77.5,200C 73.4844,199.787 73.4844,200.787 77.5,203C 76.5868,204.414 76.5868,205.914 77.5,207.5 Z"/></g>
<g><path style="opacity:0.999" fill="#1e723e" d="M 184.5,217.5 C 186.032,220.765 187.365,224.098 188.5,227.5C 186.085,228.814 183.252,229.481 180,229.5C 177.167,229.167 174.333,228.833 171.5,228.5C 170.024,226.554 169.024,224.887 168.5,223.5C 167.838,219.508 166.171,216.175 163.5,213.5C 161.542,209.985 159.542,206.985 157.5,204.5C 156.754,203.264 156.421,201.93 156.5,200.5C 156.741,197.966 155.741,196.3 153.5,195.5C 153.534,192.801 152.867,190.301 151.5,188C 151.833,187.833 152.167,187.667 152.5,187.5C 156.017,188.881 158.351,190.881 159.5,193.5C 161.303,192.863 162.636,191.697 163.5,190C 164.167,189.333 164.833,189.333 165.5,190C 163.216,192.448 163.716,194.615 167,196.5C 168.402,194.027 169.902,194.027 171.5,196.5C 170.833,196.833 170.167,197.167 169.5,197.5C 171.369,198.624 173.369,199.457 175.5,200C 173.888,200.72 172.388,200.554 171,199.5C 170.308,200.025 169.808,200.692 169.5,201.5C 171.239,201.594 173.239,201.761 175.5,202C 173.5,202.667 171.5,203.333 169.5,204C 170.516,204.519 171.182,205.353 171.5,206.5C 170.844,209.835 170.844,212.335 171.5,214C 172.449,214.617 173.282,214.451 174,213.5C 175.273,211.286 176.273,208.953 177,206.5C 177.251,208.433 177.751,210.266 178.5,212C 177.421,212.956 176.255,213.789 175,214.5C 174.333,215.167 174.333,215.833 175,216.5C 176.154,215.257 177.488,214.257 179,213.5C 181.355,216.628 180.855,217.795 177.5,217C 178.893,218.171 179.727,219.671 180,221.5C 180.414,221.043 180.914,220.709 181.5,220.5C 182.532,222.04 183.865,222.54 185.5,222C 184.62,220.644 184.286,219.144 184.5,217.5 Z"/></g>
<g><path style="opacity:0.576" fill="#66a17c" d="M 153.5,195.5 C 155.741,196.3 156.741,197.966 156.5,200.5C 154.75,199.341 153.75,197.674 153.5,195.5 Z"/></g>
<g><path style="opacity:0.145" fill="#80af93" d="M 91.5,196.5 C 91.0269,197.906 90.0269,198.573 88.5,198.5C 88.9731,197.094 89.9731,196.427 91.5,196.5 Z"/></g>
<g><path style="opacity:0.016" fill="#b2cebb" d="M 83.5,203.5 C 83.0269,204.906 82.0269,205.573 80.5,205.5C 80.9731,204.094 81.9731,203.427 83.5,203.5 Z"/></g>
<g><path style="opacity:0.016" fill="#a5c2ae" d="M 77.5,207.5 C 77.8333,207.5 78.1667,207.5 78.5,207.5C 77.1667,209.5 75.5,211.167 73.5,212.5C 74.0798,210.251 75.4131,208.585 77.5,207.5 Z"/></g>
<g><path style="opacity:0.584" fill="#629e7a" d="M 163.5,213.5 C 166.171,216.175 167.838,219.508 168.5,223.5C 166.341,220.516 164.675,217.183 163.5,213.5 Z"/></g>
<g><path style="opacity:0.035" fill="#8bab96" d="M 70.5,214.5 C 70.0269,215.906 69.0269,216.573 67.5,216.5C 67.9731,215.094 68.9731,214.427 70.5,214.5 Z"/></g>
<g><path style="opacity:0.024" fill="#9ebba9" d="M 62.5,221.5 C 62.1667,222.5 61.5,223.167 60.5,223.5C 60.4614,222.244 60.9614,221.244 62,220.5C 62.3988,220.728 62.5654,221.062 62.5,221.5 Z"/></g>
</svg>
