<?xml version="1.0" encoding="UTF-8"?>
<!DOCTYPE svg PUBLIC "-//W3C//DTD SVG 1.1//EN" "http://www.w3.org/Graphics/SVG/1.1/DTD/svg11.dtd">
<svg xmlns="http://www.w3.org/2000/svg" version="1.1" width="287px" height="287px" style="shape-rendering:geometricPrecision; text-rendering:geometricPrecision; image-rendering:optimizeQuality; fill-rule:evenodd; clip-rule:evenodd" xmlns:xlink="http://www.w3.org/1999/xlink">
<g><path style="opacity:0.999" fill="#e62037" d="M 5.5,6.5 C 10.8333,6.5 16.1667,6.5 21.5,6.5C 21.168,49.3366 21.5013,92.0033 22.5,134.5C 23.5869,142.763 26.2536,150.429 30.5,157.5C 30.427,159.027 31.0937,160.027 32.5,160.5C 54.1566,183.284 78.4899,186.618 105.5,170.5C 109.167,168.833 111.833,166.167 113.5,162.5C 113.833,161.5 114.5,160.833 115.5,160.5C 116.906,160.027 117.573,159.027 117.5,157.5C 121.746,150.429 124.413,142.763 125.5,134.5C 126.499,92.0033 126.832,49.3366 126.5,6.5C 177.5,6.5 228.5,6.5 279.5,6.5C 279.5,97.5 279.5,188.5 279.5,279.5C 274.167,279.5 268.833,279.5 263.5,279.5C 263.667,235.832 263.5,192.165 263,148.5C 253.792,115.633 232.292,101.8 198.5,107C 179.667,112.5 167.5,124.667 162,143.5C 160.526,188.794 160.026,234.128 160.5,279.5C 108.833,279.5 57.1667,279.5 5.5,279.5C 5.5,188.5 5.5,97.5 5.5,6.5 Z"/></g>
<g><path style="opacity:0.431" fill="#f3939f" d="M 5.5,6.5 C 10.9753,5.51114 16.642,5.1778 22.5,5.5C 22.5,48.5 22.5,91.5 22.5,134.5C 21.5013,92.0033 21.168,49.3366 21.5,6.5C 16.1667,6.5 10.8333,6.5 5.5,6.5 Z"/></g>
<g><path style="opacity:0.647" fill="#ed5b6c" d="M 32.5,132.5 C 31.5013,90.67 31.168,48.67 31.5,6.5C 30.1667,6.5 28.8333,6.5 27.5,6.5C 27.5,49.8333 27.5,93.1667 27.5,136.5C 26.5013,93.0032 26.168,49.3365 26.5,5.5C 28.5,5.5 30.5,5.5 32.5,5.5C 32.5,47.8333 32.5,90.1667 32.5,132.5 Z"/></g>
<g><path style="opacity:0.993" fill="#e83240" d="M 32.5,132.5 C 36.6092,155.775 50.4425,168.442 74,170.5C 97.5575,168.442 111.391,155.775 115.5,132.5C 116.499,90.67 116.832,48.67 116.5,6.5C 117.833,6.5 119.167,6.5 120.5,6.5C 120.5,49.8333 120.5,93.1667 120.5,136.5C 115.384,161.776 99.8842,175.109 74,176.5C 48.1158,175.109 32.6158,161.776 27.5,136.5C 27.5,93.1667 27.5,49.8333 27.5,6.5C 28.8333,6.5 30.1667,6.5 31.5,6.5C 31.168,48.67 31.5013,90.67 32.5,132.5 Z"/></g>
<g><path style="opacity:0.431" fill="#f2919d" d="M 42.5,6.5 C 40.8333,6.5 39.1667,6.5 37.5,6.5C 37.5,49.5 37.5,92.5 37.5,135.5C 36.5013,92.3365 36.168,49.0032 36.5,5.5C 38.7354,5.20528 40.7354,5.53862 42.5,6.5 Z"/></g>
<g><path style="opacity:0.994" fill="#e93644" d="M 42.5,6.5 C 42.3333,48.8346 42.5,91.168 43,133.5C 46.8019,149.913 57.1352,158.913 74,160.5C 90.8648,158.913 101.198,149.913 105,133.5C 105.5,91.168 105.667,48.8346 105.5,6.5C 107.167,6.5 108.833,6.5 110.5,6.5C 110.5,49.5 110.5,92.5 110.5,135.5C 106.462,155.285 94.2958,165.618 74,166.5C 53.7042,165.618 41.5376,155.285 37.5,135.5C 37.5,92.5 37.5,49.5 37.5,6.5C 39.1667,6.5 40.8333,6.5 42.5,6.5 Z"/></g>
<g><path style="opacity:0.995" fill="#e93443" d="M 46.5,6.5 C 48.1667,6.5 49.8333,6.5 51.5,6.5C 51.168,48.3367 51.5014,90.0033 52.5,131.5C 54.8366,143.338 62.0033,149.672 74,150.5C 85.5615,149.773 92.7281,143.773 95.5,132.5C 96.4987,90.67 96.832,48.67 96.5,6.5C 98.1667,6.5 99.8333,6.5 101.5,6.5C 101.667,49.5013 101.5,92.5013 101,135.5C 95.5048,152.172 84.0048,159.006 66.5,156C 56.2264,152.727 49.7264,145.894 47,135.5C 46.5,92.5013 46.3333,49.5013 46.5,6.5 Z"/></g>
<g><path style="opacity:0.431" fill="#f28f9c" d="M 46.5,6.5 C 48.2646,5.53862 50.2646,5.20528 52.5,5.5C 52.5,47.5 52.5,89.5 52.5,131.5C 51.5014,90.0033 51.168,48.3367 51.5,6.5C 49.8333,6.5 48.1667,6.5 46.5,6.5 Z"/></g>
<g><path style="opacity:0.431" fill="#f2909d" d="M 61.5,6.5 C 59.8333,6.5 58.1667,6.5 56.5,6.5C 56.5,48.5 56.5,90.5 56.5,132.5C 55.5013,90.3366 55.168,48.0033 55.5,5.5C 57.7354,5.20528 59.7354,5.53862 61.5,6.5 Z"/></g>
<g><path style="opacity:0.976" fill="#e7263a" d="M 61.5,6.5 C 61.3333,47.8347 61.5,89.168 62,130.5C 62.6077,132.154 63.1077,133.821 63.5,135.5C 63.5,137.5 64.5,138.5 66.5,138.5C 70.9235,141.983 75.5902,142.316 80.5,139.5C 82.8333,139.167 84.1667,137.833 84.5,135.5C 84.8923,133.821 85.3923,132.154 86,130.5C 86.5,89.168 86.6667,47.8347 86.5,6.5C 88.1667,6.5 89.8333,6.5 91.5,6.5C 91.5,48.5 91.5,90.5 91.5,132.5C 89.6964,142.011 83.863,147.011 74,147.5C 64.137,147.011 58.3036,142.011 56.5,132.5C 56.5,90.5 56.5,48.5 56.5,6.5C 58.1667,6.5 59.8333,6.5 61.5,6.5 Z"/></g>
<g><path style="opacity:0.204" fill="#f9c6cd" d="M 71.5,6.5 C 69.8333,6.5 68.1667,6.5 66.5,6.5C 66.5,48.1667 66.5,89.8333 66.5,131.5C 65.5013,89.67 65.168,47.67 65.5,5.5C 67.7354,5.20528 69.7354,5.53862 71.5,6.5 Z"/></g>
<g><path style="opacity:0.975" fill="#e62037" d="M 71.5,6.5 C 71.3333,47.5014 71.5,88.5014 72,129.5C 73.3333,132.167 74.6667,132.167 76,129.5C 76.5,88.5014 76.6667,47.5014 76.5,6.5C 78.1667,6.5 79.8333,6.5 81.5,6.5C 81.5,48.1667 81.5,89.8333 81.5,131.5C 78.7851,137.586 74.4518,138.92 68.5,135.5C 67.2949,134.423 66.6282,133.09 66.5,131.5C 66.5,89.8333 66.5,48.1667 66.5,6.5C 68.1667,6.5 69.8333,6.5 71.5,6.5 Z"/></g>
<g><path style="opacity:0.204" fill="#f9c6cd" d="M 76.5,6.5 C 78.2646,5.53862 80.2646,5.20528 82.5,5.5C 82.832,47.67 82.4987,89.67 81.5,131.5C 81.5,89.8333 81.5,48.1667 81.5,6.5C 79.8333,6.5 78.1667,6.5 76.5,6.5 Z"/></g>
<g><path style="opacity:0.431" fill="#f2909d" d="M 86.5,6.5 C 88.2646,5.53862 90.2646,5.20528 92.5,5.5C 92.832,48.0033 92.4987,90.3366 91.5,132.5C 91.5,90.5 91.5,48.5 91.5,6.5C 89.8333,6.5 88.1667,6.5 86.5,6.5 Z"/></g>
<g><path style="opacity:0.431" fill="#f28f9b" d="M 101.5,6.5 C 99.8333,6.5 98.1667,6.5 96.5,6.5C 96.832,48.67 96.4987,90.67 95.5,132.5C 95.5,90.1667 95.5,47.8333 95.5,5.5C 97.7354,5.20528 99.7354,5.53862 101.5,6.5 Z"/></g>
<g><path style="opacity:0.431" fill="#f2909d" d="M 105.5,6.5 C 107.265,5.53862 109.265,5.20528 111.5,5.5C 111.832,49.0032 111.499,92.3365 110.5,135.5C 110.5,92.5 110.5,49.5 110.5,6.5C 108.833,6.5 107.167,6.5 105.5,6.5 Z"/></g>
<g><path style="opacity:0.647" fill="#ed5b6c" d="M 120.5,136.5 C 120.5,93.1667 120.5,49.8333 120.5,6.5C 119.167,6.5 117.833,6.5 116.5,6.5C 116.832,48.67 116.499,90.67 115.5,132.5C 115.5,90.1667 115.5,47.8333 115.5,5.5C 117.5,5.5 119.5,5.5 121.5,5.5C 121.832,49.3365 121.499,93.0032 120.5,136.5 Z"/></g>
<g><path style="opacity:0.431" fill="#f499a4" d="M 279.5,279.5 C 279.5,188.5 279.5,97.5 279.5,6.5C 228.5,6.5 177.5,6.5 126.5,6.5C 126.832,49.3366 126.499,92.0033 125.5,134.5C 125.5,91.5 125.5,48.5 125.5,5.5C 177.167,5.5 228.833,5.5 280.5,5.5C 280.833,97.0015 280.499,188.335 279.5,279.5 Z"/></g>
<g><path style="opacity:0.992" fill="#ea3f4b" d="M 250.5,129.5 C 250.427,131.027 251.094,132.027 252.5,132.5C 255.922,137.585 258.088,143.252 259,149.5C 259.5,192.832 259.667,236.165 259.5,279.5C 257.5,279.5 255.5,279.5 253.5,279.5C 253.968,235.133 253.468,190.8 252,146.5C 245.598,127.292 232.265,116.958 212,115.5C 191.735,116.958 178.402,127.292 172,146.5C 170.526,190.794 170.026,235.128 170.5,279.5C 168.5,279.5 166.5,279.5 164.5,279.5C 164.333,235.832 164.5,192.165 165,148.5C 171.033,123.794 186.7,110.794 212,109.5C 228.304,109.733 241.137,116.4 250.5,129.5 Z"/></g>
<g><path style="opacity:0.994" fill="#ea3f4b" d="M 181.5,135.5 C 182.906,135.027 183.573,134.027 183.5,132.5C 195.419,119.771 209.752,116.271 226.5,122C 238.894,127.614 246.394,137.114 249,150.5C 249.5,193.499 249.667,236.499 249.5,279.5C 247.5,279.5 245.5,279.5 243.5,279.5C 243.973,235.794 243.473,192.127 242,148.5C 234.811,130.487 221.644,123.32 202.5,127C 192.359,130.474 185.526,137.307 182,147.5C 180.526,191.461 180.026,235.461 180.5,279.5C 178.5,279.5 176.5,279.5 174.5,279.5C 174.333,236.499 174.5,193.499 175,150.5C 175.571,144.703 177.738,139.703 181.5,135.5 Z"/></g>
<g><path style="opacity:0.984" fill="#e93947" d="M 188.5,142.5 C 189.906,142.027 190.573,141.027 190.5,139.5C 198.093,130.469 207.76,127.303 219.5,130C 228.178,132.678 234.345,138.178 238,146.5C 239.479,190.786 239.979,235.119 239.5,279.5C 237.5,279.5 235.5,279.5 233.5,279.5C 233.667,237.165 233.5,194.832 233,152.5C 228.13,137.981 218.296,132.814 203.5,137C 197.18,139.986 193.013,144.819 191,151.5C 190.5,194.165 190.333,236.832 190.5,279.5C 188.5,279.5 186.5,279.5 184.5,279.5C 184.333,236.165 184.5,192.832 185,149.5C 185.67,146.826 186.837,144.493 188.5,142.5 Z"/></g>
<g><path style="opacity:0.478" fill="#f7949b" d="M 250.5,129.5 C 251.906,129.973 252.573,130.973 252.5,132.5C 251.094,132.027 250.427,131.027 250.5,129.5 Z"/></g>
<g><path style="opacity:0.702" fill="#f9959a" d="M 183.5,132.5 C 183.573,134.027 182.906,135.027 181.5,135.5C 181.427,133.973 182.094,132.973 183.5,132.5 Z"/></g>
<g><path style="opacity:0.702" fill="#fba4a8" d="M 63.5,135.5 C 64.8333,136.167 65.8333,137.167 66.5,138.5C 64.5,138.5 63.5,137.5 63.5,135.5 Z"/></g>
<g><path style="opacity:0.592" fill="#f99399" d="M 84.5,135.5 C 84.1667,137.833 82.8333,139.167 80.5,139.5C 81.5,137.833 82.8333,136.5 84.5,135.5 Z"/></g>
<g><path style="opacity:0.975" fill="#eb4049" d="M 196.5,147.5 C 197.906,147.027 198.573,146.027 198.5,144.5C 207.553,136.515 216.72,136.515 226,144.5C 228.146,147.126 229.479,150.126 230,153.5C 230.5,195.499 230.667,237.499 230.5,279.5C 228.5,279.5 226.5,279.5 224.5,279.5C 224.667,238.165 224.5,196.832 224,155.5C 220.168,144.668 213.335,142.168 203.5,148C 201.898,149.935 200.731,152.101 200,154.5C 199.5,196.165 199.333,237.832 199.5,279.5C 197.5,279.5 195.5,279.5 193.5,279.5C 193.333,237.165 193.5,194.832 194,152.5C 194.374,150.509 195.207,148.842 196.5,147.5 Z"/></g>
<g><path style="opacity:0.478" fill="#f7969c" d="M 190.5,139.5 C 190.573,141.027 189.906,142.027 188.5,142.5C 188.427,140.973 189.094,139.973 190.5,139.5 Z"/></g>
<g><path style="opacity:0.478" fill="#f7989f" d="M 198.5,144.5 C 198.573,146.027 197.906,147.027 196.5,147.5C 196.427,145.973 197.094,144.973 198.5,144.5 Z"/></g>
<g><path style="opacity:0.975" fill="#eb3f48" d="M 205.5,151.5 C 207.027,151.573 208.027,150.906 208.5,149.5C 213.686,147.669 217.519,149.336 220,154.5C 220.5,196.165 220.667,237.832 220.5,279.5C 218.5,279.5 216.5,279.5 214.5,279.5C 214.667,238.832 214.5,198.165 214,157.5C 213.131,154.237 211.797,153.904 210,156.5C 209.5,197.499 209.333,238.499 209.5,279.5C 207.5,279.5 205.5,279.5 203.5,279.5C 203.333,237.832 203.5,196.165 204,154.5C 204.513,153.473 205.013,152.473 205.5,151.5 Z"/></g>
<g><path style="opacity:0.702" fill="#f89399" d="M 208.5,149.5 C 208.027,150.906 207.027,151.573 205.5,151.5C 205.973,150.094 206.973,149.427 208.5,149.5 Z"/></g>
<g><path style="opacity:0.702" fill="#f89298" d="M 30.5,157.5 C 31.9063,157.973 32.573,158.973 32.5,160.5C 31.0937,160.027 30.427,159.027 30.5,157.5 Z"/></g>
<g><path style="opacity:0.702" fill="#f89298" d="M 117.5,157.5 C 117.573,159.027 116.906,160.027 115.5,160.5C 115.427,158.973 116.094,157.973 117.5,157.5 Z"/></g>
<g><path style="opacity:0.702" fill="#f78185" d="M 113.5,162.5 C 111.833,166.167 109.167,168.833 105.5,170.5C 107.833,167.5 110.5,164.833 113.5,162.5 Z"/></g>
</svg>
